<?xml version="1.0" encoding="UTF-8"?>
<svg width="78px" height="79px" viewBox="0 0 78 79" version="1.1" xmlns="http://www.w3.org/2000/svg" xmlns:xlink="http://www.w3.org/1999/xlink">
    <!-- Generator: Sketch 52.3 (67297) - http://www.bohemiancoding.com/sketch -->
    <title>about market icon02</title>
    <desc>Created with Sketch.</desc>
    <g id="about-market-icon02" stroke="none" stroke-width="1" fill="none" fill-rule="evenodd">
        <ellipse id="Oval-10" stroke="#1BBFA4" stroke-width="3.68" fill-rule="nonzero" cx="39.7254186" cy="38.9031671" rx="19.4912165" ry="19.852165"></ellipse>
        <path d="M39.9962722,13.7944451 L39.9962722,3.11728712" id="Line-8" stroke="#1BBFA4" stroke-width="2.68" stroke-linecap="round" stroke-linejoin="round" fill-rule="nonzero"></path>
        <path d="M40.3316439,76.6503986 L40.3316439,64.9732403" id="Line-8" stroke="#1BBFA4" stroke-width="2.68" stroke-linecap="round" stroke-linejoin="round" fill-rule="nonzero"></path>
        <path d="M53.0599463,17.260943 L58.721145,7.04787025 L53.0599463,17.260943 Z" id="Line-8" stroke="#1BBFA4" stroke-width="2.68" stroke-linecap="round" stroke-linejoin="round" fill-rule="nonzero" transform="translate(55.890546, 12.154407) rotate(3.000000) translate(-55.890546, -12.154407) "></path>
        <path d="M20.3786676,70.9244471 L26.0398663,60.7113744 L20.3786676,70.9244471 Z" id="Line-8" stroke="#1BBFA4" stroke-width="2.68" stroke-linecap="round" stroke-linejoin="round" fill-rule="nonzero" transform="translate(23.209267, 65.817911) rotate(3.000000) translate(-23.209267, -65.817911) "></path>
        <path d="M61.7683225,51.6166883 L71.8810382,57.4552674 L61.7683225,51.6166883 Z" id="Line-8" stroke="#1BBFA4" stroke-width="2.68" stroke-linecap="round" stroke-linejoin="round" fill-rule="nonzero"></path>
        <path d="M7.53538711,19.9960345 L17.6481028,25.8346136 L7.53538711,19.9960345 Z" id="Line-8" stroke="#1BBFA4" stroke-width="2.68" stroke-linecap="round" stroke-linejoin="round" fill-rule="nonzero"></path>
        <path d="M52.7917353,61.9850453 L58.6303145,72.097761 L52.7917353,61.9850453 Z" id="Line-8" stroke="#1BBFA4" stroke-width="2.68" stroke-linecap="round" stroke-linejoin="round" fill-rule="nonzero"></path>
        <path d="M21.314484,6.97722181 L27.1530631,17.0899375 L21.314484,6.97722181 Z" id="Line-8" stroke="#1BBFA4" stroke-width="2.68" stroke-linecap="round" stroke-linejoin="round" fill-rule="nonzero"></path>
        <path d="M61.7683225,26.6202713 L71.8810382,20.7816922 L61.7683225,26.6202713 Z" id="Line-8" stroke="#1BBFA4" stroke-width="2.68" stroke-linecap="round" stroke-linejoin="round" fill-rule="nonzero"></path>
        <path d="M7.81973449,57.8555711 L17.9324502,52.0169919 L7.81973449,57.8555711 Z" id="Line-8" stroke="#1BBFA4" stroke-width="2.68" stroke-linecap="round" stroke-linejoin="round" fill-rule="nonzero"></path>
        <path d="M64.6879646,39.7161726 L76.3651228,39.7161726 L64.6879646,39.7161726 Z" id="Line-8" stroke="#1BBFA4" stroke-width="2.68" stroke-linecap="round" stroke-linejoin="round" fill-rule="nonzero"></path>
        <path d="M3.03135481,38.8089732 L14.7085131,38.8089732 L3.03135481,38.8089732 Z" id="Line-8" stroke="#1BBFA4" stroke-width="2.68" stroke-linecap="round" stroke-linejoin="round" fill-rule="nonzero"></path>
        <polygon id="Path-2" fill="#1BBFA4" fill-rule="nonzero" points="42.3652742 26 34 38.8298605 39.5712959 39.0137712 36.7364993 52.208 45.6074219 37.3269072 39.5712959 37.2786017"></polygon>
    </g>
</svg>