<?xml version="1.0" encoding="UTF-8"?>
<svg width="58px" height="58px" viewBox="0 0 58 58" version="1.1" xmlns="http://www.w3.org/2000/svg" xmlns:xlink="http://www.w3.org/1999/xlink">
    <!-- Generator: Sketch 52.3 (67297) - http://www.bohemiancoding.com/sketch -->
    <title>btn_fb_active</title>
    <desc>Created with Sketch.</desc>
    <g id="btn_fb_active" stroke="none" stroke-width="1" fill="none" fill-rule="evenodd">
        <circle id="Oval-3-Copy" stroke="#ECECEC" stroke-width="0.8" fill="#F5F5F5" cx="29" cy="29" r="29"></circle>
        <g id="icon_fb_f_pink" transform="translate(22.000000, 15.000000)" fill="#22DAD4">
            <path d="M13.4797181,9.22753191 C13.4102962,9.72985813 13.3466511,10.1993691 13.2802173,10.6685887 C13.1390826,11.6673189 13.0087049,12.6676024 12.8501401,13.6638083 C12.7406786,14.3517642 12.9321117,14.2754541 12.1565186,14.2769104 C11.2186755,14.278755 10.2808324,14.2772016 9.34288962,14.2773958 C8.97267265,14.2774929 8.97177624,14.2777842 8.97167664,14.6338008 C8.97147744,19.1643484 8.97157704,23.6948959 8.97157704,28.2254434 C8.97157704,28.5974794 8.97137784,28.5975765 8.59638002,28.5975765 C6.87836215,28.5976736 5.16024468,28.5931105 3.4422268,28.6027221 C3.19720831,28.6040813 3.1369497,28.5271887 3.1372485,28.2978701 C3.14332416,23.7430509 3.14183015,19.1882317 3.14173054,14.6334125 C3.14173054,14.2778813 3.14123254,14.2774929 2.77719084,14.2773958 C1.9472156,14.2772016 1.11714075,14.2712794 0.287265112,14.2814735 C0.0728241313,14.2840948 -0.00107982032,14.226037 0.000115391832,14.0084659 C0.00868107895,12.5037202 0.00878067997,10.9988775 1.57908187e-05,9.4941318 C-0.00127902235,9.27403641 0.0769077729,9.22102711 0.28895833,9.22345427 C1.13536774,9.23335711 1.98227515,9.2182116 2.82858496,9.23306585 C3.08704959,9.23753184 3.14900142,9.15267812 3.1469098,8.91297124 C3.13585409,7.66715562 3.14163094,6.42124291 3.14183015,5.1753302 C3.14202935,2.80330969 4.69998839,0.80118923 7.05286312,0.185951264 C7.47228299,0.0762433733 7.91779832,0.0186710025 8.35215834,0.0132341513 C9.96210911,-0.00666860762 11.5724583,0.010418639 13.1825087,3.03697645e-05 C13.432806,-0.00162010292 13.5085028,0.063525025 13.5065108,0.312260968 C13.4950566,1.79273497 13.4945586,3.27330606 13.5068096,4.75378006 C13.5090008,5.00960333 13.4208539,5.06300097 13.1776282,5.06037963 C12.0904832,5.04872924 11.0031389,5.05474861 9.91589424,5.0555253 C9.33043949,5.05601074 8.97874831,5.38173637 8.97426627,5.95250867 C8.96619859,6.9557048 8.97695549,7.95899802 8.9678918,8.96209707 C8.96589978,9.18520214 9.06231356,9.23160955 9.26699364,9.23063869 C10.5700737,9.22442514 11.8731538,9.22753191 13.1762338,9.22753191 L13.4797181,9.22753191" id="Fill-1"></path>
        </g>
    </g>
</svg>