<?xml version="1.0" encoding="UTF-8"?>
<svg width="98px" height="40px" viewBox="0 0 98 40" version="1.1" xmlns="http://www.w3.org/2000/svg" xmlns:xlink="http://www.w3.org/1999/xlink">
    <!-- Generator: Sketch 52.3 (67297) - http://www.bohemiancoding.com/sketch -->
    <title>btn_fb_share</title>
    <desc>Created with Sketch.</desc>
    <g id="btn_fb_share" stroke="none" stroke-width="1" fill="none" fill-rule="evenodd">
        <rect id="Rectangle-18" fill="#34599D" x="0" y="0" width="98" height="40" rx="20"></rect>
        <path d="M53.896,13.552 L55.304,14.128 C54.184,16.656 52.68,18.608 50.808,19.968 L49.608,18.928 C51.528,17.584 52.968,15.792 53.896,13.552 Z M56.856,13.36 L60.024,13.36 C60.856,15.568 62.328,17.344 64.408,18.688 L63.416,20.048 C61.464,18.736 60.008,16.992 59.032,14.848 L56.856,14.848 L56.856,13.36 Z M55.08,20.576 L52.136,20.576 L52.136,19.12 L61.752,19.12 C61.688,21.168 61.592,22.816 61.432,24.096 C61.272,25.344 61.016,26.224 60.648,26.72 C60.28,27.2 59.688,27.472 58.872,27.52 L55.832,27.52 L55.416,26.016 C56.36,26.048 57.256,26.08 58.104,26.08 C58.904,26.08 59.448,25.744 59.704,25.072 C59.96,24.368 60.136,22.864 60.216,20.576 L56.616,20.576 C56.232,22.24 55.72,23.568 55.08,24.56 C54.248,25.712 53.016,26.768 51.368,27.696 L50.392,26.432 C51.832,25.664 52.936,24.8 53.688,23.856 C54.28,23.008 54.744,21.92 55.08,20.576 Z M68.056,16.208 L77.96,16.208 L77.96,19.68 L68.056,19.68 L68.056,16.208 Z M76.488,18.384 L76.488,17.488 L69.528,17.488 L69.528,18.384 L76.488,18.384 Z M73.032,12.848 C73.256,13.216 73.464,13.632 73.672,14.08 L79.992,14.08 L79.992,15.504 L66.008,15.504 L66.008,14.08 L71.944,14.08 C71.736,13.728 71.512,13.408 71.272,13.12 L73.032,12.848 Z M65.656,23.424 L72.536,23.424 L72.536,22.96 L75.56,21.744 L67.208,21.744 L67.208,20.4 L78.6,20.4 L78.6,21.472 C77.288,22.048 75.752,22.672 74.024,23.344 L74.024,23.424 L80.344,23.424 L80.344,24.8 L74.024,24.8 L74.024,25.984 C74.024,27.088 73.48,27.648 72.408,27.648 L70.184,27.648 L69.784,26.272 C70.632,26.336 71.304,26.384 71.8,26.384 C72.28,26.384 72.536,26.096 72.536,25.552 L72.536,24.8 L65.656,24.8 L65.656,23.424 Z" id="分享" fill="#FFFFFF"></path>
        <g id="Group-8" transform="translate(18.000000, 8.000000)" fill="#FFFFFF">
            <path d="M16.6422371,24 C16.6422231,21.4108156 16.6421958,18.8216313 16.6423164,16.2324469 C16.6423901,15.9835081 16.6430538,15.9833044 16.9171495,15.9832365 C17.6115696,15.9831008 18.3059159,15.9841869 19.0002623,15.9828971 C19.5744843,15.9818788 19.4327539,16.0352374 19.5137954,15.5541955 C19.6311913,14.8576147 19.7277184,14.1581828 19.8322095,13.459837 C19.8813949,13.1317427 19.9285154,12.8034449 19.979913,12.4522014 L19.7552238,12.4522014 C18.7904688,12.4522014 17.8257138,12.4500291 16.8609588,12.4543738 C16.7094208,12.4550527 16.6380394,12.422603 16.6395142,12.2666004 C16.6462247,11.5651998 16.6382606,10.8636633 16.6442336,10.1621948 C16.647552,9.76309153 16.9079319,9.53533318 17.3413821,9.53499375 C18.1463402,9.53445066 18.9513719,9.53024171 19.7562562,9.53838806 C19.936332,9.54022099 20.0015929,9.50288355 19.9999706,9.3240033 C19.9909004,8.28880596 19.9912691,7.25354074 19.9997493,6.2183434 C20.0012242,6.04441884 19.9451809,5.99886717 19.7598695,6.00002124 C18.5678444,6.00728506 17.375598,5.99533708 16.1836466,6.00925376 C15.8620616,6.01305539 15.5322176,6.05331194 15.2216938,6.13002339 C13.4797074,6.56021852 12.3262489,7.96016865 12.3261014,9.61876537 C12.3259539,10.4899495 12.321677,11.3611337 12.3298622,12.23225 C12.3314108,12.3998611 12.2855438,12.4591937 12.0941856,12.4560709 C11.4676074,12.4456844 10.8405867,12.4562746 10.2139347,12.4493502 C10.0569398,12.4476531 9.99905306,12.4847189 10.0000117,12.6386171 C10.0065009,13.690786 10.0064272,14.7430227 10.0000854,15.7951916 C9.99920054,15.9473247 10.0539164,15.9879207 10.2126811,15.9860878 C10.827092,15.9789597 11.4416505,15.9831008 12.0561352,15.9832365 C12.325659,15.9833044 12.3260277,15.983576 12.3260277,16.2321754 C12.3260876,18.8214503 12.3268299,21.4107251 12.3246884,24 L5,24 C2.23857625,24 2.11453371e-15,21.7614237 1.77635684e-15,19 L0,5 C-3.38176876e-16,2.23857625 2.23857625,2.28362215e-15 5,1.77635684e-15 L19,0 C21.7614237,-5.07265313e-16 24,2.23857625 24,5 L24,19 C24,21.7614237 21.7614237,24 19,24 L16.6422371,24 Z" id="Combined-Shape"></path>
        </g>
    </g>
</svg>