<?xml version="1.0" encoding="UTF-8"?>
<svg width="58px" height="58px" viewBox="0 0 58 58" version="1.1" xmlns="http://www.w3.org/2000/svg" xmlns:xlink="http://www.w3.org/1999/xlink">
    <!-- Generator: Sketch 52.3 (67297) - http://www.bohemiancoding.com/sketch -->
    <title>btn_line_active</title>
    <desc>Created with Sketch.</desc>
    <g id="btn_line_active" stroke="none" stroke-width="1" fill="none" fill-rule="evenodd">
        <circle id="Oval-3" stroke="#ECECEC" stroke-width="0.8" fill="#F5F5F5" cx="29" cy="29" r="29"></circle>
        <g id="icon_line_pink" transform="translate(11.000000, 11.000000)" fill="#22DAD4">
            <path d="M14.3979422,15.0619096 L14.3744147,15.0619096 C14.3744147,13.8756947 14.3792336,12.6891823 14.3724304,11.503265 C14.3684619,10.8103393 13.9993911,10.3720914 13.447769,10.3774468 C12.8927454,10.3825046 12.5279265,10.8222402 12.5256588,11.5184385 C12.5174383,13.8590336 12.5137533,16.1993311 12.5134698,18.5399261 C12.5134698,19.2486203 12.8916115,19.6966864 13.4656273,19.6937112 C14.0413438,19.6910336 14.3939737,19.2545707 14.3968084,18.5247526 C14.4010603,17.3703724 14.3979422,16.2162897 14.3979422,15.0619096 Z M8.16115483,17.7446534 C8.16115483,17.502174 8.16143829,17.3138435 8.16087137,17.1258104 C8.15746979,15.2332815 8.16200522,13.3413476 8.14556428,11.4491162 C8.13961152,10.7892154 7.7509816,10.3711988 7.21069814,10.3723889 C6.68827294,10.373579 6.28405247,10.7901079 6.28036743,11.4083559 C6.26591074,13.829579 6.26279263,16.2510997 6.27356428,18.6723228 C6.27639892,19.3289509 6.66672963,19.698174 7.29715483,19.7014468 C8.42761152,19.7073972 9.55835168,19.7065046 10.6888084,19.6996617 C10.8367769,19.6987691 10.9966509,19.6743724 11.1304462,19.6118931 C11.5326824,19.4235625 11.7546351,18.9683559 11.6718635,18.553017 C11.5803044,18.0936451 11.1950761,17.754174 10.716021,17.7476286 C9.88008396,17.7363228 9.04386349,17.7446534 8.16115483,17.7446534 Z M26.023958,12.3419757 C26.8910761,12.3419757 27.7148241,12.3559592 28.5382887,12.3375129 C29.1032336,12.3247195 29.4955485,11.9263393 29.5139737,11.4021079 C29.5338162,10.8344385 29.1698477,10.3753641 28.5946981,10.3619757 C27.4027296,10.3343063 26.2093438,10.3357939 25.0176588,10.3676286 C24.4855958,10.3816121 24.128147,10.7799922 24.1244619,11.3345707 C24.107454,13.8054798 24.1029186,16.276984 24.1148241,18.7484881 C24.1176588,19.3289509 24.5071391,19.6951988 25.0610288,19.6999592 C26.2382572,19.7091823 27.4154855,19.7082897 28.5929974,19.7014468 C29.1131548,19.698174 29.5043359,19.302174 29.5264462,18.7856782 C29.5502572,18.2251493 29.1616273,17.7583393 28.6063202,17.7407856 C27.9036115,17.718174 27.199769,17.7357278 26.4964934,17.7360253 L26.0293438,17.7360253 L26.0293438,16.0309344 C26.9078005,16.0309344 27.7474225,16.0401575 28.5867611,16.0267691 C29.0071391,16.0202236 29.2993911,15.7938104 29.4550131,15.3731162 C29.600147,14.9806864 29.5241785,14.6028352 29.2392966,14.3651162 C29.0218792,14.1833311 28.6944777,14.0800914 28.4101627,14.0661079 C27.6212808,14.0268352 26.8295643,14.052422 26.023958,14.052422 L26.023958,12.3419757 Z M21.0176903,15.7087195 C20.9859422,15.7206203 20.9544777,15.7325212 20.9230131,15.7441245 C20.8575328,15.6590336 20.7889344,15.5760253 20.7271391,15.4879592 C19.6672651,13.9783393 18.6096588,12.4675294 17.5486509,10.9593972 C17.1770288,10.4315955 16.7844304,10.2634964 16.3405249,10.4271327 C15.9124934,10.5848187 15.7169029,10.9454137 15.7149186,11.5898435 C15.7086824,13.8855129 15.7013123,16.1811823 15.6987611,18.4771493 C15.6979107,19.244455 16.047706,19.6937112 16.6364619,19.7038269 C17.2592336,19.7142402 17.6019422,19.2831327 17.603643,18.4700088 C17.6053438,17.6994302 17.5962729,16.9285542 17.5940052,16.1582732 C17.5923044,15.5543063 17.5934383,14.9506369 17.5934383,14.23986 C17.7167454,14.3954633 17.7745722,14.4609178 17.8250288,14.5326203 C18.9041785,16.0663393 19.9813438,17.6018435 21.0621942,19.1343724 C21.4136903,19.632422 21.8147926,19.8118269 22.2348871,19.675265 C22.6824777,19.5297774 22.8950761,19.1528187 22.8950761,18.4842897 C22.8942257,16.1722567 22.8911076,13.8602236 22.8871391,11.5481906 C22.8860052,10.8329509 22.5206194,10.3634633 21.9553911,10.3649509 C21.3864777,10.3664385 20.9808399,10.9120914 21.0023832,11.5300418 C21.0508556,12.9212484 21.0176903,14.3154302 21.0176903,15.7087195 Z M17.8899422,0.00141371683 C22.4423832,0.0448517334 26.627454,1.29949636 30.2671391,4.25119884 C32.8820997,6.37222363 34.7606194,9.0487195 35.4820367,12.4865707 C36.2286824,16.0440253 35.5004619,19.3119922 33.5666666,22.3118931 C32.100021,24.5873311 30.1670761,26.3813807 28.1726194,28.1117608 C24.9966824,30.8670997 21.5885879,33.262736 17.9610918,35.3129509 C17.6932178,35.4643889 17.4208084,35.6485542 17.1311076,35.7015129 C16.8581312,35.7514964 16.4502257,35.754174 16.3011233,35.5845873 C16.1296273,35.3894137 16.0896588,34.9633641 16.1474855,34.6711988 C16.283832,33.9848187 16.540084,33.3249178 16.6937218,32.6409178 C16.7946351,32.1925542 16.8343202,31.721579 16.8416903,31.2598269 C16.8521785,30.612422 16.5420682,30.3071658 15.920147,30.2479592 C12.0307296,29.8790336 8.47126507,28.5770831 5.37724932,26.0356617 C2.58002097,23.7379096 0.703485539,20.8019757 0.151013098,17.0743393 C-0.386719185,13.447265 0.527737507,10.1685873 2.63699735,7.27281868 C5.22361152,3.72190958 8.73602097,1.68419058 12.8068556,0.61936413 C14.4722099,0.183793882 16.1693123,-0.0191152088 17.8899422,0.00141371683 Z" id="Fill-1"></path>
        </g>
    </g>
</svg>