<?xml version="1.0" encoding="UTF-8"?>
<svg width="160px" height="40px" viewBox="0 0 160 40" version="1.1" xmlns="http://www.w3.org/2000/svg" xmlns:xlink="http://www.w3.org/1999/xlink">
    <!-- Generator: Sketch 52.3 (67297) - http://www.bohemiancoding.com/sketch -->
    <title>btn_line share</title>
    <desc>Created with Sketch.</desc>
    <g id="btn_line-share" stroke="none" stroke-width="1" fill="none" fill-rule="evenodd">
        <rect id="Rectangle-18" fill="#00C800" x="0" y="0" width="160" height="40" rx="20"></rect>
        <g id="icon_line" transform="translate(13.000000, 9.000000)" fill="#FFFFFF">
            <path d="M9.27171984,9.28121333 L9.25656905,9.28121333 C9.25656905,8.55026333 9.25967222,7.81913 9.25529127,7.08836333 C9.25273571,6.66138 9.01506905,6.39133 8.65984683,6.39463 C8.30243413,6.39774667 8.06750556,6.66871333 8.06604524,7.09771333 C8.06075159,8.53999667 8.05837857,9.98209667 8.05819603,11.42438 C8.05819603,11.86108 8.30170397,12.13718 8.67134683,12.1353467 C9.04208492,12.1336967 9.26916429,11.8647467 9.27098968,11.41503 C9.27372778,10.7036967 9.27171984,9.99254667 9.27171984,9.28121333 Z M5.25548175,10.93433 C5.25548175,10.7849133 5.25566429,10.6688633 5.25529921,10.5529967 C5.25310873,9.38681333 5.25602937,8.22099667 5.24544206,7.05499667 C5.24160873,6.64836333 4.99134683,6.39078 4.64342619,6.39151333 C4.30700556,6.39224667 4.04670397,6.64891333 4.04433095,7.02988 C4.03502143,8.52184667 4.03301349,10.0139967 4.03995,11.5059633 C4.0417754,11.91058 4.29313254,12.1380967 4.69910079,12.1401133 C5.42706905,12.14378 6.15521984,12.14323 6.8831881,12.1390133 C6.97847381,12.1384633 7.08142619,12.12343 7.16758492,12.08493 C7.42660873,11.96888 7.5695373,11.68838 7.51623571,11.4324467 C7.4572754,11.14938 7.20920397,10.9401967 6.9007119,10.9361633 C6.36240238,10.9291967 5.82391032,10.93433 5.25548175,10.93433 Z M16.7584024,7.60518 C17.3167913,7.60518 17.8472516,7.61379667 18.3775294,7.60243 C18.741331,7.59454667 18.9939659,7.34906333 19.005831,7.02603 C19.0186087,6.67623 18.7842278,6.39334667 18.4138548,6.38509667 C17.6462754,6.36804667 16.8777833,6.36896333 16.1103865,6.38858 C15.7677595,6.39719667 15.537577,6.64268 15.535204,6.98441333 C15.5242516,8.50699667 15.521331,10.0299467 15.5289976,11.5528967 C15.530823,11.91058 15.7816325,12.1362633 16.1383151,12.1391967 C16.8964024,12.14488 17.6544897,12.14433 18.4127595,12.1401133 C18.7477198,12.1380967 18.9996246,11.89408 19.0138627,11.5758133 C19.029196,11.2304133 18.7789341,10.9427633 18.4213389,10.9319467 C17.968823,10.9180133 17.515577,10.92883 17.062696,10.9290133 L16.7618706,10.9290133 L16.7618706,9.87833 C17.3275611,9.87833 17.8682437,9.88401333 18.4087437,9.87576333 C18.67945,9.87173 18.8676484,9.73221333 18.9678627,9.47298 C19.061323,9.23116333 19.0124024,8.99833 18.82895,8.85184667 C18.6889421,8.73983 18.4781087,8.67621333 18.2950214,8.66759667 C17.7870135,8.64339667 17.2771802,8.65916333 16.7584024,8.65916333 L16.7584024,7.60518 Z M13.534569,9.67978 C13.5141246,9.68711333 13.4938627,9.69444667 13.4736008,9.70159667 C13.4314341,9.64916333 13.3872595,9.59801333 13.3474659,9.54374667 C12.66495,8.61351333 11.9838944,7.68254667 11.3006484,6.75323 C11.0613389,6.42799667 10.8085214,6.32441333 10.5226643,6.42524667 C10.2470294,6.52241333 10.121077,6.74461333 10.1197992,7.14171333 C10.1157833,8.55631333 10.1110373,9.97091333 10.1093944,11.3856967 C10.1088468,11.8585133 10.3341008,12.1353467 10.7132357,12.14158 C11.1142754,12.1479967 11.3349659,11.8823467 11.3360611,11.3812967 C11.3371563,10.9064633 11.3313151,10.4314467 11.3298548,9.95679667 C11.3287595,9.58463 11.3294897,9.21264667 11.3294897,8.77466333 C11.4088944,8.87054667 11.4461325,8.91088 11.4786246,8.95506333 C12.1735532,9.90014667 12.867204,10.84633 13.5632278,11.79068 C13.789577,12.09758 14.0478706,12.20813 14.3183944,12.12398 C14.6066246,12.03433 14.7435294,11.8020467 14.7435294,11.3900967 C14.7429817,9.96541333 14.7409738,8.54073 14.7384183,7.11604667 C14.7376881,6.67531333 14.5023944,6.38601333 14.1384103,6.38693 C13.7720532,6.38784667 13.5108389,6.72408 13.5247119,7.10486333 C13.5559262,7.96213 13.534569,8.82123 13.534569,9.67978 Z M11.5204262,0.00088 C14.4520135,0.0276466667 17.1470294,0.800763333 19.4908389,2.61961333 C21.1747675,3.92659667 22.3844579,5.57586333 22.8490214,7.69428 C23.329831,9.88639667 22.8608865,11.90013 21.6156008,13.74868 C20.6711405,15.1508133 19.4264024,16.2563133 18.1420532,17.32258 C16.0968786,19.02043 13.902204,20.49663 11.5662437,21.75998 C11.3937437,21.8532967 11.218323,21.96678 11.0317675,21.9994133 C10.8559817,22.0302133 10.5933071,22.0318633 10.4972913,21.9273633 C10.3868548,21.8070967 10.3611167,21.5445633 10.3983548,21.36453 C10.4861563,20.94158 10.6511722,20.5349467 10.7501087,20.1134633 C10.8150929,19.83718 10.8406484,19.5469633 10.8453944,19.26243 C10.8521484,18.8634967 10.65245,18.6753967 10.2519579,18.6389133 C7.74733095,18.41158 5.45518016,17.6093133 3.46275952,16.04328 C1.66145794,14.6273967 0.453045238,12.8182633 0.0972753968,10.52128 C-0.249002381,8.28626333 0.339870635,6.26593 1.69814841,4.48154667 C3.36382302,2.29346333 5.62567222,1.03781333 8.2471246,0.381663333 C9.31954524,0.113263333 10.4124103,-0.01177 11.5204262,0.00088 Z" id="Fill-1"></path>
        </g>
        <path d="M52.616,18.688 L52.616,21.136 L56.296,21.136 L56.296,18.688 L52.616,18.688 Z M52.536,22.544 C52.344,24.56 51.752,26.224 50.76,27.536 L49.592,26.496 C50.552,25.12 51.048,23.376 51.08,21.264 L51.08,13.424 L63.352,13.424 L63.352,25.472 C63.352,26.672 62.728,27.28 61.512,27.28 L59.672,27.28 L59.272,25.792 C59.896,25.84 60.472,25.872 61.016,25.872 C61.528,25.872 61.8,25.552 61.8,24.928 L61.8,22.544 L57.832,22.544 L57.832,27.104 L56.296,27.104 L56.296,22.544 L52.536,22.544 Z M61.8,21.136 L61.8,18.688 L57.832,18.688 L57.832,21.136 L61.8,21.136 Z M61.8,17.296 L61.8,14.896 L57.832,14.896 L57.832,17.296 L61.8,17.296 Z M56.296,14.896 L52.616,14.896 L52.616,17.296 L56.296,17.296 L56.296,14.896 Z M71.448,14.576 L73.176,14.576 L73.176,24.512 L79.464,24.512 L79.464,26 L71.448,26 L71.448,14.576 Z M80.936,14.576 L82.664,14.576 L82.664,26 L80.936,26 L80.936,14.576 Z M84.936,14.576 L86.696,14.576 L92.536,23.072 L92.6,23.072 L92.6,14.576 L94.344,14.576 L94.344,26 L92.648,26 L86.744,17.408 L86.68,17.408 L86.68,26 L84.936,26 L84.936,14.576 Z M96.6,14.576 L104.808,14.576 L104.808,16.064 L98.344,16.064 L98.344,19.392 L104.424,19.392 L104.424,20.88 L98.344,20.88 L98.344,24.512 L105.08,24.512 L105.08,26 L96.6,26 L96.6,14.576 Z M115.96,13.552 L117.368,14.128 C116.248,16.656 114.744,18.608 112.872,19.968 L111.672,18.928 C113.592,17.584 115.032,15.792 115.96,13.552 Z M118.92,13.36 L122.088,13.36 C122.92,15.568 124.392,17.344 126.472,18.688 L125.48,20.048 C123.528,18.736 122.072,16.992 121.096,14.848 L118.92,14.848 L118.92,13.36 Z M117.144,20.576 L114.2,20.576 L114.2,19.12 L123.816,19.12 C123.752,21.168 123.656,22.816 123.496,24.096 C123.336,25.344 123.08,26.224 122.712,26.72 C122.344,27.2 121.752,27.472 120.936,27.52 L117.896,27.52 L117.48,26.016 C118.424,26.048 119.32,26.08 120.168,26.08 C120.968,26.08 121.512,25.744 121.768,25.072 C122.024,24.368 122.2,22.864 122.28,20.576 L118.68,20.576 C118.296,22.24 117.784,23.568 117.144,24.56 C116.312,25.712 115.08,26.768 113.432,27.696 L112.456,26.432 C113.896,25.664 115,24.8 115.752,23.856 C116.344,23.008 116.808,21.92 117.144,20.576 Z M130.12,16.208 L140.024,16.208 L140.024,19.68 L130.12,19.68 L130.12,16.208 Z M138.552,18.384 L138.552,17.488 L131.592,17.488 L131.592,18.384 L138.552,18.384 Z M135.096,12.848 C135.32,13.216 135.528,13.632 135.736,14.08 L142.056,14.08 L142.056,15.504 L128.072,15.504 L128.072,14.08 L134.008,14.08 C133.8,13.728 133.576,13.408 133.336,13.12 L135.096,12.848 Z M127.72,23.424 L134.6,23.424 L134.6,22.96 L137.624,21.744 L129.272,21.744 L129.272,20.4 L140.664,20.4 L140.664,21.472 C139.352,22.048 137.816,22.672 136.088,23.344 L136.088,23.424 L142.408,23.424 L142.408,24.8 L136.088,24.8 L136.088,25.984 C136.088,27.088 135.544,27.648 134.472,27.648 L132.248,27.648 L131.848,26.272 C132.696,26.336 133.368,26.384 133.864,26.384 C134.344,26.384 134.6,26.096 134.6,25.552 L134.6,24.8 L127.72,24.8 L127.72,23.424 Z" id="用-LINE-分享" fill="#FFFFFF"></path>
    </g>
</svg>