<?xml version="1.0" encoding="UTF-8"?>
<svg width="220px" height="60px" viewBox="0 0 220 60" version="1.1" xmlns="http://www.w3.org/2000/svg" xmlns:xlink="http://www.w3.org/1999/xlink">
    <!-- Generator: Sketch 52.3 (67297) - http://www.bohemiancoding.com/sketch -->
    <title>btn_fb_in</title>
    <desc>Created with Sketch.</desc>
    <g id="btn_fb_in" stroke="none" stroke-width="1" fill="none" fill-rule="evenodd">
        <rect id="Rectangle" fill="#34599D" fill-rule="nonzero" x="0" y="0" width="220" height="60" rx="11"></rect>
        <g id="Group" transform="translate(21.000000, 16.000000)" fill="#FFFFFF">
            <path d="M13.9718782,9.35569208 C13.8999216,9.86499505 13.8339528,10.341027 13.7650933,10.8167636 C13.6188057,11.829365 13.4836678,12.8435414 13.3193136,13.8535834 C13.2058555,14.5510942 13.4042781,14.4737243 12.6003672,14.4752008 C11.6282823,14.4770711 10.6561974,14.4754961 9.68400932,14.475693 C9.3002753,14.4757914 9.29934617,14.4760867 9.29924293,14.8370481 C9.29903645,19.4305199 9.29913969,24.0239917 9.29913969,28.6174635 C9.29913969,28.9946666 9.29893322,28.994765 8.9102438,28.994765 C7.1294991,28.9948635 5.34865117,28.990237 3.56790648,28.9999821 C3.31394208,29.0013602 3.25148336,28.9233996 3.25179307,28.690896 C3.25809056,24.0728155 3.256542,19.4547349 3.25643876,14.8366543 C3.25643876,14.4761852 3.25592257,14.4757914 2.87858929,14.475693 C2.01831069,14.4754961 1.15792885,14.4694916 0.297753494,14.4798273 C0.0754830246,14.482485 -0.00111924581,14.4236208 0.000119604921,14.2030279 C0.00899803518,12.677383 0.00910127274,11.1516396 1.63673597e-05,9.62599474 C-0.00132572094,9.40284247 0.0797157646,9.34909693 0.299508532,9.35155781 C1.17682133,9.36159818 2.05465031,9.34624231 2.93185987,9.36130288 C3.19976134,9.36583089 3.2639751,9.27979865 3.26180711,9.0367625 C3.25034774,7.77364389 3.25633552,6.51042684 3.256542,5.24720979 C3.25674847,2.84224455 4.8715904,0.812316858 7.31037131,0.18853392 C7.74510468,0.0773023091 8.20688629,0.018930322 8.6571053,0.0134179589 C10.3258372,-0.00676122717 11.9949821,0.0105633424 13.6638173,3.07915668e-05 C13.9232533,-0.00164260435 14.0017138,0.064407317 13.9996491,0.316597926 C13.9877768,1.81763407 13.9872606,3.31876864 13.9999588,4.81980478 C14.00223,5.07918115 13.9108648,5.13332043 13.6587587,5.13066268 C12.5319207,5.11885048 11.4048762,5.12495345 10.277935,5.12574093 C9.67110462,5.12623311 9.30657279,5.45648271 9.3019271,6.0351824 C9.29356486,7.05231181 9.30471452,8.06953966 9.2953199,9.08657064 C9.29325515,9.3127744 9.39318911,9.35982635 9.6053423,9.358842 C10.9559993,9.35254216 12.3066563,9.35569208 13.6573133,9.35569208 L13.9718782,9.35569208" id="Fill-1-Copy"></path>
            <path d="M29.423,7.86 L33.851,7.86 L33.851,6.222 L35.741,6.222 L35.741,7.86 L40.529,7.86 L40.529,9.642 L35.741,9.642 L35.741,10.938 L39.863,10.938 L39.863,16.41 L35.651,16.41 C35.507,17.814 35.255,18.93 34.859,19.758 C36.533,20.604 38.459,21.09 40.619,21.198 L40.169,22.998 C37.757,22.836 35.633,22.242 33.797,21.234 C32.807,22.134 31.295,22.71 29.279,22.98 L28.469,21.27 C30.071,21.144 31.295,20.766 32.123,20.136 C31.169,19.416 30.305,18.588 29.549,17.652 L30.989,16.662 C31.655,17.472 32.393,18.174 33.203,18.75 C33.473,18.138 33.653,17.346 33.761,16.41 L29.891,16.41 L29.891,10.938 L33.851,10.938 L33.851,9.642 L29.423,9.642 L29.423,7.86 Z M38.099,14.736 L38.099,12.612 L35.741,12.612 L35.741,14.736 L38.099,14.736 Z M33.851,14.736 L33.851,12.612 L31.655,12.612 L31.655,14.736 L33.851,14.736 Z M25.805,13.62 C25.355,14.196 24.887,14.736 24.383,15.276 L23.771,13.278 C25.499,11.226 26.777,8.832 27.605,6.06 L29.387,6.888 C28.955,8.256 28.397,9.552 27.695,10.812 L27.695,22.908 L25.805,22.908 L25.805,13.62 Z M45.425,12.864 L45.425,15.456 L49.385,15.456 L49.385,12.864 L45.425,12.864 Z M45.335,17.184 C45.101,19.416 44.435,21.288 43.337,22.764 L41.897,21.468 C42.959,19.956 43.499,18.03 43.535,15.69 L43.535,6.78 L57.485,6.78 L57.485,20.37 C57.485,21.756 56.765,22.458 55.343,22.458 L53.273,22.458 L52.769,20.622 C53.489,20.694 54.137,20.73 54.749,20.73 C55.289,20.73 55.577,20.37 55.577,19.686 L55.577,17.184 L51.293,17.184 L51.293,22.26 L49.385,22.26 L49.385,17.184 L45.335,17.184 Z M55.577,15.456 L55.577,12.864 L51.293,12.864 L51.293,15.456 L55.577,15.456 Z M55.577,11.136 L55.577,8.616 L51.293,8.616 L51.293,11.136 L55.577,11.136 Z M49.385,8.616 L45.425,8.616 L45.425,11.136 L49.385,11.136 L49.385,8.616 Z M60.527,8.148 L69.293,8.148 L69.293,9.948 L62.633,9.948 L62.633,13.512 L68.915,13.512 L68.915,15.312 L62.633,15.312 L62.633,21 L60.527,21 L60.527,8.148 Z M75.053,11.442 C76.421,11.442 77.447,11.784 78.095,12.468 C78.671,13.062 78.959,13.926 78.959,15.06 L78.959,21 L77.051,21 L77.051,19.776 C76.691,20.244 76.241,20.586 75.719,20.838 C75.125,21.108 74.423,21.252 73.613,21.252 C72.641,21.252 71.885,21 71.327,20.514 C70.751,20.01 70.463,19.38 70.463,18.606 C70.463,17.562 70.859,16.752 71.687,16.194 C72.443,15.654 73.505,15.366 74.873,15.33 L76.907,15.276 L76.907,14.916 C76.907,13.692 76.241,13.098 74.909,13.098 C74.333,13.098 73.883,13.188 73.541,13.404 C73.145,13.638 72.875,13.998 72.767,14.484 L70.733,14.322 C70.931,13.296 71.435,12.54 72.245,12.072 C72.929,11.64 73.865,11.442 75.053,11.442 Z M76.907,16.752 L75.017,16.806 C73.379,16.842 72.569,17.418 72.569,18.534 C72.569,18.858 72.695,19.128 72.983,19.344 C73.271,19.56 73.631,19.686 74.081,19.686 C74.873,19.686 75.539,19.452 76.079,19.002 C76.619,18.534 76.907,17.94 76.907,17.22 L76.907,16.752 Z M85.295,11.442 C86.501,11.442 87.455,11.712 88.175,12.252 C88.913,12.828 89.381,13.692 89.561,14.862 L87.527,14.862 C87.401,14.268 87.149,13.836 86.789,13.548 C86.411,13.26 85.907,13.116 85.295,13.116 C84.539,13.116 83.945,13.386 83.513,13.962 C83.081,14.52 82.865,15.312 82.865,16.32 C82.865,17.346 83.063,18.156 83.495,18.732 C83.891,19.29 84.485,19.578 85.277,19.578 C86.645,19.578 87.401,18.894 87.563,17.544 L89.597,17.544 C89.381,18.804 88.895,19.74 88.157,20.352 C87.437,20.946 86.465,21.252 85.259,21.252 C83.819,21.252 82.703,20.784 81.911,19.848 C81.137,18.948 80.759,17.778 80.759,16.338 C80.759,14.934 81.137,13.782 81.893,12.9 C82.703,11.928 83.837,11.442 85.295,11.442 Z M95.177,11.442 C96.707,11.442 97.877,11.946 98.687,12.99 C99.425,13.926 99.803,15.24 99.803,16.914 L92.837,16.914 C92.909,17.778 93.143,18.444 93.539,18.894 C93.935,19.344 94.511,19.578 95.249,19.578 C95.879,19.578 96.383,19.434 96.779,19.146 C97.085,18.912 97.355,18.534 97.607,18.012 L99.659,18.012 C99.443,18.876 99.011,19.614 98.363,20.19 C97.535,20.892 96.509,21.252 95.267,21.252 C93.881,21.252 92.783,20.82 91.973,19.974 C91.109,19.092 90.677,17.886 90.677,16.338 C90.677,14.952 91.073,13.8 91.901,12.864 C92.693,11.91 93.791,11.442 95.177,11.442 Z M95.231,13.116 C94.547,13.116 94.025,13.296 93.629,13.692 C93.251,14.07 92.999,14.628 92.873,15.366 L97.661,15.366 C97.481,13.854 96.671,13.116 95.231,13.116 Z M101.423,7.896 L103.475,7.896 L103.475,12.972 C104.231,11.946 105.167,11.442 106.247,11.442 C107.579,11.442 108.623,11.928 109.397,12.9 C110.099,13.8 110.459,14.934 110.459,16.302 C110.459,17.724 110.099,18.894 109.379,19.794 C108.587,20.766 107.507,21.252 106.139,21.252 C104.915,21.252 103.979,20.838 103.331,20.01 L103.331,21 L101.423,21 L101.423,7.896 Z M105.761,13.098 C105.095,13.098 104.555,13.368 104.123,13.908 C103.637,14.484 103.403,15.276 103.403,16.266 L103.403,16.41 C103.403,17.31 103.583,18.066 103.979,18.642 C104.411,19.272 105.023,19.596 105.833,19.596 C106.733,19.596 107.399,19.272 107.831,18.624 C108.173,18.084 108.353,17.31 108.353,16.302 C108.353,15.294 108.155,14.538 107.795,14.016 C107.363,13.404 106.679,13.098 105.761,13.098 Z M116.579,11.442 C117.983,11.442 119.117,11.892 119.981,12.828 C120.827,13.746 121.259,14.916 121.259,16.356 C121.259,17.778 120.827,18.948 119.999,19.848 C119.135,20.784 117.983,21.252 116.579,21.252 C115.157,21.252 114.023,20.784 113.159,19.848 C112.313,18.948 111.899,17.778 111.899,16.356 C111.899,14.916 112.313,13.746 113.177,12.828 C114.023,11.892 115.157,11.442 116.579,11.442 Z M116.579,13.116 C115.715,13.116 115.067,13.44 114.599,14.124 C114.203,14.7 114.005,15.456 114.005,16.356 C114.005,17.256 114.203,17.994 114.599,18.57 C115.067,19.236 115.715,19.578 116.579,19.578 C117.425,19.578 118.091,19.236 118.559,18.57 C118.955,17.976 119.171,17.238 119.171,16.356 C119.171,15.456 118.955,14.7 118.559,14.124 C118.091,13.44 117.425,13.116 116.579,13.116 Z M127.379,11.442 C128.783,11.442 129.917,11.892 130.781,12.828 C131.627,13.746 132.059,14.916 132.059,16.356 C132.059,17.778 131.627,18.948 130.799,19.848 C129.935,20.784 128.783,21.252 127.379,21.252 C125.957,21.252 124.823,20.784 123.959,19.848 C123.113,18.948 122.699,17.778 122.699,16.356 C122.699,14.916 123.113,13.746 123.977,12.828 C124.823,11.892 125.957,11.442 127.379,11.442 Z M127.379,13.116 C126.515,13.116 125.867,13.44 125.399,14.124 C125.003,14.7 124.805,15.456 124.805,16.356 C124.805,17.256 125.003,17.994 125.399,18.57 C125.867,19.236 126.515,19.578 127.379,19.578 C128.225,19.578 128.891,19.236 129.359,18.57 C129.755,17.976 129.971,17.238 129.971,16.356 C129.971,15.456 129.755,14.7 129.359,14.124 C128.891,13.44 128.225,13.116 127.379,13.116 Z M133.859,7.896 L135.911,7.896 L135.911,15.384 L139.727,11.694 L142.373,11.694 L138.251,15.546 L142.733,21 L140.105,21 L136.847,16.86 L135.911,17.742 L135.911,21 L133.859,21 L133.859,7.896 Z M146.567,13.746 L156.971,13.746 L156.971,18.426 L146.567,18.426 L146.567,13.746 Z M155.081,16.77 L155.081,15.384 L148.457,15.384 L148.457,16.77 L155.081,16.77 Z M148.583,18.534 C149.159,19.128 149.681,19.83 150.149,20.622 L153.551,20.622 C154.055,19.938 154.487,19.218 154.865,18.48 L156.611,19.11 C156.287,19.65 155.945,20.154 155.585,20.622 L159.509,20.622 L159.509,22.404 L143.921,22.404 L143.921,20.622 L148.151,20.622 C147.773,20.118 147.323,19.65 146.819,19.2 L148.583,18.534 Z M145.757,8.616 C146.585,9.228 147.323,9.822 147.935,10.398 C148.565,9.786 149.069,9.138 149.465,8.454 L145.379,8.454 L145.379,6.726 L151.589,6.726 L151.589,8.13 C151.175,9.174 150.617,10.11 149.915,10.938 L154.379,10.938 C153.299,9.75 152.435,8.472 151.805,7.068 L153.371,6.204 C153.659,6.87 154.001,7.5 154.397,8.094 C155.027,7.59 155.567,7.05 156.017,6.474 L157.331,7.644 C156.791,8.292 156.143,8.904 155.405,9.444 C155.693,9.804 156.017,10.128 156.377,10.452 C157.133,9.876 157.763,9.228 158.303,8.526 L159.617,9.678 C159.077,10.362 158.429,10.992 157.709,11.55 C158.501,12.126 159.365,12.666 160.337,13.152 L159.095,14.592 C157.691,13.8 156.467,12.936 155.423,11.982 L155.423,12.648 L148.817,12.648 L148.817,12.072 C147.665,13.08 146.243,13.926 144.551,14.628 L143.399,13.152 C144.659,12.666 145.721,12.108 146.621,11.478 C146.027,10.938 145.325,10.38 144.497,9.804 L145.757,8.616 Z M169.049,8.58 L166.565,8.58 L166.565,6.744 L170.579,6.744 C171.065,12.18 173.531,16.968 177.959,21.072 L176.879,22.692 C173.315,19.452 170.975,15.744 169.823,11.55 C168.527,16.302 166.097,20.01 162.533,22.656 L161.381,21.036 C165.287,18.138 167.843,13.98 169.049,8.58 Z" id="使用Facebook登入"></path>
        </g>
    </g>
</svg>