<?xml version="1.0" encoding="UTF-8"?>
<svg width="17px" height="17px" viewBox="0 0 17 17" version="1.1" xmlns="http://www.w3.org/2000/svg" xmlns:xlink="http://www.w3.org/1999/xlink">
    <!-- Generator: Sketch 52.3 (67297) - http://www.bohemiancoding.com/sketch -->
    <title>icon_arrow_down_g</title>
    <desc>Created with Sketch.</desc>
    <g id="icon_arrow_down_g" stroke="none" stroke-width="1" fill="none" fill-rule="evenodd">
        <path d="M12.2635757,7.85146406 L5.94433364,0.765071163 C5.79296102,0.5953676 5.58768813,0.5 5.37370082,0.5 C5.15955213,0.500181307 4.95427924,0.595548908 4.803068,0.765433778 L4.68881233,0.893436678 C4.59973164,0.993518267 4.53873073,1.11191188 4.5,1.23719518 L10.9646437,8.5 L4.5,15.7629861 C4.53873073,15.8884507 4.59989302,16.0070257 4.68913509,16.1071072 L4.80322938,16.2351101 C4.954602,16.4048137 5.15971351,16.5 5.3738622,16.5 C5.58784951,16.5 5.79296102,16.4048137 5.94433364,16.2351101 L12.2066093,9.2127187 L12.2635757,9.14871725 C12.3689556,9.03050494 12.4404461,8.88074517 12.4740127,8.71974436 C12.5435667,8.41949959 12.4735286,8.08680083 12.2635757,7.85146406" id="Fill-1" fill="#1C8876" transform="translate(8.500000, 8.500000) rotate(-270.000000) translate(-8.500000, -8.500000) "></path>
    </g>
</svg>