<?xml version="1.0" encoding="UTF-8"?>
<svg width="405px" height="136px" viewBox="0 0 405 136" version="1.1" xmlns="http://www.w3.org/2000/svg" xmlns:xlink="http://www.w3.org/1999/xlink">
    <!-- Generator: Sketch 52.3 (67297) - http://www.bohemiancoding.com/sketch -->
    <title>big BT</title>
    <desc>Created with Sketch.</desc>
    <defs>
        <rect id="path-1" x="0" y="0" width="405" height="136"></rect>
        <filter x="-2.6%" y="-4.8%" width="105.2%" height="119.1%" filterUnits="objectBoundingBox" id="filter-2">
            <feOffset dx="0" dy="9" in="SourceAlpha" result="shadowOffsetOuter1"></feOffset>
            <feGaussianBlur stdDeviation="2" in="shadowOffsetOuter1" result="shadowBlurOuter1"></feGaussianBlur>
            <feColorMatrix values="0 0 0 0 0   0 0 0 0 0   0 0 0 0 0  0 0 0 0.240064538 0" type="matrix" in="shadowBlurOuter1"></feColorMatrix>
        </filter>
        <filter x="0.0%" y="0.0%" width="100.0%" height="100.0%" filterUnits="objectBoundingBox" id="filter-3">
            <feGaussianBlur stdDeviation="0" in="SourceGraphic"></feGaussianBlur>
        </filter>
        <filter x="0.0%" y="0.0%" width="100.0%" height="100.0%" filterUnits="objectBoundingBox" id="filter-4">
            <feGaussianBlur stdDeviation="0" in="SourceGraphic"></feGaussianBlur>
        </filter>
    </defs>
    <g id="big-BT" stroke="none" stroke-width="1" fill="none" fill-rule="evenodd">
        <g id="Group">
            <g id="Rectangle" fill-rule="nonzero">
                <use fill="black" fill-opacity="1" filter="url(#filter-2)" xlink:href="#path-1"></use>
                <use fill="#1EB5AC" xlink:href="#path-1"></use>
            </g>
            <path d="M141.429,40.655 L141.429,34.735 L141.688,34.439 L146.942,34.439 L147.201,34.698 L147.201,40.655 L153.676,40.655 L159.263,40.544 L159.522,40.803 L159.522,45.095 L159.263,45.354 L153.676,45.243 L135.25,45.243 L129.7,45.354 L129.441,45.058 L129.441,40.766 L129.737,40.544 L135.25,40.655 L141.429,40.655 Z M133.178,63.447 L145.573,63.447 C147.238,57.49 148.422,51.755 149.273,46.39 L149.643,46.205 L154.934,47.537 L155.119,47.907 C154.009,53.198 152.603,58.563 150.864,63.447 L155.933,63.447 L161.52,63.336 L161.779,63.595 L161.779,67.887 L161.52,68.146 L155.933,68.035 L133.178,68.035 L127.628,68.146 L127.369,67.85 L127.369,63.558 L127.665,63.336 L133.178,63.447 Z M142.539,60.376 L142.28,60.746 L137.433,62.337 L137.026,62.152 C136.249,57.379 135.028,52.68 133.437,48.462 L133.622,48.092 L138.358,46.464 L138.691,46.612 C140.356,50.978 141.725,55.714 142.539,60.376 Z M172.918,53.568 L172.918,60.857 C174.398,60.561 175.878,60.228 177.321,59.858 C176.803,58.822 176.248,57.823 175.767,57.009 L175.952,56.676 L179.467,55.196 L179.837,55.27 C181.687,57.934 183.648,61.56 184.869,64.705 L184.758,65.038 L180.614,66.925 L180.281,66.777 C180.022,65.926 179.652,64.964 179.208,63.965 C175.952,65.001 171.882,66.037 166.924,67.147 L166.591,66.925 L165.37,62.522 L165.592,62.189 C166.406,62.078 167.22,61.93 167.997,61.819 L167.997,40.84 L167.886,36.067 L168.145,35.845 L172.955,35.956 L177.987,35.956 L182.76,35.845 L183.019,36.104 L182.908,40.655 L182.908,48.425 L183.019,53.42 L182.76,53.679 L178.357,53.568 L172.918,53.568 Z M177.95,42.616 L177.95,40.026 L172.918,40.026 L172.918,42.616 L177.95,42.616 Z M177.95,46.612 L172.918,46.612 L172.918,49.424 L177.95,49.424 L177.95,46.612 Z M192.454,63.669 L191.27,59.081 C191.973,59.118 193.194,59.118 193.49,59.081 C194.267,59.007 194.378,58.822 194.378,57.971 L194.378,40.618 L190.16,40.618 L190.16,56.417 L190.345,69.663 L184.943,69.663 L185.128,56.417 L185.128,42.579 L185.017,36.141 L185.276,35.882 L189.864,35.993 L194.896,35.993 L199.484,35.882 L199.743,36.141 L199.632,42.579 L199.632,51.126 L199.817,58.6 C199.817,63.299 197.93,64.372 193.416,64.372 C192.713,64.372 192.565,64.113 192.454,63.669 Z M213.731,67.258 L210.993,67.258 L210.993,69.182 L206.22,69.182 L206.405,62.522 L206.405,60.783 L206.294,57.083 L206.516,56.824 L210.771,56.935 L213.731,56.935 L218.319,56.824 L218.578,57.083 L218.467,60.783 L218.467,62.633 L218.652,68.738 L213.731,68.738 L213.731,67.258 Z M213.731,63.41 L213.731,60.783 L210.993,60.783 L210.993,63.41 L213.731,63.41 Z M227.162,40.988 L227.162,34.809 L227.421,34.513 L232.231,34.513 L232.49,34.772 L232.49,40.988 L234.451,40.988 L239.409,40.877 L239.631,41.062 L239.631,45.243 L239.409,45.428 L234.451,45.317 L225.238,45.317 L220.243,45.428 L219.984,45.206 L219.984,41.099 L220.206,40.877 L225.238,40.988 L227.162,40.988 Z M227.162,51.866 L227.162,46.279 L227.421,45.983 L232.231,45.983 L232.49,46.242 L232.49,51.866 L233.193,51.866 L237.892,51.755 L238.114,51.94 L238.114,56.121 L237.892,56.306 L233.193,56.195 L232.49,56.195 L232.49,63.743 L234.747,63.743 L239.89,63.632 L240.112,63.817 L240.112,68.072 L239.89,68.257 L234.747,68.146 L224.683,68.146 L219.688,68.257 L219.429,68.035 L219.429,63.854 L219.651,63.632 L224.683,63.743 L227.162,63.743 L227.162,56.195 L226.348,56.195 L221.501,56.306 L221.242,56.084 L221.242,51.977 L221.464,51.755 L226.348,51.866 L227.162,51.866 Z M209.254,44.947 L204.999,45.058 L204.74,44.836 L204.74,40.951 L204.962,40.729 L209.254,40.84 L214.73,40.84 L219.133,40.729 L219.355,40.914 L219.355,44.873 L219.133,45.058 L214.73,44.947 L209.254,44.947 Z M210.882,39.434 L207.071,39.545 L206.812,39.323 L206.812,35.697 L207.034,35.475 L210.882,35.586 L213.953,35.586 L217.801,35.475 L218.023,35.66 L218.023,39.36 L217.801,39.545 L213.953,39.434 L210.882,39.434 Z M210.882,50.201 L207.071,50.312 L206.812,50.09 L206.812,46.464 L207.034,46.242 L210.882,46.353 L213.953,46.353 L217.801,46.242 L218.023,46.427 L218.023,50.127 L217.801,50.312 L213.953,50.201 L210.882,50.201 Z M210.882,55.455 L207.071,55.566 L206.812,55.344 L206.812,51.718 L207.034,51.496 L210.882,51.607 L213.953,51.607 L217.801,51.496 L218.023,51.681 L218.023,55.381 L217.801,55.566 L213.953,55.455 L210.882,55.455 Z M267.42,54.086 L267.42,55.159 L267.531,68.442 L262.536,68.442 L262.647,55.159 L262.647,54.086 L260.094,54.086 L260.094,55.159 L260.205,68.442 L255.21,68.442 L255.321,55.159 L255.321,54.086 L252.842,54.086 L252.842,69.478 L247.44,69.478 L247.625,55.307 L247.625,54.123 L244.036,54.197 L243.777,53.938 L243.777,49.683 L244.036,49.424 L247.625,49.498 L247.625,40.877 L247.514,35.993 L247.773,35.734 L254.026,35.845 L269.048,35.845 L275.301,35.734 L275.56,35.993 L275.449,40.877 L275.449,49.498 L279.001,49.424 L279.26,49.683 L279.26,53.938 L279.001,54.197 L275.449,54.123 L275.449,55.233 L275.597,64.483 C275.597,67.961 274.339,69.145 270.38,69.145 C269.64,69.145 269.566,69.071 269.418,68.701 L267.716,64.298 C268.789,64.298 269.011,64.261 269.455,64.187 C270.01,64.113 270.121,63.891 270.121,63.003 L270.121,54.086 L267.42,54.086 Z M267.42,49.535 L270.121,49.535 L270.121,40.433 L267.42,40.433 L267.42,49.535 Z M262.647,49.535 L262.647,40.433 L260.094,40.433 L260.094,49.535 L262.647,49.535 Z M255.321,49.535 L255.321,40.433 L252.842,40.433 L252.842,49.535 L255.321,49.535 Z" id="立即註冊" fill="#FFFFFF" filter="url(#filter-3)"></path>
            <path d="M112.928,93.072 L113.984,94.872 C112.016,95.136 109.736,95.352 107.192,95.496 L107.192,96.696 L114.2,96.696 L114.2,98.424 L107.192,98.424 L107.192,99.528 L116.096,99.528 L116.096,101.376 L107.192,101.376 L107.192,102.24 C107.192,103.752 106.4,104.52 104.816,104.52 L101.888,104.52 L101.432,102.576 C102.368,102.648 103.256,102.696 104.12,102.696 C104.672,102.696 104.96,102.384 104.96,101.76 L104.96,101.376 L95.384,101.376 L95.384,99.528 L104.96,99.528 L104.96,98.424 L97.208,98.424 L97.208,96.696 L104.96,96.696 L104.96,95.592 C102.752,95.688 100.352,95.736 97.76,95.736 L97.208,94.032 C103.424,94.032 108.656,93.696 112.928,93.072 Z M99.536,88.08 L112.064,88.08 L112.064,92.688 L99.536,92.688 L99.536,88.08 Z M109.832,91.056 L109.832,89.712 L101.768,89.712 L101.768,91.056 L109.832,91.056 Z M104.672,82.248 L106.928,82.248 L106.928,84.984 L109.4,84.984 C109.904,84.168 110.336,83.304 110.72,82.392 L112.928,83.16 C112.616,83.832 112.256,84.432 111.872,84.984 L115.976,84.984 L115.976,89.808 L113.72,89.808 L113.72,86.928 L97.88,86.928 L97.88,89.88 L95.624,89.88 L95.624,84.984 L99.872,84.984 C99.512,84.36 99.104,83.784 98.648,83.232 L100.808,82.44 C101.336,83.16 101.84,84.024 102.272,84.984 L104.672,84.984 L104.672,82.248 Z M121.964,104.256 L119.9,104.256 L119.396,102.072 C120.02,102.168 120.596,102.216 121.172,102.216 C121.748,102.216 122.036,101.904 122.036,101.328 L122.036,96.168 C121.172,96.504 120.308,96.792 119.444,97.08 L118.868,94.776 C119.948,94.536 121.004,94.224 122.036,93.84 L122.036,88.92 L119.348,88.92 L119.348,86.736 L122.036,86.736 L122.036,82.392 L124.244,82.392 L124.244,86.736 L126.38,86.736 L126.38,88.92 L124.244,88.92 L124.244,92.952 C124.916,92.64 125.564,92.304 126.188,91.968 L126.188,94.296 C125.54,94.632 124.892,94.944 124.244,95.232 L124.244,101.904 C124.244,103.464 123.476,104.256 121.964,104.256 Z M129.332,92.184 L129.332,92.232 C129.308,96.984 128.492,101.088 126.884,104.496 L125.156,102.96 C126.5,100.176 127.196,96.6 127.22,92.232 L127.22,83.088 L140.132,83.088 L140.132,88.704 L129.332,88.704 L129.332,90.312 L140.276,90.312 L140.276,92.184 L134.468,92.184 C133.796,93.36 133.124,94.32 132.452,95.04 C134.444,94.872 136.076,94.704 137.372,94.56 C137.084,94.008 136.82,93.504 136.556,93.024 L138.236,92.208 C139.004,93.528 139.724,94.992 140.444,96.576 L138.644,97.488 C138.452,97.008 138.284,96.576 138.092,96.168 L135.956,96.384 L135.956,98.424 L139.772,98.424 L139.772,100.32 L135.956,100.32 L135.956,102.072 L140.876,102.072 L140.876,104.112 L128.996,104.112 L128.996,102.072 L133.796,102.072 L133.796,100.32 L129.884,100.32 L129.884,98.424 L133.796,98.424 L133.796,96.576 C132.548,96.672 131.3,96.744 130.004,96.84 L129.716,95.04 C130.46,94.752 131.3,93.792 132.212,92.184 L129.332,92.184 Z M138.044,85.032 L129.332,85.032 L129.332,86.784 L138.044,86.784 L138.044,85.032 Z M153.464,90.576 L145.568,90.576 L145.568,88.488 L163.52,88.488 L163.52,94.44 L155.672,94.44 L155.672,96.384 L164.384,96.384 C164.384,99.312 164.168,101.184 163.784,101.976 C163.376,102.792 162.464,103.2 161.024,103.224 C160.016,103.224 159.008,103.2 158.048,103.176 L157.496,101.016 C158.624,101.064 159.68,101.112 160.664,101.112 C161.336,101.112 161.744,100.872 161.888,100.416 C161.984,99.984 162.056,99.288 162.056,98.328 L155.672,98.328 L155.672,104.496 L153.464,104.496 L153.464,98.736 C151.784,100.8 148.952,102.576 144.992,104.088 L143.72,102.024 C147.224,100.92 149.72,99.672 151.16,98.328 L144.872,98.328 L146.024,92.376 L153.464,92.376 L153.464,90.576 Z M153.464,94.44 L148.04,94.44 L147.56,96.384 L153.464,96.384 L153.464,94.44 Z M155.672,92.376 L161.192,92.376 L161.192,90.576 L155.672,90.576 L155.672,92.376 Z M147.32,85.848 C146.792,86.64 146.192,87.384 145.544,88.08 L143.552,86.856 C145.016,85.416 146.072,83.88 146.696,82.224 L148.904,82.704 C148.736,83.112 148.568,83.496 148.424,83.856 L154.4,83.856 L154.4,85.848 L151.016,85.848 C151.472,86.424 151.856,86.976 152.168,87.504 L150.128,88.248 C149.672,87.432 149.144,86.616 148.568,85.848 L147.32,85.848 Z M157.52,85.752 C157.04,86.592 156.512,87.384 155.912,88.104 L153.944,86.88 C155.216,85.44 156.128,83.88 156.68,82.224 L158.864,82.704 C158.72,83.064 158.6,83.424 158.48,83.76 L165.248,83.76 L165.248,85.752 L161.36,85.752 C161.84,86.376 162.248,86.952 162.56,87.504 L160.544,88.248 C160.112,87.384 159.584,86.544 158.96,85.752 L157.52,85.752 Z M167.828,92.064 L189.548,92.064 L189.548,94.32 L167.828,94.32 L167.828,92.064 Z M210.944,82.488 L212.072,84.408 C209.912,84.984 207.416,85.416 204.584,85.704 L204.584,89.184 L212.024,89.184 L212.024,91.392 L204.584,91.392 L204.584,94.8 L213.824,94.8 L213.824,96.984 L204.584,96.984 L204.584,101.904 C204.584,103.488 203.744,104.28 202.088,104.28 L198.368,104.28 L197.84,102.072 C199.04,102.144 200.192,102.192 201.296,102.192 C201.968,102.192 202.304,101.904 202.304,101.352 L202.304,96.984 L192.2,96.984 L192.2,94.8 L202.304,94.8 L202.304,91.392 L194.192,91.392 L194.192,89.184 L202.304,89.184 L202.304,85.896 C199.856,86.064 197.24,86.16 194.408,86.16 L193.688,84.096 C200.528,84.096 206.288,83.544 210.944,82.488 Z M218.612,93.192 L235.772,93.192 L235.772,100.848 L228.356,100.848 L228.356,101.88 C228.356,102.24 228.548,102.432 228.956,102.432 L234.836,102.432 C235.34,102.432 235.7,102.312 235.94,102.096 C236.228,101.856 236.42,101.112 236.516,99.864 L238.508,100.488 C238.316,102.312 237.956,103.416 237.428,103.776 C236.948,104.112 236.228,104.28 235.22,104.28 L228.38,104.28 C226.868,104.28 226.124,103.632 226.124,102.336 L226.124,100.848 L218.612,100.848 L218.612,93.192 Z M233.66,99.12 L233.66,97.8 L228.356,97.8 L228.356,99.12 L233.66,99.12 Z M226.124,99.12 L226.124,97.8 L220.748,97.8 L220.748,99.12 L226.124,99.12 Z M220.748,96.216 L226.124,96.216 L226.124,94.872 L220.748,94.872 L220.748,96.216 Z M228.356,94.872 L228.356,96.216 L233.66,96.216 L233.66,94.872 L228.356,94.872 Z M217.868,83.136 L236.708,83.136 L236.708,84.984 L228.404,84.984 L228.404,86.016 L237.62,86.016 L237.62,90.984 L235.508,90.984 L235.508,87.72 L228.404,87.72 L228.404,92.496 L226.196,92.496 L226.196,87.72 L219.092,87.72 L219.092,90.984 L216.98,90.984 L216.98,86.016 L226.196,86.016 L226.196,84.984 L217.868,84.984 L217.868,83.136 Z M230.012,90.696 C231.644,90.84 233.228,91.032 234.74,91.272 L234.14,92.688 C232.604,92.352 231.02,92.088 229.388,91.896 L230.012,90.696 Z M220.748,88.32 C222.284,88.416 223.772,88.584 225.188,88.824 L224.636,90.168 C223.172,89.928 221.636,89.76 220.052,89.664 L220.748,88.32 Z M224.708,90.672 L225.14,91.944 C224.18,92.184 222.572,92.376 220.292,92.544 L219.86,91.104 C222.116,91.008 223.724,90.864 224.708,90.672 Z M229.772,90.216 L229.508,88.848 C231.14,88.752 232.58,88.536 233.876,88.2 L234.404,89.64 C233.084,89.88 231.548,90.072 229.772,90.216 Z M252.536,82.104 C252.848,82.728 253.16,83.4 253.472,84.168 L262.304,84.168 L262.304,86.28 L244.472,86.28 L244.472,92.232 C244.376,97.248 243.56,101.256 241.976,104.28 L240.296,102.792 C241.568,100.248 242.24,96.744 242.288,92.232 L242.288,84.168 L251.192,84.168 C250.904,83.568 250.592,83.016 250.232,82.488 L252.536,82.104 Z M248.912,86.88 L250.976,86.88 L250.976,92.136 L254.48,92.136 L254.48,94.104 C255.464,92.184 256.136,89.76 256.52,86.832 L258.512,87.144 C258.392,87.96 258.248,88.728 258.104,89.472 L262.184,89.472 L262.184,91.44 L261.296,91.44 C261.152,94.56 260.6,97.224 259.616,99.408 C260.432,100.656 261.488,101.736 262.736,102.648 L261.536,104.232 C260.36,103.368 259.376,102.384 258.584,101.28 C257.768,102.456 256.832,103.464 255.728,104.328 L254.624,102.552 C255.776,101.736 256.712,100.68 257.456,99.432 C256.808,98.16 256.352,96.768 256.064,95.256 C255.776,95.736 255.488,96.192 255.2,96.624 L254.48,95.712 L254.48,101.952 C254.48,103.416 253.832,104.16 252.56,104.16 L251,104.16 L250.472,102.216 L251.936,102.312 C252.368,102.312 252.584,102.048 252.584,101.544 L252.584,93.984 L247.064,93.984 L247.064,104.136 L245.144,104.136 L245.144,92.136 L248.912,92.136 L248.912,86.88 Z M256.976,93.24 L257.48,93.096 C257.624,94.584 257.96,95.952 258.464,97.2 C259.04,95.52 259.4,93.6 259.496,91.44 L257.6,91.44 C257.408,92.064 257.192,92.664 256.976,93.24 Z M247.88,95.328 L251.744,95.328 L251.744,100.848 L247.88,100.848 L247.88,95.328 Z M250.376,99.552 L250.376,96.648 L249.248,96.648 L249.248,99.552 L250.376,99.552 Z M253.4,87.504 L255.104,88.32 C254.552,89.616 253.88,90.768 253.112,91.728 L251.72,90.696 C252.368,89.808 252.92,88.752 253.4,87.504 Z M246.8,87.696 C247.304,88.656 247.736,89.736 248.12,90.888 L246.56,91.584 C246.104,90.312 245.624,89.208 245.096,88.248 L246.8,87.696 Z M276.116,85.416 C275.372,86.4 274.46,87.288 273.38,88.056 L272.132,86.4 C273.812,85.248 274.964,83.856 275.588,82.176 L277.676,82.416 C277.532,82.8 277.388,83.184 277.22,83.544 L285.644,83.544 L285.644,85.128 C285.02,86.4 284.324,87.456 283.58,88.272 L282.02,87.048 C282.476,86.568 282.884,86.04 283.268,85.416 L276.116,85.416 Z M265.796,83.568 L271.748,83.568 L271.748,85.488 L265.796,85.488 L265.796,83.568 Z M265.316,87.888 L272.252,87.888 L272.252,89.832 L265.316,89.832 L265.316,87.888 Z M278.564,85.632 L280.484,86.016 C280.388,86.352 280.292,86.664 280.172,86.976 C281.876,88.56 284.036,89.52 286.628,89.832 L285.692,91.704 C285.044,91.608 284.42,91.464 283.844,91.272 L283.844,101.112 L279.092,101.112 C281.66,101.52 284.132,102.096 286.508,102.84 L285.764,104.64 C283.22,103.728 280.532,103.032 277.748,102.552 L278.492,101.112 L272.972,101.112 L273.956,102.384 C272.18,103.32 269.636,104.064 266.324,104.616 L265.292,102.864 C268.364,102.384 270.716,101.808 272.396,101.112 L267.98,101.112 L267.98,91.2 L273.764,91.2 L272.852,89.808 C276.068,89.232 277.964,87.84 278.564,85.632 Z M274.916,91.2 L283.628,91.2 C281.972,90.624 280.532,89.736 279.284,88.512 C278.276,89.76 276.836,90.672 274.916,91.2 Z M281.612,99.288 L281.612,98.112 L270.212,98.112 L270.212,99.288 L281.612,99.288 Z M270.212,96.624 L281.612,96.624 L281.612,95.568 L270.212,95.568 L270.212,96.624 Z M270.212,94.056 L281.612,94.056 L281.612,92.928 L270.212,92.928 L270.212,94.056 Z M298.016,91.992 L300.68,91.992 L300.68,85.44 L298.088,85.44 L298.088,83.256 L308.288,83.256 L308.288,91.008 C308.288,95.568 308.48,98.712 308.888,100.44 C309.056,101.184 309.224,101.568 309.368,101.568 C309.416,101.568 309.488,101.232 309.584,100.584 C309.632,99.912 309.656,99.12 309.656,98.184 L311.432,99.048 C311.336,101.352 311.12,102.816 310.784,103.488 C310.544,103.944 310.232,104.184 309.872,104.184 C308.984,104.184 308.24,103.632 307.64,102.552 C306.584,100.656 306.056,96.816 306.056,91.008 L306.056,85.44 L302.888,85.44 L302.888,91.992 L305.552,91.992 L305.552,94.176 L302.888,94.176 L302.888,104.352 L300.68,104.352 L300.68,94.176 L298.016,94.176 L298.016,91.992 Z M289.304,85.2 L292.544,85.2 C292.256,84.384 291.92,83.592 291.56,82.848 L293.744,82.248 C294.176,83.328 294.488,84.312 294.68,85.2 L297.608,85.2 L297.608,87.312 L289.304,87.312 L289.304,85.2 Z M290.144,88.776 L296.72,88.776 L296.72,90.768 L290.144,90.768 L290.144,88.776 Z M290.144,92.112 L296.72,92.112 L296.72,94.128 L290.144,94.128 L290.144,92.112 Z M296.936,95.688 L296.936,104.088 L294.848,104.088 L294.848,103.056 L292.016,103.056 L292.016,104.28 L289.928,104.28 L289.928,95.688 L296.936,95.688 Z M292.016,100.992 L294.848,100.992 L294.848,97.752 L292.016,97.752 L292.016,100.992 Z" id="掌握第一手電廠資訊" fill="#FFFFFF" filter="url(#filter-4)"></path>
            <path d="M358.139907,131 L334.576835,131 C333.478039,131 332.62342,130.141372 332.62342,129.037422 C332.62342,125.970894 331.158359,124.253638 328.960767,121.555094 C327.739882,120.08316 326.396909,118.366058 325.053936,116.280665 C321.391283,110.27027 318.094894,103.401247 317.362364,100.702703 C316.629833,98.004158 317.118187,96.4095634 317.850717,95.4282744 C318.705337,94.2016632 320.170398,93.5883576 321.879484,93.5883576 C324.199317,93.5883576 326.641086,95.5509356 328.71659,98.1269725 L328.71659,77.8878872 C328.71659,74.5758836 331.402536,72 334.576835,72 C337.751135,72 340.437081,74.698698 340.437081,77.8878872 L340.437081,86.1060291 C341.047523,85.8608602 341.657966,85.7381991 342.390496,85.7381991 C344.465848,85.7381991 346.297174,86.8419958 347.396123,88.4365904 C348.250742,87.9460993 349.22745,87.700777 350.326246,87.700777 C353.012039,87.700777 355.331872,89.5406939 355.942315,91.9939163 C356.552757,91.7484407 357.285135,91.625933 358.139907,91.625933 C361.436295,91.625933 364,94.3244777 364,97.5136668 L364,103.401401 C364,108.430507 363.023445,112.600985 362.046737,116.526141 C361.07003,120.573958 360.093322,124.253792 360.093322,128.914761 C360.093322,130.018864 359.238703,131 358.139907,131 M336.044246,126.597015 L355.787926,126.597015 C356.031675,122.350906 356.884797,118.832701 357.737919,115.314496 C358.712916,111.432339 359.566038,107.671652 359.566038,103.182756 L359.566038,96.9955685 C359.566038,95.9037118 358.712916,95.05449 357.616045,95.05449 C356.519174,95.05449 355.666052,95.9037118 355.666052,96.9955685 L355.666052,99.3005991 C355.666052,100.392456 354.81293,101.241678 353.715906,101.241678 C352.619035,101.241678 351.766065,100.392456 351.766065,99.3005991 L351.766065,93.1134116 C351.766065,92.0215549 350.912943,91.1723331 349.816072,91.1723331 C348.719201,91.1723331 347.865927,92.0215549 347.865927,93.1134116 L347.865927,97.3595207 C347.865927,98.4513773 347.012805,99.3005991 345.915934,99.3005991 C344.819063,99.3005991 343.965941,98.4513773 343.965941,97.3595207 L343.965941,91.1723331 C343.965941,90.0804765 343.112971,89.2312547 342.0161,89.2312547 C340.919077,89.2312547 340.065955,90.0804765 340.065955,91.1723331 L340.065955,95.4184422 C340.065955,96.5102989 339.212833,97.3595207 338.115962,97.3595207 C337.01909,97.3595207 336.165968,96.5102989 336.165968,95.4184422 L336.165968,77.4634665 C336.165968,76.3716099 335.312847,75.5223881 334.215975,75.5223881 C333.119104,75.5223881 332.265982,76.3716099 332.265982,77.4634665 L332.265982,107.065065 C332.265982,108.15677 331.41286,109.005991 330.315989,109.005991 C329.219118,109.005991 328.365996,108.15677 328.365996,107.065065 L328.365996,105.487787 C326.659752,100.999043 322.759766,97.1168859 321.54102,97.1168859 C321.053522,97.1168859 320.809773,97.2382033 320.687898,97.6021555 C320.566024,97.8447903 320.444149,98.4513773 320.687898,99.3005991 C321.297271,101.362995 324.344135,107.671652 328.122247,113.858688 C329.340993,115.799766 330.559738,117.255575 331.778484,118.711384 C333.728629,121.137732 335.434873,123.321445 336.044246,126.597015" id="Fill-1" fill="#FFFFFF"></path>
            <polyline id="Path-29" stroke="#FFFFFF" stroke-width="3" fill-rule="nonzero" points="329.345703 120.722656 15 120.722656 15 15 391.447266 15 391.447266 120.722656 360.345703 120.722656"></polyline>
        </g>
    </g>
</svg>