<?xml version="1.0" encoding="UTF-8"?>
<svg width="405px" height="136px" viewBox="0 0 405 136" version="1.1" xmlns="http://www.w3.org/2000/svg" xmlns:xlink="http://www.w3.org/1999/xlink">
    <!-- Generator: Sketch 52.3 (67297) - http://www.bohemiancoding.com/sketch -->
    <title>big BT</title>
    <desc>Created with Sketch.</desc>
    <defs>
        <rect id="path-1" x="0" y="0" width="405" height="136"></rect>
        <filter x="-2.6%" y="-4.8%" width="105.2%" height="119.1%" filterUnits="objectBoundingBox" id="filter-2">
            <feOffset dx="0" dy="9" in="SourceAlpha" result="shadowOffsetOuter1"></feOffset>
            <feGaussianBlur stdDeviation="2" in="shadowOffsetOuter1" result="shadowBlurOuter1"></feGaussianBlur>
            <feColorMatrix values="0 0 0 0 0   0 0 0 0 0   0 0 0 0 0  0 0 0 0.240064538 0" type="matrix" in="shadowBlurOuter1"></feColorMatrix>
        </filter>
        <filter x="0.0%" y="0.0%" width="100.0%" height="100.0%" filterUnits="objectBoundingBox" id="filter-3">
            <feGaussianBlur stdDeviation="0" in="SourceGraphic"></feGaussianBlur>
        </filter>
        <filter x="0.0%" y="0.0%" width="100.0%" height="100.0%" filterUnits="objectBoundingBox" id="filter-4">
            <feGaussianBlur stdDeviation="0" in="SourceGraphic"></feGaussianBlur>
        </filter>
        <filter x="0.0%" y="0.0%" width="100.0%" height="100.0%" filterUnits="objectBoundingBox" id="filter-5">
            <feGaussianBlur stdDeviation="0" in="SourceGraphic"></feGaussianBlur>
        </filter>
        <filter x="0.0%" y="0.0%" width="100.0%" height="100.0%" filterUnits="objectBoundingBox" id="filter-6">
            <feGaussianBlur stdDeviation="0" in="SourceGraphic"></feGaussianBlur>
        </filter>
    </defs>
    <g id="big-BT" stroke="none" stroke-width="1" fill="none" fill-rule="evenodd">
        <g id="Group">
            <g id="Rectangle" fill-rule="nonzero">
                <use fill="black" fill-opacity="1" filter="url(#filter-2)" xlink:href="#path-1"></use>
                <use fill="#1EB5AC" xlink:href="#path-1"></use>
            </g>
            <text id="立即註冊" filter="url(#filter-4)" font-family="ToppanBunkyuMidashiGothicStdN-ExtraBold, Toppan Bunkyu Midashi Gothic" font-size="37" font-weight="600" letter-spacing="2" fill="#FFFFFF">
                <tspan x="126" y="66">立即註</tspan>
                <tspan x="243" y="66">冊</tspan>
            </text>
            <text id="掌握第一手電廠資訊" filter="url(#filter-6)" font-family="PingFangTC-Medium, PingFang TC" font-size="24" font-weight="400" letter-spacing="0.300000012" fill="#FFFFFF">
                <tspan x="93.8" y="102">掌握第一手電廠資</tspan>
                <tspan x="288.2" y="102">訊</tspan>
            </text>
            <path d="M358.139907,131 L334.576835,131 C333.478039,131 332.62342,130.141372 332.62342,129.037422 C332.62342,125.970894 331.158359,124.253638 328.960767,121.555094 C327.739882,120.08316 326.396909,118.366058 325.053936,116.280665 C321.391283,110.27027 318.094894,103.401247 317.362364,100.702703 C316.629833,98.004158 317.118187,96.4095634 317.850717,95.4282744 C318.705337,94.2016632 320.170398,93.5883576 321.879484,93.5883576 C324.199317,93.5883576 326.641086,95.5509356 328.71659,98.1269725 L328.71659,77.8878872 C328.71659,74.5758836 331.402536,72 334.576835,72 C337.751135,72 340.437081,74.698698 340.437081,77.8878872 L340.437081,86.1060291 C341.047523,85.8608602 341.657966,85.7381991 342.390496,85.7381991 C344.465848,85.7381991 346.297174,86.8419958 347.396123,88.4365904 C348.250742,87.9460993 349.22745,87.700777 350.326246,87.700777 C353.012039,87.700777 355.331872,89.5406939 355.942315,91.9939163 C356.552757,91.7484407 357.285135,91.625933 358.139907,91.625933 C361.436295,91.625933 364,94.3244777 364,97.5136668 L364,103.401401 C364,108.430507 363.023445,112.600985 362.046737,116.526141 C361.07003,120.573958 360.093322,124.253792 360.093322,128.914761 C360.093322,130.018864 359.238703,131 358.139907,131 M336.044246,126.597015 L355.787926,126.597015 C356.031675,122.350906 356.884797,118.832701 357.737919,115.314496 C358.712916,111.432339 359.566038,107.671652 359.566038,103.182756 L359.566038,96.9955685 C359.566038,95.9037118 358.712916,95.05449 357.616045,95.05449 C356.519174,95.05449 355.666052,95.9037118 355.666052,96.9955685 L355.666052,99.3005991 C355.666052,100.392456 354.81293,101.241678 353.715906,101.241678 C352.619035,101.241678 351.766065,100.392456 351.766065,99.3005991 L351.766065,93.1134116 C351.766065,92.0215549 350.912943,91.1723331 349.816072,91.1723331 C348.719201,91.1723331 347.865927,92.0215549 347.865927,93.1134116 L347.865927,97.3595207 C347.865927,98.4513773 347.012805,99.3005991 345.915934,99.3005991 C344.819063,99.3005991 343.965941,98.4513773 343.965941,97.3595207 L343.965941,91.1723331 C343.965941,90.0804765 343.112971,89.2312547 342.0161,89.2312547 C340.919077,89.2312547 340.065955,90.0804765 340.065955,91.1723331 L340.065955,95.4184422 C340.065955,96.5102989 339.212833,97.3595207 338.115962,97.3595207 C337.01909,97.3595207 336.165968,96.5102989 336.165968,95.4184422 L336.165968,77.4634665 C336.165968,76.3716099 335.312847,75.5223881 334.215975,75.5223881 C333.119104,75.5223881 332.265982,76.3716099 332.265982,77.4634665 L332.265982,107.065065 C332.265982,108.15677 331.41286,109.005991 330.315989,109.005991 C329.219118,109.005991 328.365996,108.15677 328.365996,107.065065 L328.365996,105.487787 C326.659752,100.999043 322.759766,97.1168859 321.54102,97.1168859 C321.053522,97.1168859 320.809773,97.2382033 320.687898,97.6021555 C320.566024,97.8447903 320.444149,98.4513773 320.687898,99.3005991 C321.297271,101.362995 324.344135,107.671652 328.122247,113.858688 C329.340993,115.799766 330.559738,117.255575 331.778484,118.711384 C333.728629,121.137732 335.434873,123.321445 336.044246,126.597015" id="Fill-1" fill="#FFFFFF"></path>
            <polyline id="Path-29" stroke="#FFFFFF" stroke-width="3" fill-rule="nonzero" points="329.345703 120.722656 15 120.722656 15 15 391.447266 15 391.447266 120.722656 360.345703 120.722656"></polyline>
        </g>
    </g>
</svg>