<?xml version="1.0" encoding="UTF-8"?>
<svg width="171px" height="44px" viewBox="0 0 171 44" version="1.1" xmlns="http://www.w3.org/2000/svg" xmlns:xlink="http://www.w3.org/1999/xlink">
    <!-- Generator: Sketch 52.3 (67297) - http://www.bohemiancoding.com/sketch -->
    <title>index_font_TRUST</title>
    <desc>Created with Sketch.</desc>
    <defs>
        <linearGradient x1="50%" y1="100%" x2="50%" y2="-438.794643%" id="linearGradient-1">
            <stop stop-color="#000000" stop-opacity="0" offset="0%"></stop>
            <stop stop-color="#000000" offset="100%"></stop>
        </linearGradient>
    </defs>
    <g id="index_font_TRUST" stroke="none" stroke-width="1" fill="none" fill-rule="evenodd">
        <path d="M12.766,43 L12.766,4.472 L0.926,4.472 L0.926,1.4 L29.534,1.4 L29.534,4.472 L17.63,4.472 L17.63,43 L12.766,43 Z M37.498,1.4 L47.546,1.4 C51.7700211,1.4 55.0766547,2.49865568 57.466,4.696 C59.8553453,6.89334432 61.05,10.0399795 61.05,14.136 C61.05,17.4213498 60.346007,20.1093229 58.938,22.2 C57.529993,24.2906771 55.6740115,25.7839955 53.37,26.68 L63.802,43 L58.234,43 L48.698,27.576 L42.362,27.576 L42.362,43 L37.498,43 L37.498,1.4 Z M47.546,24.696 C50.3193472,24.696 52.409993,23.9066746 53.818,22.328 C55.226007,20.7493254 55.93,18.0826854 55.93,14.328 C55.93,7.58663296 52.9433632,4.216 46.97,4.216 L42.362,4.216 L42.362,24.696 L47.546,24.696 Z M87.318,43.64 C82.6673101,43.64 79.1153456,42.3600128 76.662,39.8 C74.2086544,37.2399872 72.982,33.7840218 72.982,29.432 L72.982,1.4 L77.782,1.4 L77.782,28.344 C77.782,32.2266861 78.6353248,35.2026563 80.342,37.272 C82.0486752,39.3413437 84.5446502,40.376 87.83,40.376 C91.2433504,40.376 93.8139914,39.3200106 95.542,37.208 C97.2700086,35.0959894 98.134,32.1413523 98.134,28.344 L98.134,1.4 L101.654,1.4 L101.654,29.432 C101.654,33.7840218 100.459345,37.2399872 98.07,39.8 C95.6806547,42.3600128 92.0966906,43.64 87.318,43.64 Z M123.762,43.64 C120.988653,43.64 118.684676,43.2346707 116.85,42.424 C115.015324,41.6133293 113.660671,40.7493379 112.786,39.832 C111.911329,38.9146621 111.474,38.3706675 111.474,38.2 L113.074,35.704 C113.074,35.8320006 113.479329,36.3119958 114.29,37.144 C115.100671,37.9760042 116.284659,38.7439965 117.842,39.448 C119.399341,40.1520035 121.308655,40.504 123.57,40.504 C126.258013,40.504 128.369992,39.7253411 129.906,38.168 C131.442008,36.6106589 132.21,34.6800115 132.21,32.376 C132.21,30.7973254 131.826004,29.474672 131.058,28.408 C130.289996,27.341328 129.340672,26.4880032 128.21,25.848 C127.079328,25.2079968 125.55401,24.4826707 123.634,23.672 C121.415322,22.7759955 119.62334,21.9226707 118.258,21.112 C116.89266,20.3013293 115.740671,19.1813405 114.802,17.752 C113.863329,16.3226595 113.394,14.4986778 113.394,12.28 C113.394,8.78131584 114.503322,5.99734368 116.722,3.928 C118.940678,1.85865632 121.905981,0.824 125.618,0.824 C127.452676,0.824 129.105993,1.090664 130.578,1.624 C132.050007,2.157336 133.233996,2.73333024 134.13,3.352 C135.026004,3.97066976 135.474,4.32266624 135.474,4.408 L134.834,7.224 C134.834,7.13866624 134.407338,6.79733632 133.554,6.2 C132.700662,5.60266368 131.612673,5.04800256 130.29,4.536 C128.967327,4.02399744 127.495341,3.768 125.874,3.768 C123.484655,3.768 121.60734,4.42932672 120.242,5.752 C118.87666,7.07467328 118.194,8.86665536 118.194,11.128 C118.194,12.7066746 118.56733,14.0186614 119.314,15.064 C120.06067,16.1093386 120.999328,16.9519968 122.13,17.592 C123.260672,18.2320032 124.764657,18.9359962 126.642,19.704 C128.903345,20.6426714 130.71666,21.5279958 132.082,22.36 C133.44734,23.1920042 134.609995,24.3546592 135.57,25.848 C136.530005,27.3413408 137.01,29.2613216 137.01,31.608 C137.01,33.9546784 136.466005,36.0346576 135.378,37.848 C134.289995,39.6613424 132.743343,41.0799949 130.738,42.104 C128.732657,43.1280051 126.407347,43.64 123.762,43.64 Z M153.806,43 L153.806,4.472 L141.966,4.472 L141.966,1.4 L170.574,1.4 L170.574,4.472 L158.67,4.472 L158.67,43 L153.806,43 Z" id="TRUST" fill="url(#linearGradient-1)"></path>
    </g>
</svg>