<?xml version="1.0" encoding="UTF-8"?>
<svg width="43px" height="48px" viewBox="0 0 43 48" version="1.1" xmlns="http://www.w3.org/2000/svg" xmlns:xlink="http://www.w3.org/1999/xlink">
    <!-- Generator: Sketch 52.3 (67297) - http://www.bohemiancoding.com/sketch -->
    <title>Member Centre_icon_ID checking</title>
    <desc>Created with Sketch.</desc>
    <g id="Member-Centre_icon_ID-checking" stroke="none" stroke-width="1" fill="none" fill-rule="evenodd">
        <g id="Group-15-Copy-2" transform="translate(3.000000, 32.000000)">
            <rect id="Rectangle" fill="#6F6F6F" fill-rule="nonzero" x="0" y="1" width="40" height="14" rx="6"></rect>
            <path d="M14.043,3.673 L14.043,5.939 L12.932,5.939 L12.932,4.674 L6.068,4.674 L6.068,5.939 L4.957,5.939 L4.957,3.673 L8.796,3.673 C8.708,3.497 8.609,3.332 8.51,3.178 L9.753,2.98 C9.841,3.189 9.94,3.42 10.028,3.673 L14.043,3.673 Z M8.983,9.954 L7.135,9.954 L7.135,10.482 L8.983,10.482 L8.983,9.954 Z M8.983,11.318 L7.135,11.318 L7.135,11.846 L8.983,11.846 L8.983,11.318 Z M10.083,11.846 L11.876,11.846 L11.876,11.318 L10.083,11.318 L10.083,11.846 Z M11.876,12.748 L7.135,12.748 L7.135,13.133 L6.024,13.133 L6.024,9.635 C5.672,9.767 5.32,9.888 4.957,9.998 L4.352,9.019 C5.804,8.711 6.926,8.326 7.718,7.875 L4.968,7.875 L4.968,6.907 L6.607,6.907 C6.497,6.742 6.387,6.588 6.266,6.434 L7.113,6.115 L6.519,6.115 L6.211,5.224 C8.609,5.224 10.644,5.081 12.316,4.806 L12.811,5.642 C12.019,5.796 11.095,5.917 10.05,5.994 L10.05,6.907 L11.15,6.907 C11.392,6.577 11.601,6.225 11.788,5.873 L12.734,6.203 C12.591,6.456 12.437,6.687 12.283,6.907 L14.021,6.907 L14.021,7.875 L11.601,7.875 C12.723,8.326 13.713,8.81 14.593,9.316 L13.856,10.207 C13.57,9.987 13.284,9.778 12.987,9.58 L12.987,13.144 L11.876,13.144 L11.876,12.748 Z M12.129,9.052 C11.491,8.678 10.798,8.315 10.05,7.985 L10.05,8.854 L8.95,8.854 L8.95,7.897 C8.521,8.315 7.982,8.7 7.333,9.052 L12.129,9.052 Z M7.773,6.907 L8.95,6.907 L8.95,6.06 C8.4,6.082 7.828,6.104 7.256,6.115 C7.443,6.357 7.619,6.621 7.773,6.907 Z M10.083,10.482 L11.876,10.482 L11.876,9.954 L10.083,9.954 L10.083,10.482 Z M18.047,7.963 L18.047,13.144 L16.936,13.144 L16.936,8.271 C16.628,9.14 16.265,9.943 15.825,10.691 L15.341,9.503 C16.045,8.513 16.562,7.369 16.892,6.093 L15.539,6.093 L15.539,5.004 L16.936,5.004 L16.936,2.98 L18.047,2.98 L18.047,5.004 L19.224,5.004 L19.224,6.093 L18.047,6.093 L18.047,6.654 C18.531,7.182 19.037,7.787 19.543,8.447 L18.894,9.437 C18.564,8.854 18.289,8.359 18.047,7.963 Z M19.4,4.058 L21.952,4.058 C21.809,3.728 21.655,3.42 21.49,3.145 L22.667,2.947 C22.81,3.277 22.942,3.651 23.074,4.058 L25.45,4.058 L25.45,5.103 L22.436,5.103 C21.93,5.983 21.479,6.632 21.083,7.072 C21.644,7.039 22.205,6.995 22.755,6.951 C23.019,6.577 23.25,6.181 23.47,5.763 L24.394,6.258 C23.294,8.447 21.688,9.932 19.565,10.724 L18.938,9.778 C20.115,9.371 21.116,8.755 21.941,7.919 L19.807,8.018 L19.576,7.094 C19.675,7.061 19.741,7.028 19.785,6.995 C20.17,6.753 20.665,6.115 21.259,5.103 L19.4,5.103 L19.4,4.058 Z M22.975,11.076 C21.952,11.978 20.764,12.671 19.422,13.144 L18.784,12.165 C21.325,11.34 23.228,9.745 24.482,7.391 L25.439,7.886 C24.933,8.832 24.35,9.668 23.69,10.383 C24.416,11.021 25.054,11.67 25.582,12.308 L24.746,13.144 C24.306,12.484 23.723,11.802 22.975,11.076 Z M30.906,2.914 L32.094,2.914 L32.094,4.795 L35.999,4.795 L35.999,10.163 L34.844,10.163 L34.844,9.558 L32.094,9.558 L32.094,13.232 L30.906,13.232 L30.906,9.558 L28.167,9.558 L28.167,10.163 L27.012,10.163 L27.012,4.795 L30.906,4.795 L30.906,2.914 Z M28.167,8.436 L30.906,8.436 L30.906,5.917 L28.167,5.917 L28.167,8.436 Z M32.094,8.436 L34.844,8.436 L34.844,5.917 L32.094,5.917 L32.094,8.436 Z" id="審核中" fill="#FFFFFF"></path>
        </g>
        <g id="Member-Centre_ID_icon" transform="translate(7.000000, 7.000000)" stroke="#979797">
            <g id="Group-5">
                <rect id="Rectangle" stroke-width="1.62" fill-rule="nonzero" x="0.81" y="0.81" width="31.38" height="19.38" rx="1.62"></rect>
                <ellipse id="Oval" stroke-width="0.81" fill="#979797" fill-rule="nonzero" cx="8.85365854" cy="7.26923077" rx="2.41463415" ry="2.42307692"></ellipse>
                <path d="M4.42939024,16.5565385 L13.2779268,16.5565385 L13.2779268,12.93 C13.2779268,11.8116234 12.3713034,10.905 11.2529268,10.905 L6.45439024,10.905 C5.33601363,10.905 4.42939024,11.8116234 4.42939024,12.93 L4.42939024,16.5565385 Z" id="Rectangle" stroke-width="0.81" fill="#979797" fill-rule="nonzero"></path>
                <path d="M16.097561,7.67307692 L28.9756098,7.67307692" id="Path-32" stroke-width="1.62" fill-rule="nonzero"></path>
                <path d="M16.097561,11.3076923 L28.9756098,11.3076923" id="Path-32-Copy" stroke-width="1.62" fill-rule="nonzero"></path>
                <path d="M16.097561,15.3461538 L28.9756098,15.3461538" id="Path-32-Copy-2" stroke-width="1.62" fill-rule="nonzero"></path>
            </g>
        </g>
        <g id="search-info-icon">
            <g id="Group-14-Copy-2">
                <g id="Group-12-Copy" fill="#6F6F6F" fill-rule="nonzero">
                    <circle id="Oval-6" cx="8" cy="8" r="8"></circle>
                </g>
                <g id="Group-10" transform="translate(4.839506, 4.839506)" fill-rule="nonzero" stroke="#FFFFFF" stroke-width="1.11515152">
                    <ellipse id="Oval" cx="2.51923421" cy="2.56856187" rx="2.51923421" ry="2.56856187"></ellipse>
                    <path d="M4.28269816,4.88026756 L6.0461621,6.67826087" id="Path-29" stroke-linecap="round"></path>
                </g>
            </g>
        </g>
    </g>
</svg>