<?xml version="1.0" encoding="UTF-8"?>
<svg width="38px" height="34px" viewBox="0 0 38 34" version="1.1" xmlns="http://www.w3.org/2000/svg" xmlns:xlink="http://www.w3.org/1999/xlink">
    <!-- Generator: Sketch 52.3 (67297) - http://www.bohemiancoding.com/sketch -->
    <title>Member Centre_SH</title>
    <desc>Created with Sketch.</desc>
    <g id="Member-Centre_SH" stroke="none" stroke-width="1" fill="none" fill-rule="evenodd">
        <path d="M6.34000762,21.4818799 C5.91948997,21.4899642 5.49499633,21.3440966 5.15644186,21.0391172 L0.577709063,16.9144653 C-0.134638877,16.2727621 -0.196766866,15.169642 0.438942316,14.4505774 C1.0746515,13.7315129 2.16746771,13.6687991 2.87981565,14.3105023 L4.69430672,15.9450471 C5.12971804,10.3074042 7.62805238,6.19281471 12.1882475,3.79894443 C17.6909241,0.910319292 23.1838765,1.51029511 28.3579169,5.52789555 C29.1146793,6.11551536 29.2562459,7.21113677 28.6741149,7.97503447 C28.0919839,8.73893216 27.0065964,8.88183361 26.249834,8.2942138 C22.1212289,5.0883854 18.0688402,4.64575727 13.7834803,6.89535307 C10.5211648,8.60790264 8.65898148,11.4499347 8.19604666,15.5858864 L9.45459226,14.3578182 C10.1410524,13.6879816 11.2354761,13.7067047 11.8990559,14.3996373 C12.5626357,15.09257 12.5440875,16.1973128 11.8576274,16.8671493 L7.63061246,20.9918012 C7.25495376,21.3583629 6.78900552,21.5079888 6.34000762,21.4818799 Z M31.6599924,12.5181201 C32.08051,12.5100358 32.5050037,12.6559034 32.8435581,12.9608828 L37.4222909,17.0855347 C38.1346389,17.7272379 38.1967669,18.830358 37.5610577,19.5494226 C36.9253485,20.2684871 35.8325323,20.3312009 35.1201843,19.6894977 L33.3056933,18.0549529 C32.870282,23.6925958 30.3719476,27.8071853 25.8117525,30.2010556 C20.3090759,33.0896807 14.8161235,32.4897049 9.64208306,28.4721045 C8.88532073,27.8844846 8.74375407,26.7888632 9.32588509,26.0249655 C9.90801611,25.2610678 10.9934036,25.1181664 11.750166,25.7057862 C15.8787711,28.9116146 19.9311598,29.3542427 24.2165197,27.1046469 C27.4788352,25.3920974 29.3410185,22.5500653 29.8039533,18.4141136 L28.5454077,19.6421818 C27.8589476,20.3120184 26.7645239,20.2932953 26.1009441,19.6003627 C25.4373643,18.90743 25.4559125,17.8026872 26.1423726,17.1328507 L30.3693875,13.0081988 C30.7450462,12.6416371 31.2109945,12.4920112 31.6599924,12.5181201 Z" id="Combined-Shape" fill="#FFFFFF" fill-rule="nonzero"></path>
    </g>
</svg>