<?xml version="1.0" encoding="UTF-8"?>
<svg width="46px" height="52px" viewBox="0 0 46 52" version="1.1" xmlns="http://www.w3.org/2000/svg" xmlns:xlink="http://www.w3.org/1999/xlink">
    <!-- Generator: Sketch 52.3 (67297) - http://www.bohemiancoding.com/sketch -->
    <title>Member Centre_icon_bank checking</title>
    <desc>Created with Sketch.</desc>
    <g id="Member-Centre_icon_bank-checking" stroke="none" stroke-width="1" fill="none" fill-rule="evenodd">
        <rect id="Rectangle" fill="#6F6F6F" fill-rule="nonzero" x="6" y="37" width="40" height="14" rx="6"></rect>
        <path d="M20.043,39.673 L20.043,41.939 L18.932,41.939 L18.932,40.674 L12.068,40.674 L12.068,41.939 L10.957,41.939 L10.957,39.673 L14.796,39.673 C14.708,39.497 14.609,39.332 14.51,39.178 L15.753,38.98 C15.841,39.189 15.94,39.42 16.028,39.673 L20.043,39.673 Z M14.983,45.954 L13.135,45.954 L13.135,46.482 L14.983,46.482 L14.983,45.954 Z M14.983,47.318 L13.135,47.318 L13.135,47.846 L14.983,47.846 L14.983,47.318 Z M16.083,47.846 L17.876,47.846 L17.876,47.318 L16.083,47.318 L16.083,47.846 Z M17.876,48.748 L13.135,48.748 L13.135,49.133 L12.024,49.133 L12.024,45.635 C11.672,45.767 11.32,45.888 10.957,45.998 L10.352,45.019 C11.804,44.711 12.926,44.326 13.718,43.875 L10.968,43.875 L10.968,42.907 L12.607,42.907 C12.497,42.742 12.387,42.588 12.266,42.434 L13.113,42.115 L12.519,42.115 L12.211,41.224 C14.609,41.224 16.644,41.081 18.316,40.806 L18.811,41.642 C18.019,41.796 17.095,41.917 16.05,41.994 L16.05,42.907 L17.15,42.907 C17.392,42.577 17.601,42.225 17.788,41.873 L18.734,42.203 C18.591,42.456 18.437,42.687 18.283,42.907 L20.021,42.907 L20.021,43.875 L17.601,43.875 C18.723,44.326 19.713,44.81 20.593,45.316 L19.856,46.207 C19.57,45.987 19.284,45.778 18.987,45.58 L18.987,49.144 L17.876,49.144 L17.876,48.748 Z M18.129,45.052 C17.491,44.678 16.798,44.315 16.05,43.985 L16.05,44.854 L14.95,44.854 L14.95,43.897 C14.521,44.315 13.982,44.7 13.333,45.052 L18.129,45.052 Z M13.773,42.907 L14.95,42.907 L14.95,42.06 C14.4,42.082 13.828,42.104 13.256,42.115 C13.443,42.357 13.619,42.621 13.773,42.907 Z M16.083,46.482 L17.876,46.482 L17.876,45.954 L16.083,45.954 L16.083,46.482 Z M24.047,43.963 L24.047,49.144 L22.936,49.144 L22.936,44.271 C22.628,45.14 22.265,45.943 21.825,46.691 L21.341,45.503 C22.045,44.513 22.562,43.369 22.892,42.093 L21.539,42.093 L21.539,41.004 L22.936,41.004 L22.936,38.98 L24.047,38.98 L24.047,41.004 L25.224,41.004 L25.224,42.093 L24.047,42.093 L24.047,42.654 C24.531,43.182 25.037,43.787 25.543,44.447 L24.894,45.437 C24.564,44.854 24.289,44.359 24.047,43.963 Z M25.4,40.058 L27.952,40.058 C27.809,39.728 27.655,39.42 27.49,39.145 L28.667,38.947 C28.81,39.277 28.942,39.651 29.074,40.058 L31.45,40.058 L31.45,41.103 L28.436,41.103 C27.93,41.983 27.479,42.632 27.083,43.072 C27.644,43.039 28.205,42.995 28.755,42.951 C29.019,42.577 29.25,42.181 29.47,41.763 L30.394,42.258 C29.294,44.447 27.688,45.932 25.565,46.724 L24.938,45.778 C26.115,45.371 27.116,44.755 27.941,43.919 L25.807,44.018 L25.576,43.094 C25.675,43.061 25.741,43.028 25.785,42.995 C26.17,42.753 26.665,42.115 27.259,41.103 L25.4,41.103 L25.4,40.058 Z M28.975,47.076 C27.952,47.978 26.764,48.671 25.422,49.144 L24.784,48.165 C27.325,47.34 29.228,45.745 30.482,43.391 L31.439,43.886 C30.933,44.832 30.35,45.668 29.69,46.383 C30.416,47.021 31.054,47.67 31.582,48.308 L30.746,49.144 C30.306,48.484 29.723,47.802 28.975,47.076 Z M36.906,38.914 L38.094,38.914 L38.094,40.795 L41.999,40.795 L41.999,46.163 L40.844,46.163 L40.844,45.558 L38.094,45.558 L38.094,49.232 L36.906,49.232 L36.906,45.558 L34.167,45.558 L34.167,46.163 L33.012,46.163 L33.012,40.795 L36.906,40.795 L36.906,38.914 Z M34.167,44.436 L36.906,44.436 L36.906,41.917 L34.167,41.917 L34.167,44.436 Z M38.094,44.436 L40.844,44.436 L40.844,41.917 L38.094,41.917 L38.094,44.436 Z" id="審核中" fill="#FFFFFF"></path>
        <g id="Member-Centre_bank_icon" transform="translate(3.000000, 8.000000)">
            <g id="Group-44">
                <path d="M9.56810572,0 C7.31999659,-3.86727687e-15 5.83028624,0.863636364 5.09897468,2.59090909 C4.36766312,4.31818182 2.68419456,8.92424242 0.0485690098,16.4090909 C-0.235519685,18.1363636 0.726655238,19 2.93509378,19 C5.14353232,19 14.5357422,19 31.1117234,19 C32.3274718,19 33.1619149,18.4242424 33.6150525,17.2727273 C34.0681902,16.1212121 35.5277904,10.9393939 37.9938531,1.72727273 C38.0743269,0.575757576 37.3646452,-5.67566827e-14 35.8648081,0 C34.3649711,5.67786559e-14 25.5994036,5.67786559e-14 9.56810572,0 Z" id="Path-34" stroke="#979797" stroke-width="1.8" fill-rule="nonzero"></path>
                <polygon id="Path-38" fill="#979797" fill-rule="nonzero" points="1 15 34.298536 15 36 10 2.19427543 10.2083333"></polygon>
                <path d="M32.537169,6.73477334 C32.5436869,7.24965014 32.3999912,7.68317719 32.1060775,8.03536749 C31.8121639,8.3875578 31.3932499,8.61290123 30.8493232,8.71140455 L30.8632518,9.81168372 L29.9092929,10.0168079 L29.8330165,8.74012205 C29.4861631,8.69317119 29.1387123,8.59861328 28.7906536,8.45644547 C28.4425949,8.31427766 28.1419223,8.13219785 27.8886268,7.91020057 L28.5393295,6.93516724 C28.829378,7.15060421 29.1040158,7.31294332 29.3632512,7.42218945 C29.6224866,7.53143558 29.8847327,7.58783184 30.1499973,7.59137993 C30.7836848,7.59985591 31.0972203,7.34313279 31.0906131,6.82120288 C31.0876667,6.58845036 30.987603,6.3949502 30.7904192,6.24069662 C30.5932353,6.08644304 30.2870364,5.90428931 29.8718134,5.69422997 C29.5010689,5.50592129 29.1987105,5.33615959 28.9647289,5.18493977 C28.7307474,5.03371995 28.5311887,4.83712604 28.3660469,4.59515213 C28.200905,4.35317822 28.1162371,4.06644756 28.1120407,3.73495153 C28.105612,3.22712784 28.2476219,2.8059189 28.5380746,2.47131209 C28.8285272,2.13670527 29.2310186,1.92348284 29.7455608,1.8316384 L29.7317661,0.741938832 L31.0016702,0.458322707 L30.7621354,1.82408011 C31.374789,1.91689769 31.9199787,2.20978814 32.3977209,2.70276022 L31.6455356,3.51776891 C31.4295288,3.33152995 31.2270225,3.19307401 31.0380107,3.10239695 C30.8489989,3.01171989 30.640285,2.96485441 30.4118627,2.96179912 C29.8371229,2.9541116 29.5528376,3.19359644 29.5589983,3.68026081 C29.5616769,3.89185402 29.6559688,4.0658845 29.8418767,4.20235748 C30.0277847,4.33883046 30.3134304,4.49779091 30.6988225,4.67924359 C31.0768461,4.86059771 31.3883927,5.02871936 31.6334715,5.18361357 C31.8785504,5.33850778 32.0892732,5.54406578 32.2656463,5.80029374 C32.4420194,6.0565217 32.5325261,6.36801178 32.537169,6.73477334 Z" id="$" fill="#8A8A8A" fill-rule="nonzero" transform="translate(30.213004, 5.237565) rotate(12.000000) translate(-30.213004, -5.237565) "></path>
                <path d="M38,1 L38,20.7147097 C37.9353193,22.2382366 37.4125989,23 36.4318387,23 C35.4510785,23 25.3499278,23 6.12838655,23 C4.70946218,22.671304 4,21.9095406 4,20.7147097 C4,19.5198788 4,18.9224634 4,18.9224634" id="Path-35" stroke="#979797" stroke-width="1.8" fill-rule="nonzero"></path>
            </g>
        </g>
        <g id="search-info-icon">
            <g id="Group-14-Copy-2">
                <g id="Group-12-Copy" fill="#6F6F6F" fill-rule="nonzero">
                    <circle id="Oval-6" cx="8" cy="8" r="8"></circle>
                </g>
                <g id="Group-10" transform="translate(4.839506, 4.839506)" fill-rule="nonzero" stroke="#FFFFFF" stroke-width="1.11515152">
                    <ellipse id="Oval" cx="2.51923421" cy="2.56856187" rx="2.51923421" ry="2.56856187"></ellipse>
                    <path d="M4.28269816,4.88026756 L6.0461621,6.67826087" id="Path-29" stroke-linecap="round"></path>
                </g>
            </g>
        </g>
    </g>
</svg>