<?xml version="1.0" encoding="UTF-8"?>
<svg width="27px" height="23px" viewBox="0 0 27 23" version="1.1" xmlns="http://www.w3.org/2000/svg" xmlns:xlink="http://www.w3.org/1999/xlink">
    <!-- Generator: Sketch 52.3 (67297) - http://www.bohemiancoding.com/sketch -->
    <title>Member Centre_store</title>
    <desc>Created with Sketch.</desc>
    <g id="Member-Centre_store" stroke="none" stroke-width="1" fill="none" fill-rule="evenodd">
        <path d="M12.8907228,20.9708697 L5.1680853,20.9482834 L4.04444444,20.9482834 L4.04444444,10.3580919 C3.37108289,9.93226735 2.90026069,9.15249339 2.64787886,8.05160615 L2.63240905,7.98412698 L2,7.98412698 L5.20455936,1 L21.8716309,1 L25,7.98412698 L24.4727963,7.98412698 L24.4583004,8.0489527 C24.2492838,8.98366929 23.8813836,9.68727541 23.3644444,10.1394699 L23.3644444,21 L12.8907228,21 L12.8907228,20.9708697 Z M12.8907228,19.9664685 L12.8907228,14.5703776 C12.6272758,12.8697843 11.7084268,12.0702683 10.0078106,12.0702683 C8.30349415,12.0702683 7.33661561,12.8772372 6.992847,14.5817613 L6.992847,19.9492191 L12.8907228,19.9664685 Z M22.4507921,19.9944287 L22.4507921,10.6346584 C22.2138502,10.70155 21.9587671,10.7354497 21.6859831,10.7354497 C20.5357428,10.7354497 19.6975505,10.1327929 19.2040391,8.99486705 C18.6619865,10.1368435 17.7375332,10.7354497 16.473694,10.7354497 C15.1056107,10.7354497 14.131752,10.034222 13.6059749,8.70102351 C13.0878351,10.03395 12.1174035,10.7354497 10.7492496,10.7354497 C9.44255668,10.7354497 8.49550193,10.0957428 7.9550125,8.87667474 C7.47519744,10.0907578 6.62223802,10.7354497 5.43264973,10.7354497 C5.26804297,10.7354497 5.10982678,10.7231077 4.9580968,10.698621 L4.9580968,19.9432681 L6.07919465,19.946547 L6.07919465,14.4832182 L6.08842383,14.4354434 C6.5113631,12.2461029 7.85698443,11.1048919 10.0078106,11.1048919 C12.1657764,11.1048919 13.4724863,12.2569204 13.7988656,14.4572386 L13.8043752,14.4943816 L13.8043752,19.9691406 L22.4507921,19.9944287 Z M17.2349772,1.97001764 L14.1422222,1.97001764 L14.1422222,7.01410935 L18.6658783,7.01410935 L17.2349772,1.97001764 Z M18.1774739,1.97001764 L19.608375,7.01410935 L23.5523125,7.01410935 L21.2929348,1.97001764 L18.1774739,1.97001764 Z M13.1422222,1.97001764 L9.56692919,1.97001764 L8.31250711,7.01410935 L13.1422222,7.01410935 L13.1422222,1.97001764 Z M8.64339856,1.97001764 L5.77725636,1.97001764 L3.46285238,7.01410935 L7.38897649,7.01410935 L8.64339856,1.97001764 Z M3.70624984,8.42010631 C4.04824052,9.3459047 4.61129926,9.77036988 5.43264973,9.77036988 C6.25378764,9.77036988 6.81353929,9.34627545 7.14971949,8.42010631 L3.70624984,8.42010631 Z M8.7633793,8.42010631 C9.15191973,9.34058579 9.79808749,9.77036988 10.7492496,9.77036988 C11.7003295,9.77036988 12.3427704,9.34090993 12.724764,8.42010631 L8.7633793,8.42010631 Z M14.4878237,8.42010631 C14.8763642,9.34058579 15.5225319,9.77036988 16.473694,9.77036988 C17.4247739,9.77036988 18.0672148,9.34090993 18.4492085,8.42010631 L14.4878237,8.42010631 Z M21.6859831,9.77036988 C22.507121,9.77036988 23.0668726,9.34627545 23.4030528,8.42010631 L19.9595832,8.42010631 C20.3015739,9.3459047 20.8646326,9.77036988 21.6859831,9.77036988 Z M17.2350427,13.5079365 L17.2350427,16.4285714 L20.1916239,16.4285714 L20.1916239,13.5079365 L17.2350427,13.5079365 Z M17.0502564,12.5343915 L20.3764103,12.5343915 C20.7846289,12.5343915 21.1155556,12.8830883 21.1155556,13.3132275 L21.1155556,16.6232804 C21.1155556,17.0534197 20.7846289,17.4021164 20.3764103,17.4021164 L17.0502564,17.4021164 C16.6420377,17.4021164 16.3111111,17.0534197 16.3111111,16.6232804 L16.3111111,13.3132275 C16.3111111,12.8830883 16.6420377,12.5343915 17.0502564,12.5343915 Z" id="Combined-Shape" stroke="#FFFFFF" stroke-width="0.5" fill="#FFFFFF" fill-rule="nonzero"></path>
    </g>
</svg>