<?xml version="1.0" encoding="UTF-8"?>
<svg width="48px" height="72px" viewBox="0 0 48 72" version="1.1" xmlns="http://www.w3.org/2000/svg" xmlns:xlink="http://www.w3.org/1999/xlink">
    <!-- Generator: Sketch 52.3 (67297) - http://www.bohemiancoding.com/sketch -->
    <title>Member Centre_icon_mail not pass</title>
    <desc>Created with Sketch.</desc>
    <g id="Member-Centre_icon_mail-not-pass" stroke="none" stroke-width="1" fill="none" fill-rule="evenodd">
        <g id="Group-Copy" transform="translate(4.000000, 9.000000)">
            <g id="Member-Centre_mail_icon" transform="translate(5.000000, 0.000000)" stroke="#979797">
                <g id="Group-4">
                    <path d="M1.0125,21.9875 L33.9875,21.9875 L33.9875,3.888 C33.9875,2.2999052 32.7000948,1.0125 31.112,1.0125 L3.888,1.0125 C2.2999052,1.0125 1.0125,2.2999052 1.0125,3.888 L1.0125,21.9875 Z" id="Rectangle" stroke-width="2.025" fill-rule="nonzero"></path>
                    <path d="M0.406976744,3.80689655 L14.7547482,14.5931034 C17.005603,16.2850575 19.0849258,16.2850575 20.9927166,14.5931034 C22.9005074,12.9011494 27.433943,9.09425287 34.5930233,3.17241379" id="Path-31" stroke-width="1.62" fill-rule="nonzero"></path>
                </g>
            </g>
            <g id="Group-16-Copy" transform="translate(2.000000, 27.000000)">
                <rect id="Rectangle-Copy" fill="#AE0000" fill-rule="nonzero" x="0" y="1" width="40" height="14" rx="6"></rect>
                <path d="M8.917,3.002 L10.083,3.002 L10.083,4.388 L13.735,4.388 L13.735,5.51 L10.083,5.51 L10.083,7.105 L14.318,7.105 L14.318,8.227 L11.007,8.227 C11.733,9.481 12.932,10.603 14.593,11.593 L13.779,12.627 C12.041,11.307 10.82,9.833 10.105,8.227 L10.083,8.227 L10.083,13.122 L8.917,13.122 L8.917,8.227 L8.906,8.227 C8.125,10.009 6.86,11.483 5.111,12.638 L4.451,11.549 C6.035,10.669 7.223,9.569 7.993,8.227 L4.682,8.227 L4.682,7.105 L8.917,7.105 L8.917,5.51 L5.342,5.51 L5.342,4.388 L8.917,4.388 L8.917,3.002 Z M16.738,5.851 L16.738,6.522 L17.453,6.522 L17.453,5.851 L16.738,5.851 Z M16.738,7.402 L16.738,8.04 L17.453,8.04 L17.453,7.402 L16.738,7.402 Z M18.432,8.04 L19.697,8.04 C19.697,10.526 19.587,11.978 19.389,12.396 C19.191,12.814 18.795,13.023 18.223,13.023 C18.058,13.023 17.882,13.012 17.706,13.001 L17.486,12.077 C17.684,12.11 17.882,12.132 18.058,12.132 C18.454,12.132 18.674,11.923 18.74,11.516 C18.751,11.417 18.762,11.296 18.784,11.164 L18.333,11.34 C18.234,10.68 18.113,10.031 17.981,9.404 L18.487,9.261 C18.619,9.833 18.718,10.361 18.806,10.845 C18.828,10.383 18.839,9.767 18.839,9.008 L15.748,9.008 L15.748,3.31 L19.675,3.31 L19.675,4.289 L18.432,4.289 L18.432,4.971 L19.367,4.971 L19.367,5.851 L18.432,5.851 L18.432,6.522 L19.367,6.522 L19.367,7.402 L18.432,7.402 L18.432,8.04 Z M17.453,4.289 L16.738,4.289 L16.738,4.971 L17.453,4.971 L17.453,4.289 Z M17.739,9.393 C17.871,10.064 17.981,10.79 18.08,11.582 L17.486,11.725 C17.409,10.889 17.321,10.141 17.211,9.503 L17.739,9.393 Z M17.002,9.459 C17.068,10.119 17.123,11.021 17.156,12.165 L16.496,12.253 C16.485,11.076 16.463,10.163 16.43,9.525 L17.002,9.459 Z M15.627,9.382 L16.232,9.459 C16.199,10.625 16.122,11.659 15.99,12.561 L15.341,12.363 C15.495,11.494 15.583,10.504 15.627,9.382 Z M21.358,11.659 C21.039,12.264 20.676,12.77 20.28,13.177 L19.466,12.462 C20.17,11.78 20.698,10.878 21.028,9.756 L21.985,10.141 C21.908,10.361 21.831,10.559 21.765,10.757 C22.062,11.032 22.326,11.307 22.546,11.582 L21.842,12.286 C21.71,12.077 21.545,11.868 21.358,11.659 Z M23.877,11.78 C23.569,12.33 23.228,12.803 22.843,13.177 L22.04,12.462 C22.744,11.802 23.261,10.911 23.602,9.8 L24.559,10.185 C24.471,10.427 24.394,10.658 24.306,10.878 C24.834,11.395 25.285,11.912 25.659,12.418 L24.922,13.166 C24.658,12.726 24.306,12.264 23.877,11.78 Z M20.863,5.851 C20.621,6.027 20.379,6.181 20.126,6.324 L19.543,5.433 C20.654,4.817 21.512,4.025 22.117,3.035 L23.03,3.035 C23.536,3.915 24.416,4.696 25.659,5.378 L25.076,6.269 C24.779,6.104 24.504,5.939 24.251,5.763 L24.251,6.192 L20.863,6.192 L20.863,5.851 Z M23.624,5.268 C23.195,4.872 22.843,4.465 22.568,4.025 C22.26,4.487 21.919,4.905 21.556,5.268 L23.624,5.268 Z M20.049,6.731 L22.447,6.731 L22.447,9.69 L20.049,9.69 L20.049,6.731 Z M21.567,8.854 L21.567,7.578 L20.929,7.578 L20.929,8.854 L21.567,8.854 Z M22.766,6.731 L25.153,6.731 L25.153,9.69 L22.766,9.69 L22.766,6.731 Z M24.273,8.854 L24.273,7.578 L23.646,7.578 L23.646,8.854 L24.273,8.854 Z M27.837,12.539 L27.837,13.111 L26.737,13.111 L26.737,9.063 L29.938,9.063 L29.938,12.968 L28.849,12.968 L28.849,12.539 L27.837,12.539 Z M28.849,11.483 L28.849,10.108 L27.837,10.108 L27.837,11.483 L28.849,11.483 Z M28.486,2.925 C28.64,3.387 28.772,3.794 28.86,4.168 L30.213,4.168 L30.213,5.235 L26.539,5.235 L26.539,4.168 L27.771,4.168 C27.661,3.849 27.529,3.53 27.397,3.222 L28.486,2.925 Z M26.814,5.862 L29.872,5.862 L29.872,6.874 L26.814,6.874 L26.814,5.862 Z M26.814,7.424 L29.872,7.424 L29.872,8.436 L26.814,8.436 L26.814,7.424 Z M30.906,7.809 L35.768,7.809 L35.768,10.625 L30.906,10.625 L30.906,7.809 Z M34.69,9.679 L34.69,8.744 L31.984,8.744 L31.984,9.679 L34.69,9.679 Z M30.378,11.945 L31.797,11.945 C31.632,11.637 31.445,11.351 31.247,11.087 L32.27,10.702 C32.501,11.054 32.71,11.472 32.908,11.945 L33.887,11.945 C34.107,11.549 34.316,11.142 34.492,10.713 L35.515,11.076 C35.361,11.395 35.185,11.681 35.009,11.945 L36.395,11.945 L36.395,12.968 L30.378,12.968 L30.378,11.945 Z M31.962,6.544 C31.577,7.006 31.137,7.391 30.631,7.721 L29.971,6.863 C30.433,6.588 30.84,6.269 31.192,5.906 C30.95,5.664 30.675,5.433 30.356,5.191 L31.049,4.531 C31.313,4.74 31.544,4.949 31.764,5.169 C31.94,4.872 32.094,4.564 32.215,4.245 L30.675,4.245 L30.675,3.277 L33.172,3.277 L33.172,4.08 C32.974,4.828 32.699,5.488 32.325,6.06 L34.635,6.06 C34.118,5.268 33.722,4.399 33.447,3.442 L34.261,2.991 C34.327,3.244 34.415,3.486 34.503,3.728 C34.745,3.486 34.954,3.233 35.13,2.969 L35.867,3.618 C35.581,3.981 35.262,4.3 34.888,4.586 C34.976,4.751 35.064,4.916 35.163,5.081 C35.449,4.806 35.702,4.509 35.922,4.179 L36.659,4.828 C36.384,5.202 36.065,5.532 35.713,5.84 C36.01,6.192 36.329,6.511 36.681,6.797 L35.977,7.611 C35.548,7.226 35.174,6.808 34.855,6.368 L34.855,7.05 L31.962,7.05 L31.962,6.544 Z" id="未驗證" fill="#FFFFFF"></path>
            </g>
            <g id="Group-2" transform="translate(0.000000, 46.000000)">
                <path d="M1.551,6.159 L4.906,6.159 L4.906,5.686 L0.737,5.686 L0.737,4.718 L4.906,4.718 L4.906,4.19 C3.861,4.234 2.772,4.278 1.628,4.322 L1.441,3.409 C4.29,3.332 6.831,3.189 9.053,2.969 L9.394,3.893 C8.36,3.981 7.238,4.058 6.05,4.124 L6.05,4.718 L10.241,4.718 L10.241,5.686 L6.05,5.686 L6.05,6.159 L9.416,6.159 L9.416,9.987 L6.05,9.987 L6.05,10.504 L9.856,10.504 L9.856,11.406 L6.05,11.406 L6.05,11.945 L10.406,11.945 L10.406,12.924 L0.594,12.924 L0.594,11.945 L4.906,11.945 L4.906,11.406 L1.144,11.406 L1.144,10.504 L4.906,10.504 L4.906,9.987 L1.551,9.987 L1.551,6.159 Z M8.305,9.085 L8.305,8.491 L6.05,8.491 L6.05,9.085 L8.305,9.085 Z M4.906,9.085 L4.906,8.491 L2.662,8.491 L2.662,9.085 L4.906,9.085 Z M2.662,7.633 L4.906,7.633 L4.906,7.061 L2.662,7.061 L2.662,7.633 Z M6.05,7.061 L6.05,7.633 L8.305,7.633 L8.305,7.061 L6.05,7.061 Z M12.826,4.399 C13.277,4.685 13.651,4.938 13.959,5.18 C14.388,4.894 14.74,4.597 15.015,4.278 L12.254,4.278 L12.254,3.288 L16.324,3.288 L16.324,4.113 C15.983,4.795 15.455,5.4 14.729,5.906 L15.906,5.906 L15.906,8.755 L13.453,8.755 L13.31,9.657 L15.972,9.657 C15.972,10.999 15.906,11.901 15.796,12.363 C15.664,12.814 15.114,13.067 14.135,13.111 C13.75,13.111 13.365,13.089 12.969,13.067 L12.694,12.055 C13.09,12.077 13.486,12.099 13.893,12.099 C14.432,12.099 14.74,12 14.828,11.824 C14.894,11.626 14.938,11.23 14.938,10.614 L12.21,10.614 L12.584,7.787 L14.905,7.787 L14.905,6.896 L12.837,6.896 C12.573,6.984 12.32,7.083 12.056,7.171 L11.363,6.269 C11.759,6.159 12.122,6.038 12.452,5.917 L12.452,5.906 L12.474,5.906 C12.672,5.829 12.87,5.752 13.046,5.675 C12.738,5.433 12.386,5.18 11.99,4.927 L12.826,4.399 Z M19.14,2.936 L19.943,3.442 C19.679,3.739 19.426,3.981 19.162,4.168 C19.03,4.256 18.865,4.355 18.689,4.465 C18.832,4.575 18.986,4.674 19.14,4.784 C19.338,4.674 19.536,4.564 19.734,4.432 C19.987,4.234 20.229,4.003 20.449,3.728 L21.252,4.223 C20.977,4.564 20.702,4.85 20.416,5.07 C20.306,5.147 20.196,5.224 20.064,5.312 C20.537,5.554 21.054,5.763 21.626,5.961 L20.856,6.874 C20.526,6.742 20.229,6.599 19.943,6.467 L19.943,7.138 C19.943,7.336 20.075,7.435 20.361,7.435 L20.911,7.435 L20.911,8.359 L20.064,8.359 C19.338,8.359 18.986,8.029 18.986,7.369 L18.986,6.885 L17.732,6.885 C17.732,7.237 17.655,7.545 17.512,7.831 C17.358,8.117 17.083,8.392 16.698,8.645 L15.917,7.952 C16.269,7.666 16.511,7.391 16.621,7.149 C16.709,6.896 16.764,6.5 16.764,5.95 L19.008,5.95 C17.908,5.279 17.083,4.509 16.533,3.629 L17.435,3.112 C17.589,3.365 17.776,3.607 17.996,3.838 C18.161,3.75 18.326,3.651 18.48,3.552 C18.711,3.376 18.931,3.178 19.14,2.936 Z M16.489,8.788 L20.46,8.788 L20.46,9.745 C20.262,10.317 19.976,10.834 19.591,11.285 C20.229,11.637 20.812,11.989 21.329,12.341 L20.537,13.144 C20.064,12.77 19.503,12.396 18.843,12 C18.227,12.462 17.49,12.847 16.621,13.133 L16.192,12.132 C16.808,11.934 17.347,11.692 17.809,11.406 C17.391,11.175 16.94,10.944 16.467,10.713 L17.16,10.053 C17.666,10.284 18.139,10.515 18.601,10.757 C18.887,10.471 19.118,10.152 19.305,9.8 L16.489,9.8 L16.489,8.788 Z M23.738,5.851 L23.738,6.522 L24.453,6.522 L24.453,5.851 L23.738,5.851 Z M23.738,7.402 L23.738,8.04 L24.453,8.04 L24.453,7.402 L23.738,7.402 Z M25.432,8.04 L26.697,8.04 C26.697,10.526 26.587,11.978 26.389,12.396 C26.191,12.814 25.795,13.023 25.223,13.023 C25.058,13.023 24.882,13.012 24.706,13.001 L24.486,12.077 C24.684,12.11 24.882,12.132 25.058,12.132 C25.454,12.132 25.674,11.923 25.74,11.516 C25.751,11.417 25.762,11.296 25.784,11.164 L25.333,11.34 C25.234,10.68 25.113,10.031 24.981,9.404 L25.487,9.261 C25.619,9.833 25.718,10.361 25.806,10.845 C25.828,10.383 25.839,9.767 25.839,9.008 L22.748,9.008 L22.748,3.31 L26.675,3.31 L26.675,4.289 L25.432,4.289 L25.432,4.971 L26.367,4.971 L26.367,5.851 L25.432,5.851 L25.432,6.522 L26.367,6.522 L26.367,7.402 L25.432,7.402 L25.432,8.04 Z M24.453,4.289 L23.738,4.289 L23.738,4.971 L24.453,4.971 L24.453,4.289 Z M24.739,9.393 C24.871,10.064 24.981,10.79 25.08,11.582 L24.486,11.725 C24.409,10.889 24.321,10.141 24.211,9.503 L24.739,9.393 Z M24.002,9.459 C24.068,10.119 24.123,11.021 24.156,12.165 L23.496,12.253 C23.485,11.076 23.463,10.163 23.43,9.525 L24.002,9.459 Z M22.627,9.382 L23.232,9.459 C23.199,10.625 23.122,11.659 22.99,12.561 L22.341,12.363 C22.495,11.494 22.583,10.504 22.627,9.382 Z M28.358,11.659 C28.039,12.264 27.676,12.77 27.28,13.177 L26.466,12.462 C27.17,11.78 27.698,10.878 28.028,9.756 L28.985,10.141 C28.908,10.361 28.831,10.559 28.765,10.757 C29.062,11.032 29.326,11.307 29.546,11.582 L28.842,12.286 C28.71,12.077 28.545,11.868 28.358,11.659 Z M30.877,11.78 C30.569,12.33 30.228,12.803 29.843,13.177 L29.04,12.462 C29.744,11.802 30.261,10.911 30.602,9.8 L31.559,10.185 C31.471,10.427 31.394,10.658 31.306,10.878 C31.834,11.395 32.285,11.912 32.659,12.418 L31.922,13.166 C31.658,12.726 31.306,12.264 30.877,11.78 Z M27.863,5.851 C27.621,6.027 27.379,6.181 27.126,6.324 L26.543,5.433 C27.654,4.817 28.512,4.025 29.117,3.035 L30.03,3.035 C30.536,3.915 31.416,4.696 32.659,5.378 L32.076,6.269 C31.779,6.104 31.504,5.939 31.251,5.763 L31.251,6.192 L27.863,6.192 L27.863,5.851 Z M30.624,5.268 C30.195,4.872 29.843,4.465 29.568,4.025 C29.26,4.487 28.919,4.905 28.556,5.268 L30.624,5.268 Z M27.049,6.731 L29.447,6.731 L29.447,9.69 L27.049,9.69 L27.049,6.731 Z M28.567,8.854 L28.567,7.578 L27.929,7.578 L27.929,8.854 L28.567,8.854 Z M29.766,6.731 L32.153,6.731 L32.153,9.69 L29.766,9.69 L29.766,6.731 Z M31.273,8.854 L31.273,7.578 L30.646,7.578 L30.646,8.854 L31.273,8.854 Z M34.837,12.539 L34.837,13.111 L33.737,13.111 L33.737,9.063 L36.938,9.063 L36.938,12.968 L35.849,12.968 L35.849,12.539 L34.837,12.539 Z M35.849,11.483 L35.849,10.108 L34.837,10.108 L34.837,11.483 L35.849,11.483 Z M35.486,2.925 C35.64,3.387 35.772,3.794 35.86,4.168 L37.213,4.168 L37.213,5.235 L33.539,5.235 L33.539,4.168 L34.771,4.168 C34.661,3.849 34.529,3.53 34.397,3.222 L35.486,2.925 Z M33.814,5.862 L36.872,5.862 L36.872,6.874 L33.814,6.874 L33.814,5.862 Z M33.814,7.424 L36.872,7.424 L36.872,8.436 L33.814,8.436 L33.814,7.424 Z M37.906,7.809 L42.768,7.809 L42.768,10.625 L37.906,10.625 L37.906,7.809 Z M41.69,9.679 L41.69,8.744 L38.984,8.744 L38.984,9.679 L41.69,9.679 Z M37.378,11.945 L38.797,11.945 C38.632,11.637 38.445,11.351 38.247,11.087 L39.27,10.702 C39.501,11.054 39.71,11.472 39.908,11.945 L40.887,11.945 C41.107,11.549 41.316,11.142 41.492,10.713 L42.515,11.076 C42.361,11.395 42.185,11.681 42.009,11.945 L43.395,11.945 L43.395,12.968 L37.378,12.968 L37.378,11.945 Z M38.962,6.544 C38.577,7.006 38.137,7.391 37.631,7.721 L36.971,6.863 C37.433,6.588 37.84,6.269 38.192,5.906 C37.95,5.664 37.675,5.433 37.356,5.191 L38.049,4.531 C38.313,4.74 38.544,4.949 38.764,5.169 C38.94,4.872 39.094,4.564 39.215,4.245 L37.675,4.245 L37.675,3.277 L40.172,3.277 L40.172,4.08 C39.974,4.828 39.699,5.488 39.325,6.06 L41.635,6.06 C41.118,5.268 40.722,4.399 40.447,3.442 L41.261,2.991 C41.327,3.244 41.415,3.486 41.503,3.728 C41.745,3.486 41.954,3.233 42.13,2.969 L42.867,3.618 C42.581,3.981 42.262,4.3 41.888,4.586 C41.976,4.751 42.064,4.916 42.163,5.081 C42.449,4.806 42.702,4.509 42.922,4.179 L43.659,4.828 C43.384,5.202 43.065,5.532 42.713,5.84 C43.01,6.192 43.329,6.511 43.681,6.797 L42.977,7.611 C42.548,7.226 42.174,6.808 41.855,6.368 L41.855,7.05 L38.962,7.05 L38.962,6.544 Z" id="重發驗證" fill="#6F6F6F"></path>
                <path d="M0.73046875,16 L42.71875,16" id="Path-53" stroke="#6F6F6F" fill-rule="nonzero"></path>
            </g>
        </g>
        <g id="warning-info-icon" transform="translate(1.000000, 1.000000)">
            <g id="Group-14">
                <circle id="Oval-6" fill="#AE0000" fill-rule="nonzero" cx="8" cy="8" r="8"></circle>
                <text id="!" font-family="Baskerville-Bold, Baskerville" font-size="15" font-weight="bold" fill="#FFFFFF">
                    <tspan x="5.5" y="13">!</tspan>
                </text>
            </g>
        </g>
    </g>
</svg>