<?xml version="1.0" encoding="UTF-8"?>
<svg width="50px" height="48px" viewBox="0 0 50 48" version="1.1" xmlns="http://www.w3.org/2000/svg" xmlns:xlink="http://www.w3.org/1999/xlink">
    <!-- Generator: Sketch 52.3 (67297) - http://www.bohemiancoding.com/sketch -->
    <title>Member Centre_icon_ID pass</title>
    <desc>Created with Sketch.</desc>
    <g id="Member-Centre_icon_ID-pass" stroke="none" stroke-width="1" fill="none" fill-rule="evenodd">
        <g id="Group-15-Copy-5" transform="translate(0.000000, 32.000000)">
            <rect id="Rectangle" fill="#1EB5AC" fill-rule="nonzero" x="0" y="1" width="50" height="14" rx="6"></rect>
            <path d="M13.043,3.673 L13.043,5.939 L11.932,5.939 L11.932,4.674 L5.068,4.674 L5.068,5.939 L3.957,5.939 L3.957,3.673 L7.796,3.673 C7.708,3.497 7.609,3.332 7.51,3.178 L8.753,2.98 C8.841,3.189 8.94,3.42 9.028,3.673 L13.043,3.673 Z M7.983,9.954 L6.135,9.954 L6.135,10.482 L7.983,10.482 L7.983,9.954 Z M7.983,11.318 L6.135,11.318 L6.135,11.846 L7.983,11.846 L7.983,11.318 Z M9.083,11.846 L10.876,11.846 L10.876,11.318 L9.083,11.318 L9.083,11.846 Z M10.876,12.748 L6.135,12.748 L6.135,13.133 L5.024,13.133 L5.024,9.635 C4.672,9.767 4.32,9.888 3.957,9.998 L3.352,9.019 C4.804,8.711 5.926,8.326 6.718,7.875 L3.968,7.875 L3.968,6.907 L5.607,6.907 C5.497,6.742 5.387,6.588 5.266,6.434 L6.113,6.115 L5.519,6.115 L5.211,5.224 C7.609,5.224 9.644,5.081 11.316,4.806 L11.811,5.642 C11.019,5.796 10.095,5.917 9.05,5.994 L9.05,6.907 L10.15,6.907 C10.392,6.577 10.601,6.225 10.788,5.873 L11.734,6.203 C11.591,6.456 11.437,6.687 11.283,6.907 L13.021,6.907 L13.021,7.875 L10.601,7.875 C11.723,8.326 12.713,8.81 13.593,9.316 L12.856,10.207 C12.57,9.987 12.284,9.778 11.987,9.58 L11.987,13.144 L10.876,13.144 L10.876,12.748 Z M11.129,9.052 C10.491,8.678 9.798,8.315 9.05,7.985 L9.05,8.854 L7.95,8.854 L7.95,7.897 C7.521,8.315 6.982,8.7 6.333,9.052 L11.129,9.052 Z M6.773,6.907 L7.95,6.907 L7.95,6.06 C7.4,6.082 6.828,6.104 6.256,6.115 C6.443,6.357 6.619,6.621 6.773,6.907 Z M9.083,10.482 L10.876,10.482 L10.876,9.954 L9.083,9.954 L9.083,10.482 Z M17.047,7.963 L17.047,13.144 L15.936,13.144 L15.936,8.271 C15.628,9.14 15.265,9.943 14.825,10.691 L14.341,9.503 C15.045,8.513 15.562,7.369 15.892,6.093 L14.539,6.093 L14.539,5.004 L15.936,5.004 L15.936,2.98 L17.047,2.98 L17.047,5.004 L18.224,5.004 L18.224,6.093 L17.047,6.093 L17.047,6.654 C17.531,7.182 18.037,7.787 18.543,8.447 L17.894,9.437 C17.564,8.854 17.289,8.359 17.047,7.963 Z M18.4,4.058 L20.952,4.058 C20.809,3.728 20.655,3.42 20.49,3.145 L21.667,2.947 C21.81,3.277 21.942,3.651 22.074,4.058 L24.45,4.058 L24.45,5.103 L21.436,5.103 C20.93,5.983 20.479,6.632 20.083,7.072 C20.644,7.039 21.205,6.995 21.755,6.951 C22.019,6.577 22.25,6.181 22.47,5.763 L23.394,6.258 C22.294,8.447 20.688,9.932 18.565,10.724 L17.938,9.778 C19.115,9.371 20.116,8.755 20.941,7.919 L18.807,8.018 L18.576,7.094 C18.675,7.061 18.741,7.028 18.785,6.995 C19.17,6.753 19.665,6.115 20.259,5.103 L18.4,5.103 L18.4,4.058 Z M21.975,11.076 C20.952,11.978 19.764,12.671 18.422,13.144 L17.784,12.165 C20.325,11.34 22.228,9.745 23.482,7.391 L24.439,7.886 C23.933,8.832 23.35,9.668 22.69,10.383 C23.416,11.021 24.054,11.67 24.582,12.308 L23.746,13.144 C23.306,12.484 22.723,11.802 21.975,11.076 Z M30.852,4.223 L28.773,4.223 L28.773,3.277 L34.845,3.277 L34.845,4.08 C34.218,4.608 33.547,5.07 32.832,5.455 L32.854,5.477 L35.076,5.477 L35.076,10.35 C35.076,11.032 34.735,11.384 34.053,11.384 L33.129,11.384 L32.876,10.438 L33.745,10.482 C33.91,10.482 33.998,10.361 33.998,10.13 L33.998,9.668 L32.524,9.668 L32.524,11.439 L31.468,11.439 L31.468,9.668 L30.038,9.668 L30.038,11.45 L28.96,11.45 L28.96,5.477 L31.402,5.477 C31.061,5.246 30.676,5.015 30.258,4.784 L30.852,4.223 Z M32.15,4.927 C32.557,4.707 32.942,4.476 33.305,4.223 L31.116,4.223 C31.49,4.454 31.831,4.685 32.15,4.927 Z M30.038,8.04 L30.038,8.733 L31.468,8.733 L31.468,8.04 L30.038,8.04 Z M32.524,8.04 L32.524,8.733 L33.998,8.733 L33.998,8.04 L32.524,8.04 Z M33.998,7.116 L33.998,6.423 L32.524,6.423 L32.524,7.116 L33.998,7.116 Z M31.468,7.116 L31.468,6.423 L30.038,6.423 L30.038,7.116 L31.468,7.116 Z M26.595,3.002 C27.244,3.53 27.794,4.047 28.256,4.575 L27.519,5.312 C27.123,4.828 26.562,4.3 25.836,3.728 L26.595,3.002 Z M25.572,5.62 L28.267,5.62 L28.267,6.511 C27.937,7.061 27.541,7.6 27.101,8.15 L28.377,8.15 L28.377,8.898 C28.234,9.69 28.069,10.339 27.871,10.856 C27.959,10.911 28.036,10.977 28.124,11.054 C28.476,11.362 28.806,11.582 29.114,11.714 C29.422,11.824 29.873,11.89 30.467,11.912 C31.061,11.923 31.743,11.934 32.513,11.934 C33.305,11.934 34.328,11.901 35.604,11.846 L35.34,12.924 L32.656,12.924 C31.908,12.924 31.16,12.902 30.423,12.88 C29.675,12.858 29.114,12.781 28.74,12.638 C28.278,12.462 27.871,12.198 27.497,11.835 C27.42,11.758 27.332,11.725 27.244,11.725 C27.035,11.725 26.694,12.198 26.221,13.144 L25.396,12.374 C25.902,11.428 26.375,10.867 26.837,10.691 C27.035,10.207 27.189,9.679 27.299,9.107 L25.737,9.107 L25.737,8.249 C26.243,7.677 26.672,7.149 27.013,6.654 L25.572,6.654 L25.572,5.62 Z M44.415,4.883 L44.415,4.212 L41.511,4.212 L41.511,6.456 L42.391,6.456 L42.391,4.883 L44.415,4.883 Z M43.315,6.456 L44.415,6.456 L44.415,5.741 L43.315,5.741 L43.315,6.456 Z M45.504,6.456 L46.252,6.456 L46.252,10.57 C46.252,11.208 45.867,11.538 45.119,11.538 L44.195,11.538 L43.953,10.581 L44.811,10.625 C45.031,10.625 45.152,10.526 45.152,10.328 L45.152,7.457 L40.818,7.457 L40.818,11.417 L39.718,11.417 L39.718,6.456 L40.422,6.456 L40.422,3.222 L45.504,3.222 L45.504,6.456 Z M37.595,3.002 C38.244,3.53 38.794,4.047 39.256,4.575 L38.519,5.312 C38.123,4.828 37.562,4.3 36.836,3.728 L37.595,3.002 Z M36.572,5.62 L39.267,5.62 L39.267,6.511 C38.937,7.061 38.541,7.6 38.101,8.15 L39.377,8.15 L39.377,8.898 C39.223,9.69 39.058,10.35 38.86,10.856 C38.948,10.922 39.025,10.988 39.102,11.054 C39.454,11.362 39.784,11.582 40.092,11.714 C40.411,11.824 40.862,11.89 41.456,11.912 C42.05,11.923 42.732,11.934 43.502,11.934 C44.294,11.934 45.328,11.901 46.604,11.846 L46.34,12.924 L43.645,12.924 C42.897,12.924 42.149,12.902 41.412,12.88 C40.664,12.858 40.103,12.781 39.718,12.638 C39.256,12.462 38.849,12.198 38.475,11.835 C38.398,11.758 38.31,11.725 38.222,11.725 C38.024,11.725 37.683,12.198 37.221,13.144 L36.396,12.374 C36.891,11.428 37.364,10.867 37.826,10.68 C38.024,10.196 38.178,9.679 38.299,9.107 L36.748,9.107 L36.748,8.249 C37.254,7.677 37.683,7.149 38.013,6.654 L36.572,6.654 L36.572,5.62 Z M41.456,7.842 L44.47,7.842 L44.47,10.339 L41.456,10.339 L41.456,7.842 Z M43.513,9.47 L43.513,8.711 L42.413,8.711 L42.413,9.47 L43.513,9.47 Z" id="審核通過" fill="#FFFFFF"></path>
        </g>
        <g id="Member-Centre_ID_icon" transform="translate(9.000000, 7.000000)" stroke="#979797">
            <g id="Group-5">
                <rect id="Rectangle" stroke-width="1.62" fill-rule="nonzero" x="0.81" y="0.81" width="31.38" height="19.38" rx="1.62"></rect>
                <ellipse id="Oval" stroke-width="0.81" fill="#979797" fill-rule="nonzero" cx="8.85365854" cy="7.26923077" rx="2.41463415" ry="2.42307692"></ellipse>
                <path d="M4.42939024,16.5565385 L13.2779268,16.5565385 L13.2779268,12.93 C13.2779268,11.8116234 12.3713034,10.905 11.2529268,10.905 L6.45439024,10.905 C5.33601363,10.905 4.42939024,11.8116234 4.42939024,12.93 L4.42939024,16.5565385 Z" id="Rectangle" stroke-width="0.81" fill="#979797" fill-rule="nonzero"></path>
                <path d="M16.097561,7.67307692 L28.9756098,7.67307692" id="Path-32" stroke-width="1.62" fill-rule="nonzero"></path>
                <path d="M16.097561,11.3076923 L28.9756098,11.3076923" id="Path-32-Copy" stroke-width="1.62" fill-rule="nonzero"></path>
                <path d="M16.097561,15.3461538 L28.9756098,15.3461538" id="Path-32-Copy-2" stroke-width="1.62" fill-rule="nonzero"></path>
            </g>
        </g>
        <g id="success-info-icon" transform="translate(2.000000, 0.000000)" fill-rule="nonzero">
            <circle id="Oval-6" fill="#1EB5AC" cx="8" cy="8" r="8"></circle>
            <polyline id="Path-14" stroke="#FFFFFF" stroke-width="1.5552" stroke-linecap="round" stroke-linejoin="round" points="5.06666667 7.8251917 7.08972146 9.97298246 10.8203509 5.86666667"></polyline>
        </g>
    </g>
</svg>