<?xml version="1.0" encoding="UTF-8"?>
<svg width="35px" height="35px" viewBox="0 0 35 35" version="1.1" xmlns="http://www.w3.org/2000/svg" xmlns:xlink="http://www.w3.org/1999/xlink">
    <!-- Generator: Sketch 52.3 (67297) - http://www.bohemiancoding.com/sketch -->
    <title>money icom</title>
    <desc>Created with Sketch.</desc>
    <g id="money-icom" stroke="none" stroke-width="1" fill="none" fill-rule="evenodd">
        <g id="Group-5">
            <circle id="Oval" fill="#FFFFFF" fill-rule="nonzero" cx="17" cy="18" r="16"></circle>
            <path d="M17.5,33.4 C26.2672,33.4 33.4,26.2672 33.4,17.5 C33.4,8.7328 26.2672,1.6 17.5,1.6 C8.7328,1.6 1.6,8.7328 1.6,17.5 C1.6,26.2672 8.7328,33.4 17.5,33.4 Z M17.5,1.69464442e-12 C27.1496,1.69464442e-12 35,7.8504 35,17.5 C35,27.1496 27.1496,35 17.5,35 C7.8504,35 -3.30757643e-12,27.1496 -3.30757643e-12,17.5 C-3.30757643e-12,7.8504 7.8504,1.69464442e-12 17.5,1.69464442e-12 Z M18.67736,12.05 C17.82696,12.05 17.35896,12.5604 17.35896,13.2404 C17.35896,15.0692 21.56856,15.75 21.56856,19.1092 C21.56856,21.4444 19.98136,23.1548 17.46216,23.474 L17.01896,25.6164 L14.80696,25.6164 L15.24776,23.3572 C14.06136,23.0588 12.90616,22.382 12.04216,21.3636 L14.12696,19.322 C14.76376,20.1308 15.65816,20.8108 16.67816,20.8108 C17.69896,20.8108 18.20936,20.3428 18.20936,19.534 C18.20936,17.494 13.99896,16.8124 13.99896,13.6236 C13.99896,11.33 15.60776,9.658 18.05976,9.3844 L18.46376,7.2436 L20.67576,7.2436 L20.23896,9.5532 C21.20296,9.85 22.07336,10.4396 22.84536,11.3268 L20.71896,13.2404 C20.16536,12.5172 19.39976,12.05 18.67736,12.05 Z" id="Combined-Shape" fill="#C8B86B"></path>
        </g>
    </g>
</svg>