<?xml version="1.0" encoding="UTF-8"?>
<svg width="212px" height="231px" viewBox="0 0 212 231" version="1.1" xmlns="http://www.w3.org/2000/svg" xmlns:xlink="http://www.w3.org/1999/xlink">
    <!-- Generator: Sketch 52.3 (67297) - http://www.bohemiancoding.com/sketch -->
    <title>no project@2x</title>
    <desc>Created with Sketch.</desc>
    <g id="no-project" stroke="none" stroke-width="1" fill="none" fill-rule="evenodd">
        <path d="M178.233157,136.301724 L178.233157,119.706227 C178.233157,117.368529 176.340575,115.47345 174.005956,115.47345 L97.8628725,115.47345 C94.2010762,115.47345 90.6975692,113.978497 88.1613097,111.333775 L78.5047924,101.264299 C77.7801469,100.508664 76.7791449,100.081535 75.7329173,100.081535 L29.0441759,100.081535 C26.7095571,100.081535 24.8169746,101.976613 24.8169746,104.314311 L24.8169746,214.138935 L48.432969,160.400058 C54.8681332,145.756656 69.350822,136.301724 85.3458386,136.301724 L178.233157,136.301724 Z M185.150396,136.301724 L196.584884,136.301724 C204.93543,136.301724 211.704884,143.071179 211.704884,151.421724 C211.704884,153.179867 211.398248,154.924539 210.798759,156.577319 L185.150396,227.289364 L185.150396,231 L17.8997361,231 L17.8997361,104.314311 C17.8997361,98.1512891 22.8892718,93.1551724 29.0441759,93.1551724 L75.7329173,93.1551724 C78.6623544,93.1551724 81.46516,94.3511349 83.4941676,96.4669126 L93.1506849,106.536389 C94.3825823,107.820968 96.0842857,108.547088 97.8628725,108.547088 L174.005956,108.547088 C180.16086,108.547088 185.150396,113.543205 185.150396,119.706227 L185.150396,136.301724 Z" id="Combined-Shape" fill-opacity="0.754528986" fill="#D8D8D8" fill-rule="nonzero"></path>
        <path d="M176.199169,75.2241379 L156.413136,97.2113147 C155.621427,98.0911001 154.42523,98.4894559 153.26412,98.2599954 C151.443652,97.9002311 150.259517,96.1328032 150.619281,94.3123346 L154.391525,75.2241379 L12.64,75.2241379 C6.76369026,75.2241379 2,70.4604477 2,64.5841379 L2,18.64 C2,12.7636903 6.76369026,8 12.64,8 L200.003799,8 C205.880109,8 210.643799,12.7636903 210.643799,18.64 L210.643799,64.5841379 C210.643799,70.4604477 205.880109,75.2241379 200.003799,75.2241379 L176.199169,75.2241379 Z" id="Combined-Shape" fill="#94DCD8" fill-rule="nonzero"></path>
        <path d="M46,24.3294828 L48.7487282,24.3294828 L57.0418997,36.4497414 L57.1358734,36.4497414 L57.1358734,24.3294828 L59.908095,24.3294828 L59.908095,41.1331034 L57.229847,41.1331034 L48.8427018,28.8481034 L48.7487282,28.8481034 L48.7487282,41.1331034 L46,41.1331034 L46,24.3294828 Z M69.1600211,28.6362931 C70.9925066,28.6362931 72.472591,29.2246552 73.6002744,30.4484483 C74.7044644,31.6487069 75.2683061,33.1784483 75.2683061,35.0612069 C75.2683061,36.920431 74.7044644,38.4501724 73.6237678,39.6268966 C72.4960844,40.8506897 70.9925066,41.4625862 69.1600211,41.4625862 C67.3040422,41.4625862 65.8239578,40.8506897 64.6962744,39.6268966 C63.5920844,38.4501724 63.0517361,36.920431 63.0517361,35.0612069 C63.0517361,33.1784483 63.5920844,31.6487069 64.7197678,30.4484483 C65.8239578,29.2246552 67.3040422,28.6362931 69.1600211,28.6362931 Z M69.1600211,30.825 C68.0323377,30.825 67.1865752,31.2486207 66.5757467,32.142931 C66.0588918,32.8960345 65.8004644,33.8844828 65.8004644,35.0612069 C65.8004644,36.237931 66.0588918,37.2028448 66.5757467,37.9559483 C67.1865752,38.8267241 68.0323377,39.2738793 69.1600211,39.2738793 C70.2642111,39.2738793 71.133467,38.8267241 71.7442955,37.9559483 C72.2611504,37.1793103 72.5430712,36.2143966 72.5430712,35.0612069 C72.5430712,33.8844828 72.2611504,32.8960345 71.7442955,32.142931 C71.133467,31.2486207 70.2642111,30.825 69.1600211,30.825 Z M86.7946174,24.3294828 L93.7486649,24.3294828 C97.7895303,24.3294828 99.8334565,26.0475 99.8334565,29.4835345 C99.8334565,32.9431034 97.7895303,34.6846552 93.7016781,34.6846552 L89.5433456,34.6846552 L89.5433456,41.1331034 L86.7946174,41.1331034 L86.7946174,24.3294828 Z M89.5433456,26.682931 L89.5433456,32.3312069 L93.5372243,32.3312069 C94.7588813,32.3312069 95.6516306,32.0958621 96.2154723,31.6722414 C96.779314,31.2250862 97.0612348,30.4955172 97.0612348,29.4835345 C97.0612348,28.4715517 96.7558206,27.7655172 96.1919789,27.3418966 C95.6281372,26.8947414 94.7353879,26.682931 93.5372243,26.682931 L89.5433456,26.682931 Z M108.23962,28.6362931 C108.826955,28.6362931 109.34381,28.730431 109.766691,28.9422414 L109.766691,31.6251724 C109.155863,31.4368966 108.592021,31.3662931 108.028179,31.3662931 C107.323377,31.3662931 106.689055,31.6251724 106.125214,32.19 C105.467398,32.825431 105.161984,33.6491379 105.161984,34.6846552 L105.161984,41.1331034 L102.50723,41.1331034 L102.50723,28.9657759 L105.161984,28.9657759 L105.161984,30.7073276 C105.490892,30.095431 105.866786,29.6247414 106.313161,29.2952586 C106.853509,28.8481034 107.487831,28.6362931 108.23962,28.6362931 Z M117.491546,28.6362931 C119.324032,28.6362931 120.804116,29.2246552 121.931799,30.4484483 C123.035989,31.6487069 123.599831,33.1784483 123.599831,35.0612069 C123.599831,36.920431 123.035989,38.4501724 121.955293,39.6268966 C120.827609,40.8506897 119.324032,41.4625862 117.491546,41.4625862 C115.635567,41.4625862 114.155483,40.8506897 113.027799,39.6268966 C111.923609,38.4501724 111.383261,36.920431 111.383261,35.0612069 C111.383261,33.1784483 111.923609,31.6487069 113.051293,30.4484483 C114.155483,29.2246552 115.635567,28.6362931 117.491546,28.6362931 Z M117.491546,30.825 C116.363863,30.825 115.5181,31.2486207 114.907272,32.142931 C114.390417,32.8960345 114.131989,33.8844828 114.131989,35.0612069 C114.131989,36.237931 114.390417,37.2028448 114.907272,37.9559483 C115.5181,38.8267241 116.363863,39.2738793 117.491546,39.2738793 C118.595736,39.2738793 119.464992,38.8267241 120.075821,37.9559483 C120.592675,37.1793103 120.874596,36.2143966 120.874596,35.0612069 C120.874596,33.8844828 120.592675,32.8960345 120.075821,32.142931 C119.464992,31.2486207 118.595736,30.825 117.491546,30.825 Z M128.341024,24 C128.857879,24 129.304253,24.1647414 129.656654,24.4942241 C129.985562,24.8237069 130.173509,25.2473276 130.173509,25.7650862 C130.173509,26.2828448 129.985562,26.73 129.656654,27.0594828 C129.28076,27.3889655 128.857879,27.5537069 128.341024,27.5537069 C127.824169,27.5537069 127.401288,27.3889655 127.07238,27.0594828 C126.696485,26.7064655 126.532032,26.2828448 126.532032,25.7650862 C126.532032,25.2473276 126.696485,24.8237069 127.07238,24.4942241 C127.401288,24.1647414 127.824169,24 128.341024,24 Z M127.0019,28.9657759 L129.680148,28.9657759 L129.680148,42.2392241 C129.680148,44.5926724 128.411504,45.792931 125.89771,45.792931 L124.746533,45.792931 L124.746533,43.6042241 L125.662776,43.6042241 C126.555525,43.6042241 127.0019,43.11 127.0019,42.1215517 L127.0019,28.9657759 Z M138.720633,28.6362931 C140.717573,28.6362931 142.244644,29.2952586 143.301847,30.6602586 C144.265077,31.8840517 144.758438,33.602069 144.758438,35.7907759 L135.666491,35.7907759 C135.760464,36.920431 136.065879,37.7912069 136.582734,38.379569 C137.099588,38.967931 137.851377,39.2738793 138.814607,39.2738793 C139.636876,39.2738793 140.294691,39.0856034 140.811546,38.7090517 C141.210934,38.4031034 141.563335,37.9088793 141.892243,37.2263793 L144.570491,37.2263793 C144.28857,38.3560345 143.724728,39.3209483 142.878966,40.0740517 C141.798269,40.9918966 140.459145,41.4625862 138.8381,41.4625862 C137.029108,41.4625862 135.596011,40.8977586 134.538807,39.7916379 C133.411124,38.6384483 132.847282,37.0616379 132.847282,35.0376724 C132.847282,33.2255172 133.364137,31.7193103 134.444834,30.4955172 C135.478544,29.2481897 136.911641,28.6362931 138.720633,28.6362931 Z M138.791113,30.825 C137.898364,30.825 137.217055,31.0603448 136.700201,31.5781034 C136.206839,32.0723276 135.877931,32.8018966 135.713478,33.7668103 L141.962723,33.7668103 C141.727789,31.7899138 140.670586,30.825 138.791113,30.825 Z M152.882681,28.6362931 C154.456739,28.6362931 155.701889,28.9893103 156.641625,29.6953448 C157.604855,30.4484483 158.215683,31.5781034 158.450617,33.1078448 L155.795863,33.1078448 C155.631409,32.3312069 155.302501,31.7663793 154.832633,31.3898276 C154.339272,31.0132759 153.681456,30.825 152.882681,30.825 C151.895958,30.825 151.120675,31.1780172 150.556834,31.9311207 C149.992992,32.6606897 149.711071,33.6962069 149.711071,35.0141379 C149.711071,36.3556034 149.969499,37.4146552 150.53334,38.1677586 C151.050195,38.8973276 151.825478,39.2738793 152.859187,39.2738793 C154.644686,39.2738793 155.631409,38.379569 155.84285,36.6144828 L158.497604,36.6144828 C158.215683,38.2618966 157.581361,39.4856897 156.618132,40.2858621 C155.678396,41.0625 154.409752,41.4625862 152.835694,41.4625862 C150.956222,41.4625862 149.499631,40.8506897 148.465921,39.6268966 C147.455704,38.4501724 146.962343,36.920431 146.962343,35.0376724 C146.962343,33.2019828 147.455704,31.6957759 148.442427,30.5425862 C149.499631,29.2717241 150.979715,28.6362931 152.882681,28.6362931 Z M164.977309,25.0355172 L164.977309,28.9657759 L167.67905,28.9657759 L167.67905,31.1780172 L164.977309,31.1780172 L164.977309,38.0500862 C164.977309,38.3325 165.024296,38.5443103 165.165256,38.7090517 C165.306216,38.8502586 165.494164,38.9208621 165.776084,38.9208621 L167.373636,38.9208621 L167.373636,41.1331034 L165.32971,41.1331034 C164.272507,41.1331034 163.497224,40.8506897 163.003863,40.2858621 C162.533995,39.7681034 162.299061,39.0385345 162.299061,38.0500862 L162.299061,31.1780172 L160.114174,31.1780172 L160.114174,28.9657759 L162.299061,28.9657759 L162.299061,26.1416379 L164.977309,25.0355172 Z" id="No-Project" fill="#FFFFFF"></path>
        <path d="M70.258,51.52 L71.742,51.52 L71.742,55.3 L76.656,55.3 L76.656,62.832 C76.656,63.882 76.152,64.414 75.172,64.414 L74.024,64.414 L73.632,62.986 L74.696,63.042 C75.032,63.042 75.214,62.86 75.214,62.496 L75.214,56.714 L66.842,56.714 L66.842,64.484 L65.4,64.484 L65.4,55.3 L70.258,55.3 L70.258,51.52 Z M68.34,57.946 L73.716,57.946 L73.716,62.342 L68.34,62.342 L68.34,57.946 Z M72.33,61.012 L72.33,59.29 L69.726,59.29 L69.726,61.012 L72.33,61.012 Z M74.626,51.842 L75.942,52.318 C75.55,53.34 75.046,54.236 74.43,55.006 L73.268,54.348 C73.828,53.634 74.276,52.794 74.626,51.842 Z M67.36,52.024 C67.864,52.752 68.298,53.522 68.662,54.348 L67.388,54.922 C66.968,53.998 66.506,53.186 66.002,52.472 L67.36,52.024 Z M80.8735,54.054 C80.4815,54.516 80.0475,54.936 79.5575,55.328 L78.6755,54.152 C79.6975,53.41 80.3975,52.514 80.7615,51.45 L82.1755,51.632 C82.0635,51.996 81.9235,52.346 81.7555,52.682 L90.7435,52.682 L90.7435,54.054 L80.8735,54.054 Z M80.6355,54.558 L82.0215,54.558 L82.0215,56.098 L83.2115,56.098 L83.2115,54.558 L84.6115,54.558 L84.6115,56.098 L85.8295,56.098 L85.8295,54.558 L87.2155,54.558 L87.2155,56.098 L88.4055,56.098 L88.4055,54.558 L89.8055,54.558 L89.8055,56.098 L91.0375,56.098 L91.0375,57.442 L89.8055,57.442 L89.8055,59.36 L91.2195,59.36 L91.2195,60.718 L78.9555,60.718 L78.9555,59.36 L80.6355,59.36 L80.6355,57.442 L79.1515,57.442 L79.1515,56.098 L80.6355,56.098 L80.6355,54.558 Z M82.0215,59.36 L83.2115,59.36 L83.2115,57.442 L82.0215,57.442 L82.0215,59.36 Z M84.6115,59.36 L85.8295,59.36 L85.8295,57.442 L84.6115,57.442 L84.6115,59.36 Z M87.2155,59.36 L88.4055,59.36 L88.4055,57.442 L87.2155,57.442 L87.2155,59.36 Z M80.6215,60.998 L81.8255,61.6 C81.3495,62.748 80.7755,63.728 80.1175,64.568 L78.9275,63.686 C79.5715,62.93 80.1455,62.034 80.6215,60.998 Z M83.9955,61.348 C84.2755,62.202 84.5415,63.126 84.7655,64.106 L83.2955,64.456 C83.1275,63.392 82.9035,62.454 82.6515,61.642 L83.9955,61.348 Z M87.0895,61.264 C87.4535,62.118 87.7755,63.042 88.0555,64.036 L86.5855,64.372 C86.3615,63.308 86.0815,62.37 85.7455,61.558 L87.0895,61.264 Z M89.5955,60.942 C90.4075,61.978 91.0235,62.874 91.4575,63.63 L90.2395,64.484 C89.8055,63.63 89.2175,62.692 88.4755,61.656 L89.5955,60.942 Z M94.065,57.834 L104.159,57.834 L104.159,62.356 L99.847,62.356 L99.847,62.874 C99.847,63.056 99.945,63.154 100.169,63.154 L103.557,63.154 C103.837,63.154 104.033,63.084 104.159,62.958 C104.313,62.832 104.411,62.426 104.467,61.726 L105.755,62.118 C105.629,63.21 105.419,63.854 105.111,64.05 C104.831,64.246 104.397,64.344 103.809,64.344 L99.791,64.344 C98.867,64.344 98.419,63.952 98.419,63.168 L98.419,62.356 L94.065,62.356 L94.065,57.834 Z M102.787,61.264 L102.787,60.592 L99.847,60.592 L99.847,61.264 L102.787,61.264 Z M98.419,61.264 L98.419,60.592 L95.423,60.592 L95.423,61.264 L98.419,61.264 Z M95.423,59.584 L98.419,59.584 L98.419,58.898 L95.423,58.898 L95.423,59.584 Z M99.847,58.898 L99.847,59.584 L102.787,59.584 L102.787,58.898 L99.847,58.898 Z M93.659,51.94 L104.677,51.94 L104.677,53.116 L99.875,53.116 L99.875,53.648 L105.223,53.648 L105.223,56.574 L103.879,56.574 L103.879,54.726 L99.875,54.726 L99.875,57.456 L98.475,57.456 L98.475,54.726 L94.471,54.726 L94.471,56.574 L93.127,56.574 L93.127,53.648 L98.475,53.648 L98.475,53.116 L93.659,53.116 L93.659,51.94 Z M100.785,56.378 C101.737,56.448 102.647,56.56 103.529,56.7 L103.137,57.596 C102.255,57.4 101.345,57.246 100.393,57.134 L100.785,56.378 Z M95.381,54.992 C96.277,55.048 97.131,55.146 97.957,55.286 L97.607,56.126 C96.753,55.986 95.857,55.902 94.933,55.846 L95.381,54.992 Z M97.635,56.364 L97.915,57.162 C97.369,57.302 96.431,57.428 95.101,57.526 L94.821,56.602 C96.137,56.546 97.075,56.476 97.635,56.364 Z M100.631,56.154 L100.463,55.3 C101.401,55.244 102.241,55.118 102.983,54.922 L103.333,55.846 C102.563,55.986 101.667,56.084 100.631,56.154 Z M113.8925,51.38 C114.0605,51.73 114.2425,52.122 114.4105,52.542 L119.5205,52.542 L119.5205,53.886 L109.1745,53.886 L109.1745,57.302 C109.1185,60.242 108.6425,62.594 107.7325,64.358 L106.6405,63.406 C107.3685,61.95 107.7465,59.906 107.7745,57.302 L107.7745,52.542 L112.9405,52.542 C112.7725,52.22 112.6045,51.912 112.4085,51.632 L113.8925,51.38 Z M111.6385,54.166 L112.9545,54.166 L112.9545,57.19 L114.9705,57.19 L114.9705,58.212 C115.5025,57.12 115.8665,55.762 116.0765,54.138 L117.3365,54.348 C117.2665,54.796 117.1965,55.216 117.1125,55.636 L119.4505,55.636 L119.4505,56.896 L118.9465,56.896 C118.8765,58.674 118.5545,60.2 117.9945,61.46 C118.4705,62.174 119.0585,62.79 119.7865,63.308 L119.0165,64.33 C118.3445,63.84 117.7705,63.28 117.3225,62.664 C116.8745,63.322 116.3425,63.896 115.7265,64.372 L115.0125,63.238 C115.6565,62.776 116.1885,62.188 116.6225,61.488 C116.2725,60.788 116.0205,60.018 115.8525,59.178 C115.6985,59.43 115.5445,59.668 115.3905,59.892 L114.9705,59.346 L114.9705,62.93 C114.9705,63.826 114.5785,64.274 113.8225,64.274 L112.9125,64.274 L112.5765,63.028 L113.4305,63.084 C113.6545,63.084 113.7665,62.944 113.7665,62.664 L113.7665,58.366 L110.6865,58.366 L110.6865,64.26 L109.4685,64.26 L109.4685,57.19 L111.6385,57.19 L111.6385,54.166 Z M116.4545,57.876 L116.7345,57.792 C116.8185,58.618 117.0005,59.374 117.2665,60.046 C117.5605,59.136 117.7425,58.086 117.7985,56.896 L116.7905,56.896 C116.6785,57.232 116.5665,57.568 116.4545,57.876 Z M111.0785,59.08 L113.3745,59.08 L113.3745,62.37 L111.0785,62.37 L111.0785,59.08 Z M112.5065,61.53 L112.5065,59.906 L111.9325,59.906 L111.9325,61.53 L112.5065,61.53 Z M114.2565,54.53 L115.3345,55.048 C115.0125,55.804 114.6345,56.462 114.1865,57.022 L113.2905,56.378 C113.6685,55.846 113.9905,55.23 114.2565,54.53 Z M110.5185,54.642 C110.7985,55.202 111.0505,55.818 111.2605,56.49 L110.2805,56.938 C110.0285,56.21 109.7345,55.566 109.4265,55.006 L110.5185,54.642 Z M122.38,53.886 L126.622,53.886 L126.622,53.34 L121.218,53.34 L121.218,52.22 L126.622,52.22 L126.622,51.464 L128.078,51.464 L128.078,52.22 L133.482,52.22 L133.482,53.34 L128.078,53.34 L128.078,53.886 L132.32,53.886 L132.32,58.128 L132.124,58.128 C132.656,58.716 133.062,59.248 133.356,59.71 L132.39,60.368 C132.236,60.13 132.068,59.892 131.886,59.64 L130.85,59.682 L130.85,60.564 L133.622,60.564 L133.622,61.754 L130.85,61.754 L130.85,63.14 C130.85,63.98 130.374,64.414 129.436,64.414 L127.924,64.414 L127.63,63.098 C128.106,63.154 128.554,63.182 128.974,63.182 C129.254,63.182 129.408,63.042 129.408,62.79 L129.408,61.754 L124.914,61.754 C125.572,62.174 126.132,62.594 126.608,63.014 L125.614,64.022 C125.138,63.476 124.452,62.902 123.57,62.286 L124.116,61.754 L121.078,61.754 L121.078,60.564 L129.408,60.564 L129.408,59.752 C126.986,59.85 124.48,59.934 121.904,60.018 L121.624,58.87 C123.318,58.842 124.984,58.8 126.622,58.758 L126.622,58.128 L122.38,58.128 L122.38,53.886 Z M131.06,58.604 L130.85,58.352 L131.214,58.128 L128.078,58.128 L128.078,58.716 L131.06,58.604 Z M130.906,57.064 L130.906,56.448 L128.078,56.448 L128.078,57.064 L130.906,57.064 Z M126.622,57.064 L126.622,56.448 L123.794,56.448 L123.794,57.064 L126.622,57.064 Z M123.794,55.482 L126.622,55.482 L126.622,54.866 L123.794,54.866 L123.794,55.482 Z M128.078,54.866 L128.078,55.482 L130.906,55.482 L130.906,54.866 L128.078,54.866 Z M140.4015,53.774 L141.7175,54.18 C141.5215,54.404 141.3535,54.628 141.1855,54.838 L147.0655,54.838 L147.0655,55.986 L144.8115,55.986 C144.3915,56.518 143.9715,56.952 143.5235,57.302 C144.6435,57.568 145.7915,57.89 146.9815,58.268 L146.1555,59.388 C144.8115,58.912 143.4535,58.492 142.0955,58.128 C140.6255,58.786 138.7355,59.136 136.4115,59.178 L135.6275,57.974 C137.5035,57.974 138.9875,57.848 140.0795,57.61 C139.2395,57.414 138.3995,57.232 137.5735,57.078 C137.9235,56.714 138.2595,56.35 138.5815,55.986 L135.8375,55.986 L135.8375,54.838 L139.5615,54.838 C139.8555,54.474 140.1355,54.11 140.4015,53.774 Z M141.8995,56.924 C142.4035,56.644 142.8235,56.322 143.1735,55.986 L140.1775,55.986 C140.0095,56.168 139.8415,56.336 139.7015,56.49 C140.4155,56.602 141.1435,56.756 141.8995,56.924 Z M147.1775,52.486 L147.1775,54.642 L145.8055,54.642 L145.8055,53.69 L137.0695,53.69 L137.0695,54.642 L135.6975,54.642 L135.6975,52.486 L140.6675,52.486 C140.4995,52.192 140.3315,51.912 140.1495,51.66 L141.6615,51.408 C141.8155,51.73 141.9695,52.094 142.1235,52.486 L147.1775,52.486 Z M135.3895,59.71 L140.7235,59.71 L140.7235,58.744 L142.2075,58.744 L142.2075,59.71 L147.4995,59.71 L147.4995,60.97 L142.2075,60.97 L142.2075,64.484 L140.7235,64.484 L140.7235,60.97 L135.3895,60.97 L135.3895,59.71 Z M144.1815,61.138 C145.4415,61.838 146.5195,62.538 147.3875,63.224 L146.3795,64.246 C145.6515,63.546 144.6155,62.79 143.2995,61.992 L144.1815,61.138 Z M138.6655,61.138 L139.6315,61.978 C138.7075,62.832 137.5875,63.588 136.2435,64.232 L135.3475,63.07 C136.6635,62.524 137.7695,61.88 138.6655,61.138 Z" id="尚無電廠專案" fill="#6F6F6F"></path>
    </g>
</svg>