<?xml version="1.0" encoding="UTF-8"?>
<svg width="99px" height="129px" viewBox="0 0 99 129" version="1.1" xmlns="http://www.w3.org/2000/svg" xmlns:xlink="http://www.w3.org/1999/xlink">
    <!-- Generator: Sketch 52.3 (67297) - http://www.bohemiancoding.com/sketch -->
    <title>rent_icon01</title>
    <desc>Created with Sketch.</desc>
    <defs>
        <polyline id="path-1" points="0 0 61 0 61 101 0 101"></polyline>
        <linearGradient x1="50%" y1="0%" x2="50%" y2="100%" id="linearGradient-3">
            <stop stop-color="#33CBC6" offset="0%"></stop>
            <stop stop-color="#17B5E0" offset="100%"></stop>
        </linearGradient>
    </defs>
    <g id="rent_icon01" stroke="none" stroke-width="1" fill="none" fill-rule="evenodd">
        <g id="Group-9">
            <g id="Group-12" fill-rule="nonzero">
                <g id="Group-11" stroke="#FFF3B5" stroke-width="2.7">
                    <circle id="Oval" opacity="0.339006696" cx="49.5" cy="49.5" r="49.5"></circle>
                    <circle id="Oval" opacity="0.65280878" cx="49.5" cy="49.5" r="42"></circle>
                    <circle id="Oval" cx="49.5" cy="49.5" r="33.75"></circle>
                </g>
                <polygon id="Rectangle" fill="#FFFFFF" points="25.0909091 50 70.9090909 50 90 111 6 111"></polygon>
            </g>
            <g id="Group-3" transform="translate(16.000000, 28.000000)">
                <mask id="mask-2" fill="white">
                    <use xlink:href="#path-1"></use>
                </mask>
                <g id="Clip-2"></g>
                <path d="M16.6605619,1.9803023 L51.277958,1.9803023 C53.1461733,1.9803023 54.6660773,3.51244143 54.6660773,5.39692265 L54.6660773,6.10759565 L13.2734322,6.10759565 L13.2734322,5.39692265 C13.2734322,3.51244143 14.7923466,1.9803023 16.6605619,1.9803023 Z M54.6660773,77.2148213 L54.6660773,78.0951775 C54.6660773,79.9806569 53.1461733,81.5137941 51.277958,81.5137941 L16.6605619,81.5137941 C14.7923466,81.5137941 13.2734322,79.9806569 13.2734322,78.0951775 L13.2734322,75.8453784 L51.7202738,75.8324027 L51.9023457,76.0170579 C52.6425072,76.7636638 53.6211433,77.1868735 54.6660773,77.2148213 Z M54.6660773,40.3955717 C54.2524576,40.5971953 53.8784187,40.8656939 53.5528664,41.1950789 L51.4649775,43.3001482 C50.6901827,44.0816889 50.2636992,45.1247412 50.2636992,46.236665 C50.2636992,47.3475907 50.6901827,48.390643 51.4649775,49.1701874 L51.8696915,49.5794233 C52.2476884,49.9607113 52.702868,50.2631466 53.2065341,50.4687627 L51.4323233,52.2594191 C50.6654446,53.0319765 50.2439088,54.0640494 50.2439088,55.1619993 C50.2439088,56.2609473 50.6654446,57.2910239 51.4323233,58.0635813 L51.9023457,58.5366979 C52.3021121,58.9409431 52.7790611,59.2533597 53.3044966,59.4569795 L51.4323233,61.3464514 C50.6654446,62.1190089 50.2439088,63.1490855 50.2439088,64.2480335 C50.2439088,65.3469815 50.6654446,66.3780562 51.4323233,67.1496155 L51.9023457,67.6257265 C52.1774324,67.9022102 52.490121,68.1357741 52.8354638,68.3224256 L51.4323233,69.7377828 C50.6654446,70.5103402 50.2439088,71.5404168 50.2439088,72.640363 C50.2439088,73.0545895 50.3042695,73.460831 50.4259806,73.8521004 L13.2734322,73.8650761 L13.2734322,8.08789795 L54.6660773,8.08789795 L54.6660773,40.3955717 Z M56.2928495,57.1373109 C55.8485547,57.5864722 55.2261461,57.8020696 54.5156701,57.7292057 C54.416718,57.7142336 54.3207345,57.6912765 54.1950654,57.6553436 C54.1396522,57.6413697 54.0852286,57.6273958 54.0317944,57.6074331 L53.9011777,57.9577789 L53.9338319,57.5605207 C53.6696298,57.445735 53.4588619,57.3079922 53.2906434,57.138309 L52.8196314,56.662198 C52.4248126,56.2649398 52.2071181,55.7319351 52.2071181,55.1619993 C52.2071181,54.5920635 52.4258022,54.0590587 52.820621,53.6598042 L54.9738183,51.4888579 C54.9777763,51.4838672 54.9817344,51.4798747 54.9856925,51.4758821 L55.2548422,51.2792493 C55.5556565,51.0586612 55.913863,50.9229147 56.2928495,50.8869818 L56.4996593,50.867019 C56.6391818,50.8680172 56.7767252,50.8809929 56.9113,50.9089408 C57.3120559,50.9907879 57.6811472,51.189417 57.9760244,51.4888579 L58.4470363,51.9609764 C59.2673491,52.7894294 59.2673491,54.1369134 58.4470363,54.9643683 L56.2928495,57.1373109 Z M56.2928495,66.2243432 C56.2324887,66.2862277 56.1671804,66.3391289 56.0998929,66.3890357 C55.579405,66.4379444 55.0836551,66.5836723 54.6235279,66.8222268 L54.6086851,66.8202306 L54.5928527,66.8282156 C54.0961133,66.7852958 53.6359861,66.5726928 53.2906434,66.2233451 L52.820621,65.7502285 C52.4258022,65.350974 52.2071181,64.8179693 52.2071181,64.2480335 C52.2071181,63.6780977 52.4258022,63.1450929 52.820621,62.7468366 L54.9738183,60.5748921 C54.9757973,60.5728958 54.9777763,60.5699014 54.9797554,60.5679051 L55.2548422,60.3652835 C55.5556565,60.1446954 55.913863,60.009947 56.2928495,59.9740141 L56.4897641,59.9540514 C57.051812,59.9550495 57.5802161,60.1756376 57.9760244,60.5748921 L58.4470363,61.0480087 C59.2673491,61.8764618 59.2673491,63.2229475 58.4470363,64.0523988 L56.2928495,66.2243432 Z M56.5204393,41.9646419 C56.6184018,41.9656401 56.7133958,41.9806121 56.8083898,41.9955841 C56.8499497,42.001573 56.8934886,42.001573 56.934059,42.009558 C57.029053,42.0295208 57.1200889,42.0634574 57.2111248,42.0953978 C57.2497161,42.1093717 57.2902865,42.1173568 57.3278883,42.1333269 C57.4050709,42.1662654 57.4763164,42.2111816 57.5485514,42.2531033 C57.5960484,42.280053 57.6455244,42.3000157 57.6900529,42.3299598 C57.8038478,42.4078144 57.910716,42.4966485 58.0096681,42.595464 L58.4133926,43.0027036 C58.8181066,43.4109413 59.0397593,43.9559237 59.0397593,44.5388353 C59.0397593,45.1207487 58.8181066,45.6657311 58.4133926,46.0729707 L56.3264932,48.17804 C55.8713136,48.6381808 55.2330727,48.8597671 54.5067644,48.7839087 C54.4058333,48.7689367 54.3068812,48.7459795 54.1515265,48.7010634 C54.105019,48.6890858 54.0585115,48.6771081 54.0139831,48.6601398 L53.8843558,49.0104856 L53.9120624,48.610233 C53.6429128,48.4934511 53.4291763,48.3517157 53.2569996,48.17804 L52.8532752,47.7717986 C52.4485611,47.3635608 52.2269085,46.8185784 52.2269085,46.236665 C52.2269085,45.6537535 52.4485611,45.1087711 52.8532752,44.7015315 L54.9401745,42.595464 C54.9589754,42.5774976 54.9777763,42.558533 54.9975668,42.5415647 L55.2508841,42.360902 C55.5516984,42.1463027 55.9019888,42.0195394 56.2908705,41.9846046 L56.5204393,41.9646419 Z M58.9487234,71.6042975 C58.9338805,71.6512099 58.9249749,71.7001186 58.906174,71.7450348 C58.8675826,71.8408558 58.815138,71.9326844 58.7617039,72.0235148 C58.7438925,72.0524607 58.7330078,72.0834029 58.7142069,72.113347 C58.6370243,72.2291308 58.5489569,72.339924 58.4470363,72.442732 L56.2928495,74.6156746 C55.8485547,75.065834 55.2261461,75.2804333 54.5156701,75.2075694 C54.416718,75.1935955 54.319745,75.1706383 54.1802226,75.1307129 C54.1287675,75.116739 54.0773124,75.1037632 54.0278364,75.0847986 L53.9011777,75.4371407 L53.9338319,75.0388843 C53.6696298,74.9250968 53.4588619,74.7863559 53.2906434,74.6156746 L52.820621,74.1415599 C52.4258022,73.7423054 52.2071181,73.2093006 52.2071181,72.640363 C52.2071181,72.0704272 52.4248126,71.5374224 52.820621,71.1381679 L54.9738183,68.9662235 C54.9797554,68.9602346 54.9856925,68.955244 54.9906401,68.9492551 L55.2548422,68.7556167 C55.5576355,68.5340305 55.9059469,68.4042728 56.29186,68.3683399 L56.5055965,68.347379 C57.0636862,68.3523697 57.5851637,68.5709615 57.9760244,68.9662235 L58.4470363,69.4413363 C58.5489569,69.5431462 58.6370243,69.6549375 58.7142069,69.7707213 C58.7330078,69.7996672 58.7448821,69.8326057 58.7626934,69.8625498 C58.8161276,69.9533802 58.8675826,70.0432125 58.906174,70.1390335 C58.9259644,70.1879422 58.9358596,70.2398453 58.9516919,70.2897521 C58.9774195,70.3706012 59.0061156,70.4494539 59.0229374,70.5313011 C59.0476754,70.6650513 59.0625182,70.8027941 59.0625182,70.9425332 C59.0625182,71.0812742 59.0476754,71.2180188 59.0229374,71.3517691 C59.0061156,71.4376088 58.9754404,71.5214522 58.9487234,71.6042975 Z M59.3395841,67.5658383 C59.0625182,67.2863602 58.7508192,67.0517982 58.408445,66.8661448 L59.8096065,65.4517858 C60.5764851,64.677232 60.9990105,63.6471554 60.9990105,62.5502037 C60.9990105,61.4522539 60.5764851,60.4221773 59.8096065,59.6486217 L59.3395841,59.1735088 C58.9378386,58.7702618 58.4618791,58.4578451 57.9364436,58.2542253 L59.8096065,56.3647534 C61.3948188,54.7657392 61.3948188,52.1616017 59.8096065,50.5605912 L59.3395841,50.0874746 C58.9744509,49.7181642 58.5341141,49.423714 58.0452909,49.2200942 L59.7759628,47.4733558 C60.5507576,46.6918151 60.9782305,45.6497609 60.9782305,44.5388353 C60.9782305,43.4259134 60.5507576,42.3838591 59.7759628,41.6023185 L59.3722383,41.196077 C58.6380138,40.4534636 57.6692729,40.0282576 56.6292866,39.9863359 L56.6292866,5.39692265 C56.6292866,2.42048038 54.2287091,0 51.277958,0 L16.6605619,0 C13.7098109,0 11.3092334,2.42048038 11.3092334,5.39692265 L11.3092334,38.441221 C10.4048113,37.9181976 9.55877105,37.7584958 8.78793433,37.9740932 C7.24725043,38.3983011 6.76139571,40.0711775 6.71093015,40.2628196 L6.66937028,40.4215233 L6.68124453,40.5842195 C7.67472342,54.9134633 5.26919833,59.336205 5.20982708,59.4559814 C-2.56582747,68.340392 3.17834085,81.1105471 4.75860559,84.2027732 L0,88.7113546 L1.34475878,90.1546596 L7.22449145,84.5830631 L6.82670408,83.8993397 C6.74556338,83.7596007 -1.25372287,69.7707213 6.73072057,60.7096405 L6.79701846,60.6208064 C6.91675048,60.4411418 9.69631444,56.0533349 8.6533595,40.6431095 C8.78100769,40.316719 9.01156604,39.9643769 9.30644324,39.884526 C9.73787431,39.7637515 10.4790254,40.1490321 11.3092334,40.8986324 L11.3092334,78.0951775 C11.3092334,81.0716198 13.7098109,83.4940964 16.6605619,83.4940964 L47.3634137,83.4940964 C46.0612043,84.9014685 44.5794551,86.6038203 40.8024541,90.8468974 C34.5595673,97.8598026 27.1555361,94.3015077 27.0704373,94.281545 L26.5638026,94.1677574 L20.8770265,99.556695 L23.8046911,99.556695 L27.1703789,96.3117541 C29.1217139,96.6141894 36.0873875,99.1084711 42.2629869,92.1704261 C47.6143154,86.1576534 49.2702203,84.3295365 50.0608474,83.4940964 L51.277958,83.4940964 C54.2287091,83.4940964 56.6292866,81.0716198 56.6292866,78.0951775 L56.6292866,76.7616675 C57.0171787,76.5640365 57.361532,76.3135043 57.6554197,76.0170579 L59.8096065,73.8441153 C60.5764851,73.0695615 61,72.0384868 61,70.9425332 C61,69.8445834 60.5764851,68.8145068 59.8096065,68.039953 L59.3395841,67.5658383 Z" id="Fill-1" fill="url(#linearGradient-3)" mask="url(#mask-2)"></path>
            </g>
            <g id="Icon_logo_y" opacity="0.661435082" transform="translate(36.000000, 51.000000)" fill="#DCCD86">
                <path d="M22.6727403,8.76873313 L21.9177608,8.76448276 L15.429282,8.76542729 L15.429282,5.32844828 L13.5542693,5.32703148 L13.5556861,8.76542729 C11.4884653,8.76401049 10.6358863,7.7362069 10.6358863,5.83802099 L10.6358863,5.32703148 C10.7246704,4.55362069 11.0453321,3.88127436 11.6043254,3.31518741 C12.2670576,2.64457271 13.0765039,2.31005247 14.031405,2.31005247 C14.992288,2.31005247 15.8003175,2.64205397 16.4569104,3.30731634 C17.0195244,3.87812594 17.3375099,4.55125937 17.4181082,5.32703148 L19.2855648,5.32703148 C19.2038646,3.99288606 18.7020141,2.8455997 17.7759207,1.88438531 C16.7615154,0.83107946 15.5207421,0.304347826 14.0580087,0.304347826 C12.5768574,0.304347826 11.32475,0.83958021 10.2966493,1.90563718 C9.36394425,2.87362069 8.85438032,4.01413793 8.76795752,5.32703148 L8.76323497,6.0813943 L8.76512399,12.5762819 L5.32631521,12.5762819 L5.3253707,14.4517991 L8.76512399,14.44991 C8.76323497,16.5174813 7.73513425,17.3702324 5.83776816,17.3702324 L5.3253707,17.3702324 C4.55213066,17.2812894 3.88026818,16.962039 3.31371873,16.4006747 C2.64437495,15.7384033 2.30986047,14.9286282 2.30986047,13.973081 C2.30986047,13.0117091 2.64185625,12.2041379 3.30710715,11.5470615 C3.87743465,10.98491 4.55213066,10.6675487 5.3253707,10.5867916 L5.3253707,8.72024738 C3.99219279,8.80053223 2.84587072,9.30254873 1.88372839,10.2285007 C0.829968449,11.243081 0.304347826,12.4832459 0.304347826,13.9483658 C0.304347826,15.4278111 0.838941308,16.6807271 1.90608183,17.7093178 C2.87341897,18.6426687 4.01454623,19.1516117 5.3253707,19.2366192 L6.08082244,19.2418141 C6.13717829,19.2432309 6.18896901,19.238036 6.24438034,19.2366192 L12.5693013,19.2341004 L12.5693013,22.6726537 L14.4424249,22.6735982 L14.4424249,19.2341004 C16.5101179,19.2366192 17.3622246,20.2634783 17.3622246,22.1616642 L17.3622246,22.6735982 C17.2734406,23.4468516 16.9523067,24.1193553 16.3928411,24.6855997 C15.7301089,25.3546402 14.9206625,25.6896327 13.9660763,25.6896327 C13.0044062,25.6896327 12.1963767,25.3581034 11.5396264,24.6923688 C10.9770124,24.1220315 10.6606011,23.4479535 10.5784286,22.6735982 L8.71301844,22.6735982 C8.79361675,24.0072714 9.29562459,25.15503 10.2217181,26.1157721 C11.2351789,27.1695502 12.4762669,27.6956522 13.9404171,27.6956522 C15.4201517,27.6956522 16.6732035,27.1605772 17.7013043,26.0945202 C18.6336945,25.1260645 19.1432584,23.9844453 19.2292089,22.6735982 L19.2333018,21.9176612 L19.2333018,15.4292279 L22.6727403,15.4292279 L22.6727403,13.55497 L19.2333018,13.5554423 C19.2361354,11.4896027 20.2628193,10.6360645 22.1616022,10.6360645 L22.6727403,10.6360645 C23.4464526,10.7239055 24.1192596,11.0452024 24.685809,11.6045202 C25.3546805,12.2678936 25.6882505,13.0771964 25.6882505,14.0324288 C25.6882505,14.9931709 25.3575141,15.8015292 24.6913187,16.4582909 C24.1220931,17.0209145 23.4478693,17.3392204 22.6727403,17.4195052 L22.6727403,19.2860495 C24.007335,19.2052924 25.1534996,18.7037481 26.1165864,17.7773238 C27.1679851,16.7617991 27.6956522,15.5213193 27.6956522,14.0569865 C27.6956522,12.577069 27.1594845,11.32494 26.0934459,10.296979 C25.1259514,9.36315592 23.9845093,8.85515742 22.6727403,8.76873313 Z M10.1652174,17.1410788 C10.6133429,16.3687957 10.8544978,15.3924546 10.8535655,14.2339523 L10.8549639,10.1652174 C11.6278406,10.61635 12.6064447,10.8575235 13.7688673,10.8575235 L17.8347826,10.8579894 C17.3827725,11.6302725 17.1434822,12.608943 17.1434822,13.7716384 L17.1425499,17.8347826 C16.3698287,17.3834947 15.3896707,17.1415447 14.2258497,17.1420106 L10.1652174,17.1410788 Z" id="Fill-1"></path>
            </g>
        </g>
    </g>
</svg>