<?xml version="1.0" encoding="UTF-8"?>
<svg width="146px" height="111px" viewBox="0 0 146 111" version="1.1" xmlns="http://www.w3.org/2000/svg" xmlns:xlink="http://www.w3.org/1999/xlink">
    <!-- Generator: Sketch 52.3 (67297) - http://www.bohemiancoding.com/sketch -->
    <title>rent_icon03</title>
    <desc>Created with Sketch.</desc>
    <defs>
        <polygon id="path-1" points="0 0 110 0 110 88 0 88"></polygon>
        <linearGradient x1="30.9687183%" y1="-7.67576698%" x2="30.9687183%" y2="79.7698334%" id="linearGradient-3">
            <stop stop-color="#F7E9AC" offset="0%"></stop>
            <stop stop-color="#FFFDEF" offset="100%"></stop>
        </linearGradient>
        <linearGradient x1="50%" y1="0%" x2="50%" y2="100%" id="linearGradient-4">
            <stop stop-color="#33CBC6" offset="0%"></stop>
            <stop stop-color="#33BFE5" offset="100%"></stop>
        </linearGradient>
    </defs>
    <g id="rent_icon03" stroke="none" stroke-width="1" fill="none" fill-rule="evenodd">
        <g id="Group-5">
            <g id="Group-3" transform="translate(0.000000, 1.000000)">
                <mask id="mask-2" fill="white">
                    <use xlink:href="#path-1"></use>
                </mask>
                <g id="Clip-2"></g>
                <path d="M106.922215,28.1627776 C106.859598,28.3686168 106.697397,28.7149889 106.317923,28.7199489 L96.1068144,28.8629617 L83.2039268,16.8507121 L93.6549414,16.3952204 L106.656658,27.0542216 C107.113838,27.4411002 106.958427,28.0453914 106.922215,28.1627776 Z M80.2548894,29.0836809 L68.0045772,17.5128697 L79.8972931,16.9945515 L92.6983337,28.9100815 L80.2548894,29.0836809 Z M65.9495304,29.2829069 C65.9246344,29.2837335 65.8997385,29.2837335 65.875597,29.2837335 C64.3607166,29.2837335 62.8956282,28.6372825 61.7413618,27.4576335 L52.5638124,18.1849472 L64.7213306,17.6558825 L76.8728134,29.1308007 L65.9495304,29.2829069 Z M38.0117572,3.30665464 L49.7913098,3.30665464 L62.250597,15.2808778 L50.2356646,15.8041559 L38.0117572,3.30665464 Z M65.461419,3.30665464 L77.3933649,14.6212002 L65.5338436,15.137865 L53.223932,3.30665464 L65.461419,3.30665464 Z M75.6876157,3.30665464 C77.3503628,3.30665464 78.9459664,3.91425243 80.3009091,5.06496825 L90.8726313,14.034269 L80.7007531,14.4773607 L68.9196917,3.30665464 L75.6876157,3.30665464 Z M108.504993,24.4394845 L82.1484898,2.45023109 C80.2594159,0.847330252 78.025571,0 75.6876157,0 L35.0151911,0 C34.613084,0 34.2479435,0.172772705 33.9771058,0.45383835 C33.8133961,0.519144779 33.6557218,0.611731109 33.5146448,0.742343967 L1.66519115,30.3840228 C1.54222029,30.4468493 1.42302154,30.5220757 1.31513912,30.6237553 C-0.452472741,32.2944426 -0.192196987,35.3068049 0.663318102,36.7501597 C1.28797991,37.8025025 2.87302154,38.0240484 4.09216826,38.0240484 L11.023802,38.0240484 L11.023802,86.3466727 C11.023802,87.2593094 11.6990101,88 12.5326469,88 C13.3655293,88 14.0414919,87.2593094 14.0414919,86.3466727 L14.0414919,37.867809 C14.0414919,36.1309886 12.7514294,34.7173938 11.1656334,34.7173938 L4.09216826,34.7173938 C3.71948355,34.7173938 3.34378116,34.6727539 3.08576867,34.6206741 C2.99146586,34.195769 2.97335972,33.546838 3.23665317,33.2087326 C3.32869271,33.1541728 3.41696014,33.092173 3.49994661,33.0152933 L34.4621995,4.1994514 L59.6825429,29.8756247 C61.398854,31.6289783 63.5927146,32.5903882 65.8748425,32.5903882 C65.9125637,32.5903882 65.9502848,32.5903882 65.9880059,32.5895615 L106.356398,32.0266035 C107.922579,32.0051103 109.268469,30.9006876 109.78374,29.2126404 C110.327678,27.4336602 109.825233,25.5604404 108.504993,24.4394845 Z" id="Fill-1" fill="url(#linearGradient-3)" mask="url(#mask-2)"></path>
            </g>
            <path d="M84.4769373,1.27503238 C78.5445681,7.62631526 75.1423577,14.8246943 74.2703059,22.8701695 L71.4617043,29.2147847 L76.5401507,35.5719599 C76.5401507,49.5447822 79.1857462,57.4838858 84.4769373,59.3892707 C89.7681284,61.2946555 104.734941,61.2946555 129.377376,59.3892707 C105.376119,14.2951623 90.4093064,-5.07625049 84.4769373,1.27503238 Z" id="Path-23" fill="#FFFFFF" fill-rule="nonzero"></path>
            <path d="M101,65 L96.4895071,70 L93,65 L101,65 Z M84,42.7819746 L84,39.0113573 L87.962004,42.7902345 L120.115622,42.7902345 L124,39 L124,42.7819746 C124,53.9069477 115.066851,62.9587008 104.070476,62.997935 C104.046984,62.997935 104.023492,63 104,63 C103.962208,63 103.924417,62.9969026 103.886625,62.9969026 C92.9106787,62.9349538 84,53.8914605 84,42.7819746 Z M79,30.7861749 L81.2917526,26.3110361 L81.2876675,25.9916786 C81.1017945,11.4169887 91.6730653,6.67416832 95.9644845,5.35023002 L95.9644845,12.2034969 C95.9644845,12.9093906 96.5302737,13.4809268 97.227808,13.4809268 C97.9253423,13.4809268 98.4911315,12.9093906 98.4911315,12.2034969 L98.4911315,4.53685029 C103.920257,1.16137607 108.732529,4.35495088 109.15636,4.65260446 L109.15636,12.2034969 C109.15636,12.9093906 109.722149,13.4809268 110.419684,13.4809268 C111.117218,13.4809268 111.683007,12.9093906 111.683007,12.2034969 L111.683007,5.53626351 C128.060256,11.2774635 126.482378,26.1570417 126.403739,26.810226 L126.360845,27.1564549 L128,30.9918453 L126.207653,32.7415936 L123.681006,35.2106713 L118.77784,40 L88.6490548,40 L83.6856333,35.2602802 L81.1589862,32.8490796 L79,30.7861749 Z M115,65 L111.816438,70 L107,65 L115,65 Z M63.5556447,111 L63.5556447,89.3258916 C63.5556447,76.3397822 71.0457929,65.7749691 84.0649006,65.7749691 L89.1875623,65.7749691 L95.8475395,74.5227787 L99.2984869,71.0156114 L101.608079,73.1564168 L98.4269625,111 L108.588545,111 L105.262692,73.1038248 L107.729427,70.7650257 L111.656973,74.5413406 L117.678039,65.7749691 L122.935099,65.7749691 C135.954207,65.7749691 143.444355,76.3397822 143.444355,89.3258916 L143.444355,111 L146,111 L146,89.3258916 C146,74.9342341 137.364361,63.2247707 122.935099,63.2247707 L113.971734,63.2247707 C121.288197,59.43505 126.301272,51.8081728 126.301272,43.0314891 L126.301272,36.7926293 L131.165475,32.1098752 L129.068854,27.274501 C129.249775,24.6057127 129.522708,8.39189562 110.37088,3.03885076 C109.189204,2.26853203 103.298402,-1.12107661 96.7500791,3.01307034 C94.4301491,3.52455373 78.2175193,7.77625937 78.270245,26.2216289 L75.354825,31.8304155 L80.6987278,36.8596584 L80.6987278,43.0314891 C80.6987278,51.8081728 85.7118028,59.43505 93.0282663,63.2247707 L84.0649006,63.2247707 C69.6356394,63.2247707 61,74.9342341 61,89.3258916 L61,111 L63.5556447,111 Z" id="Fill-1" fill="url(#linearGradient-4)"></path>
        </g>
    </g>
</svg>