<?xml version="1.0" encoding="UTF-8"?>
<svg width="134px" height="126px" viewBox="0 0 134 126" version="1.1" xmlns="http://www.w3.org/2000/svg" xmlns:xlink="http://www.w3.org/1999/xlink">
    <!-- Generator: Sketch 52.3 (67297) - http://www.bohemiancoding.com/sketch -->
    <title>rent_icon02</title>
    <desc>Created with Sketch.</desc>
    <defs>
        <linearGradient x1="94.2125154%" y1="54.2707078%" x2="39.9454746%" y2="35.8202798%" id="linearGradient-1">
            <stop stop-color="#FFFFFF" offset="0%"></stop>
            <stop stop-color="#FFF3B5" offset="100%"></stop>
        </linearGradient>
        <polygon id="path-2" points="0.000103175751 0.0172622951 88.4334624 0.0172622951 88.4334624 116.0406 0.000103175751 116.0406"></polygon>
        <linearGradient x1="50%" y1="0%" x2="50%" y2="100%" id="linearGradient-4">
            <stop stop-color="#33CBC6" offset="0%"></stop>
            <stop stop-color="#33BFE5" offset="100%"></stop>
        </linearGradient>
    </defs>
    <g id="rent_icon02" stroke="none" stroke-width="1" fill="none" fill-rule="evenodd">
        <g id="Group-15">
            <g id="Group-13">
                <path d="M20.75,24.15 L23.675,24.15 L23.675,31.6 L32.725,31.6 L32.725,24.15 L35.65,24.15 L35.65,42 L32.725,42 L32.725,34.1 L23.675,34.1 L23.675,42 L20.75,42 L20.75,24.15 Z M42.015476,23.8 C42.565476,23.8 43.040476,23.975 43.415476,24.325 C43.765476,24.675 43.965476,25.125 43.965476,25.675 C43.965476,26.225 43.765476,26.7 43.390476,27.05 C43.015476,27.4 42.565476,27.575 42.015476,27.575 C41.465476,27.575 41.015476,27.4 40.640476,27.05 C40.265476,26.675 40.090476,26.225 40.090476,25.675 C40.090476,25.125 40.265476,24.675 40.640476,24.325 C41.015476,23.975 41.465476,23.8 42.015476,23.8 Z M40.590476,29.075 L43.440476,29.075 L43.440476,42 L40.590476,42 L40.590476,29.075 Z" id="Hi" fill="#FFEE96"></path>
                <path d="M54.7059422,52.7862002 L62.0912761,67.5373865 L47.9125334,58.1541087 C43.7300107,60.5358828 38.8903681,61.8964419 33.73295,61.8964419 C17.8845254,61.8964419 5.03683887,49.0487554 5.03683887,33.2003308 C5.03683887,17.3519063 17.8845254,4.50421968 33.73295,4.50421968 C49.5813745,4.50421968 62.4290611,17.3519063 62.4290611,33.2003308 C62.4290611,40.771708 59.4968009,47.6582191 54.7059436,52.7862011 Z" id="Combined-Shape" stroke="url(#linearGradient-1)" stroke-width="3" fill-rule="nonzero" transform="translate(33.732950, 36.020803) rotate(-10.000000) translate(-33.732950, -36.020803) "></path>
            </g>
            <g id="Group-6" transform="translate(45.000000, 9.000000)">
                <g id="Group-3" transform="translate(0.000000, 0.941754)">
                    <mask id="mask-3" fill="white">
                        <use xlink:href="#path-2"></use>
                    </mask>
                    <g id="Clip-2"></g>
                    <path d="M43.3319946,62.5926984 C31.5036075,62.5926984 21.8810806,52.9497885 21.8810806,41.0973049 L21.8810806,38.5674197 C29.0460591,38.0975016 40.1672312,34.0897721 43.6248333,21.9323213 C46.1465,28.9235508 51.9496828,38.5453623 64.7819516,38.6144115 L64.7819516,41.0973049 C64.7819516,42.8158623 64.5742849,44.4855098 64.1924462,46.0880262 L51.127629,54.2972066 C50.9477151,54.2396656 50.7611022,54.2013049 50.5639624,54.2013049 L44.5961774,54.2013049 C43.5434892,54.2013049 42.6821989,55.0634607 42.6821989,56.1193377 L42.6821989,58.0373705 C42.6821989,59.0922885 43.5434892,59.9554033 44.5961774,59.9554033 L50.5639624,59.9554033 C51.6166505,59.9554033 52.4779409,59.0922885 52.4779409,58.0373705 L52.4779409,56.8433951 L62.6363817,50.461141 C59.1577258,57.6355426 51.8118763,62.5926984 43.3319946,62.5926984 Z M19.0101129,28.465141 L19.0101129,29.3810016 C18.3928548,28.9695836 17.7047796,28.6559852 16.9611989,28.4814443 C17.039672,24.6789443 17.8827796,16.0362885 23.5510269,9.90529672 C27.8507796,5.25214918 34.127672,2.89392787 42.2075323,2.89392787 C51.5171237,2.89392787 58.6007581,5.50053443 63.2593817,10.6418213 C70.5085753,18.6419361 69.4826828,30.2613787 69.4711989,30.3783787 L69.4645,42.7755836 L67.4710914,44.028059 C67.5868871,43.0661656 67.6529194,42.0898869 67.6529194,41.0973049 L67.6529194,28.465141 C67.6529194,15.0254852 56.7422849,4.09269836 43.3319946,4.09269836 C29.9207473,4.09269836 19.0101129,15.0254852 19.0101129,28.465141 Z M18.9833172,39.696182 C18.9833172,41.6132557 17.4272527,43.1726164 15.5142312,43.1726164 C13.6012097,43.1726164 12.0451452,41.6132557 12.0451452,39.696182 L12.0451452,34.6613459 C12.0451452,32.7442721 13.6012097,31.1849115 15.5142312,31.1849115 C17.4272527,31.1849115 18.9833172,32.7442721 18.9833172,34.6613459 L18.9833172,39.696182 Z M64.7819516,35.7364033 C57.5078763,35.6922885 51.929586,32.1851656 48.2049839,25.3003869 C45.3225323,19.9740098 44.6736935,14.5335098 44.6669946,14.4788459 L41.8055968,14.6063951 C41.3634677,32.4604033 26.6267903,35.2300426 21.8810806,35.659682 L21.8810806,28.465141 C21.8810806,16.6126574 31.5045645,6.96974754 43.3319946,6.96974754 C55.1594247,6.96974754 64.7819516,16.6126574 64.7819516,28.465141 L64.7819516,35.7364033 Z M78.4401022,70.9668295 C85.0710806,77.0834361 88.4339409,86.2794443 88.4339409,98.2987967 L88.4339409,116.0406 L85.5629731,116.0406 L85.5629731,98.2987967 C85.5629731,87.1310508 82.5197473,78.6543049 76.5175108,73.104477 C71.5028871,68.4685918 65.3437043,66.7893541 60.9827043,66.199559 L51.4041989,73.5005508 L45.0201237,65.9319934 L44.1473495,65.9319934 L36.7325968,73.5005508 L27.455543,66.2206574 C21.2532957,67.0463705 16.1458441,69.4371984 12.1992204,73.3730016 C2.39486559,83.1520918 2.8743172,99.2827475 2.88005914,99.4448213 L2.88101613,116.0406 L0.0100483871,116.0406 L0.0100483871,99.4975672 C-0.0148333333,98.839682 -0.510553763,81.991682 10.1742312,71.3341328 C15.7544355,65.7680016 23.3328333,62.979182 32.704629,63.0156246 C25.6611882,59.5737148 20.511629,52.8193623 19.2895538,44.788559 C18.2330376,45.5768705 16.9296183,46.0496656 15.5142312,46.0496656 C12.0183495,46.0496656 9.17417742,43.1994689 9.17417742,39.696182 L9.17417742,34.6613459 C9.17417742,31.6529115 11.2728548,29.1326164 14.0777903,28.4785672 C14.1380806,24.2915016 15.0414785,14.8893049 21.4284247,7.96616557 C26.2947151,2.69157541 33.2855215,0.0168786885 42.2075323,0.0168786885 C52.373629,0.0168786885 60.1778763,2.9485918 65.4039946,8.72954262 C73.2704462,17.4316574 72.4378656,29.4145672 72.3354677,30.5845672 L72.3354677,44.3675508 L66.6748763,47.9235836 C64.7274032,54.5992967 59.9931774,60.0829525 53.8339946,63.0549443 L55.2809624,63.0549443 C56.4092527,62.9753459 69.0032312,62.2647148 78.4401022,70.9668295 Z" id="Fill-1" fill="url(#linearGradient-4)" mask="url(#mask-3)"></path>
                </g>
            </g>
        </g>
    </g>
</svg>