<?xml version="1.0" encoding="UTF-8"?>
<svg width="25px" height="26px" viewBox="0 0 25 26" version="1.1" xmlns="http://www.w3.org/2000/svg" xmlns:xlink="http://www.w3.org/1999/xlink">
    <!-- Generator: Sketch 52.3 (67297) - http://www.bohemiancoding.com/sketch -->
    <title>s_download_icon </title>
    <desc>Created with Sketch.</desc>
    <g id="s_download_icon-" stroke="none" stroke-width="1" fill="none" fill-rule="evenodd">
        <g id="Group-6" transform="translate(1.000000, 1.000000)" fill="#8A8A8A">
            <path d="M19.9766,15.2851 L19.9766,20.7611 L3.2186,20.7611 L3.2186,15.2851 L-0.000399999997,15.2851 L-0.000399999997,22.3711 C-0.000399999997,23.2611 0.7186,23.9801 1.6126,23.9801 L21.5856,23.9801 C22.4766,23.9801 23.1996,23.2611 23.1996,22.3711 L23.1996,15.2851 L19.9766,15.2851 Z" id="Fill-1"></path>
            <path d="M11.3052,14.7422 L6.6952,9.1682 C6.6952,9.1682 5.9922,8.5072 6.7542,8.5072 L9.3522,8.5072 L9.3522,0.3942 C9.3522,0.3942 9.2462,0.0002 9.8442,0.0002 L13.5002,0.0002 C13.9302,0.0002 13.9222,0.3322 13.9222,0.3322 L13.9222,8.3392 L16.3202,8.3392 C17.2422,8.3392 16.5472,9.0312 16.5472,9.0312 C16.5472,9.0312 12.6252,14.2422 12.0742,14.7892 C11.6802,15.1822 11.3052,14.7422 11.3052,14.7422" id="Fill-4"></path>
        </g>
    </g>
</svg>