<?xml version="1.0" encoding="UTF-8"?>
<svg width="567px" height="76px" viewBox="0 0 567 76" version="1.1" xmlns="http://www.w3.org/2000/svg" xmlns:xlink="http://www.w3.org/1999/xlink">
    <!-- Generator: Sketch 52.3 (67297) - http://www.bohemiancoding.com/sketch -->
    <title>title_font_INVESTMENT</title>
    <desc>Created with Sketch.</desc>
    <defs>
        <linearGradient x1="55.8875%" y1="100%" x2="55.8875%" y2="-53.6272321%" id="linearGradient-1">
            <stop stop-color="#FFFFFF" stop-opacity="0" offset="0%"></stop>
            <stop stop-color="#FFFFFF" offset="100%"></stop>
        </linearGradient>
        <path d="M0.75,2.2 L7.95,2.2 L7.95,74 L0.75,74 L0.75,2.2 Z M24.45,74 L24.45,2.2 L26.05,2.2 L73.75,57.2 L73.75,2.2 L80.85,2.2 L80.85,74 L79.25,74 L31.85,19.7 L31.85,74 L24.45,74 Z M92.95,2.2 L100.75,2.2 L124.55,59.5 L148.75,2.2 L156.55,2.2 L125.25,75.8 L123.75,75.8 L92.95,2.2 Z M168.65,2.2 L209.85,2.2 L209.85,9.3 L175.85,9.3 L175.85,31.7 L209.55,31.7 L209.55,38.7 L175.85,38.7 L175.85,66.9 L209.55,66.9 L209.55,74 L168.65,74 L168.65,2.2 Z M214.75,60.6 L220.85,57 C225.116688,64.866706 230.083305,68.8 235.75,68.8 C239.416685,68.8 242.549987,67.633345 245.15,65.3 C247.750013,62.966655 249.05,60.066684 249.05,56.6 C249.05,53.866653 247.950011,51.100014 245.75,48.3 C243.549989,45.499986 239.900026,42.1833525 234.8,38.35 C229.699975,34.5166475 226.266676,31.6500095 224.5,29.75 C222.733325,27.8499905 221.433338,25.8166775 220.6,23.65 C219.766663,21.4833225 219.35,19.300011 219.35,17.1 C219.35,12.43331 220.999984,8.4833495 224.3,5.25 C227.600017,2.0166505 231.749975,0.4 236.75,0.4 C240.683353,0.4 244.116652,1.3833235 247.05,3.35 C249.983348,5.3166765 252.816653,8.233314 255.55,12.1 L249.75,16.6 C247.883324,14.066654 245.95001,11.966675 243.95,10.3 C241.94999,8.633325 239.500015,7.8 236.6,7.8 C233.699986,7.8 231.333343,8.666658 229.5,10.4 C227.666658,12.133342 226.75,14.33332 226.75,17 C226.75,19.66668 227.566659,21.9833235 229.2,23.95 C230.833342,25.9166765 234.533305,29.033312 240.3,33.3 C246.066696,37.566688 250.266654,41.499982 252.9,45.1 C255.533347,48.700018 256.85,52.49998 256.85,56.5 C256.85,61.700026 254.833354,66.2166475 250.8,70.05 C246.766647,73.8833525 242.08336,75.8 236.75,75.8 C227.349953,75.8 220.016693,70.733384 214.75,60.6 Z M264.85,9.2 L264.85,2.2 L304.25,2.2 L304.25,9.2 L288.25,9.2 L288.25,74 L280.95,74 L280.95,9.2 L264.85,9.2 Z M311.35,74 L321.55,2.2 L322.65,2.2 L351.85,61.1 L380.85,2.2 L381.95,2.2 L392.25,74 L385.15,74 L378.15,22.6 L352.75,74 L350.95,74 L325.25,22.2 L318.25,74 L311.35,74 Z M406.55,2.2 L447.75,2.2 L447.75,9.3 L413.75,9.3 L413.75,31.7 L447.45,31.7 L447.45,38.7 L413.75,38.7 L413.75,66.9 L447.45,66.9 L447.45,74 L406.55,74 L406.55,2.2 Z M460.15,74 L460.15,2.2 L461.75,2.2 L509.45,57.2 L509.45,2.2 L516.55,2.2 L516.55,74 L514.95,74 L467.55,19.7 L467.55,74 L460.15,74 Z M526.95,9.2 L526.95,2.2 L566.35,2.2 L566.35,9.2 L550.35,9.2 L550.35,74 L543.05,74 L543.05,9.2 L526.95,9.2 Z" id="path-2"></path>
    </defs>
    <g id="title_font_INVESTMENT" stroke="none" stroke-width="1" fill="none" fill-rule="evenodd">
        <g id="INVESTMENT">
            <use fill-opacity="0" fill="#FFFFFF" xlink:href="#path-2"></use>
            <use fill="url(#linearGradient-1)" xlink:href="#path-2"></use>
        </g>
    </g>
</svg>