<?xml version="1.0" encoding="UTF-8"?>
<svg width="698px" height="76px" viewBox="0 0 698 76" version="1.1" xmlns="http://www.w3.org/2000/svg" xmlns:xlink="http://www.w3.org/1999/xlink">
    <!-- Generator: Sketch 52.3 (67297) - http://www.bohemiancoding.com/sketch -->
    <title>title_font_NEWS REPORTS</title>
    <desc>Created with Sketch.</desc>
    <defs>
        <linearGradient x1="55.8875%" y1="100%" x2="55.8875%" y2="0%" id="linearGradient-1">
            <stop stop-color="#FFFFFF" stop-opacity="0" offset="0%"></stop>
            <stop stop-color="#FFFFFF" offset="100%"></stop>
        </linearGradient>
        <path d="M0.85,74 L0.85,2.2 L2.45,2.2 L50.15,57.2 L50.15,2.2 L57.25,2.2 L57.25,74 L55.65,74 L8.25,19.7 L8.25,74 L0.85,74 Z M74.85,2.2 L116.05,2.2 L116.05,9.3 L82.05,9.3 L82.05,31.7 L115.75,31.7 L115.75,38.7 L82.05,38.7 L82.05,66.9 L115.75,66.9 L115.75,74 L74.85,74 L74.85,2.2 Z M124.35,2.2 L131.75,2.2 L146.35,55.7 L166.95,2.2 L168.35,2.2 L188.75,55.7 L203.65,2.2 L210.95,2.2 L190.35,75.8 L188.95,75.8 L167.65,19.7 L145.95,75.8 L144.65,75.8 L124.35,2.2 Z M216.95,60.6 L223.05,57 C227.316688,64.866706 232.283305,68.8 237.95,68.8 C241.616685,68.8 244.749987,67.633345 247.35,65.3 C249.950013,62.966655 251.25,60.066684 251.25,56.6 C251.25,53.866653 250.150011,51.100014 247.95,48.3 C245.749989,45.499986 242.100026,42.1833525 237,38.35 C231.899975,34.5166475 228.466676,31.6500095 226.7,29.75 C224.933325,27.8499905 223.633338,25.8166775 222.8,23.65 C221.966663,21.4833225 221.55,19.300011 221.55,17.1 C221.55,12.43331 223.199984,8.4833495 226.5,5.25 C229.800017,2.0166505 233.949975,0.4 238.95,0.4 C242.883353,0.4 246.316652,1.3833235 249.25,3.35 C252.183348,5.3166765 255.016653,8.233314 257.75,12.1 L251.95,16.6 C250.083324,14.066654 248.15001,11.966675 246.15,10.3 C244.14999,8.633325 241.700015,7.8 238.8,7.8 C235.899986,7.8 233.533343,8.666658 231.7,10.4 C229.866658,12.133342 228.95,14.33332 228.95,17 C228.95,19.66668 229.766659,21.9833235 231.4,23.95 C233.033342,25.9166765 236.733305,29.033312 242.5,33.3 C248.266696,37.566688 252.466654,41.499982 255.1,45.1 C257.733347,48.700018 259.05,52.49998 259.05,56.5 C259.05,61.700026 257.033354,66.2166475 253,70.05 C248.966647,73.8833525 244.28336,75.8 238.95,75.8 C229.549953,75.8 222.216693,70.733384 216.95,60.6 Z M299.55,2.2 L313.85,2.2 C321.85004,2.2 327.316652,2.5499965 330.25,3.25 C333.183348,3.9500035 335.69999,5.099992 337.8,6.7 C339.900011,8.300008 341.549994,10.366654 342.75,12.9 C343.950006,15.433346 344.55,18.233318 344.55,21.3 C344.55,27.433364 342.383355,32.2499825 338.05,35.75 C333.716645,39.2500175 327.583373,40.866668 319.65,40.6 L345.55,74 L336.65,74 L310.85,40.6 L306.75,40.6 L306.75,74 L299.55,74 L299.55,2.2 Z M306.75,9.2 L306.75,33.6 L319.15,33.6 C325.283364,33.666667 329.799986,32.7166765 332.7,30.75 C335.600015,28.7833235 337.05,25.666688 337.05,21.4 C337.05,17.133312 335.616681,14.033343 332.75,12.1 C329.883319,10.166657 325.45003,9.2 319.45,9.2 L306.75,9.2 Z M359.95,2.2 L401.15,2.2 L401.15,9.3 L367.15,9.3 L367.15,31.7 L400.85,31.7 L400.85,38.7 L367.15,38.7 L367.15,66.9 L400.85,66.9 L400.85,74 L359.95,74 L359.95,2.2 Z M413.45,2.2 L427.75,2.2 C436.216709,2.2 441.749987,2.53333 444.35,3.2 C446.950013,3.86667 449.333323,5.033325 451.5,6.7 C453.666678,8.366675 455.349994,10.4499875 456.55,12.95 C457.750006,15.4500125 458.35,18.233318 458.35,21.3 C458.35,26.233358 457.01668,30.266651 454.35,33.4 C451.68332,36.533349 448.333354,38.5166625 444.3,39.35 C440.266647,40.1833375 434.083375,40.6 425.75,40.6 L420.65,40.6 L420.65,74 L413.45,74 L413.45,2.2 Z M420.65,9.2 L420.65,33.7 L432.75,33.7 C440.016703,33.833334 444.849988,32.6500125 447.25,30.15 C449.650012,27.6499875 450.85,24.700017 450.85,21.3 C450.85,13.233293 445.016725,9.2 433.35,9.2 L420.65,9.2 Z M469.55,38.4 C469.55,31.466632 471.21665,25.066696 474.55,19.2 C477.88335,13.333304 482.449971,8.73335 488.25,5.4 C494.050029,2.06665 500.366633,0.4 507.2,0.4 C514.033368,0.4 520.399971,2.0499835 526.3,5.35 C532.20003,8.6500165 536.833317,13.2166375 540.2,19.05 C543.566684,24.8833625 545.25,31.2166325 545.25,38.05 C545.25,44.8833675 543.58335,51.2166375 540.25,57.05 C536.91665,62.8833625 532.333363,67.46665 526.5,70.8 C520.666638,74.13335 514.333368,75.8 507.5,75.8 C500.666633,75.8 494.316696,74.1500165 488.45,70.85 C482.583304,67.5499835 477.966684,63.000029 474.6,57.2 C471.233317,51.399971 469.55,45.133367 469.55,38.4 Z M537.75,38.1 C537.75,29.499957 534.766697,22.233363 528.8,16.3 C522.833304,10.366637 515.650042,7.4 507.25,7.4 C498.649957,7.4 491.466696,10.3833035 485.7,16.35 C479.933305,22.3166965 477.05,29.5832905 477.05,38.15 C477.05,46.7167095 480.016637,53.966637 485.95,59.9 C491.883363,65.833363 499.049958,68.8 507.45,68.8 C515.850042,68.8 522.999971,65.900029 528.9,60.1 C534.80003,54.299971 537.75,46.966711 537.75,38.1 Z M559.95,2.2 L574.25,2.2 C582.25004,2.2 587.716652,2.5499965 590.65,3.25 C593.583348,3.9500035 596.09999,5.099992 598.2,6.7 C600.300011,8.300008 601.949994,10.366654 603.15,12.9 C604.350006,15.433346 604.95,18.233318 604.95,21.3 C604.95,27.433364 602.783355,32.2499825 598.45,35.75 C594.116645,39.2500175 587.983373,40.866668 580.05,40.6 L605.95,74 L597.05,74 L571.25,40.6 L567.15,40.6 L567.15,74 L559.95,74 L559.95,2.2 Z M567.15,9.2 L567.15,33.6 L579.55,33.6 C585.683364,33.666667 590.199986,32.7166765 593.1,30.75 C596.000015,28.7833235 597.45,25.666688 597.45,21.4 C597.45,17.133312 596.016681,14.033343 593.15,12.1 C590.283319,10.166657 585.85003,9.2 579.85,9.2 L567.15,9.2 Z M613.15,9.2 L613.15,2.2 L652.55,2.2 L652.55,9.2 L636.55,9.2 L636.55,74 L629.25,74 L629.25,9.2 L613.15,9.2 Z M655.45,60.6 L661.55,57 C665.816688,64.866706 670.783305,68.8 676.45,68.8 C680.116685,68.8 683.249987,67.633345 685.85,65.3 C688.450013,62.966655 689.75,60.066684 689.75,56.6 C689.75,53.866653 688.650011,51.100014 686.45,48.3 C684.249989,45.499986 680.600026,42.1833525 675.5,38.35 C670.399975,34.5166475 666.966676,31.6500095 665.2,29.75 C663.433325,27.8499905 662.133338,25.8166775 661.3,23.65 C660.466663,21.4833225 660.05,19.300011 660.05,17.1 C660.05,12.43331 661.699984,8.4833495 665,5.25 C668.300017,2.0166505 672.449975,0.4 677.45,0.4 C681.383353,0.4 684.816652,1.3833235 687.75,3.35 C690.683348,5.3166765 693.516653,8.233314 696.25,12.1 L690.45,16.6 C688.583324,14.066654 686.65001,11.966675 684.65,10.3 C682.64999,8.633325 680.200015,7.8 677.3,7.8 C674.399986,7.8 672.033343,8.666658 670.2,10.4 C668.366658,12.133342 667.45,14.33332 667.45,17 C667.45,19.66668 668.266659,21.9833235 669.9,23.95 C671.533342,25.9166765 675.233305,29.033312 681,33.3 C686.766696,37.566688 690.966654,41.499982 693.6,45.1 C696.233347,48.700018 697.55,52.49998 697.55,56.5 C697.55,61.700026 695.533354,66.2166475 691.5,70.05 C687.466647,73.8833525 682.78336,75.8 677.45,75.8 C668.049953,75.8 660.716693,70.733384 655.45,60.6 Z" id="path-2"></path>
    </defs>
    <g id="title_font_NEWS-REPORTS" stroke="none" stroke-width="1" fill="none" fill-rule="evenodd">
        <g id="NEWS-REPORTS">
            <use fill-opacity="0" fill="#FFFFFF" xlink:href="#path-2"></use>
            <use fill="url(#linearGradient-1)" xlink:href="#path-2"></use>
        </g>
    </g>
</svg>