<?xml version="1.0" encoding="UTF-8"?>
<svg width="688px" height="75px" viewBox="0 0 688 75" version="1.1" xmlns="http://www.w3.org/2000/svg" xmlns:xlink="http://www.w3.org/1999/xlink">
    <!-- Generator: Sketch 52.3 (67297) - http://www.bohemiancoding.com/sketch -->
    <title>title_font_FINMARTPEDIA</title>
    <desc>Created with Sketch.</desc>
    <defs>
        <linearGradient x1="55.8875%" y1="100%" x2="55.8875%" y2="-25.6361607%" id="linearGradient-1">
            <stop stop-color="#FFFFFF" stop-opacity="0" offset="0%"></stop>
            <stop stop-color="#FFFFFF" offset="100%"></stop>
        </linearGradient>
        <path d="M0.15,3.2 L36.15,3.2 L36.15,10.3 L7.35,10.3 L7.35,32.7 L36.15,32.7 L36.15,39.8 L7.35,39.8 L7.35,75 L0.15,75 L0.15,3.2 Z M47.65,3.2 L54.85,3.2 L54.85,75 L47.65,75 L47.65,3.2 Z M71.35,75 L71.35,3.2 L72.95,3.2 L120.65,58.2 L120.65,3.2 L127.75,3.2 L127.75,75 L126.15,75 L78.75,20.7 L78.75,75 L71.35,75 Z M142.05,75 L152.25,3.2 L153.35,3.2 L182.55,62.1 L211.55,3.2 L212.65,3.2 L222.95,75 L215.85,75 L208.85,23.6 L183.45,75 L181.65,75 L155.95,23.2 L148.95,75 L142.05,75 Z M266.55,0.3 L300.05,75 L292.35,75 L281.05,50.5 L250.05,50.5 L238.85,75 L230.85,75 L264.75,0.3 L266.55,0.3 Z M265.65,16.2 L253.35,43.2 L277.85,43.2 L265.65,16.2 Z M311.55,3.2 L325.85,3.2 C333.85004,3.2 339.316652,3.5499965 342.25,4.25 C345.183348,4.9500035 347.69999,6.099992 349.8,7.7 C351.900011,9.300008 353.549994,11.366654 354.75,13.9 C355.950006,16.433346 356.55,19.233318 356.55,22.3 C356.55,28.433364 354.383355,33.2499825 350.05,36.75 C345.716645,40.2500175 339.583373,41.866668 331.65,41.6 L357.55,75 L348.65,75 L322.85,41.6 L318.75,41.6 L318.75,75 L311.55,75 L311.55,3.2 Z M318.75,10.2 L318.75,34.6 L331.15,34.6 C337.283364,34.666667 341.799986,33.7166765 344.7,31.75 C347.600015,29.7833235 349.05,26.666688 349.05,22.4 C349.05,18.133312 347.616681,15.033343 344.75,13.1 C341.883319,11.166657 337.45003,10.2 331.45,10.2 L318.75,10.2 Z M364.75,10.2 L364.75,3.2 L404.15,3.2 L404.15,10.2 L388.15,10.2 L388.15,75 L380.85,75 L380.85,10.2 L364.75,10.2 Z M414.45,3.2 L428.75,3.2 C437.216709,3.2 442.749987,3.53333 445.35,4.2 C447.950013,4.86667 450.333323,6.033325 452.5,7.7 C454.666678,9.366675 456.349994,11.4499875 457.55,13.95 C458.750006,16.4500125 459.35,19.233318 459.35,22.3 C459.35,27.233358 458.01668,31.266651 455.35,34.4 C452.68332,37.533349 449.333354,39.5166625 445.3,40.35 C441.266647,41.1833375 435.083375,41.6 426.75,41.6 L421.65,41.6 L421.65,75 L414.45,75 L414.45,3.2 Z M421.65,10.2 L421.65,34.7 L433.75,34.7 C441.016703,34.833334 445.849988,33.6500125 448.25,31.15 C450.650012,28.6499875 451.85,25.700017 451.85,22.3 C451.85,14.233293 446.016725,10.2 434.35,10.2 L421.65,10.2 Z M473.75,3.2 L514.95,3.2 L514.95,10.3 L480.95,10.3 L480.95,32.7 L514.65,32.7 L514.65,39.7 L480.95,39.7 L480.95,67.9 L514.65,67.9 L514.65,75 L473.75,75 L473.75,3.2 Z M527.25,75 L527.25,3.2 L542.15,3.2 C552.350051,3.2 559.83331,3.9499925 564.6,5.45 C569.366691,6.9500075 573.483316,9.3166505 576.95,12.55 C580.416684,15.7833495 583.083324,19.73331 584.95,24.4 C586.816676,29.06669 587.75,34.5166355 587.75,40.75 C587.75,46.9833645 586.300015,52.8499725 583.4,58.35 C580.499986,63.8500275 576.566692,67.999986 571.6,70.8 C566.633309,73.600014 559.48338,75 550.15,75 L527.25,75 Z M534.15,68.2 L542.45,68.2 C551.11671,68.2 557.399981,67.766671 561.3,66.9 C565.20002,66.033329 568.616652,64.3166795 571.55,61.75 C574.483348,59.1833205 576.716659,56.066685 578.25,52.4 C579.783341,48.733315 580.55,44.533357 580.55,39.8 C580.55,35.066643 579.666676,30.70002 577.9,26.7 C576.133325,22.69998 573.616683,19.400013 570.35,16.8 C567.083317,14.199987 563.233356,12.4500045 558.8,11.55 C554.366645,10.6499955 547.850043,10.2 539.25,10.2 L534.15,10.2 L534.15,68.2 Z M600.65,3.2 L607.85,3.2 L607.85,75 L600.65,75 L600.65,3.2 Z M653.65,0.3 L687.15,75 L679.45,75 L668.15,50.5 L637.15,50.5 L625.95,75 L617.95,75 L651.85,0.3 L653.65,0.3 Z M652.75,16.2 L640.45,43.2 L664.95,43.2 L652.75,16.2 Z" id="path-2"></path>
    </defs>
    <g id="title_font_FINMARTPEDIA" stroke="none" stroke-width="1" fill="none" fill-rule="evenodd">
        <g id="FINMARTPEDIA">
            <use fill-opacity="0" fill="#FFFFFF" xlink:href="#path-2"></use>
            <use fill-opacity="0" fill="#FFFFFF" xlink:href="#path-2"></use>
            <use fill="url(#linearGradient-1)" xlink:href="#path-2"></use>
        </g>
    </g>
</svg>