<?xml version="1.0" encoding="UTF-8"?>
<svg width="678px" height="87px" viewBox="0 0 678 87" version="1.1" xmlns="http://www.w3.org/2000/svg" xmlns:xlink="http://www.w3.org/1999/xlink">
    <!-- Generator: Sketch 52.3 (67297) - http://www.bohemiancoding.com/sketch -->
    <title>title_font_Bulletin Board</title>
    <desc>Created with Sketch.</desc>
    <defs>
        <linearGradient x1="50%" y1="0%" x2="50%" y2="100%" id="linearGradient-1">
            <stop stop-color="#FFFFFF" offset="0%"></stop>
            <stop stop-color="#FFFFFF" stop-opacity="0" offset="100%"></stop>
        </linearGradient>
    </defs>
    <g id="title_font_Bulletin-Board" stroke="none" stroke-width="1" fill="none" fill-rule="evenodd" opacity="0.692638579">
        <path d="M3,13 L15.1793417,13 C20.0791013,13 23.8448601,13.5830442 26.476731,14.7491502 C29.1086019,15.9152562 31.1874687,17.7065368 32.7133939,20.1230455 C34.239319,22.5395543 35.0022701,25.2229628 35.0022701,28.1733515 C35.0022701,30.9270475 34.3303132,33.4348403 32.9863791,35.6968049 C31.642445,37.9587695 29.6685715,39.7921978 27.0646992,41.1971448 C30.2845413,42.2930034 32.7623825,43.5785106 34.4982974,45.053705 C36.2342122,46.5288993 37.5851257,48.3131552 38.5510783,50.4065262 C39.5170309,52.4998972 40,54.7688525 40,57.2134602 C40,62.1869725 38.1871161,66.3947256 34.561294,69.8368457 C30.9354718,73.2789658 26.0707835,75 19.9670829,75 L3,75 L3,13 Z M8,19 L8,39 L11.6129032,39 C16.0000219,39 19.2257961,38.596607 21.2903226,37.7898089 C23.354849,36.9830108 24.9892413,35.7091382 26.1935484,33.9681529 C27.3978555,32.2271675 28,30.2951274 28,28.1719745 C28,25.3127953 26.9892574,23.0693641 24.9677419,21.4416136 C22.9462265,19.8138631 19.7276206,19 15.311828,19 L8,19 Z M8,45 L8,69 L15.7910959,69 C20.3858677,69 23.753414,68.553196 25.8938356,67.6595745 C28.0342573,66.765953 29.7537036,65.3688038 31.052226,63.4680851 C32.3507485,61.5673664 33,59.5106494 33,57.2978723 C33,54.5177166 32.0867671,52.0922089 30.260274,50.0212766 C28.4337808,47.9503443 25.9223904,46.5319187 22.7260274,45.7659574 C20.5856057,45.2553166 16.8613279,45 11.5530822,45 L8,45 Z M52,13 L58.187885,13 L58.187885,50.6870027 C58.187885,55.1574052 58.2720731,57.9442916 58.4404517,59.0477454 C58.749146,61.5092961 59.4647446,63.567631 60.587269,65.2228117 C61.7097934,66.8779924 63.4356489,68.2643622 65.7648871,69.3819629 C68.0941253,70.4995635 70.4373599,71.0583554 72.7946612,71.0583554 C74.8432683,71.0583554 76.8076566,70.6198099 78.687885,69.7427056 C80.5681134,68.8656013 82.1396241,67.648991 83.4024641,66.0928382 C84.6653041,64.5366854 85.5913728,62.6551834 86.1806982,60.4482759 C86.6016448,58.8638294 86.812115,55.6101042 86.812115,50.6870027 L86.812115,13 L93,13 L93,50.6870027 C93,56.260859 92.4597932,60.7665611 91.3793634,64.204244 C90.2989337,67.641927 88.1381066,70.6339395 84.8968172,73.1803714 C81.6555279,75.7268032 77.733767,77 73.1314168,77 C68.1361831,77 63.8566229,75.7975363 60.2926078,73.3925729 C56.7285927,70.9876095 54.3432641,67.8046175 53.1365503,63.8435013 C52.3788463,61.4102442 52,57.0247885 52,50.6870027 L52,13 Z M109,13 L115.227209,13 L115.227209,69.0149558 L139,69.0149558 L139,75 L109,75 L109,13 Z M149,13 L155.227209,13 L155.227209,69.0149558 L179,69.0149558 L179,75 L149,75 L149,13 Z M189,13 L225,13 L225,19.1114888 L195.27758,19.1114888 L195.27758,38.4996601 L224.743772,38.4996601 L224.743772,44.5690007 L195.27758,44.5690007 L195.27758,68.8885112 L224.743772,68.8885112 L224.743772,75 L189,75 L189,13 Z M229,19.0271924 L229,13 L263,13 L263,19.0271924 L249.180917,19.0271924 L249.180917,75 L242.861214,75 L242.861214,19.0271924 L229,19.0271924 Z M271,13 L277,13 L277,75 L271,75 L271,13 Z M291,75 L291,13 L292.357576,13 L333.848485,60.4588715 L333.848485,13 L340,13 L340,75 L338.6,75 L297.448485,28.1312033 L297.448485,75 L291,75 Z M380,13 L392.179342,13 C397.079101,13 400.84486,13.5830442 403.476731,14.7491502 C406.108602,15.9152562 408.187469,17.7065368 409.713394,20.1230455 C411.239319,22.5395543 412.00227,25.2229628 412.00227,28.1733515 C412.00227,30.9270475 411.330313,33.4348403 409.986379,35.6968049 C408.642445,37.9587695 406.668571,39.7921978 404.064699,41.1971448 C407.284541,42.2930034 409.762383,43.5785106 411.498297,45.053705 C413.234212,46.5288993 414.585126,48.3131552 415.551078,50.4065262 C416.517031,52.4998972 417,54.7688525 417,57.2134602 C417,62.1869725 415.187116,66.3947256 411.561294,69.8368457 C407.935472,73.2789658 403.070783,75 396.967083,75 L380,75 L380,13 Z M386,19 L386,39 L389.612903,39 C394.000022,39 397.225796,38.596607 399.290323,37.7898089 C401.354849,36.9830108 402.989241,35.7091382 404.193548,33.9681529 C405.397855,32.2271675 406,30.2951274 406,28.1719745 C406,25.3127953 404.989257,23.0693641 402.967742,21.4416136 C400.946226,19.8138631 397.727621,19 393.311828,19 L386,19 Z M386,45 L386,69 L393.791096,69 C398.385868,69 401.753414,68.553196 403.893836,67.6595745 C406.034257,66.765953 407.753704,65.3688038 409.052226,63.4680851 C410.350749,61.5673664 411,59.5106494 411,57.2978723 C411,54.5177166 410.086767,52.0922089 408.260274,50.0212766 C406.433781,47.9503443 403.92239,46.5319187 400.726027,45.7659574 C398.585606,45.2553166 394.861328,45 389.553082,45 L386,45 Z M459.101356,11 C468.445065,11 476.26401,14.1272611 482.558425,20.381877 C488.85284,26.636493 492,34.3354451 492,43.4789644 C492,52.5383409 488.859833,60.2232694 482.579406,66.5339806 C476.298979,72.8446917 468.640889,76 459.604906,76 C450.457023,76 442.73599,72.8587153 436.441575,66.5760518 C430.14716,60.2933882 427,52.6926012 427,43.7734628 C427,37.8273705 428.433706,32.3160987 431.301162,27.2394822 C434.168618,22.1628657 438.07809,18.1871773 443.029697,15.3122977 C447.981303,12.4374182 453.338469,11 459.101356,11 Z M459.372186,17 C454.742474,17 450.354254,18.1936818 446.207395,20.5810811 C442.060537,22.9684804 438.822627,26.1843995 436.493569,30.2289348 C434.164511,34.2734701 433,38.7813742 433,43.7527822 C433,51.1115895 435.577547,57.3257563 440.732717,62.395469 C445.887888,67.4651817 452.100982,70 459.372186,70 C464.229124,70 468.723854,68.8344049 472.856511,66.5031797 C476.989169,64.1719544 480.212877,60.984122 482.527733,56.9395866 C484.842589,52.8950513 486,48.4011906 486,43.4578696 C486,38.5426357 484.842589,34.0979266 482.527733,30.1236089 C480.212877,26.1492912 476.953665,22.9684804 472.75,20.5810811 C468.546335,18.1936818 464.087108,17 459.372186,17 Z M529.952717,13 L559,75 L552.309809,75 L542.528582,54.6002719 L515.683133,54.6002719 L505.944248,75 L499,75 L528.42837,13 L529.952717,13 Z M528.562624,26 L518,48 L539,48 L528.562624,26 Z M569,13 L581.454835,13 C588.397838,13 593.102007,13.2809852 595.567481,13.842964 C599.279863,14.6859322 602.297898,16.4912619 604.621679,19.2590075 C606.94546,22.026753 608.107333,25.4336983 608.107333,29.4799456 C608.107333,32.8518184 607.306774,35.816212 605.705632,38.3732155 C604.104491,40.930219 601.816168,42.8619921 598.840595,44.1685928 C595.865022,45.4751935 591.75596,46.1425333 586.513284,46.1706322 L609,75 L601.263549,75 L578.819341,46.1706322 L575.248672,46.1706322 L575.248672,75 L569,75 L569,13 Z M575,19 L575,39.9163347 L585.609677,40 C589.719375,40 592.759668,39.6095657 594.730645,38.8286853 C596.701623,38.0478049 598.239242,36.7998094 599.343548,35.0846614 C600.447855,33.3695133 601,31.4522018 601,29.3326693 C601,27.268914 600.440866,25.3934347 599.322581,23.7061753 C598.204295,22.0189159 596.736568,20.8127526 594.919355,20.0876494 C593.102141,19.3625462 590.082817,19 585.86129,19 L575,19 Z M621,75 L621,13 L633.800646,13 C643.033944,13 649.734981,13.7446107 653.903955,15.2338545 C659.891609,17.341275 664.571143,20.9940823 667.942696,26.1923861 C671.314249,31.3906899 673,37.5864132 673,44.7797417 C673,50.9896073 671.66399,56.4547691 668.991929,61.1753909 C666.319868,65.8960127 662.850438,69.380229 658.583535,71.6281441 C654.316632,73.8760593 648.336062,75 640.641646,75 L621,75 Z M627,69 L634.165437,69 C642.735905,69 648.678944,68.4673448 651.994731,67.4020185 C656.659314,65.8881337 660.326295,63.1617803 662.995785,59.2228764 C665.665275,55.2839725 667,50.46905 667,44.7779647 C667,38.8065303 665.552877,33.7042544 662.658588,29.470984 C659.764299,25.2377136 655.732024,22.3361447 650.561644,20.7661901 C646.683858,19.5887241 640.291228,19 631.383562,19 L627,19 L627,69 Z" id="BULLETIN-BOARD" fill="url(#linearGradient-1)"></path>
    </g>
</svg>