<?xml version="1.0" encoding="UTF-8"?>
<svg width="230px" height="81px" viewBox="0 0 230 81" version="1.1" xmlns="http://www.w3.org/2000/svg" xmlns:xlink="http://www.w3.org/1999/xlink">
    <!-- Generator: Sketch 52.3 (67297) - http://www.bohemiancoding.com/sketch -->
    <title>title_font_Q&amp;A</title>
    <desc>Created with Sketch.</desc>
    <defs>
        <linearGradient x1="55.8875%" y1="100%" x2="55.8875%" y2="-26.3727679%" id="linearGradient-1">
            <stop stop-color="#FFFFFF" stop-opacity="0" offset="0%"></stop>
            <stop stop-color="#FFFFFF" offset="100%"></stop>
        </linearGradient>
        <path d="M63.6,67.2 L74.2,80.7 L65.4,80.7 L58.1,71.4 C52.166637,75.000018 45.700035,76.8 38.7,76.8 C27.833279,76.8 18.7167035,73.1833695 11.35,65.95 C3.9832965,58.7166305 0.3,49.866719 0.3,39.4 C0.3,28.666613 3.866631,19.6500365 11,12.35 C18.133369,5.0499635 27.166612,1.4 38.1,1.4 C44.966701,1.4 51.3166375,3.06665 57.15,6.4 C62.9833625,9.73335 67.56665,14.299971 70.9,20.1 C74.23335,25.900029 75.9,32.233299 75.9,39.1 C75.9,50.100055 71.800041,59.466628 63.6,67.2 Z M59.2,61.6 C65.400031,55.466636 68.5,48.033377 68.5,39.3 C68.5,30.566623 65.50003,23.233363 59.5,17.3 C53.49997,11.366637 46.333375,8.4 38,8.4 C29.666625,8.4 22.5500295,11.39997 16.65,17.4 C10.7499705,23.40003 7.8,30.7499565 7.8,39.45 C7.8,48.1500435 10.79997,55.3833045 16.8,61.15 C22.80003,66.9166955 29.933292,69.8 38.2,69.8 C43.733361,69.8 48.866643,68.433347 53.6,65.7 L37.6,45.4 L46.3,45.4 L59.2,61.6 Z M144.8,48.4 L149.7,53.6 C146.166649,56.733349 143.333344,59.133325 141.2,60.8 C145.066686,64.666686 149.599974,69.399972 154.8,75 L144.8,75 L135.6,65.4 C129.59997,69.933356 124.733352,72.966659 121,74.5 C117.266648,76.033341 113.200022,76.8 108.8,76.8 C103.399973,76.8 98.9833505,75.2166825 95.55,72.05 C92.1166495,68.8833175 90.4,65.000023 90.4,60.4 C90.4,55.799977 91.933318,51.5833525 95,47.75 C98.066682,43.9166475 102.299973,39.900021 107.7,35.7 C103.966648,31.366645 101.48334,28.0166785 100.25,25.65 C99.0166605,23.2833215 98.4,21.000011 98.4,18.8 C98.4,14.999981 99.933318,11.8833455 103,9.45 C106.066682,7.0166545 109.916644,5.8 114.55,5.8 C119.183357,5.8 122.966652,7.099987 125.9,9.7 C128.833348,12.300013 130.3,15.333316 130.3,18.8 C130.3,21.266679 129.450009,23.866653 127.75,26.6 C126.049992,29.333347 122.700025,32.799979 117.7,37 L136.1,55.9 C139.700018,52.899985 142.599989,50.40001 144.8,48.4 Z M113.3,31.6 C119.766699,26.466641 123,22.200017 123,18.8 C123,17.133325 122.183342,15.6833395 120.55,14.45 C118.916659,13.2166605 116.850013,12.6 114.35,12.6 C111.849988,12.6 109.766675,13.199994 108.1,14.4 C106.433325,15.600006 105.6,17.166657 105.6,19.1 C105.6,21.76668 108.166641,25.933305 113.3,31.6 Z M112.4,41.2 C106.199969,45.86669 102.183343,49.5499865 100.35,52.25 C98.5166575,54.9500135 97.6,57.5499875 97.6,60.05 C97.6,62.5500125 98.766655,64.8499895 101.1,66.95 C103.433345,69.0500105 106.133318,70.1 109.2,70.1 C112.266682,70.1 115.366651,69.3833405 118.5,67.95 C121.633349,66.5166595 125.699975,64.000018 130.7,60.4 L112.4,41.2 Z M195.5,0.3 L229,75 L221.3,75 L210,50.5 L179,50.5 L167.8,75 L159.8,75 L193.7,0.3 L195.5,0.3 Z M194.6,16.2 L182.3,43.2 L206.8,43.2 L194.6,16.2 Z" id="path-2"></path>
    </defs>
    <g id="title_font_Q&amp;A" stroke="none" stroke-width="1" fill="none" fill-rule="evenodd">
        <g id="Q&amp;A">
            <use fill-opacity="0" fill="#FFFFFF" xlink:href="#path-2"></use>
            <use fill="url(#linearGradient-1)" xlink:href="#path-2"></use>
        </g>
    </g>
</svg>