<?xml version="1.0" encoding="UTF-8"?>
<svg width="221px" height="72px" viewBox="0 0 221 72" version="1.1" xmlns="http://www.w3.org/2000/svg" xmlns:xlink="http://www.w3.org/1999/xlink">
    <!-- Generator: Sketch 52.3 (67297) - http://www.bohemiancoding.com/sketch -->
    <title>title_font_RENT</title>
    <desc>Created with Sketch.</desc>
    <defs>
        <linearGradient x1="55.8875%" y1="100%" x2="55.8875%" y2="-26.3727679%" id="linearGradient-1">
            <stop stop-color="#FFFFFF" stop-opacity="0" offset="0%"></stop>
            <stop stop-color="#FFFFFF" offset="100%"></stop>
        </linearGradient>
        <path d="M0.65,0.2 L14.95,0.2 C22.95004,0.2 28.416652,0.5499965 31.35,1.25 C34.283348,1.9500035 36.7999895,3.099992 38.9,4.7 C41.0000105,6.300008 42.649994,8.366654 43.85,10.9 C45.050006,13.433346 45.65,16.233318 45.65,19.3 C45.65,25.433364 43.483355,30.2499825 39.15,33.75 C34.816645,37.2500175 28.683373,38.866668 20.75,38.6 L46.65,72 L37.75,72 L11.95,38.6 L7.85,38.6 L7.85,72 L0.65,72 L0.65,0.2 Z M7.85,7.2 L7.85,31.6 L20.25,31.6 C26.383364,31.666667 30.8999855,30.7166765 33.8,28.75 C36.7000145,26.7833235 38.15,23.666688 38.15,19.4 C38.15,15.133312 36.716681,12.033343 33.85,10.1 C30.983319,8.166657 26.55003,7.2 20.55,7.2 L7.85,7.2 Z M61.05,0.2 L102.25,0.2 L102.25,7.3 L68.25,7.3 L68.25,29.7 L101.95,29.7 L101.95,36.7 L68.25,36.7 L68.25,64.9 L101.95,64.9 L101.95,72 L61.05,72 L61.05,0.2 Z M114.65,72 L114.65,0.2 L116.25,0.2 L163.95,55.2 L163.95,0.2 L171.05,0.2 L171.05,72 L169.45,72 L122.05,17.7 L122.05,72 L114.65,72 Z M181.45,7.2 L181.45,0.2 L220.85,0.2 L220.85,7.2 L204.85,7.2 L204.85,72 L197.55,72 L197.55,7.2 L181.45,7.2 Z" id="path-2"></path>
    </defs>
    <g id="title_font_RENT" stroke="none" stroke-width="1" fill="none" fill-rule="evenodd">
        <g id="RENT">
            <use fill-opacity="0" fill="#FFFFFF" xlink:href="#path-2"></use>
            <use fill="url(#linearGradient-1)" xlink:href="#path-2"></use>
        </g>
    </g>
</svg>