<?xml version="1.0" encoding="UTF-8"?>
<svg width="33px" height="24px" viewBox="0 0 33 24" version="1.1" xmlns="http://www.w3.org/2000/svg" xmlns:xlink="http://www.w3.org/1999/xlink">
    <!-- Generator: Sketch 52.3 (67297) - http://www.bohemiancoding.com/sketch -->
    <title>calculate_icon03</title>
    <desc>Created with Sketch.</desc>
    <g id="calculate_icon03" stroke="none" stroke-width="1" fill="none" fill-rule="evenodd">
        <g id="Group-10">
            <rect id="Rectangle" stroke="#FFFFFF" stroke-width="1.0285" fill="#5B8A1F" fill-rule="nonzero" transform="translate(16.491750, 2.057000) rotate(-180.000000) translate(-16.491750, -2.057000) " x="0.51425" y="0.51425" width="31.955" height="3.0855"></rect>
            <path d="M4.15525,22.65725 L28.83925,22.65725 L28.83925,7.1995 C28.83925,4.64338811 26.7671119,2.57125 24.211,2.57125 L8.7835,2.57125 C6.22738811,2.57125 4.15525,4.64338811 4.15525,7.1995 L4.15525,22.65725 Z" id="Rectangle" stroke="#FFFFFF" stroke-width="1.0285" fill="#58851E" fill-rule="nonzero" transform="translate(16.497250, 12.614250) rotate(-180.000000) translate(-16.497250, -12.614250) "></path>
            <path d="M13.9563574,18.05 L12.8148926,18.05 L12.3611426,16.869541 L10.2838184,16.869541 L9.85488281,18.05 L8.74177734,18.05 L10.7659277,12.8531445 L11.8754883,12.8531445 L13.9563574,18.05 Z M12.024375,15.9939453 L11.3083008,14.0655078 L10.6064062,15.9939453 L12.024375,15.9939453 Z M15.1439062,18.05 L15.1439062,13.7322852 L13.6018652,13.7322852 L13.6018652,12.8531445 L17.7316992,12.8531445 L17.7316992,13.7322852 L16.1932031,13.7322852 L16.1932031,18.05 L15.1439062,18.05 Z M18.3945996,18.05 L18.3945996,12.8531445 L19.965,12.8531445 L20.9079492,16.3980664 L21.8402637,12.8531445 L23.414209,12.8531445 L23.414209,18.05 L22.4393555,18.05 L22.4393555,13.9591602 L21.4077832,18.05 L20.3974805,18.05 L19.3694531,13.9591602 L19.3694531,18.05 L18.3945996,18.05 Z" id="ATM" fill="#FFFFFF"></path>
        </g>
    </g>
</svg>