<?xml version="1.0" encoding="UTF-8"?>
<svg width="122px" height="122px" viewBox="0 0 122 122" version="1.1" xmlns="http://www.w3.org/2000/svg" xmlns:xlink="http://www.w3.org/1999/xlink">
    <!-- Generator: Sketch 52.3 (67297) - http://www.bohemiancoding.com/sketch -->
    <title>contact_icon</title>
    <desc>Created with Sketch.</desc>
    <g id="contact_icon" stroke="none" stroke-width="1" fill="none" fill-rule="evenodd">
        <g id="Group-5" transform="translate(2.000000, 2.000000)">
            <circle id="Oval-2" stroke="#E9E9E9" fill="#FFFFFF" cx="59" cy="59" r="59"></circle>
            <circle id="Oval-2" stroke="#D4F9F3" stroke-width="7" cx="59" cy="59" r="53"></circle>
            <g id="phone" transform="translate(39.000000, 24.000000)" fill="#1EA098">
                <path d="M0.0131946917,14.1731033 C-0.128637718,9.9896937 0.864189152,6.52756159 3.41717253,3.64245149 C4.4099994,2.63266296 5.40282627,1.62287443 6.53748555,0.7573414 C7.81397724,-0.252447133 9.23230134,-0.252447133 10.508793,0.7573414 C10.9342903,1.19010791 11.3597875,1.62287443 11.7852847,2.05564094 C13.2036088,3.9309625 14.7637653,5.66202856 15.6147598,7.97011664 C16.4657542,9.8454382 16.1820894,11.5765043 14.6219329,13.1633148 C13.9127709,13.8845923 13.2036088,14.6058699 12.4944468,15.1828919 C10.6506254,16.6254469 10.508793,18.2122575 11.3597875,20.087579 C12.0689495,21.8186451 13.2036088,23.4054556 14.4801005,24.7037552 C16.1820894,26.5790767 17.8840783,28.4543983 20.0115645,29.8969534 C21.1462238,30.7624864 22.2808831,31.4837639 23.6992072,31.6280194 C24.9756988,31.7722749 25.9685257,31.4837639 26.6776878,30.4739754 C27.5286822,29.6084423 28.3796767,28.7429093 29.2306711,27.8773763 C30.6489952,26.4348212 32.3509842,26.2905657 34.1948055,27.1560988 C35.0458,27.5888653 35.8967944,28.0216318 36.7477889,28.5986538 C38.0242806,29.6084423 39.3007723,30.6182309 40.4354315,31.6280194 C40.8609288,31.9165304 41.1445936,32.4935524 41.4282584,32.926319 C42.2792529,34.080363 42.1374205,35.3786625 41.286426,36.5327066 C40.0099343,37.9752616 38.5916102,39.4178167 37.0314537,40.5718607 C34.9039675,41.8701603 32.7764814,42.7356933 30.223498,42.8799488 C26.6776878,43.0242043 23.4155423,42.0144158 20.4370617,40.4276052 C17.1749163,38.6965391 14.3382681,36.3884511 11.6434523,33.791852 C8.6649717,30.9067419 5.97015591,27.8773763 3.84266976,24.2709887 C2.28251325,21.8186451 1.14785397,19.222046 0.438691922,16.3369359 C0.155027102,15.6156584 0.155027102,14.7501254 0.0131946917,14.1731033" id="Fill-1"></path>
            </g>
            <path d="M32.512,84.96 L33.52,84.96 L33.52,87.632 L34.896,87.632 C34.944,87.328 34.976,87.008 34.976,86.688 L34.976,84.608 L36.016,84.608 L36.016,86.688 C35.984,87.984 35.712,89.024 35.2,89.808 C34.688,90.544 33.84,91.104 32.688,91.504 L32.112,90.592 C33.168,90.224 33.92,89.744 34.352,89.136 C34.448,88.96 34.544,88.784 34.624,88.592 L32.512,88.592 L32.512,84.96 Z M39.712,84.992 L40.72,84.992 L40.72,88.736 L38.304,88.736 L38.304,91.68 L37.248,91.68 L37.248,84.592 L38.304,84.592 L38.304,87.776 L39.712,87.776 L39.712,84.992 Z M35.728,81.28 C36.032,82.112 36.304,83.072 36.528,84.16 L35.712,84.368 C35.648,84.112 35.6,83.856 35.552,83.632 C34.336,83.856 33.216,84.032 32.192,84.16 L31.968,83.328 C32.56,82.992 33.328,82.144 34.256,80.768 L32.208,80.96 L31.968,80.112 C32.112,80.048 32.24,79.92 32.368,79.744 C32.944,78.912 33.456,77.936 33.888,76.848 L34.832,77.216 C34.304,78.368 33.76,79.312 33.216,80.048 C33.76,79.984 34.288,79.936 34.832,79.872 C35.088,79.44 35.36,78.992 35.632,78.544 L36.512,78.896 C35.248,81.008 34.208,82.432 33.408,83.168 L35.328,82.832 C35.2,82.368 35.072,81.936 34.944,81.536 L35.728,81.28 Z M40.496,81.056 C40.816,81.968 41.12,83.024 41.376,84.208 L40.56,84.416 C40.496,84.112 40.416,83.824 40.352,83.536 C39.168,83.696 38.096,83.84 37.104,83.952 L36.896,83.12 C37.408,82.8 38.064,81.968 38.864,80.656 L36.832,80.848 L36.592,80.016 C36.736,79.952 36.864,79.824 36.992,79.648 C37.472,78.864 37.904,77.968 38.272,76.944 L39.216,77.312 C38.736,78.4 38.256,79.264 37.808,79.92 C38.32,79.888 38.848,79.84 39.376,79.776 C39.6,79.36 39.824,78.912 40.08,78.448 L40.96,78.8 C39.824,80.912 38.912,82.304 38.208,83.008 C38.768,82.928 39.408,82.832 40.144,82.72 C40.016,82.24 39.872,81.76 39.712,81.296 L40.496,81.056 Z M26.736,77.6 L32.224,77.6 L32.224,78.656 L31.312,78.656 L31.312,91.68 L30.256,91.68 L30.256,88.64 C29.2,89.072 28.096,89.44 26.912,89.728 L26.64,88.656 C26.896,88.592 27.168,88.544 27.424,88.48 L27.424,78.656 L26.736,78.656 L26.736,77.6 Z M28.48,88.192 C29.088,88.016 29.68,87.808 30.256,87.568 L30.256,85.44 L28.48,85.44 L28.48,88.192 Z M28.48,84.416 L30.256,84.416 L30.256,82.048 L28.48,82.048 L28.48,84.416 Z M28.48,81.024 L30.256,81.024 L30.256,78.656 L28.48,78.656 L28.48,81.024 Z M44.408,87.408 L45.448,87.536 C45.352,88.96 45.144,90.224 44.808,91.328 L43.784,91.008 C44.12,89.952 44.328,88.752 44.408,87.408 Z M47.24,87.28 C47.432,88.304 47.608,89.408 47.768,90.592 L46.744,90.816 C46.616,89.552 46.456,88.448 46.28,87.488 L47.24,87.28 Z M48.648,83.328 C49.016,84.208 49.352,85.216 49.64,86.352 L48.68,86.608 C48.616,86.336 48.552,86.08 48.488,85.84 C47.016,86.256 45.592,86.544 44.232,86.704 L43.944,85.696 C44.136,85.6 44.296,85.504 44.44,85.376 C45.048,84.8 45.768,83.84 46.632,82.496 C45.784,82.624 44.92,82.736 44.056,82.864 L43.784,81.84 C43.944,81.76 44.104,81.616 44.248,81.424 C45.112,80.112 45.88,78.624 46.52,76.944 L47.576,77.344 C46.776,79.168 45.96,80.64 45.128,81.744 C45.832,81.664 46.552,81.568 47.272,81.44 C47.624,80.832 47.992,80.192 48.376,79.488 L49.432,79.872 C47.896,82.528 46.616,84.416 45.592,85.536 C46.472,85.376 47.352,85.2 48.232,84.976 C48.072,84.496 47.912,84.048 47.752,83.616 L48.648,83.328 Z M49.016,86.896 C49.4,87.744 49.72,88.656 50.008,89.632 L49.064,90.048 C48.776,88.976 48.456,88.016 48.104,87.184 L49.016,86.896 Z M57,85.6 L57,91.6 L55.896,91.6 L55.896,90.816 L52.008,90.816 L52.008,91.552 L50.904,91.552 L50.904,85.6 L57,85.6 Z M52.008,89.744 L55.896,89.744 L55.896,86.656 L52.008,86.656 L52.008,89.744 Z M52.168,76.944 L53.256,77.168 C53.08,77.6 52.904,78 52.712,78.384 L57.016,78.384 L57.016,79.232 C56.472,80.528 55.688,81.68 54.664,82.672 C55.72,83.44 56.968,84.096 58.408,84.64 L57.912,85.648 C56.344,84.976 55.016,84.208 53.928,83.344 C52.856,84.208 51.576,84.96 50.088,85.584 L49.416,84.688 C50.856,84.112 52.072,83.424 53.08,82.624 C52.408,81.984 51.832,81.312 51.384,80.608 C51,81.12 50.584,81.6 50.136,82.048 L49.416,81.2 C50.536,80.112 51.464,78.704 52.168,76.944 Z M53.816,82 C54.648,81.216 55.304,80.352 55.784,79.424 L52.152,79.424 L51.944,79.776 C52.424,80.592 53.048,81.328 53.816,82 Z M68.176,84.368 L68.176,85.536 C67.248,85.84 66.288,86.128 65.264,86.4 L65.264,90 C65.264,90.928 64.768,91.392 63.792,91.392 L62.016,91.392 L61.776,90.288 C62.336,90.336 62.88,90.368 63.408,90.368 C63.856,90.368 64.08,90.144 64.08,89.712 L64.08,86.672 C63.056,86.896 62.016,87.104 60.928,87.28 L60.768,86.112 C61.936,85.92 63.04,85.728 64.08,85.504 L64.08,82.352 L60.784,82.352 L60.784,81.248 L64.08,81.248 L64.08,79.104 C63.232,79.28 62.352,79.424 61.44,79.552 L61.2,78.448 C63.472,78.192 65.488,77.728 67.248,77.04 L67.632,78.128 C66.896,78.384 66.096,78.624 65.264,78.848 L65.264,81.248 L69.104,81.248 C69.008,79.952 68.96,78.528 68.96,76.96 L70.112,76.96 C70.128,78.576 70.176,80 70.272,81.248 L75.216,81.248 L75.216,82.352 L70.368,82.352 C70.48,83.504 70.624,84.464 70.816,85.248 C70.912,85.664 71.024,86.032 71.136,86.384 C71.904,85.456 72.592,84.4 73.168,83.216 L74.16,83.744 C73.424,85.248 72.56,86.528 71.552,87.6 C71.776,88.144 72,88.608 72.256,88.976 C72.768,89.744 73.184,90.144 73.488,90.144 C73.808,90.128 74.08,89.232 74.336,87.44 L75.344,87.968 C74.96,90.24 74.4,91.376 73.664,91.376 C73.008,91.376 72.32,90.896 71.584,89.936 C71.264,89.504 70.96,88.992 70.704,88.416 C69.552,89.44 68.24,90.24 66.784,90.816 L66.16,89.824 C67.728,89.248 69.088,88.4 70.256,87.296 C70.064,86.752 69.888,86.16 69.728,85.536 C69.504,84.624 69.328,83.568 69.2,82.352 L65.264,82.352 L65.264,85.232 C66.304,84.96 67.28,84.672 68.176,84.368 Z M71.872,77.136 C73.024,77.904 74,78.656 74.8,79.424 L73.968,80.256 C73.264,79.52 72.32,78.72 71.104,77.872 L71.872,77.136 Z M79.592,82.464 C79.112,83.28 78.568,84.064 77.976,84.8 L77.592,83.536 C79,81.6 80.04,79.376 80.696,76.88 L81.736,77.36 C81.448,78.384 81.096,79.36 80.696,80.288 L80.696,91.52 L79.592,91.52 L79.592,82.464 Z M83.4,81.008 L83.4,82.656 L85.368,82.656 L85.368,81.008 L83.4,81.008 Z M85.368,80.064 L85.368,78.48 L83.4,78.48 L83.4,80.064 L85.368,80.064 Z M88.584,81.008 L88.584,82.672 L90.68,82.672 L90.68,81.008 L88.584,81.008 Z M90.68,80.064 L90.68,78.512 L88.584,78.512 L88.584,80.064 L90.68,80.064 Z M86.456,77.504 L86.456,83.648 L83.4,83.648 L83.4,91.536 L82.28,91.536 L82.28,77.504 L86.456,77.504 Z M90.68,83.648 L87.464,83.648 L87.464,77.504 L91.752,77.504 L91.752,90.144 C91.752,90.992 91.336,91.424 90.536,91.424 C89.864,91.424 89.208,91.408 88.552,91.392 L88.264,90.336 C88.936,90.368 89.576,90.4 90.152,90.4 C90.504,90.4 90.68,90.192 90.68,89.792 L90.68,83.648 Z" id="聯絡我們" fill="#1C8886"></path>
        </g>
    </g>
</svg>