<?xml version="1.0" encoding="UTF-8"?>
<svg width="30px" height="30px" viewBox="0 0 30 30" version="1.1" xmlns="http://www.w3.org/2000/svg" xmlns:xlink="http://www.w3.org/1999/xlink">
    <!-- Generator: Sketch 52.3 (67297) - http://www.bohemiancoding.com/sketch -->
    <title>icon_arrow_right_black</title>
    <desc>Created with Sketch.</desc>
    <g id="icon_arrow_right_black" stroke="none" stroke-width="1" fill="none" fill-rule="evenodd">
        <path d="M22.5271515,13.8650621 L9.88866728,1.46387454 C9.58592204,1.1668933 9.17537625,1 8.74740164,1 C8.31910427,1.00031729 7.90855848,1.16721059 7.60613599,1.46450911 L7.37762466,1.68851419 C7.19946328,1.86365697 7.07746147,2.0708458 7,2.29009156 L19.9292874,15 L7,27.7102257 C7.07746147,27.9297888 7.19978604,28.1372949 7.37827017,28.3124377 L7.60645875,28.5364428 C7.90920399,28.833424 8.31942702,29 8.74772439,29 C9.17569901,29 9.58592204,28.833424 9.88866728,28.5364428 L22.4132185,16.2472577 L22.5271515,16.1352552 C22.7379112,15.9283836 22.8808922,15.6663041 22.9480254,15.3845526 C23.0871333,14.8591243 22.9470572,14.2769015 22.5271515,13.8650621" id="Fill-1" fill="#32322E" transform="translate(15.000000, 15.000000) rotate(-360.000000) translate(-15.000000, -15.000000) "></path>
    </g>
</svg>