<?xml version="1.0" encoding="UTF-8"?>
<svg width="30px" height="30px" viewBox="0 0 30 30" version="1.1" xmlns="http://www.w3.org/2000/svg" xmlns:xlink="http://www.w3.org/1999/xlink">
    <!-- Generator: Sketch 50.2 (55047) - http://www.bohemiancoding.com/sketch -->
    <title>icon_phone</title>
    <desc>Created with Sketch.</desc>
    <defs></defs>
    <g id="icon_phone" stroke="none" stroke-width="1" fill="none" fill-rule="evenodd">
        <path d="M23.941191,20.7826543 C24.5988435,21.6032023 25.5934165,22.8426243 25.037953,24.1366821 C24.8234571,24.6415569 24.5148663,25.0675134 24.0696862,25.4742462 C24.0656391,25.4772815 24.0605802,25.4762697 24.0575449,25.479305 C24.0504625,25.4853757 24.0464154,25.4934698 24.039333,25.4995405 L23.4130454,25.9710268 C23.3897747,25.9993564 23.3665039,26.0307214 23.3341271,26.0529804 L23.0467836,26.2452173 C22.5894621,26.5426786 21.6778546,27 20.405044,27 C19.4377889,27 18.2621086,26.7359272 16.9164503,25.9366265 C14.8999865,24.7396989 12.69938,22.7626942 10.5372209,20.2049318 L10.528115,20.2120142 L9.42831759,18.8420735 L9.44754128,18.8258851 C7.45333649,16.1325451 6.04292479,13.5444295 5.35896617,11.3266228 C4.29963973,7.89266493 5.85271144,6.03606129 6.57005857,5.39662069 C6.65100042,5.32377302 6.73295404,5.25294891 6.81490767,5.18414833 C6.8209783,5.17908947 6.82907249,5.1780777 6.83413135,5.17301883 C6.84121377,5.16694819 6.84526086,5.15784223 6.85234327,5.15379514 L7.55957267,4.62969667 C7.56361976,4.62666135 7.56867863,4.62666135 7.57272572,4.62362603 C7.57677281,4.62059072 7.57980813,4.61452008 7.584867,4.61148476 C8.0927771,4.29277623 8.5855106,4.10458643 9.13692694,4.02263281 C10.5392445,3.8162311 11.5156055,5.06779443 12.1611167,5.89542483 L12.2886002,6.05933207 C13.3317382,7.3746371 13.792095,8.37629248 13.6980001,9.11691039 C13.61807,9.74724503 13.0342769,10.237955 12.4697075,10.7145001 C12.4626251,10.719559 12.4525074,10.7175354 12.4464368,10.7236061 C12.4383426,10.7317003 12.4342955,10.7428298 12.4251895,10.7519357 L11.7999137,11.3296582 C11.7381956,11.3984587 11.6825481,11.4682711 11.6400536,11.5390952 C11.4245459,11.8992864 11.1017903,12.8716004 11.4872759,13.5666885 C11.9435855,14.3872365 12.8177575,15.6904002 13.6130112,16.7355619 C14.4457004,17.7453114 15.5161564,18.9007563 16.2061856,19.5321027 C16.7990847,20.0744131 17.8462698,20.0056125 18.2610968,19.8882469 C18.3400151,19.8649761 18.4239923,19.8305758 18.5089812,19.7880813 L19.2182341,19.3449247 C19.8819573,18.8855797 20.5062213,18.4393878 21.1517325,18.527412 C21.8984211,18.6174598 22.768546,19.3024302 23.8096605,20.618747 L23.941191,20.7826543 Z" id="Shape" fill="#FFf" fill-rule="nonzero"></path>
    </g>
</svg>