<?xml version="1.0" encoding="UTF-8"?>
<svg width="339px" height="44px" viewBox="0 0 339 44" version="1.1" xmlns="http://www.w3.org/2000/svg" xmlns:xlink="http://www.w3.org/1999/xlink">
    <!-- Generator: Sketch 52.3 (67297) - http://www.bohemiancoding.com/sketch -->
    <title>index_font_PROTECTION</title>
    <desc>Created with Sketch.</desc>
    <defs>
        <linearGradient x1="50%" y1="100%" x2="50%" y2="-438.794643%" id="linearGradient-1">
            <stop stop-color="#000000" stop-opacity="0" offset="0%"></stop>
            <stop stop-color="#000000" offset="100%"></stop>
        </linearGradient>
    </defs>
    <g id="index_font_PROTECTION" stroke="none" stroke-width="1" fill="none" fill-rule="evenodd">
        <path d="M0.51,1.4 L10.494,1.4 C14.760688,1.4 18.0779882,2.50932224 20.446,4.728 C22.8140118,6.94667776 23.998,10.2319782 23.998,14.584 C23.998,17.8266829 23.3580064,20.4826563 22.078,22.552 C20.7979936,24.6213437 19.1446768,26.1146621 17.118,27.032 C15.0913232,27.9493379 12.9260115,28.408 10.622,28.408 L5.374,28.408 L5.374,43 L0.51,43 L0.51,1.4 Z M9.918,25.72 C15.8913632,25.72 18.878,22.0720365 18.878,14.776 C18.878,11.1919821 18.1100077,8.53600864 16.574,6.808 C15.0379923,5.07999136 12.840681,4.216 9.982,4.216 L5.374,4.216 L5.374,25.72 L9.918,25.72 Z M33.754,1.4 L43.802,1.4 C48.0260211,1.4 51.3326547,2.49865568 53.722,4.696 C56.1113453,6.89334432 57.306,10.0399795 57.306,14.136 C57.306,17.4213498 56.602007,20.1093229 55.194,22.2 C53.785993,24.2906771 51.9300115,25.7839955 49.626,26.68 L60.058,43 L54.49,43 L44.954,27.576 L38.618,27.576 L38.618,43 L33.754,43 L33.754,1.4 Z M43.802,24.696 C46.5753472,24.696 48.665993,23.9066746 50.074,22.328 C51.482007,20.7493254 52.186,18.0826854 52.186,14.328 C52.186,7.58663296 49.1993632,4.216 43.226,4.216 L38.618,4.216 L38.618,24.696 L43.802,24.696 Z M84.598,43.64 C80.8859814,43.64 77.69668,42.7866752 75.03,41.08 C72.36332,39.3733248 70.326007,36.9093494 68.918,33.688 C67.509993,30.4666506 66.806,26.6586886 66.806,22.264 C66.806,17.8693114 67.509993,14.0613494 68.918,10.84 C70.326007,7.61865056 72.36332,5.14400864 75.03,3.416 C77.69668,1.68799136 80.8859814,0.824 84.598,0.824 C88.3100186,0.824 91.5099866,1.68799136 94.198,3.416 C96.8860134,5.14400864 98.9446595,7.61865056 100.374,10.84 C101.80334,14.0613494 102.518,17.8693114 102.518,22.264 C102.518,26.6586886 101.80334,30.4666506 100.374,33.688 C98.9446595,36.9093494 96.8860134,39.3733248 94.198,41.08 C91.5099866,42.7866752 88.3100186,43.64 84.598,43.64 Z M84.598,40.568 C88.6940205,40.568 91.8406557,39.0106822 94.038,35.896 C96.2353443,32.7813178 97.334,28.2373632 97.334,22.264 C97.334,16.3333037 96.2353443,11.7893491 94.038,8.632 C91.8406557,5.47465088 88.6940205,3.896 84.598,3.896 C80.5446464,3.896 77.4300109,5.47465088 75.254,8.632 C73.0779891,11.7893491 71.99,16.3333037 71.99,22.264 C71.99,28.2373632 73.0673226,32.7813178 75.222,35.896 C77.3766774,39.0106822 80.5019795,40.568 84.598,40.568 Z M119.378,43 L119.378,4.472 L107.538,4.472 L107.538,1.4 L136.146,1.4 L136.146,4.472 L124.242,4.472 L124.242,43 L119.378,43 Z M144.11,43 L144.11,1.4 L166.51,1.4 L166.51,4.472 L148.974,4.472 L148.974,20.472 L165.038,20.472 L165.038,23.416 L148.974,23.416 L148.974,39.928 L167.918,39.928 L167.918,43 L144.11,43 Z M193.354,43.64 C187.593971,43.64 183.114016,41.773352 179.914,38.04 C176.713984,34.306648 175.114,29.1546995 175.114,22.584 C175.114,18.1893114 175.849993,14.3493498 177.322,11.064 C178.794007,7.77865024 180.884653,5.25067552 183.594,3.48 C186.303347,1.70932448 189.449982,0.824 193.034,0.824 C194.996676,0.824 196.884658,1.07999744 198.698,1.592 C200.511342,2.10400256 202.057994,2.6799968 203.338,3.32 C204.618006,3.9600032 205.258,4.30133312 205.258,4.344 L204.682,7.416 C204.682,7.37333312 204.06334,7.05333632 202.826,6.456 C201.58866,5.85866368 200.148675,5.30400256 198.506,4.792 C196.863325,4.27999744 195.210008,4.024 193.546,4.024 C189.407313,4.024 186.164678,5.59198432 183.818,8.728 C181.471322,11.8640157 180.298,16.4399699 180.298,22.456 C180.298,28.3866963 181.492655,32.8666515 183.882,35.896 C186.271345,38.9253485 189.620645,40.44 193.93,40.44 C196.191345,40.44 198.175325,39.9706714 199.882,39.032 C201.588675,38.0933286 202.943328,37.090672 203.946,36.024 C204.948672,34.957328 205.45,34.3386675 205.45,34.168 L207.242,36.216 C207.242,36.4293344 206.687339,37.165327 205.578,38.424 C204.468661,39.682673 202.879344,40.8666611 200.81,41.976 C198.740656,43.0853389 196.255348,43.64 193.354,43.64 Z M222.31,43 L222.31,4.472 L210.47,4.472 L210.47,1.4 L239.078,1.4 L239.078,4.472 L227.174,4.472 L227.174,43 L222.31,43 Z M247.042,43 L247.042,1.4 L251.906,1.4 L251.906,43 L247.042,43 Z M280.35,43.64 C276.637981,43.64 273.44868,42.7866752 270.782,41.08 C268.11532,39.3733248 266.078007,36.9093494 264.67,33.688 C263.261993,30.4666506 262.558,26.6586886 262.558,22.264 C262.558,17.8693114 263.261993,14.0613494 264.67,10.84 C266.078007,7.61865056 268.11532,5.14400864 270.782,3.416 C273.44868,1.68799136 276.637981,0.824 280.35,0.824 C284.062019,0.824 287.261987,1.68799136 289.95,3.416 C292.638013,5.14400864 294.69666,7.61865056 296.126,10.84 C297.55534,14.0613494 298.27,17.8693114 298.27,22.264 C298.27,26.6586886 297.55534,30.4666506 296.126,33.688 C294.69666,36.9093494 292.638013,39.3733248 289.95,41.08 C287.261987,42.7866752 284.062019,43.64 280.35,43.64 Z M280.35,40.568 C284.44602,40.568 287.592656,39.0106822 289.79,35.896 C291.987344,32.7813178 293.086,28.2373632 293.086,22.264 C293.086,16.3333037 291.987344,11.7893491 289.79,8.632 C287.592656,5.47465088 284.44602,3.896 280.35,3.896 C276.296646,3.896 273.182011,5.47465088 271.006,8.632 C268.829989,11.7893491 267.742,16.3333037 267.742,22.264 C267.742,28.2373632 268.819323,32.7813178 270.974,35.896 C273.128677,39.0106822 276.25398,40.568 280.35,40.568 Z M308.858,43 L308.858,1.4 L313.914,1.4 L335.162,35.704 L334.97,34.168 L334.97,1.4 L338.49,1.4 L338.49,43 L334.266,43 L312.122,7.544 L312.058,7.544 L312.378,9.528 L312.378,43 L308.858,43 Z" id="PROTECTION" fill="url(#linearGradient-1)"></path>
    </g>
</svg>