<?xml version="1.0" encoding="UTF-8"?>
<svg width="519px" height="54px" viewBox="0 0 519 54" version="1.1" xmlns="http://www.w3.org/2000/svg" xmlns:xlink="http://www.w3.org/1999/xlink">
    <!-- Generator: Sketch 52.3 (67297) - http://www.bohemiancoding.com/sketch -->
    <title>index_font_SOLAR  ENERGY</title>
    <desc>Created with Sketch.</desc>
    <g id="index_font_SOLAR--ENERGY" stroke="none" stroke-width="1" fill="none" fill-rule="evenodd" opacity="0.508872768">
        <path d="M15.62,53.8 C12.153316,53.8 9.2733448,53.2933384 6.98,52.28 C4.6866552,51.2666616 2.9933388,50.1866724 1.9,49.04 C0.8066612,47.8933276 0.26,47.2133344 0.26,47 L2.26,43.88 C2.26,44.0400008 2.7666616,44.6399948 3.78,45.68 C4.7933384,46.7200052 6.2733236,47.6799956 8.22,48.56 C10.1666764,49.4400044 12.5533192,49.88 15.38,49.88 C18.7400168,49.88 21.3799904,48.9066764 23.3,46.96 C25.2200096,45.0133236 26.18,42.6000144 26.18,39.72 C26.18,37.7466568 25.7000048,36.09334 24.74,34.76 C23.7799952,33.42666 22.5933404,32.360004 21.18,31.56 C19.7666596,30.759996 17.860012,29.8533384 15.46,28.84 C12.6866528,27.7199944 10.4466752,26.6533384 8.74,25.64 C7.0333248,24.6266616 5.5933392,23.2266756 4.42,21.44 C3.2466608,19.6533244 2.66,17.3733472 2.66,14.6 C2.66,10.2266448 4.0466528,6.7466796 6.82,4.16 C9.5933472,1.5733204 13.2999768,0.28 17.94,0.28 C20.2333448,0.28 22.2999908,0.61333 24.14,1.28 C25.9800092,1.94667 27.4599944,2.6666628 28.58,3.44 C29.7000056,4.2133372 30.26,4.6533328 30.26,4.76 L29.46,8.28 C29.46,8.1733328 28.926672,7.7466704 27.86,7 C26.793328,6.2533296 25.4333416,5.5600032 23.78,4.92 C22.1266584,4.2799968 20.2866768,3.96 18.26,3.96 C15.2733184,3.96 12.9266752,4.7866584 11.22,6.44 C9.5133248,8.0933416 8.66,10.3333192 8.66,13.16 C8.66,15.1333432 9.126662,16.7733268 10.06,18.08 C10.993338,19.3866732 12.1666596,20.439996 13.58,21.24 C14.9933404,22.040004 16.8733216,22.9199952 19.22,23.88 C22.0466808,25.0533392 24.3133248,26.1599948 26.02,27.2 C27.7266752,28.2400052 29.179994,29.693324 30.38,31.56 C31.580006,33.426676 32.18,35.826652 32.18,38.76 C32.18,41.693348 31.5000068,44.293322 30.14,46.56 C28.7799932,48.826678 26.8466792,50.5999936 24.34,51.88 C21.8333208,53.1600064 18.9266832,53.8 15.62,53.8 Z M62.02,53.8 C57.3799768,53.8 53.39335,52.733344 50.06,50.6 C46.72665,48.466656 44.1800088,45.3866868 42.42,41.36 C40.6599912,37.3333132 39.78,32.5733608 39.78,27.08 C39.78,21.5866392 40.6599912,16.8266868 42.42,12.8 C44.1800088,8.7733132 46.72665,5.6800108 50.06,3.52 C53.39335,1.3599892 57.3799768,0.28 62.02,0.28 C66.6600232,0.28 70.6599832,1.3599892 74.02,3.52 C77.3800168,5.6800108 79.9533244,8.7733132 81.74,12.8 C83.5266756,16.8266868 84.42,21.5866392 84.42,27.08 C84.42,32.5733608 83.5266756,37.3333132 81.74,41.36 C79.9533244,45.3866868 77.3800168,48.466656 74.02,50.6 C70.6599832,52.733344 66.6600232,53.8 62.02,53.8 Z M62.02,49.96 C67.1400256,49.96 71.0733196,48.0133528 73.82,44.12 C76.5666804,40.2266472 77.94,34.546704 77.94,27.08 C77.94,19.6666296 76.5666804,13.9866864 73.82,10.04 C71.0733196,6.0933136 67.1400256,4.12 62.02,4.12 C56.953308,4.12 53.0600136,6.0933136 50.34,10.04 C47.6199864,13.9866864 46.26,19.6666296 46.26,27.08 C46.26,34.546704 47.6066532,40.2266472 50.3,44.12 C52.9933468,48.0133528 56.8999744,49.96 62.02,49.96 Z M95.78,53 L95.78,1 L101.86,1 L101.86,49.16 L124.98,49.16 L124.98,53 L95.78,53 Z M127.78,53 L145.3,1 L152.42,1 L169.62,53 L163.3,53 L157.86,37 L137.46,37 L132.02,53 L127.78,53 Z M138.58,33.72 L156.82,33.72 L147.78,5.64 L138.58,33.72 Z M178.9,1 L191.46,1 C196.740026,1 200.873318,2.3733196 203.86,5.12 C206.846682,7.8666804 208.34,11.7999744 208.34,16.92 C208.34,21.0266872 207.460009,24.3866536 205.7,27 C203.939991,29.6133464 201.620014,31.4799944 198.74,32.6 L211.78,53 L204.82,53 L192.9,33.72 L184.98,33.72 L184.98,53 L178.9,53 L178.9,1 Z M191.46,30.12 C194.926684,30.12 197.539991,29.1333432 199.3,27.16 C201.060009,25.1866568 201.94,21.8533568 201.94,17.16 C201.94,8.7332912 198.206704,4.52 190.74,4.52 L184.98,4.52 L184.98,30.12 L191.46,30.12 Z M259.3,53 L259.3,1 L287.3,1 L287.3,4.84 L265.38,4.84 L265.38,24.84 L285.46,24.84 L285.46,28.52 L265.38,28.52 L265.38,49.16 L289.06,49.16 L289.06,53 L259.3,53 Z M299.86,53 L299.86,1 L306.18,1 L332.74,43.88 L332.5,41.96 L332.5,1 L336.9,1 L336.9,53 L331.62,53 L303.94,8.68 L303.86,8.68 L304.26,11.16 L304.26,53 L299.86,53 Z M351.94,53 L351.94,1 L379.94,1 L379.94,4.84 L358.02,4.84 L358.02,24.84 L378.1,24.84 L378.1,28.52 L358.02,28.52 L358.02,49.16 L381.7,49.16 L381.7,53 L351.94,53 Z M392.5,1 L405.06,1 C410.340026,1 414.473318,2.3733196 417.46,5.12 C420.446682,7.8666804 421.94,11.7999744 421.94,16.92 C421.94,21.0266872 421.060009,24.3866536 419.3,27 C417.539991,29.6133464 415.220014,31.4799944 412.34,32.6 L425.38,53 L418.42,53 L406.5,33.72 L398.58,33.72 L398.58,53 L392.5,53 L392.5,1 Z M405.06,30.12 C408.526684,30.12 411.139991,29.1333432 412.9,27.16 C414.660009,25.1866568 415.54,21.8533568 415.54,17.16 C415.54,8.7332912 411.806704,4.52 404.34,4.52 L398.58,4.52 L398.58,30.12 L405.06,30.12 Z M453.3,53.8 C446.526633,53.8 441.273352,51.4533568 437.54,46.76 C433.806648,42.0666432 431.94,35.5333752 431.94,27.16 C431.94,18.6799576 433.966646,12.0800236 438.02,7.36 C442.073354,2.6399764 447.80663,0.28 455.22,0.28 C457.673346,0.28 460.033322,0.5999968 462.3,1.24 C464.566678,1.8800032 466.499992,2.599996 468.1,3.4 C469.700008,4.200004 470.5,4.6266664 470.5,4.68 L469.78,8.52 C469.78,8.4666664 469.006674,8.0666704 467.46,7.32 C465.913326,6.5733296 464.113344,5.8800032 462.06,5.24 C460.006656,4.5999968 457.94001,4.28 455.86,4.28 C449.93997,4.28 445.553348,6.1866476 442.7,10 C439.846652,13.8133524 438.42,19.5332952 438.42,27.16 C438.42,34.626704 439.806653,40.2666476 442.58,44.08 C445.353347,47.8933524 449.219975,49.8 454.18,49.8 C458.18002,49.8 461.086658,48.8400096 462.9,46.92 C464.713342,44.9999904 465.886664,43.0800096 466.42,41.16 L466.42,29.4 L455.78,29.4 L455.78,25.96 L471.54,25.96 L471.54,53 L468.58,53 L467.06,47.32 C465.779994,49.186676 464.020011,50.7333272 461.78,51.96 C459.539989,53.1866728 456.71335,53.8 453.3,53.8 Z M495.06,53 L495.06,31.48 L477.86,1 L484.66,1 L498.98,26.6 L513.22,1 L518.1,1 L501.14,31.08 L501.14,53 L495.06,53 Z" id="SOLAR-ENERGY" fill="#FFFFFF"></path>
    </g>
</svg>