<?xml version="1.0" encoding="UTF-8"?>
<svg width="534px" height="44px" viewBox="0 0 534 44" version="1.1" xmlns="http://www.w3.org/2000/svg" xmlns:xlink="http://www.w3.org/1999/xlink">
    <!-- Generator: Sketch 52.3 (67297) - http://www.bohemiancoding.com/sketch -->
    <title>index_font_OPERATION MODEL</title>
    <desc>Created with Sketch.</desc>
    <defs>
        <linearGradient x1="50%" y1="100%" x2="50%" y2="-438.794643%" id="linearGradient-1">
            <stop stop-color="#000000" stop-opacity="0" offset="0%"></stop>
            <stop stop-color="#000000" offset="100%"></stop>
        </linearGradient>
    </defs>
    <g id="index_font_OPERATION-MODEL" stroke="none" stroke-width="1" fill="none" fill-rule="evenodd">
        <path d="M17.906,43.64 C14.1939814,43.64 11.00468,42.7866752 8.338,41.08 C5.67132,39.3733248 3.63400704,36.9093494 2.226,33.688 C0.81799296,30.4666506 0.114,26.6586886 0.114,22.264 C0.114,17.8693114 0.81799296,14.0613494 2.226,10.84 C3.63400704,7.61865056 5.67132,5.14400864 8.338,3.416 C11.00468,1.68799136 14.1939814,0.824 17.906,0.824 C21.6180186,0.824 24.8179866,1.68799136 27.506,3.416 C30.1940134,5.14400864 32.2526595,7.61865056 33.682,10.84 C35.1113405,14.0613494 35.826,17.8693114 35.826,22.264 C35.826,26.6586886 35.1113405,30.4666506 33.682,33.688 C32.2526595,36.9093494 30.1940134,39.3733248 27.506,41.08 C24.8179866,42.7866752 21.6180186,43.64 17.906,43.64 Z M17.906,40.568 C22.0020205,40.568 25.1486557,39.0106822 27.346,35.896 C29.5433443,32.7813178 30.642,28.2373632 30.642,22.264 C30.642,16.3333037 29.5433443,11.7893491 27.346,8.632 C25.1486557,5.47465088 22.0020205,3.896 17.906,3.896 C13.8526464,3.896 10.7380109,5.47465088 8.562,8.632 C6.38598912,11.7893491 5.298,16.3333037 5.298,22.264 C5.298,28.2373632 6.37532256,32.7813178 8.53,35.896 C10.6846774,39.0106822 13.8099795,40.568 17.906,40.568 Z M46.414,1.4 L56.398,1.4 C60.664688,1.4 63.9819882,2.50932224 66.35,4.728 C68.7180118,6.94667776 69.902,10.2319782 69.902,14.584 C69.902,17.8266829 69.2620064,20.4826563 67.982,22.552 C66.7019936,24.6213437 65.0486768,26.1146621 63.022,27.032 C60.9953232,27.9493379 58.8300115,28.408 56.526,28.408 L51.278,28.408 L51.278,43 L46.414,43 L46.414,1.4 Z M55.822,25.72 C61.7953632,25.72 64.782,22.0720365 64.782,14.776 C64.782,11.1919821 64.0140077,8.53600864 62.478,6.808 C60.9419923,5.07999136 58.744681,4.216 55.886,4.216 L51.278,4.216 L51.278,25.72 L55.822,25.72 Z M79.658,43 L79.658,1.4 L102.058,1.4 L102.058,4.472 L84.522,4.472 L84.522,20.472 L100.586,20.472 L100.586,23.416 L84.522,23.416 L84.522,39.928 L103.466,39.928 L103.466,43 L79.658,43 Z M113.606,1.4 L123.654,1.4 C127.878021,1.4 131.184655,2.49865568 133.574,4.696 C135.963345,6.89334432 137.158,10.0399795 137.158,14.136 C137.158,17.4213498 136.454007,20.1093229 135.046,22.2 C133.637993,24.2906771 131.782012,25.7839955 129.478,26.68 L139.91,43 L134.342,43 L124.806,27.576 L118.47,27.576 L118.47,43 L113.606,43 L113.606,1.4 Z M123.654,24.696 C126.427347,24.696 128.517993,23.9066746 129.926,22.328 C131.334007,20.7493254 132.038,18.0826854 132.038,14.328 C132.038,7.58663296 129.051363,4.216 123.078,4.216 L118.47,4.216 L118.47,24.696 L123.654,24.696 Z M145.058,43 L159.074,1.4 L164.77,1.4 L178.53,43 L173.474,43 L169.122,30.2 L152.802,30.2 L148.45,43 L145.058,43 Z M153.698,27.576 L168.29,27.576 L161.058,5.112 L153.698,27.576 Z M189.886,43 L189.886,4.472 L178.046,4.472 L178.046,1.4 L206.654,1.4 L206.654,4.472 L194.75,4.472 L194.75,43 L189.886,43 Z M214.618,43 L214.618,1.4 L219.482,1.4 L219.482,43 L214.618,43 Z M247.926,43.64 C244.213981,43.64 241.02468,42.7866752 238.358,41.08 C235.69132,39.3733248 233.654007,36.9093494 232.246,33.688 C230.837993,30.4666506 230.134,26.6586886 230.134,22.264 C230.134,17.8693114 230.837993,14.0613494 232.246,10.84 C233.654007,7.61865056 235.69132,5.14400864 238.358,3.416 C241.02468,1.68799136 244.213981,0.824 247.926,0.824 C251.638019,0.824 254.837987,1.68799136 257.526,3.416 C260.214013,5.14400864 262.27266,7.61865056 263.702,10.84 C265.13134,14.0613494 265.846,17.8693114 265.846,22.264 C265.846,26.6586886 265.13134,30.4666506 263.702,33.688 C262.27266,36.9093494 260.214013,39.3733248 257.526,41.08 C254.837987,42.7866752 251.638019,43.64 247.926,43.64 Z M247.926,40.568 C252.02202,40.568 255.168656,39.0106822 257.366,35.896 C259.563344,32.7813178 260.662,28.2373632 260.662,22.264 C260.662,16.3333037 259.563344,11.7893491 257.366,8.632 C255.168656,5.47465088 252.02202,3.896 247.926,3.896 C243.872646,3.896 240.758011,5.47465088 238.582,8.632 C236.405989,11.7893491 235.318,16.3333037 235.318,22.264 C235.318,28.2373632 236.395323,32.7813178 238.55,35.896 C240.704677,39.0106822 243.82998,40.568 247.926,40.568 Z M276.434,43 L276.434,1.4 L281.49,1.4 L302.738,35.704 L302.546,34.168 L302.546,1.4 L306.066,1.4 L306.066,43 L301.842,43 L279.698,7.544 L279.634,7.544 L279.954,9.528 L279.954,43 L276.434,43 Z M336.01,43 L336.202,1.4 L336.33,1.592 L336.266,1.4 L342.218,1.4 L356.874,37.048 L356.938,37.048 L371.594,1.4 L377.226,1.4 L377.418,43 L372.682,43 L372.49,7.352 L372.426,7.352 L358.026,43 L354.122,43 L339.658,7.352 L339.53,43 L336.01,43 Z M405.798,43.64 C402.085981,43.64 398.89668,42.7866752 396.23,41.08 C393.56332,39.3733248 391.526007,36.9093494 390.118,33.688 C388.709993,30.4666506 388.006,26.6586886 388.006,22.264 C388.006,17.8693114 388.709993,14.0613494 390.118,10.84 C391.526007,7.61865056 393.56332,5.14400864 396.23,3.416 C398.89668,1.68799136 402.085981,0.824 405.798,0.824 C409.510019,0.824 412.709987,1.68799136 415.398,3.416 C418.086013,5.14400864 420.14466,7.61865056 421.574,10.84 C423.00334,14.0613494 423.718,17.8693114 423.718,22.264 C423.718,26.6586886 423.00334,30.4666506 421.574,33.688 C420.14466,36.9093494 418.086013,39.3733248 415.398,41.08 C412.709987,42.7866752 409.510019,43.64 405.798,43.64 Z M405.798,40.568 C409.89402,40.568 413.040656,39.0106822 415.238,35.896 C417.435344,32.7813178 418.534,28.2373632 418.534,22.264 C418.534,16.3333037 417.435344,11.7893491 415.238,8.632 C413.040656,5.47465088 409.89402,3.896 405.798,3.896 C401.744646,3.896 398.630011,5.47465088 396.454,8.632 C394.277989,11.7893491 393.19,16.3333037 393.19,22.264 C393.19,28.2373632 394.267323,32.7813178 396.422,35.896 C398.576677,39.0106822 401.70198,40.568 405.798,40.568 Z M434.306,1.4 L446.978,1.4 C452.951363,1.4 457.591317,3.20264864 460.898,6.808 C464.204683,10.4133514 465.858,15.586633 465.858,22.328 C465.858,29.0267002 464.226016,34.146649 460.962,37.688 C457.697984,41.229351 453.036697,43 446.978,43 L434.306,43 L434.306,1.4 Z M447.042,39.928 C456.087379,39.928 460.61,34.061392 460.61,22.328 C460.61,10.4239405 456.066045,4.472 446.978,4.472 L439.17,4.472 L439.17,39.928 L447.042,39.928 Z M476.382,43 L476.382,1.4 L498.782,1.4 L498.782,4.472 L481.246,4.472 L481.246,20.472 L497.31,20.472 L497.31,23.416 L481.246,23.416 L481.246,39.928 L500.19,39.928 L500.19,43 L476.382,43 Z M510.33,43 L510.33,1.4 L515.194,1.4 L515.194,39.928 L533.69,39.928 L533.69,43 L510.33,43 Z" id="OPERATION-MODEL" fill="url(#linearGradient-1)"></path>
    </g>
</svg>