<?xml version="1.0" encoding="UTF-8"?>
<svg width="270px" height="65px" viewBox="0 0 270 65" version="1.1" xmlns="http://www.w3.org/2000/svg" xmlns:xlink="http://www.w3.org/1999/xlink">
    <!-- Generator: Sketch 56.3 (81716) - https://sketch.com -->
    <title>logo w mobile</title>
    <desc>Created with Sketch.</desc>
    <g id="logo-w-mobile" stroke="none" stroke-width="1" fill="none" fill-rule="evenodd">
        <path d="M82.6068706,14.0222859 C82.6068706,13.657802 82.6890907,13.4017993 82.8535335,13.2542701 C83.0179762,13.1067409 83.2906009,13.0329774 83.6714157,13.0329774 C84.017611,13.0329774 84.2729262,13.1067409 84.4373689,13.2542701 C84.6018117,13.4017993 84.6840318,13.657802 84.6840318,14.0222859 L84.6840318,17.9014167 L91.9540961,17.9014167 C92.473389,17.9014167 92.8974718,17.9274508 93.2263573,17.97952 C93.5552428,18.0315891 93.810558,18.1400648 93.9923105,18.3049504 C94.174063,18.469836 94.2995569,18.7128216 94.368796,19.0339146 C94.438035,19.3550075 94.472654,19.7758933 94.472654,20.2965846 L94.472654,28.5234659 C94.472654,28.992088 94.4423624,29.3782616 94.3817782,29.6819982 C94.3211941,29.9857348 94.2000275,30.2287204 94.018275,30.4109624 C93.8365225,30.5932043 93.5812073,30.7190362 93.2523218,30.7884617 C92.9234363,30.8578872 92.4993535,30.8925994 91.9800606,30.8925994 L84.6840318,30.8925994 L84.6840318,37.0627604 C84.6840318,37.3578188 84.6104664,37.5877873 84.4633334,37.7526729 C84.3162004,37.9175584 84.0435758,38 83.6454512,38 C83.1953974,38 82.9097906,37.9262365 82.7886222,37.7787073 C82.6674539,37.6311781 82.6068706,37.3838535 82.6068706,37.0367259 L82.6068706,30.8925994 L75.4666289,30.8925994 C74.947336,30.8925994 74.5232532,30.8578872 74.1943677,30.7884617 C73.8654822,30.7190362 73.6144944,30.5932043 73.4413968,30.4109624 C73.2682991,30.2287204 73.15146,29.9857348 73.0908758,29.6819982 C73.0302916,29.3782616 73,28.992088 73,28.5234659 L73,20.2705502 C73,19.7845717 73.0302916,19.385381 73.0908758,19.0729662 C73.15146,18.7605514 73.2726265,18.5219048 73.454379,18.3570193 C73.6361315,18.1921337 73.8871193,18.0749799 74.20735,18.0055544 C74.5275806,17.9361289 74.947336,17.9014167 75.4666289,17.9014167 L82.6068706,17.9014167 L82.6068706,14.0222859 Z M84.6840318,19.9060681 L84.6840318,28.887948 L91.9540961,28.887948 C92.0925742,28.887948 92.2094133,28.8532357 92.304617,28.7838102 C92.3998207,28.7143847 92.4474218,28.5581797 92.4474218,28.3151904 L92.4474218,20.2965846 C92.4474218,20.1403772 92.4084755,20.0362405 92.3305815,19.9841714 C92.2526876,19.9321023 92.1358484,19.9060681 91.9800606,19.9060681 L84.6840318,19.9060681 Z M75.4666289,19.9060681 C75.3281508,19.9060681 75.2199664,19.9451194 75.1420725,20.0232231 C75.0641786,20.1013268 75.0252322,20.1924464 75.0252322,20.2965846 L75.0252322,28.4453626 C75.0252322,28.5668572 75.0598512,28.6709939 75.1290902,28.7577758 C75.1983293,28.8445577 75.3021863,28.887948 75.4406644,28.887948 L82.6068706,28.887948 L82.6068706,19.9060681 L75.4666289,19.9060681 Z M123.181419,36.2296585 C123.181419,36.5247169 123.103526,36.7633635 122.947738,36.9456054 C122.79195,37.1278474 122.532308,37.218967 122.168803,37.218967 L107.394994,37.218967 C107.031488,37.218967 106.771846,37.1278474 106.616058,36.9456054 C106.46027,36.7633635 106.382377,36.5247169 106.382377,36.2296585 C106.382377,35.9346001 106.46027,35.6872754 106.616058,35.4876771 C106.771846,35.2880788 107.031488,35.1882811 107.394994,35.1882811 L108.900935,35.1882811 L108.900935,16.6257294 C108.900935,16.1571072 108.935554,15.7752727 109.004793,15.4802143 C109.074032,15.1851559 109.186544,14.9595264 109.342332,14.803319 C109.49812,14.6471116 109.710161,14.5386359 109.978463,14.4778885 C110.246764,14.4171412 110.579972,14.386768 110.978097,14.386768 L118.611664,14.386768 C119.009789,14.386768 119.342997,14.4171412 119.611298,14.4778885 C119.879599,14.5386359 120.095968,14.6514506 120.260411,14.8163362 C120.424854,14.9812218 120.541693,15.2111903 120.610932,15.5062487 C120.680171,15.8013071 120.71479,16.1831417 120.71479,16.6517638 L120.71479,35.1882811 L122.168803,35.1882811 C122.532308,35.1882811 122.79195,35.2880788 122.947738,35.4876771 C123.103526,35.6872754 123.181419,35.9346001 123.181419,36.2296585 Z M107.3171,20.3746879 C107.974871,20.3746879 108.303752,20.687098 108.303752,21.3119276 C108.303752,21.9541135 107.974871,22.2752016 107.3171,22.2752016 L104.772577,22.2752016 C105.447658,23.073595 105.984253,23.7201103 106.382377,24.214767 C106.780502,24.7094237 107.126692,25.1823779 107.420958,25.6336437 C107.732534,26.1369786 107.896974,26.5144741 107.914284,26.7661416 C107.931594,27.017809 107.784463,27.2564556 107.472887,27.4820885 C107.178621,27.690365 106.918979,27.7597895 106.693952,27.690364 C106.468925,27.6209385 106.243901,27.3866309 106.018874,26.9874343 C105.759228,26.5361685 105.50824,26.1326388 105.265903,25.7768331 C105.023567,25.4210273 104.763924,25.069566 104.486968,24.7224385 L104.486968,37.0367259 C104.486968,37.6789119 104.184051,38 103.57821,38 C103.232015,38 102.985354,37.9262365 102.838221,37.7787073 C102.691088,37.6311781 102.617523,37.3838535 102.617523,37.0367259 L102.617523,26.7791588 C102.305947,27.4907702 101.972739,28.1893539 101.617889,28.8749308 C101.263039,29.5605076 100.877902,30.2417352 100.462468,30.9186338 C100.133582,31.4393251 99.8393209,31.7560743 99.5796744,31.8688907 C99.320028,31.9817072 99.0430759,31.9426559 98.74881,31.7517357 C98.454544,31.5608156 98.2987584,31.3351861 98.2814487,31.0748405 C98.2641389,30.8144948 98.4199245,30.4500164 98.74881,29.9813942 C99.4585103,28.957368 100.116271,27.8248814 100.722113,26.5839005 C101.327955,25.3429196 101.907823,23.906701 102.461736,22.2752016 L99.5537099,22.2752016 C99.1902049,22.2752016 98.9305623,22.1970991 98.7747745,22.0408917 C98.6189866,21.8846843 98.5410938,21.6416987 98.5410938,21.3119276 C98.5410938,20.9995128 98.6189866,20.7652052 98.7747745,20.6089978 C98.9305623,20.4527904 99.1902049,20.3746879 99.5537099,20.3746879 L102.617523,20.3746879 L102.617523,17.380728 C102.271327,17.4675099 101.912155,17.5499514 101.539995,17.6280551 C101.167835,17.7061588 100.782699,17.7886003 100.384574,17.8753822 C99.8479717,17.9795205 99.4671627,17.9838595 99.2421357,17.8883994 C99.0171088,17.7929394 98.8786328,17.5456147 98.8267035,17.1464181 C98.792084,16.7992905 98.861322,16.5432878 99.0344196,16.3784023 C99.2075173,16.2135167 99.5537073,16.0790068 100.073,15.9748685 C101.267374,15.7318792 102.323254,15.4758765 103.240671,15.2068527 C104.158089,14.9378289 105.032218,14.6210798 105.863087,14.2565958 C106.34776,14.0483193 106.719915,13.9485217 106.979561,13.9571999 C107.239208,13.965878 107.438267,14.1177441 107.576745,14.4128025 C107.749843,14.7772864 107.784462,15.0766794 107.680603,15.3109904 C107.576745,15.5453015 107.247864,15.7839481 106.693952,16.0269374 C106.330447,16.1831448 105.966947,16.3263327 105.603442,16.4565056 C105.239937,16.5866784 104.867783,16.7125102 104.486968,16.8340049 L104.486968,20.3746879 L107.3171,20.3746879 Z M110.952132,21.520203 L118.663593,21.520203 L118.663593,16.7559015 C118.663593,16.5823378 118.637629,16.469523 118.5857,16.4174539 C118.53377,16.3653848 118.412604,16.3393506 118.222196,16.3393506 L111.263706,16.3393506 C111.125228,16.3393506 111.038681,16.3697238 111.004061,16.4304711 C110.969442,16.4912184 110.952132,16.6170503 110.952132,16.8079704 L110.952132,21.520203 Z M110.952132,28.4453626 L118.663593,28.4453626 L118.663593,23.4467512 L110.952132,23.4467512 L110.952132,28.4453626 Z M110.952132,35.1882811 L118.663593,35.1882811 L118.663593,30.3719107 L110.952132,30.3719107 L110.952132,35.1882811 Z M134.979295,23.8893366 C135.446659,23.8893366 135.853432,24.0498806 136.199627,24.3709736 C136.545822,24.6920666 136.718917,25.0869182 136.718917,25.5555404 C136.718917,26.0241625 136.558805,26.4233532 136.238574,26.7531243 C135.918343,27.0828955 135.515897,27.2477786 135.031224,27.2477786 C134.546551,27.2477786 134.139777,27.0742174 133.810892,26.7270899 C133.482006,26.3799624 133.317566,25.9894498 133.317566,25.5555404 C133.317566,25.1042746 133.486334,24.713762 133.823874,24.3839908 C134.161414,24.0542197 134.546551,23.8893366 134.979295,23.8893366 Z M150.749742,24.331922 C150.351617,24.331922 150.061683,24.2668365 149.879931,24.1366637 C149.698178,24.0064909 149.607303,23.724454 149.607303,23.2905446 C149.607303,23.1864063 149.611631,23.0952867 149.620286,23.017183 C149.628941,22.9390793 149.650577,22.8566378 149.685197,22.7698559 C149.529409,22.8566378 149.377951,22.9390793 149.230818,23.017183 C149.083685,23.0952867 148.940882,23.1777283 148.802403,23.2645101 C148.369659,23.5074994 148.00616,23.6072971 147.711894,23.5639061 C147.417628,23.5205152 147.201259,23.3165808 147.062781,22.9520969 C146.924303,22.5529003 146.92863,22.2448292 147.075763,22.0278745 C147.222896,21.8109198 147.547449,21.5809513 148.049432,21.337962 C148.845682,20.9387653 149.67221,20.4744892 150.529044,19.9451198 C151.385877,19.4157503 152.23837,18.8386594 153.086548,18.2138299 C153.934727,17.5890003 154.765583,16.9251289 155.579142,16.2221956 C156.392701,15.5192624 157.162974,14.8033226 157.889984,14.0743548 C158.18425,13.7792964 158.461202,13.5536669 158.720848,13.3974595 C158.980495,13.2412521 159.257447,13.1631496 159.551713,13.1631496 C159.845979,13.1631496 160.135913,13.2455912 160.421524,13.4104767 C160.707135,13.5753623 161.014379,13.8140089 161.343264,14.1264237 C162.001035,14.785966 162.741017,15.4585155 163.56323,16.1440923 C164.385444,16.8296692 165.224955,17.4935406 166.081788,18.1357266 C166.938622,18.7779125 167.791115,19.3680204 168.639293,19.9060681 C169.487471,20.4441158 170.266399,20.8866967 170.976099,21.2338243 C171.426153,21.4594572 171.703105,21.6807476 171.806964,21.8977023 C171.910822,22.114657 171.893513,22.3793378 171.755035,22.6917526 C171.478079,23.3512949 170.958793,23.4901438 170.197164,23.1083035 C169.348985,22.6743941 168.479183,22.1797448 167.58773,21.6243408 C166.696277,21.0689367 165.809165,20.4658117 164.926367,19.8149476 C164.043569,19.1640835 163.178094,18.487195 162.329916,17.7842617 C161.481737,17.0813285 160.694155,16.3740667 159.967145,15.6624553 C159.707498,15.419466 159.456511,15.419466 159.214174,15.6624553 C157.985181,16.8600453 156.626385,18.0272441 155.137745,19.1640867 C153.649105,20.3009294 152.10856,21.3466354 150.516061,22.3012361 C150.567991,22.2838797 150.645883,22.2752016 150.749742,22.2752016 L167.99018,22.2752016 C168.284446,22.2752016 168.535434,22.3533042 168.743151,22.5095115 C168.950868,22.6657189 169.054725,22.9260607 169.054725,23.2905446 C169.054725,23.724454 168.96385,24.0064909 168.782098,24.1366637 C168.600345,24.2668365 168.336375,24.331922 167.99018,24.331922 L160.408542,24.331922 L160.408542,28.2110527 L167.626677,28.2110527 C167.972872,28.2110527 168.241169,28.2891552 168.431577,28.4453626 C168.621984,28.60157 168.717187,28.8705898 168.717187,29.25243 C168.717187,29.6689831 168.621984,29.9423419 168.431577,30.0725147 C168.241169,30.2026876 167.972872,30.267773 167.626677,30.267773 L160.408542,30.267773 L160.408542,35.1622467 L169.833661,35.1622467 C170.179856,35.1622467 170.443826,35.2403492 170.625578,35.3965566 C170.807331,35.5527639 170.898206,35.8131057 170.898206,36.1775896 C170.898206,36.5594299 170.811658,36.8284497 170.638561,36.9846571 C170.465463,37.1408644 170.197166,37.218967 169.833661,37.218967 L149.191871,37.218967 C148.793747,37.218967 148.499485,37.1452035 148.309078,36.9976743 C148.11867,36.8501451 148.023468,36.5767863 148.023468,36.1775896 C148.023468,35.7783929 148.11867,35.5093731 148.309078,35.3705221 C148.499485,35.2316711 148.793747,35.1622467 149.191871,35.1622467 L158.357345,35.1622467 L158.357345,30.267773 L151.165174,30.267773 C150.818979,30.267773 150.550682,30.2026876 150.360274,30.0725147 C150.169867,29.9423419 150.074665,29.6689831 150.074665,29.25243 C150.074665,28.8705898 150.156885,28.60157 150.321328,28.4453626 C150.48577,28.2891552 150.76705,28.2110527 151.165174,28.2110527 L158.357345,28.2110527 L158.357345,24.331922 L150.749742,24.331922 Z M178.653607,34.823799 C178.653607,34.8932245 178.670916,34.9409538 178.705536,34.9669884 C178.740155,34.993023 178.76612,35.00604 178.783429,35.00604 C179.47582,34.8498327 180.120599,34.7066447 180.717786,34.5764719 C181.314973,34.4462991 181.91215,34.3117892 182.509337,34.1729381 C183.106524,34.0340871 183.721011,33.8822211 184.352818,33.7173355 C184.984624,33.55245 185.681332,33.3658717 186.442961,33.1575952 C186.893015,33.0361006 187.269497,33.0100664 187.572418,33.0794919 C187.875339,33.1489174 188.078725,33.3485127 188.182584,33.6782839 C188.286442,34.0254114 188.243169,34.3248044 188.052761,34.5764719 C187.862354,34.8281393 187.559438,35.0147176 187.144003,35.1362122 C186.486232,35.309776 185.889054,35.465981 185.352452,35.604832 C184.815849,35.743683 184.300891,35.8695149 183.807563,35.9823313 C183.314235,36.0951478 182.833896,36.2079625 182.366532,36.320779 C181.899169,36.4335954 181.405848,36.5420712 180.886555,36.6462094 C180.488431,36.7329913 180.025401,36.845806 179.497453,36.9846571 C178.969506,37.1235081 178.480512,37.1929325 178.030458,37.1929325 C177.424617,37.1929325 177.035153,37.0063543 176.862055,36.6331922 C176.688958,36.2600301 176.60241,35.6308709 176.60241,34.7456957 L176.60241,17.1724525 C176.60241,16.6344048 176.637029,16.2005019 176.706268,15.8707308 C176.775507,15.5409596 176.905328,15.2849569 177.095736,15.102715 C177.286143,14.920473 177.550113,14.8033192 177.887654,14.7512501 C178.225194,14.699181 178.670914,14.6731468 179.224826,14.6731468 L193.868813,14.6731468 C194.422725,14.6731468 194.868445,14.70352 195.205985,14.7642673 C195.543526,14.8250146 195.807495,14.9465074 195.997903,15.1287494 C196.18831,15.3109914 196.318132,15.5669941 196.387371,15.8967652 C196.45661,16.2265364 196.491229,16.6517612 196.491229,17.1724525 L196.491229,20.5048601 C196.491229,21.008195 196.460937,21.4204028 196.400353,21.7414957 C196.339769,22.0625887 196.218602,22.3142524 196.03685,22.4964943 C195.855097,22.6787363 195.591127,22.8045681 195.244932,22.8739936 C194.898737,22.9434191 194.440035,22.9781314 193.868813,22.9781314 L188.416264,22.9781314 C188.554743,23.65503 188.710528,24.3102234 188.883626,24.9437312 C189.056723,25.5772389 189.238473,26.19772 189.428881,26.8051932 L197.971206,26.8051932 C198.352021,26.8051932 198.607336,26.8876348 198.737159,27.0525203 C198.866982,27.2174059 198.931893,27.4647306 198.931893,27.7945017 C198.931893,28.1416293 198.866982,28.397632 198.737159,28.5625175 C198.607336,28.7274031 198.352021,28.8098447 197.971206,28.8098447 L190.207816,28.8098447 C190.692489,29.9032964 191.246393,30.9142901 191.869545,31.8428563 C192.492696,32.7714224 193.211041,33.6262111 194.0246,34.4072481 C194.457344,34.8411575 194.807861,35.1622456 195.076163,35.3705221 C195.344464,35.5787986 195.569487,35.626528 195.75124,35.5137115 C195.932992,35.4008951 196.093105,35.092824 196.231584,34.5894891 C196.370062,34.0861542 196.517192,33.3398412 196.67298,32.3505277 C196.776839,31.6909854 196.902333,31.2700996 197.049466,31.0878577 C197.196599,30.9056157 197.469223,30.8318522 197.867348,30.866565 C198.196233,30.9186341 198.442894,31.053144 198.607337,31.2700987 C198.771779,31.4870534 198.810726,31.873227 198.724177,32.428631 C198.464531,34.0774868 198.144305,35.3488223 197.76349,36.2426757 C197.382675,37.1365291 196.923973,37.6832467 196.387371,37.882845 C195.850768,38.0824434 195.214644,37.9435944 194.478979,37.4662941 C193.743314,36.9889937 192.882166,36.1949514 191.895509,35.0841433 C191.064641,34.1989682 190.328987,33.2400427 189.688526,32.2073384 C189.048064,31.174634 188.485506,30.0421474 188.000832,28.8098447 L178.653607,28.8098447 L178.653607,34.823799 Z M194.491961,17.0162459 C194.491961,16.7732566 194.336175,16.6517638 194.0246,16.6517638 L179.095004,16.6517638 C178.800738,16.6517638 178.653607,16.7732566 178.653607,17.0162459 L178.653607,20.9995144 L194.0246,20.9995144 C194.336175,20.9995144 194.491961,20.8953777 194.491961,20.6871011 L194.491961,17.0162459 Z M178.653607,26.8051932 L187.273826,26.8051932 C187.083418,26.2150764 186.918978,25.6032733 186.7805,24.9697656 C186.642022,24.3362579 186.512201,23.6723864 186.391032,22.9781314 L178.653607,22.9781314 L178.653607,26.8051932 Z M220.708132,24.9827828 C221.487072,24.9827828 222.002029,25.160683 222.253021,25.5164887 C222.504012,25.8722944 222.629506,26.4407072 222.629506,27.2217442 L222.629506,31.647598 C222.629506,32.4459913 222.486703,32.98837 222.201092,33.2747502 C221.915481,33.5611304 221.383214,33.7043183 220.604274,33.7043183 L213.827536,33.7043183 L213.827536,34.1208693 C213.827536,34.3985713 213.857827,34.6285398 213.918412,34.8107818 C213.978996,34.9930237 214.091507,35.1405507 214.25595,35.2533672 C214.420393,35.3661836 214.654071,35.4442861 214.956992,35.4876771 C215.259913,35.531068 215.662359,35.5527632 216.164342,35.5527632 C216.666325,35.5527632 217.311104,35.5571022 218.098698,35.5657804 C218.886293,35.5744586 219.825333,35.5701195 220.915848,35.5527632 C221.539,35.5527632 222.053958,35.5180509 222.460737,35.4486254 C222.867516,35.3791999 223.19207,35.2663852 223.434406,35.1101778 C223.676743,34.9539704 223.845511,34.745697 223.940714,34.4853514 C224.035918,34.2250057 224.083519,33.8952395 224.083519,33.4960429 C224.083519,32.9927079 224.157085,32.6412466 224.304218,32.4416483 C224.451351,32.2420499 224.689356,32.1422523 225.018242,32.1422523 C225.312508,32.1422523 225.537531,32.250728 225.693319,32.4676827 C225.849107,32.6846374 225.90969,32.9666743 225.875071,33.3138018 C225.840451,34.1469079 225.749576,34.8281354 225.602443,35.3575049 C225.45531,35.8868744 225.204323,36.2990821 224.849472,36.5941405 C224.494622,36.8891989 224.014284,37.0931333 223.408442,37.2059498 C222.8026,37.3187662 222.023672,37.3838516 221.071635,37.401208 C220.223457,37.4185643 219.383946,37.4229034 218.553077,37.4142252 C217.722209,37.405547 216.882698,37.39253 216.034519,37.3751736 C215.203651,37.3578172 214.524253,37.3014098 213.996305,37.2059498 C213.468357,37.1104897 213.048602,36.9629627 212.737026,36.7633644 C212.42545,36.563766 212.213409,36.3121024 212.100895,36.0083658 C211.988382,35.7046292 211.932126,35.3271337 211.932126,34.8758679 L211.932126,33.7043183 L205.28521,33.7043183 C204.506271,33.7043183 203.978331,33.5264181 203.701375,33.1706124 C203.424419,32.8148067 203.285943,32.2463939 203.285943,31.465357 L203.285943,27.2217442 C203.285943,26.4407072 203.424419,25.8722944 203.701375,25.5164887 C203.978331,25.160683 204.506271,24.9827828 205.28521,24.9827828 L220.708132,24.9827828 Z M212.347558,16.781936 L212.347558,15.8446963 L204.662062,15.8446963 C204.263937,15.8446963 203.99564,15.7796109 203.857162,15.6494381 C203.718684,15.5192653 203.649446,15.3066528 203.649446,15.0115944 C203.649446,14.6991797 203.718684,14.4648721 203.857162,14.3086647 C203.99564,14.1524573 204.263937,14.0743548 204.662062,14.0743548 L222.447755,14.0743548 C222.845879,14.0743548 223.105522,14.1567964 223.22669,14.3216819 C223.347859,14.4865675 223.408442,14.716536 223.408442,15.0115944 C223.408442,15.3066528 223.347859,15.5192653 223.22669,15.6494381 C223.105522,15.7796109 222.845879,15.8446963 222.447755,15.8446963 L214.242968,15.8446963 L214.242968,16.781936 L223.070903,16.781936 C224.247967,16.781936 224.979294,17.2158389 225.264905,18.0836577 C225.550516,18.9514765 225.347129,20.1490485 224.654739,21.6764096 C224.395092,22.2491701 224.144104,22.5832753 223.901768,22.6787354 C223.659431,22.7741954 223.373824,22.7264661 223.044939,22.535546 C222.767982,22.3793386 222.612197,22.1840823 222.577577,21.9497712 C222.542958,21.7154601 222.620851,21.390033 222.811258,20.9734799 C223.261312,19.9841665 223.490663,19.3333121 223.499318,19.0208973 C223.507972,18.7084826 223.33055,18.5522775 222.967045,18.5522775 L214.242968,18.5522775 L214.242968,22.118995 C214.242968,22.5008353 214.178057,22.7828722 214.048234,22.9651141 C213.918411,23.1473561 213.663096,23.2384757 213.282281,23.2384757 C212.918776,23.2384757 212.672115,23.1473561 212.542292,22.9651141 C212.412469,22.7828722 212.347558,22.5008353 212.347558,22.118995 L212.347558,18.5522775 L204.012949,18.5522775 C203.891781,18.5522775 203.831197,18.621702 203.831197,18.760553 L203.831197,21.6503752 C203.831197,21.9975027 203.740322,22.2491664 203.55857,22.4053738 C203.376817,22.5615812 203.138812,22.6396837 202.844546,22.6396837 C202.221394,22.6396837 201.909823,22.3099175 201.909823,21.6503752 L201.909823,18.8386563 C201.909823,18.6303798 201.944442,18.4047503 202.013681,18.161761 C202.08292,17.9187717 202.195432,17.6974813 202.35122,17.4978829 C202.507008,17.2982846 202.710395,17.1290625 202.961386,16.9902115 C203.212378,16.8513604 203.519621,16.781936 203.883126,16.781936 L212.347558,16.781936 Z M213.827536,30.0594975 L213.827536,31.9860457 L220.370594,31.9860457 C220.61293,31.9860457 220.734097,31.8038064 220.734097,31.4393225 L220.734097,30.0594975 L213.827536,30.0594975 Z M205.181352,31.4393225 C205.181352,31.5955299 205.220299,31.7257008 205.298192,31.8298391 C205.376086,31.9339773 205.536199,31.9860457 205.778536,31.9860457 L211.932126,31.9860457 L211.932126,30.0594975 L205.181352,30.0594975 L205.181352,31.4393225 Z M222.240039,20.2184813 C222.240039,20.5135397 222.175128,20.7304912 222.045305,20.8693422 C221.915482,21.0081932 221.660166,21.0776177 221.279352,21.0776177 L215.696981,21.0776177 C215.350786,21.0776177 215.104125,21.0081932 214.956992,20.8693422 C214.809859,20.7304912 214.736294,20.5135397 214.736294,20.2184813 C214.736294,19.8713538 214.809859,19.6370462 214.956992,19.5155516 C215.104125,19.394057 215.350786,19.3333106 215.696981,19.3333106 L221.279352,19.3333106 C221.660166,19.3333106 221.915482,19.402735 222.045305,19.541586 C222.175128,19.680437 222.240039,19.9060665 222.240039,20.2184813 Z M222.317932,22.8479592 C222.317932,23.1430176 222.257349,23.359969 222.136181,23.4988201 C222.015012,23.6376711 221.75537,23.7070955 221.357245,23.7070955 L215.800839,23.7070955 C215.454644,23.7070955 215.212311,23.6420101 215.073832,23.5118373 C214.935354,23.3816644 214.866116,23.160374 214.866116,22.8479592 C214.866116,22.518188 214.935354,22.2882195 215.073832,22.1580467 C215.212311,22.0278739 215.454644,21.9627884 215.800839,21.9627884 L221.357245,21.9627884 C221.73806,21.9627884 221.993375,22.0322129 222.123198,22.1710639 C222.253022,22.3099149 222.317932,22.5355444 222.317932,22.8479592 Z M211.72441,23.0041658 C211.72441,23.2818678 211.659499,23.4901412 211.529676,23.6289922 C211.399853,23.7678432 211.135883,23.8372677 210.737758,23.8372677 L205.155388,23.8372677 C204.774573,23.8372677 204.51493,23.7678432 204.376452,23.6289922 C204.237974,23.4901412 204.168736,23.2731898 204.168736,22.9781314 C204.168736,22.683073 204.237974,22.4661215 204.376452,22.3272705 C204.51493,22.1884195 204.774573,22.118995 205.155388,22.118995 L210.737758,22.118995 C211.135883,22.118995 211.399853,22.1927585 211.529676,22.3402877 C211.659499,22.4878169 211.72441,22.7091074 211.72441,23.0041658 Z M211.698445,20.3226191 C211.698445,20.6176775 211.633535,20.8302899 211.503712,20.9604627 C211.373888,21.0906355 211.109918,21.155721 210.711794,21.155721 L205.207317,21.155721 C204.826502,21.155721 204.562532,21.0949746 204.415399,20.9734799 C204.268266,20.8519853 204.194701,20.6176777 204.194701,20.2705502 C204.194701,19.9754918 204.268266,19.7628794 204.415399,19.6327065 C204.562532,19.5025337 204.826502,19.4374483 205.207317,19.4374483 L210.711794,19.4374483 C211.109918,19.4374483 211.373888,19.5068728 211.503712,19.6457238 C211.633535,19.7845748 211.698445,20.0102043 211.698445,20.3226191 Z M220.734097,27.2477786 C220.734097,27.0915712 220.703805,26.9614003 220.643221,26.8572621 C220.582637,26.7531238 220.491762,26.7010555 220.370594,26.7010555 L213.827536,26.7010555 L213.827536,28.3932937 L220.734097,28.3932937 L220.734097,27.2477786 Z M205.181352,28.3932937 L211.932126,28.3932937 L211.932126,26.7010555 L205.518891,26.7010555 C205.293864,26.7010555 205.181352,26.8832947 205.181352,27.2477786 L205.181352,28.3932937 Z M246.742552,19.2552072 C246.725242,19.4461274 246.71226,19.6370447 246.703605,19.8279648 C246.69495,20.0188849 246.681968,20.2098022 246.664658,20.4007224 L251.649845,20.4007224 C251.99604,20.4007224 252.225391,20.4658078 252.337905,20.5959806 C252.450418,20.7261534 252.506674,20.9214097 252.506674,21.1817554 C252.506674,21.4247447 252.450418,21.6156619 252.337905,21.7545129 C252.225391,21.893364 251.99604,21.9627884 251.649845,21.9627884 L251.000732,21.9627884 C250.896874,23.0909529 250.775707,24.1323198 250.637229,25.0869205 C250.498751,26.0415212 250.342965,26.9223441 250.169868,27.7294156 C249.99677,28.5364871 249.797711,29.2871392 249.572684,29.9813942 C249.347657,30.6756493 249.07936,31.3265036 248.767784,31.9339768 C249.165909,32.6455882 249.620283,33.3094597 250.130921,33.925611 C250.641559,34.5417624 251.208445,35.1535655 251.831597,35.7610386 C252.160482,36.056097 252.333577,36.3294559 252.350887,36.5811233 C252.368197,36.8327908 252.272995,37.0540813 252.065277,37.2450014 C251.632533,37.6268417 251.139213,37.5487392 250.5853,37.0106915 C250.014078,36.4552875 249.494793,35.8955527 249.027429,35.3314705 C248.560066,34.7673882 248.144637,34.1902974 247.781132,33.6001806 C247.383008,34.2076538 246.924306,34.7890837 246.405013,35.3444877 C245.88572,35.8998917 245.297197,36.4726436 244.639426,37.0627604 C244.32785,37.3578188 244.033589,37.5140238 243.756633,37.5313802 C243.479676,37.5487366 243.245998,37.4359218 243.055591,37.1929325 C242.692086,36.7243104 242.865181,36.2036269 243.574881,35.6308665 C244.267272,35.0233933 244.886086,34.4202683 245.431344,33.8214733 C245.976601,33.2226783 246.45694,32.584841 246.872374,31.9079424 C246.49156,31.0921927 246.167006,30.237404 245.898705,29.3435506 C245.630404,28.4496972 245.392398,27.4820937 245.184681,26.4407111 C245.184681,26.4580675 245.180354,26.4710846 245.171699,26.4797628 C245.163044,26.488441 245.158716,26.5014581 245.158716,26.5188144 C244.950999,27.0395057 244.743285,27.3475768 244.535568,27.4430369 C244.327851,27.5384969 244.068208,27.5081237 243.756633,27.3519163 C243.514296,27.2304217 243.380147,27.0395044 243.354183,26.7791588 C243.328218,26.5188131 243.436402,26.1369786 243.678739,25.6336437 C244.111483,24.6963993 244.449018,23.6550324 244.691355,22.5095115 C244.933692,21.3639907 245.072168,20.2705554 245.106787,19.2291728 C245.141407,18.7258379 245.206318,18.4004107 245.301521,18.2528815 C245.396725,18.1053523 245.608766,18.0315888 245.937652,18.0315888 C246.231918,18.0315888 246.448287,18.1140304 246.586765,18.278916 C246.725243,18.4438015 246.777171,18.7692287 246.742552,19.2552072 Z M253,16.3393506 C253,16.9988929 252.671119,17.3286591 252.013348,17.3286591 L232.436104,17.3286591 C232.245697,17.3286591 232.150494,17.4848642 232.150494,17.7972789 L232.150494,25.0608861 C232.150494,26.5882472 232.115875,27.9073121 232.046636,29.0181201 C231.977397,30.1289282 231.869213,31.1269049 231.72208,32.0120801 C231.574947,32.8972553 231.380215,33.7216708 231.137878,34.4853514 C230.895542,35.2490319 230.60128,36.0474133 230.255085,36.8805193 C230.064677,37.3317851 229.830999,37.618161 229.554043,37.7396557 C229.277087,37.8611503 228.982825,37.8524722 228.671249,37.7136212 C228.359674,37.5747702 228.182251,37.3708358 228.138977,37.101812 C228.095702,36.8327882 228.177922,36.4639707 228.38564,35.9953486 C228.714525,35.2837371 228.995805,34.5504412 229.229486,33.7954388 C229.463168,33.0404365 229.649245,32.224699 229.787723,31.348202 C229.926202,30.471705 230.030059,29.5084406 230.099298,28.4583798 C230.168537,27.408319 230.203156,26.2324422 230.203156,24.9307139 L230.203156,17.5369346 C230.203156,16.7558976 230.345959,16.204841 230.63157,15.883748 C230.917181,15.562655 231.466758,15.402111 232.280317,15.402111 L240.485104,15.402111 C240.433174,15.26326 240.376919,15.1287501 240.316334,14.9985772 C240.25575,14.8684044 240.19084,14.7338945 240.1216,14.5950435 C239.965813,14.2999851 239.948503,14.0049311 240.069671,13.7098727 C240.19084,13.4148143 240.398554,13.215219 240.69282,13.1110807 C241.056325,12.9722297 241.359241,12.9635517 241.601578,13.0850463 C241.843915,13.2065409 242.051629,13.4668827 242.224726,13.8660793 C242.311275,14.1090686 242.40215,14.3563933 242.497354,14.6080607 C242.592557,14.8597282 242.683432,15.1244089 242.769981,15.402111 L252.013348,15.402111 C252.359544,15.402111 252.610531,15.4585183 252.766319,15.5713348 C252.922107,15.6841512 253,15.9401539 253,16.3393506 Z M243.211378,34.8758679 C243.211378,35.8998941 242.921444,36.5854607 242.341567,36.9325882 C241.761689,37.2797157 240.822649,37.2797157 239.524417,36.9325882 C239.074363,36.8110936 238.793083,36.6331934 238.68057,36.3988823 C238.568056,36.1645712 238.563729,35.8998904 238.667588,35.604832 C238.754136,35.3618428 238.905595,35.1969597 239.121967,35.1101778 C239.338339,35.0233959 239.628273,35.0494301 239.991778,35.1882811 C241.013054,35.5874777 241.523684,35.4573069 241.523684,34.7977646 L241.523684,25.711747 C241.523684,25.5555396 241.463101,25.4383858 241.341933,25.3602821 C241.220764,25.2821784 241.082288,25.2431272 240.9265,25.2431272 L235.811491,25.2431272 C235.655703,25.2431272 235.530209,25.2865174 235.435006,25.3732993 C235.339802,25.4600812 235.292201,25.572896 235.292201,25.711747 L235.292201,36.620175 C235.292201,36.8805206 235.218635,37.0627598 235.071502,37.1668981 C234.924369,37.2710364 234.712328,37.3231047 234.435372,37.3231047 C234.106486,37.3231047 233.872808,37.2753754 233.73433,37.1799153 C233.595852,37.0844552 233.526614,36.897877 233.526614,36.620175 L233.526614,25.3993338 C233.526614,24.7571478 233.669417,24.2972108 233.955028,24.0195087 C234.240639,23.7418067 234.790216,23.6029578 235.603775,23.6029578 L237.551113,23.6029578 L237.551113,18.8126219 C237.551113,18.5175635 237.620352,18.2875949 237.75883,18.1227094 C237.897308,17.9578238 238.139641,17.8753822 238.485836,17.8753822 C238.780102,17.8753822 238.996471,17.9621628 239.134949,18.1357266 C239.273427,18.3092903 239.342665,18.5349198 239.342665,18.8126219 L239.342665,23.6029578 L241.056323,23.6029578 C241.904501,23.6029578 242.475715,23.7374677 242.769981,24.0064915 C243.064247,24.2755154 243.211378,24.7397915 243.211378,25.3993338 L243.211378,34.8758679 Z M240.666855,32.3244933 C240.666855,32.862541 240.545689,33.2487146 240.303352,33.4830256 C240.061015,33.7173367 239.628278,33.8344905 239.005126,33.8344905 L237.836723,33.8344905 C237.178952,33.8344905 236.733232,33.7346928 236.499551,33.5350945 C236.265869,33.3354962 236.14903,32.9319665 236.14903,32.3244933 L236.14903,28.4974315 C236.14903,27.9420274 236.265869,27.5515148 236.499551,27.3258819 C236.733232,27.100249 237.178952,26.9874343 237.836723,26.9874343 L239.005126,26.9874343 C239.628278,26.9874343 240.061015,27.100249 240.303352,27.3258819 C240.545689,27.5515148 240.666855,27.9420274 240.666855,28.4974315 L240.666855,32.3244933 Z M246.301155,22.7438215 C246.439633,24.2191134 246.634365,25.5425173 246.885357,26.7140727 C247.136348,27.8856281 247.452247,28.9660463 247.833061,29.9553598 C248.248496,28.9313336 248.573049,27.7771519 248.806731,26.49278 C249.040413,25.2084082 249.217835,23.6984261 249.339003,21.9627884 L246.456942,21.9627884 L246.301155,22.7438215 Z M243.159449,19.958137 C243.05559,20.235839 242.956061,20.4831637 242.860857,20.7001184 C242.765653,20.9170731 242.666123,21.1296855 242.562265,21.337962 C242.458406,21.5462385 242.350222,21.7545119 242.237708,21.9627884 C242.125195,22.1710649 241.999701,22.3880164 241.861223,22.6136493 C241.653506,22.9607768 241.450119,23.1733892 241.251057,23.2514929 C241.051995,23.3295966 240.805334,23.2992234 240.511068,23.1603724 C240.234112,23.0215214 240.104291,22.8219261 240.1216,22.5615804 C240.13891,22.3012348 240.242767,22.0148589 240.433175,21.7024441 L240.796678,21.155721 C240.900536,20.9995136 240.991411,20.8346305 241.069305,20.6610667 C241.147199,20.4875029 241.220765,20.3009247 241.290004,20.1013264 C241.359243,19.901728 241.44579,19.6717595 241.549649,19.4114139 C241.688127,19.0642863 241.84824,18.860352 242.029992,18.7996046 C242.211745,18.7388573 242.432441,18.7518744 242.692087,18.8386563 C243.246,18.9948637 243.401785,19.3680202 243.159449,19.958137 Z M236.486568,21.7284785 C236.607737,22.0061805 236.663993,22.2752003 236.655338,22.535546 C236.646683,22.7958916 236.46926,22.9868089 236.123065,23.1083035 C235.77687,23.2124418 235.5129,23.2037637 235.331147,23.0822691 C235.149395,22.9607745 234.989282,22.7264669 234.850804,22.3793394 C234.746945,22.1537065 234.65607,21.9541111 234.578177,21.7805474 C234.500283,21.6069836 234.42239,21.4464395 234.344496,21.2989103 C234.266602,21.1513811 234.175727,20.9995151 234.071868,20.8433077 C233.96801,20.6871004 233.855498,20.5135392 233.73433,20.3226191 C233.353515,19.7325023 233.405443,19.2899213 233.890117,18.9948629 C234.132454,18.8560119 234.361804,18.8082826 234.578177,18.8516735 C234.794549,18.8950645 234.997935,19.0729646 235.188343,19.3853794 C235.326821,19.6110123 235.452315,19.8149467 235.564828,19.9971886 C235.677342,20.1794306 235.781199,20.3529917 235.876402,20.5178773 C235.971606,20.6827629 236.066808,20.8606631 236.162012,21.0515832 C236.257216,21.2425034 236.3654,21.4681329 236.486568,21.7284785 Z M239.134949,28.7838102 C239.134949,28.5581773 238.996473,28.4453626 238.719517,28.4453626 L238.070404,28.4453626 C237.983855,28.4453626 237.897307,28.4757358 237.810759,28.5364831 C237.72421,28.5972304 237.680936,28.679672 237.680936,28.7838102 L237.680936,32.064149 C237.680936,32.203 237.719882,32.2984586 237.797776,32.3505277 C237.87567,32.4025969 237.966545,32.428631 238.070404,32.428631 L238.719517,32.428631 C238.996473,32.428631 239.134949,32.3071382 239.134949,32.064149 L239.134949,28.7838102 Z" id="中租-·-全民電廠" fill="#FFFFFF"></path>
        <path d="M52.5646972,23.2147931 L51.296811,23.2076552 L40.4002862,23.2092414 L40.4002862,17.4372989 L37.2514554,17.4349195 L37.2538347,23.2092414 C33.7822164,23.2068621 32.350425,21.4808046 32.350425,18.2930575 L32.350425,17.4349195 C32.4995259,16.1360805 33.0380338,15.0069655 33.9767878,14.0562989 C35.0897571,12.930092 36.4491129,12.3683103 38.0527405,12.3683103 C39.6664138,12.3683103 41.0233904,12.9258621 42.1260496,14.0430805 C43.0708838,15.0016782 43.6048976,16.1321149 43.7402516,17.4349195 L46.8763929,17.4349195 C46.7391884,15.1944023 45.8963983,13.2676897 44.3411493,11.6534598 C42.6375925,9.88457471 40.5538813,9 38.0974179,9 C35.610024,9 33.5072786,9.89885057 31.7807222,11.6891494 C30.2143699,13.3147471 29.358626,15.230092 29.2134906,17.4349195 L29.2055597,18.7017701 L29.208732,29.6090575 L23.4337167,29.6090575 L23.4321305,32.7587356 L29.208732,32.7555632 C29.2055597,36.2277701 27.4790032,37.6598506 24.2926329,37.6598506 L23.4321305,37.6598506 C22.1335782,37.5104828 21.0052758,36.9743448 20.0538324,36.0316092 C18.9297598,34.9194138 18.3679879,33.5595057 18.3679879,31.9547931 C18.3679879,30.3402989 18.92553,28.984092 20.0427291,27.8806207 C21.0005172,26.9365632 22.1335782,26.4035977 23.4321305,26.267977 L23.4321305,23.1333678 C21.193238,23.2681954 19.2681448,24.1112644 17.6523566,25.6662759 C15.8827089,27.3701264 15,29.4528161 15,31.9132874 C15,34.3978161 15.8977776,36.5019195 17.6898962,38.2292989 C19.3144084,39.7967356 21.2307776,40.6514368 23.4321305,40.7941954 L24.7008098,40.8029195 C24.7954518,40.8052989 24.8824273,40.7965747 24.9754832,40.7941954 L35.5973345,40.7899655 L35.5973345,46.5645517 L38.7429929,46.5661379 L38.7429929,40.7899655 C42.2154043,40.7941954 43.6464026,42.5186667 43.6464026,45.7064138 L43.6464026,46.5661379 C43.4973018,47.8647126 42.9580007,48.994092 42.0184537,49.945023 C40.9054844,51.0685862 39.5461285,51.6311609 37.9430297,51.6311609 C36.3280346,51.6311609 34.971058,51.0744023 33.8681345,49.9563908 C32.9233002,48.9985862 32.39193,47.8665632 32.2539324,46.5661379 L29.1212278,46.5661379 C29.2565818,48.8058621 30.0996362,50.7333678 31.6548853,52.3468046 C33.3568559,54.1164828 35.4410958,55 37.8999385,55 C40.3849531,55 42.4892847,54.1014138 44.2158411,52.3111149 C45.7816647,50.6847241 46.6374086,48.7675287 46.7817509,46.5661379 L46.7886243,45.2966437 L46.7886243,34.4001954 L52.5646972,34.4001954 L52.5646972,31.2526322 L46.7886243,31.2534253 C46.7933829,27.7841264 48.51756,26.3507241 51.7063097,26.3507241 L52.5646972,26.3507241 C53.8640426,26.4982414 54.9939311,27.0378161 55.9453745,27.9771149 C57.068654,29.0911609 57.6288397,30.4502759 57.6288397,32.0544598 C57.6288397,33.6678966 57.0734125,35.0254253 55.9546272,36.1283678 C54.9986897,37.0732184 53.8664218,37.6077701 52.5646972,37.7425977 L52.5646972,40.8772069 C54.8059689,40.7415862 56.7307977,39.8993103 58.3481722,38.3435057 C60.1138544,36.638069 61,34.5548506 61,32.0957011 C61,29.6103793 60.0995787,27.5075977 58.3093108,25.7812759 C56.6845342,24.213046 54.7676362,23.359931 52.5646972,23.2147931 Z M32.1372549,36.720606 C32.875065,35.449091 33.2721112,33.8416075 33.2705762,31.9342071 L33.2728787,25.2352941 C34.5453709,25.9780553 36.1565803,26.3751321 38.0704351,26.3751321 L44.7647059,26.3758991 C44.0205001,27.6474142 43.6265238,29.2587328 43.6265238,31.1730367 L43.6249888,37.8627451 C42.3527525,37.1197283 40.7389848,36.7213731 38.8228275,36.7221401 L32.1372549,36.720606 Z" id="Fill-1" fill="#FFFFFF"></path>
        <path d="M75.6176749,44.1584541 C76.5114534,44.1584541 77.2562688,44.3922705 77.8308407,44.8599034 C78.3841321,45.3062802 78.713979,45.9227053 78.8310214,46.6879227 L77.6180363,46.6879227 C77.4903536,46.1884058 77.2562688,45.8270531 76.9051415,45.5932367 C76.5646545,45.3594203 76.1284055,45.2531401 75.5963944,45.2531401 C74.7983779,45.2531401 74.2025256,45.5188406 73.7981972,46.0714976 C73.4257895,46.5603865 73.2449058,47.2405797 73.2449058,48.1120773 C73.2449058,49.0048309 73.4257895,49.6956522 73.787557,50.173913 C74.1812452,50.684058 74.7983779,50.9497585 75.6283151,50.9497585 C76.1709663,50.9497585 76.6178556,50.8115942 76.9583426,50.5565217 C77.3201101,50.2695652 77.5754754,49.8338164 77.7244385,49.2599034 L78.9374236,49.2599034 C78.7671801,50.152657 78.3734919,50.8434783 77.7457189,51.3429952 C77.1605068,51.810628 76.4582523,52.0444444 75.6389553,52.0444444 C74.3727691,52.0444444 73.4257895,51.6405797 72.8086567,50.8541063 C72.2660055,50.173913 72,49.2599034 72,48.1120773 C72,46.9855072 72.2766457,46.0608696 72.8405774,45.3594203 C73.4789906,44.5516908 74.4046898,44.1584541 75.6176749,44.1584541 Z M80.0981749,44.1584541 L81.31116,44.1584541 L81.31116,47.1342995 C81.5133242,46.826087 81.7686895,46.6028986 82.0666156,46.4541063 C82.3326212,46.315942 82.6411875,46.2521739 82.9923148,46.2521739 C83.6626487,46.2521739 84.162739,46.4434783 84.4925859,46.836715 C84.8011522,47.2086957 84.9607556,47.7613527 84.9607556,48.494686 L84.9607556,51.8956522 L83.7477704,51.8956522 L83.7477704,48.7072464 C83.7477704,48.2396135 83.6520085,47.8782609 83.4711247,47.6338164 C83.2583203,47.3681159 82.9497539,47.2405797 82.5347853,47.2405797 C82.1517374,47.2405797 81.8538112,47.389372 81.6410068,47.6869565 C81.4175622,47.9845411 81.31116,48.3565217 81.31116,48.8241546 L81.31116,51.8956522 L80.0981749,51.8956522 L80.0981749,44.1584541 Z M88.834763,46.2521739 C89.6434198,46.2521739 90.2499123,46.4541063 90.6329602,46.857971 C90.9734473,47.2086957 91.1436908,47.7188406 91.1436908,48.3884058 L91.1436908,51.8956522 L90.0158275,51.8956522 L90.0158275,51.1729469 C89.8030231,51.4492754 89.5370175,51.6512077 89.2284512,51.8 C88.8773239,51.9594203 88.4623553,52.0444444 87.9835454,52.0444444 C87.4089735,52.0444444 86.9620843,51.8956522 86.6322374,51.6086957 C86.2917504,51.3111111 86.1215069,50.9391304 86.1215069,50.4821256 C86.1215069,49.8657005 86.3555917,49.3874396 86.8450418,49.057971 C87.2919311,48.7391304 87.9197041,48.5690821 88.7283608,48.5478261 L89.9307057,48.515942 L89.9307057,48.3033816 C89.9307057,47.5806763 89.5370175,47.2299517 88.7496413,47.2299517 C88.4091542,47.2299517 88.1431487,47.2830918 87.9409845,47.410628 C87.7068997,47.5487923 87.5472964,47.7613527 87.483455,48.0483092 L86.2811102,47.952657 C86.3981526,47.3468599 86.6960787,46.9004831 87.1748887,46.6241546 C87.579217,46.3690821 88.1325085,46.2521739 88.834763,46.2521739 Z M89.9307057,49.3874396 L88.8134826,49.4193237 C87.8452225,49.4405797 87.3664126,49.7806763 87.3664126,50.4396135 C87.3664126,50.6309179 87.4408942,50.7903382 87.6111377,50.9178744 C87.7813812,51.0454106 87.9941856,51.1198068 88.2601911,51.1198068 C88.7283608,51.1198068 89.122049,50.9816425 89.4412556,50.715942 C89.7604622,50.4396135 89.9307057,50.0888889 89.9307057,49.6637681 L89.9307057,49.3874396 Z M93.3365435,44.1584541 C93.5706283,44.1584541 93.7727925,44.2328502 93.9323958,44.3816425 C94.0813589,44.5304348 94.1664806,44.7217391 94.1664806,44.9555556 C94.1664806,45.189372 94.0813589,45.3913043 93.9217556,45.5400966 C93.7621523,45.6888889 93.5706283,45.763285 93.3365435,45.763285 C93.1024586,45.763285 92.9109347,45.6888889 92.7513314,45.5400966 C92.5917281,45.3806763 92.5172465,45.189372 92.5172465,44.9555556 C92.5172465,44.7217391 92.5917281,44.5304348 92.7513314,44.3816425 C92.9109347,44.2328502 93.1024586,44.1584541 93.3365435,44.1584541 Z M92.7300509,46.4009662 L93.943036,46.4009662 L93.943036,51.8956522 L92.7300509,51.8956522 L92.7300509,46.4009662 Z M95.6464386,44.1584541 L96.8594237,44.1584541 L96.8594237,51.8956522 L95.6464386,51.8956522 L95.6464386,44.1584541 Z M100.68023,46.2521739 C101.584649,46.2521739 102.276263,46.5497585 102.755073,47.1661836 C103.191322,47.7188406 103.414767,48.494686 103.414767,49.4830918 L99.2970014,49.4830918 C99.3395623,49.9932367 99.4778851,50.3864734 99.71197,50.6521739 C99.9460548,50.9178744 100.286542,51.0560386 100.722791,51.0560386 C101.095199,51.0560386 101.393125,50.9710145 101.62721,50.8009662 C101.808093,50.6628019 101.967697,50.4396135 102.11666,50.131401 L103.329645,50.131401 C103.201962,50.6415459 102.946597,51.0772947 102.563549,51.4173913 C102.074099,51.8318841 101.467606,52.0444444 100.733431,52.0444444 C99.9141342,52.0444444 99.2650807,51.789372 98.7862708,51.2898551 C98.2755402,50.7690821 98.020175,50.0570048 98.020175,49.1429952 C98.020175,48.3246377 98.2542598,47.6444444 98.7437099,47.0917874 C99.2118796,46.5285024 99.8609331,46.2521739 100.68023,46.2521739 Z M100.712151,47.2405797 C100.307822,47.2405797 99.9992559,47.3468599 99.7651711,47.5806763 C99.5417265,47.8038647 99.3927634,48.1333333 99.3182818,48.5690821 L102.14858,48.5690821 C102.042178,47.6763285 101.563368,47.2405797 100.712151,47.2405797 Z M106.969567,46.2521739 C107.778224,46.2521739 108.384717,46.4541063 108.767765,46.857971 C109.108252,47.2086957 109.278495,47.7188406 109.278495,48.3884058 L109.278495,51.8956522 L108.150632,51.8956522 L108.150632,51.1729469 C107.937828,51.4492754 107.671822,51.6512077 107.363256,51.8 C107.012128,51.9594203 106.59716,52.0444444 106.11835,52.0444444 C105.543778,52.0444444 105.096889,51.8956522 104.767042,51.6086957 C104.426555,51.3111111 104.256311,50.9391304 104.256311,50.4821256 C104.256311,49.8657005 104.490396,49.3874396 104.979846,49.057971 C105.426736,48.7391304 106.054509,48.5690821 106.863165,48.5478261 L108.06551,48.515942 L108.06551,48.3033816 C108.06551,47.5806763 107.671822,47.2299517 106.884446,47.2299517 C106.543959,47.2299517 106.277953,47.2830918 106.075789,47.410628 C105.841704,47.5487923 105.682101,47.7613527 105.61826,48.0483092 L104.415915,47.952657 C104.532957,47.3468599 104.830883,46.9004831 105.309693,46.6241546 C105.714021,46.3690821 106.267313,46.2521739 106.969567,46.2521739 Z M108.06551,49.3874396 L106.948287,49.4193237 C105.980027,49.4405797 105.501217,49.7806763 105.501217,50.4396135 C105.501217,50.6309179 105.575699,50.7903382 105.745942,50.9178744 C105.916186,51.0454106 106.12899,51.1198068 106.394996,51.1198068 C106.863165,51.1198068 107.256853,50.9816425 107.57606,50.715942 C107.895267,50.4396135 108.06551,50.0888889 108.06551,49.6637681 L108.06551,49.3874396 Z M112.726894,46.2521739 C114.173964,46.2521739 114.97198,46.826087 115.099663,47.9951691 L113.918599,47.9951691 C113.833477,47.7188406 113.705794,47.5169082 113.535551,47.410628 C113.354667,47.2937198 113.078021,47.2405797 112.705613,47.2405797 C112.386407,47.2405797 112.141682,47.2830918 111.982079,47.378744 C111.790555,47.4743961 111.705433,47.6231884 111.705433,47.8357488 C111.705433,48.0057971 111.843756,48.1652174 112.141682,48.2927536 C112.322566,48.3671498 112.684333,48.47343 113.237624,48.6115942 C113.854757,48.7603865 114.322927,48.9304348 114.620853,49.1323671 C115.057102,49.4086957 115.280547,49.8019324 115.280547,50.2908213 C115.280547,51.4599034 114.45061,52.0444444 112.801375,52.0444444 C111.269184,52.0444444 110.449887,51.3961353 110.332844,50.1101449 L111.513909,50.1101449 C111.57775,50.4608696 111.705433,50.705314 111.886317,50.8541063 C112.0672,50.9816425 112.354486,51.0560386 112.758815,51.0560386 C113.610032,51.0560386 114.035641,50.8222222 114.035641,50.3758454 C114.035641,50.1207729 113.876038,49.9188406 113.556831,49.7700483 C113.386588,49.6850242 113.02482,49.589372 112.471529,49.4618357 C111.822475,49.3130435 111.364946,49.1536232 111.09894,48.9835749 C110.673331,48.7178744 110.460527,48.3458937 110.460527,47.8676329 C110.460527,47.3574879 110.662691,46.9642512 111.0883,46.6879227 C111.503269,46.3903382 112.04592,46.2521739 112.726894,46.2521739 Z M118.675744,46.2521739 C119.580163,46.2521739 120.271777,46.5497585 120.750587,47.1661836 C121.186836,47.7188406 121.410281,48.494686 121.410281,49.4830918 L117.292516,49.4830918 C117.335077,49.9932367 117.473399,50.3864734 117.707484,50.6521739 C117.941569,50.9178744 118.282056,51.0560386 118.718305,51.0560386 C119.090713,51.0560386 119.388639,50.9710145 119.622724,50.8009662 C119.803608,50.6628019 119.963211,50.4396135 120.112174,50.131401 L121.325159,50.131401 C121.197477,50.6415459 120.942111,51.0772947 120.559063,51.4173913 C120.069613,51.8318841 119.463121,52.0444444 118.728945,52.0444444 C117.909648,52.0444444 117.260595,51.789372 116.781785,51.2898551 C116.271055,50.7690821 116.015689,50.0570048 116.015689,49.1429952 C116.015689,48.3246377 116.249774,47.6444444 116.739224,47.0917874 C117.207394,46.5285024 117.856447,46.2521739 118.675744,46.2521739 Z M118.707665,47.2405797 C118.303337,47.2405797 117.99477,47.3468599 117.760685,47.5806763 C117.537241,47.8038647 117.388278,48.1333333 117.313796,48.5690821 L120.144095,48.5690821 C120.037693,47.6763285 119.558883,47.2405797 118.707665,47.2405797 Z M126.210955,44.3072464 L131.690668,44.3072464 L131.690668,45.3700483 L127.455861,45.3700483 L127.455861,47.4743961 L131.435303,47.4743961 L131.435303,48.5371981 L127.455861,48.5371981 L127.455861,50.8328502 L131.871552,50.8328502 L131.871552,51.8956522 L126.210955,51.8956522 L126.210955,44.3072464 Z M132.447091,46.4009662 L133.766479,46.4009662 L135.085866,50.3864734 L136.405253,46.4009662 L137.72464,46.4009662 L135.692358,51.8956522 L134.479373,51.8956522 L132.447091,46.4009662 Z M140.853832,46.2521739 C141.758251,46.2521739 142.449866,46.5497585 142.928675,47.1661836 C143.364924,47.7188406 143.588369,48.494686 143.588369,49.4830918 L139.470604,49.4830918 C139.513165,49.9932367 139.651488,50.3864734 139.885572,50.6521739 C140.119657,50.9178744 140.460144,51.0560386 140.896393,51.0560386 C141.268801,51.0560386 141.566727,50.9710145 141.800812,50.8009662 C141.981696,50.6628019 142.141299,50.4396135 142.290262,50.131401 L143.503247,50.131401 C143.375565,50.6415459 143.120199,51.0772947 142.737151,51.4173913 C142.247701,51.8318841 141.641209,52.0444444 140.907034,52.0444444 C140.087737,52.0444444 139.438683,51.789372 138.959873,51.2898551 C138.449143,50.7690821 138.193777,50.0570048 138.193777,49.1429952 C138.193777,48.3246377 138.427862,47.6444444 138.917312,47.0917874 C139.385482,46.5285024 140.034536,46.2521739 140.853832,46.2521739 Z M140.885753,47.2405797 C140.481425,47.2405797 140.172858,47.3468599 139.938774,47.5806763 C139.715329,47.8038647 139.566366,48.1333333 139.491884,48.5690821 L142.322183,48.5690821 C142.215781,47.6763285 141.736971,47.2405797 140.885753,47.2405797 Z M147.238932,46.2521739 C147.504937,46.2521739 147.739022,46.294686 147.930546,46.3903382 L147.930546,47.6019324 C147.653901,47.5169082 147.398535,47.4850242 147.14317,47.4850242 C146.823963,47.4850242 146.536677,47.6019324 146.281312,47.8570048 C145.983386,48.1439614 145.845063,48.515942 145.845063,48.9835749 L145.845063,51.8956522 L144.642718,51.8956522 L144.642718,46.4009662 L145.845063,46.4009662 L145.845063,47.1874396 C145.994026,46.9111111 146.16427,46.6985507 146.366434,46.5497585 C146.611159,46.3478261 146.898445,46.2521739 147.238932,46.2521739 Z M148.133678,46.4009662 L149.453065,46.4009662 L150.910775,50.3120773 L152.304644,46.4009662 L153.624031,46.4009662 L150.64477,54 L149.346663,54 L150.314923,51.7681159 L148.133678,46.4009662 Z M154.412375,44.1584541 L155.62536,44.1584541 L155.62536,47.1555556 C156.072249,46.5497585 156.625541,46.2521739 157.263954,46.2521739 C158.05133,46.2521739 158.668463,46.5391304 159.125993,47.1130435 C159.540961,47.6444444 159.753766,48.3140097 159.753766,49.1217391 C159.753766,49.9613527 159.540961,50.6521739 159.115352,51.1835749 C158.647183,51.7574879 158.008769,52.0444444 157.200113,52.0444444 C156.476578,52.0444444 155.923286,51.8 155.540238,51.3111111 L155.540238,51.8956522 L154.412375,51.8956522 L154.412375,44.1584541 Z M156.976668,47.2299517 C156.58298,47.2299517 156.263773,47.389372 156.008408,47.7082126 C155.721122,48.0483092 155.582799,48.515942 155.582799,49.1004831 L155.582799,49.1855072 C155.582799,49.7169082 155.689201,50.163285 155.923286,50.5033816 C156.178652,50.8753623 156.540419,51.0666667 157.019229,51.0666667 C157.55124,51.0666667 157.944928,50.8753623 158.200293,50.4927536 C158.402458,50.173913 158.50886,49.7169082 158.50886,49.1217391 C158.50886,48.52657 158.391817,48.0801932 158.179013,47.7719807 C157.923648,47.410628 157.519319,47.2299517 156.976668,47.2299517 Z M163.46817,46.2521739 C164.298107,46.2521739 164.968441,46.5178744 165.479171,47.0705314 C165.979262,47.6125604 166.234627,48.3033816 166.234627,49.1536232 C166.234627,49.9932367 165.979262,50.684058 165.489812,51.2154589 C164.979081,51.7681159 164.298107,52.0444444 163.46817,52.0444444 C162.627592,52.0444444 161.957258,51.7681159 161.446528,51.2154589 C160.946437,50.684058 160.701712,49.9932367 160.701712,49.1536232 C160.701712,48.3033816 160.946437,47.6125604 161.457168,47.0705314 C161.957258,46.5178744 162.627592,46.2521739 163.46817,46.2521739 Z M163.46817,47.2405797 C162.957439,47.2405797 162.574391,47.4318841 162.297745,47.8357488 C162.063661,48.1758454 161.946618,48.6222222 161.946618,49.1536232 C161.946618,49.6850242 162.063661,50.1207729 162.297745,50.4608696 C162.574391,50.8541063 162.957439,51.0560386 163.46817,51.0560386 C163.96826,51.0560386 164.361948,50.8541063 164.638594,50.4608696 C164.872679,50.1101449 165.000361,49.6743961 165.000361,49.1536232 C165.000361,48.6222222 164.872679,48.1758454 164.638594,47.8357488 C164.361948,47.4318841 163.96826,47.2405797 163.46817,47.2405797 Z M171.310979,44.1584541 L172.523964,44.1584541 L172.523964,51.8956522 L171.396101,51.8956522 L171.396101,51.3111111 C171.013053,51.8 170.459762,52.0444444 169.736227,52.0444444 C168.91693,52.0444444 168.278517,51.7574879 167.820987,51.1835749 C167.395378,50.6521739 167.182574,49.9613527 167.182574,49.1217391 C167.182574,48.3140097 167.384738,47.6444444 167.810347,47.1130435 C168.257236,46.5391304 168.885009,46.2521739 169.672385,46.2521739 C170.310799,46.2521739 170.85345,46.5497585 171.310979,47.1555556 L171.310979,44.1584541 Z M169.959671,47.2299517 C169.40638,47.2299517 169.012692,47.410628 168.757326,47.7719807 C168.533882,48.0801932 168.42748,48.52657 168.42748,49.1217391 C168.42748,49.7169082 168.523242,50.173913 168.736046,50.4927536 C168.980771,50.8753623 169.374459,51.0666667 169.91711,51.0666667 C170.38528,51.0666667 170.757688,50.8753623 171.013053,50.5033816 C171.236498,50.163285 171.35354,49.7169082 171.35354,49.1855072 L171.35354,49.1004831 C171.35354,48.515942 171.204577,48.0483092 170.927931,47.7082126 C170.672566,47.389372 170.342719,47.2299517 169.959671,47.2299517 Z M173.312308,46.4009662 L174.631695,46.4009662 L176.089405,50.3120773 L177.483274,46.4009662 L178.802662,46.4009662 L175.8234,54 L174.525293,54 L175.493553,51.7681159 L173.312308,46.4009662 Z M180.644387,43 C180.931673,43 181.165758,43.1169082 181.357282,43.3507246 C181.548806,43.5845411 181.644568,43.8927536 181.644568,44.2647343 C181.644568,44.8280193 181.474324,45.3169082 181.155118,45.742029 C180.825271,46.1565217 180.378382,46.4434783 179.82509,46.6028986 L179.82509,45.9014493 C180.112376,45.7951691 180.357101,45.6251208 180.548625,45.3913043 C180.740149,45.1362319 180.835911,44.8917874 180.835911,44.636715 C180.77207,44.657971 180.686948,44.6792271 180.569906,44.6792271 C180.335821,44.6792271 180.144297,44.5942029 179.995334,44.4347826 C179.82509,44.2753623 179.750609,44.07343 179.750609,43.8396135 C179.750609,43.5845411 179.82509,43.3826087 179.995334,43.2338164 C180.165577,43.0743961 180.378382,43 180.644387,43 Z M185.720739,46.2521739 C187.167809,46.2521739 187.965826,46.826087 188.093509,47.9951691 L186.912444,47.9951691 C186.827322,47.7188406 186.69964,47.5169082 186.529396,47.410628 C186.348512,47.2937198 186.071867,47.2405797 185.699459,47.2405797 C185.380252,47.2405797 185.135527,47.2830918 184.975924,47.378744 C184.7844,47.4743961 184.699278,47.6231884 184.699278,47.8357488 C184.699278,48.0057971 184.837601,48.1652174 185.135527,48.2927536 C185.316411,48.3671498 185.678179,48.47343 186.23147,48.6115942 C186.848603,48.7603865 187.316772,48.9304348 187.614699,49.1323671 C188.050948,49.4086957 188.274392,49.8019324 188.274392,50.2908213 C188.274392,51.4599034 187.444455,52.0444444 185.795221,52.0444444 C184.263029,52.0444444 183.443732,51.3961353 183.32669,50.1101449 L184.507754,50.1101449 C184.571596,50.4608696 184.699278,50.705314 184.880162,50.8541063 C185.061046,50.9816425 185.348332,51.0560386 185.75266,51.0560386 C186.603878,51.0560386 187.029486,50.8222222 187.029486,50.3758454 C187.029486,50.1207729 186.869883,49.9188406 186.550677,49.7700483 C186.380433,49.6850242 186.018666,49.589372 185.465374,49.4618357 C184.816321,49.3130435 184.358791,49.1536232 184.092786,48.9835749 C183.667177,48.7178744 183.454372,48.3458937 183.454372,47.8676329 C183.454372,47.3574879 183.656537,46.9642512 184.082145,46.6879227 C184.497114,46.3903382 185.039765,46.2521739 185.720739,46.2521739 Z M193.075066,44.3072464 L196.224571,44.3072464 C198.054689,44.3072464 198.980388,45.0830918 198.980388,46.6347826 C198.980388,48.1971014 198.054689,48.9835749 196.203291,48.9835749 L194.319972,48.9835749 L194.319972,51.8956522 L193.075066,51.8956522 L193.075066,44.3072464 Z M194.319972,45.3700483 L194.319972,47.9207729 L196.128809,47.9207729 C196.682101,47.9207729 197.086429,47.8144928 197.341794,47.6231884 C197.59716,47.421256 197.724842,47.0917874 197.724842,46.6347826 C197.724842,46.1777778 197.58652,45.8589372 197.331154,45.6676329 C197.075789,45.4657005 196.671461,45.3700483 196.128809,45.3700483 L194.319972,45.3700483 Z M202.58839,46.2521739 C203.418328,46.2521739 204.088661,46.5178744 204.599392,47.0705314 C205.099482,47.6125604 205.354848,48.3033816 205.354848,49.1536232 C205.354848,49.9932367 205.099482,50.684058 204.610032,51.2154589 C204.099302,51.7681159 203.418328,52.0444444 202.58839,52.0444444 C201.747813,52.0444444 201.077479,51.7681159 200.566749,51.2154589 C200.066658,50.684058 199.821933,49.9932367 199.821933,49.1536232 C199.821933,48.3033816 200.066658,47.6125604 200.577389,47.0705314 C201.077479,46.5178744 201.747813,46.2521739 202.58839,46.2521739 Z M202.58839,47.2405797 C202.07766,47.2405797 201.694612,47.4318841 201.417966,47.8357488 C201.183881,48.1758454 201.066839,48.6222222 201.066839,49.1536232 C201.066839,49.6850242 201.183881,50.1207729 201.417966,50.4608696 C201.694612,50.8541063 202.07766,51.0560386 202.58839,51.0560386 C203.088481,51.0560386 203.482169,50.8541063 203.758815,50.4608696 C203.992899,50.1101449 204.120582,49.6743961 204.120582,49.1536232 C204.120582,48.6222222 203.992899,48.1758454 203.758815,47.8357488 C203.482169,47.4318841 203.088481,47.2405797 202.58839,47.2405797 Z M205.930387,46.4009662 L207.271055,46.4009662 L208.366997,50.4608696 L209.4523,46.4009662 L210.569523,46.4009662 L211.654825,50.4608696 L212.750768,46.4009662 L214.091436,46.4009662 L212.240037,51.8956522 L211.112174,51.8956522 L210.016231,47.8782609 L208.909648,51.8956522 L207.781785,51.8956522 L205.930387,46.4009662 Z M217.220628,46.2521739 C218.125047,46.2521739 218.816661,46.5497585 219.295471,47.1661836 C219.73172,47.7188406 219.955164,48.494686 219.955164,49.4830918 L215.837399,49.4830918 C215.87996,49.9932367 216.018283,50.3864734 216.252368,50.6521739 C216.486453,50.9178744 216.82694,51.0560386 217.263189,51.0560386 C217.635596,51.0560386 217.933523,50.9710145 218.167607,50.8009662 C218.348491,50.6628019 218.508094,50.4396135 218.657058,50.131401 L219.870043,50.131401 C219.74236,50.6415459 219.486995,51.0772947 219.103947,51.4173913 C218.614497,51.8318841 218.008004,52.0444444 217.273829,52.0444444 C216.454532,52.0444444 215.805478,51.789372 215.326669,51.2898551 C214.815938,50.7690821 214.560573,50.0570048 214.560573,49.1429952 C214.560573,48.3246377 214.794658,47.6444444 215.284108,47.0917874 C215.752277,46.5285024 216.401331,46.2521739 217.220628,46.2521739 Z M217.252548,47.2405797 C216.84822,47.2405797 216.539654,47.3468599 216.305569,47.5806763 C216.082124,47.8038647 215.933161,48.1333333 215.85868,48.5690821 L218.688978,48.5690821 C218.582576,47.6763285 218.103766,47.2405797 217.252548,47.2405797 Z M223.605727,46.2521739 C223.871733,46.2521739 224.105818,46.294686 224.297342,46.3903382 L224.297342,47.6019324 C224.020696,47.5169082 223.765331,47.4850242 223.509965,47.4850242 C223.190759,47.4850242 222.903473,47.6019324 222.648107,47.8570048 C222.350181,48.1439614 222.211858,48.515942 222.211858,48.9835749 L222.211858,51.8956522 L221.009513,51.8956522 L221.009513,46.4009662 L222.211858,46.4009662 L222.211858,47.1874396 C222.360821,46.9111111 222.531065,46.6985507 222.733229,46.5497585 C222.977954,46.3478261 223.26524,46.2521739 223.605727,46.2521739 Z M228.83201,44.3072464 L231.981515,44.3072464 C233.811633,44.3072464 234.737332,45.0830918 234.737332,46.6347826 C234.737332,48.1971014 233.811633,48.9835749 231.960235,48.9835749 L230.076916,48.9835749 L230.076916,51.8956522 L228.83201,51.8956522 L228.83201,44.3072464 Z M230.076916,45.3700483 L230.076916,47.9207729 L231.885753,47.9207729 C232.439045,47.9207729 232.843373,47.8144928 233.098738,47.6231884 C233.354104,47.421256 233.481786,47.0917874 233.481786,46.6347826 C233.481786,46.1777778 233.343463,45.8589372 233.088098,45.6676329 C232.832733,45.4657005 232.428404,45.3700483 231.885753,45.3700483 L230.076916,45.3700483 Z M235.898083,44.1584541 L237.111069,44.1584541 L237.111069,51.8956522 L235.898083,51.8956522 L235.898083,44.1584541 Z M241.091478,46.2521739 C241.900135,46.2521739 242.506628,46.4541063 242.889675,46.857971 C243.230163,47.2086957 243.400406,47.7188406 243.400406,48.3884058 L243.400406,51.8956522 L242.272543,51.8956522 L242.272543,51.1729469 C242.059738,51.4492754 241.793733,51.6512077 241.485166,51.8 C241.134039,51.9594203 240.719071,52.0444444 240.240261,52.0444444 C239.665689,52.0444444 239.218799,51.8956522 238.888953,51.6086957 C238.548466,51.3111111 238.378222,50.9391304 238.378222,50.4821256 C238.378222,49.8657005 238.612307,49.3874396 239.101757,49.057971 C239.548646,48.7391304 240.176419,48.5690821 240.985076,48.5478261 L242.187421,48.515942 L242.187421,48.3033816 C242.187421,47.5806763 241.793733,47.2299517 241.006356,47.2299517 C240.665869,47.2299517 240.399864,47.2830918 240.1977,47.410628 C239.963615,47.5487923 239.804012,47.7613527 239.74017,48.0483092 L238.537825,47.952657 C238.654868,47.3468599 238.952794,46.9004831 239.431604,46.6241546 C239.835932,46.3690821 240.389224,46.2521739 241.091478,46.2521739 Z M242.187421,49.3874396 L241.070198,49.4193237 C240.101938,49.4405797 239.623128,49.7806763 239.623128,50.4396135 C239.623128,50.6309179 239.697609,50.7903382 239.867853,50.9178744 C240.038096,51.0454106 240.250901,51.1198068 240.516906,51.1198068 C240.985076,51.1198068 241.378764,50.9816425 241.697971,50.715942 C242.017177,50.4396135 242.187421,50.0888889 242.187421,49.6637681 L242.187421,49.3874396 Z M247.614901,46.2521739 C248.987489,46.2521739 249.679103,46.9961353 249.679103,48.505314 L249.679103,51.8956522 L248.466118,51.8956522 L248.466118,48.6115942 C248.466118,47.7082126 248.05115,47.2618357 247.221212,47.2618357 C246.923286,47.2618357 246.657281,47.3681159 246.433836,47.5806763 C246.178471,47.8144928 246.029508,48.1545894 245.986947,48.5903382 L245.986947,51.8956522 L244.773962,51.8956522 L244.773962,46.4009662 L245.986947,46.4009662 L245.986947,47.0386473 C246.199751,46.7835749 246.444476,46.5816425 246.710482,46.4541063 C246.987128,46.315942 247.285054,46.2521739 247.614901,46.2521739 Z M252.776375,44.626087 L252.776375,46.4009662 L254,46.4009662 L254,47.4 L252.776375,47.4 L252.776375,50.5033816 C252.776375,50.6309179 252.797655,50.72657 252.861496,50.8009662 C252.925338,50.8647343 253.01046,50.8966184 253.138142,50.8966184 L253.861677,50.8966184 L253.861677,51.8956522 L252.935978,51.8956522 C252.457168,51.8956522 252.106041,51.7681159 251.882596,51.5130435 C251.669792,51.2792271 251.56339,50.9497585 251.56339,50.5033816 L251.56339,47.4 L250.573849,47.4 L250.573849,46.4009662 L251.56339,46.4009662 L251.56339,45.1256039 L252.776375,44.626087 Z" id="ChaileaseEverybody’sPowerPlant" fill="#FFFFFF" fill-rule="nonzero"></path>
    </g>
</svg>