<?xml version="1.0" encoding="UTF-8"?>
<svg width="309px" height="104px" viewBox="0 0 309 104" version="1.1" xmlns="http://www.w3.org/2000/svg" xmlns:xlink="http://www.w3.org/1999/xlink">
    <!-- Generator: Sketch 56.3 (81716) - https://sketch.com -->
    <title>logo</title>
    <desc>Created with Sketch.</desc>
    <g id="logo" stroke="none" stroke-width="1" fill="none" fill-rule="evenodd">
        <path d="M113.96,34.734 C113.96,34.3699982 114.042333,34.1143341 114.207,33.967 C114.371667,33.8196659 114.644665,33.746 115.026,33.746 C115.372668,33.746 115.628333,33.8196659 115.793,33.967 C115.957667,34.1143341 116.04,34.3699982 116.04,34.734 L116.04,38.608 L123.32,38.608 C123.84,38.608 124.264665,38.6339997 124.594,38.686 C124.923335,38.7380003 125.178999,38.8463325 125.361,39.011 C125.543001,39.1756675 125.668666,39.4183317 125.738,39.739 C125.807334,40.0596683 125.842,40.4799974 125.842,41 L125.842,49.216 C125.842,49.6840023 125.811667,50.0696652 125.751,50.373 C125.690333,50.6763349 125.569001,50.9189991 125.387,51.101 C125.204999,51.2830009 124.949335,51.4086663 124.62,51.478 C124.290665,51.5473337 123.866003,51.582 123.346,51.582 L116.04,51.582 L116.04,57.744 C116.04,58.0386681 115.966334,58.2683325 115.819,58.433 C115.671666,58.5976675 115.398669,58.68 115,58.68 C114.549331,58.68 114.263334,58.6063341 114.142,58.459 C114.020666,58.3116659 113.96,58.0646684 113.96,57.718 L113.96,51.582 L106.81,51.582 C106.289997,51.582 105.865335,51.5473337 105.536,51.478 C105.206665,51.4086663 104.955334,51.2830009 104.782,51.101 C104.608666,50.9189991 104.491667,50.6763349 104.431,50.373 C104.370333,50.0696652 104.34,49.6840023 104.34,49.216 L104.34,40.974 C104.34,40.4886642 104.370333,40.0900016 104.431,39.778 C104.491667,39.4659984 104.612999,39.2276675 104.795,39.063 C104.977001,38.8983325 105.228332,38.7813337 105.549,38.712 C105.869668,38.6426663 106.289997,38.608 106.81,38.608 L113.96,38.608 L113.96,34.734 Z M116.04,40.61 L116.04,49.58 L123.32,49.58 C123.458667,49.58 123.575666,49.5453337 123.671,49.476 C123.766334,49.4066663 123.814,49.2506679 123.814,49.008 L123.814,41 C123.814,40.8439992 123.775,40.7400003 123.697,40.688 C123.619,40.6359997 123.502001,40.61 123.346,40.61 L116.04,40.61 Z M106.81,40.61 C106.671333,40.61 106.563,40.6489996 106.485,40.727 C106.407,40.8050004 106.368,40.8959995 106.368,41 L106.368,49.138 C106.368,49.2593339 106.402666,49.3633329 106.472,49.45 C106.541334,49.5366671 106.645333,49.58 106.784,49.58 L113.96,49.58 L113.96,40.61 L106.81,40.61 Z M154.59,56.912 C154.59,57.2066681 154.512001,57.4449991 154.356,57.627 C154.199999,57.8090009 153.940002,57.9 153.576,57.9 L138.782,57.9 C138.417998,57.9 138.158001,57.8090009 138.002,57.627 C137.845999,57.4449991 137.768,57.2066681 137.768,56.912 C137.768,56.6173319 137.845999,56.3703343 138.002,56.171 C138.158001,55.9716657 138.417998,55.872 138.782,55.872 L140.29,55.872 L140.29,37.334 C140.29,36.8659977 140.324666,36.4846681 140.394,36.19 C140.463334,35.8953319 140.575999,35.6700008 140.732,35.514 C140.888001,35.3579992 141.100332,35.249667 141.369,35.189 C141.637668,35.128333 141.971331,35.098 142.37,35.098 L150.014,35.098 C150.412669,35.098 150.746332,35.128333 151.015,35.189 C151.283668,35.249667 151.500333,35.3623325 151.665,35.527 C151.829668,35.6916675 151.946666,35.9213319 152.016,36.216 C152.085334,36.5106681 152.12,36.8919977 152.12,37.36 L152.12,55.872 L153.576,55.872 C153.940002,55.872 154.199999,55.9716657 154.356,56.171 C154.512001,56.3703343 154.59,56.6173319 154.59,56.912 Z M138.704,41.078 C139.36267,41.078 139.692,41.3899969 139.692,42.014 C139.692,42.6553365 139.36267,42.976 138.704,42.976 L136.156,42.976 C136.832003,43.7733373 137.369331,44.4189975 137.768,44.913 C138.166669,45.4070025 138.513332,45.8793311 138.808,46.33 C139.120002,46.8326692 139.284667,47.2096654 139.302,47.461 C139.319333,47.7123346 139.172002,47.9506655 138.86,48.176 C138.565332,48.384001 138.305334,48.4533337 138.08,48.384 C137.854666,48.3146663 137.629334,48.0806687 137.404,47.682 C137.143999,47.2313311 136.892668,46.8283351 136.65,46.473 C136.407332,46.1176649 136.147335,45.7666684 135.87,45.42 L135.87,57.718 C135.87,58.3593365 135.56667,58.68 134.96,58.68 C134.613332,58.68 134.366334,58.6063341 134.219,58.459 C134.071666,58.3116659 133.998,58.0646684 133.998,57.718 L133.998,47.474 C133.685998,48.1846702 133.352335,48.8823299 132.997,49.567 C132.641665,50.2516701 132.256002,50.9319966 131.84,51.608 C131.510665,52.1280026 131.216001,52.4443328 130.956,52.557 C130.695999,52.6696672 130.418668,52.6306676 130.124,52.44 C129.829332,52.2493324 129.673333,52.0240013 129.656,51.764 C129.638667,51.5039987 129.794665,51.1400023 130.124,50.672 C130.83467,49.6493282 131.49333,48.5183395 132.1,47.279 C132.70667,46.0396605 133.287331,44.6053415 133.842,42.976 L130.93,42.976 C130.565998,42.976 130.306001,42.8980008 130.15,42.742 C129.993999,42.5859992 129.916,42.343335 129.916,42.014 C129.916,41.7019984 129.993999,41.4680008 130.15,41.312 C130.306001,41.1559992 130.565998,41.078 130.93,41.078 L133.998,41.078 L133.998,38.088 C133.651332,38.1746671 133.291669,38.2569996 132.919,38.335 C132.546331,38.4130004 132.160669,38.4953329 131.762,38.582 C131.224664,38.6860005 130.843334,38.6903338 130.618,38.595 C130.392666,38.4996662 130.254,38.2526687 130.202,37.854 C130.167333,37.5073316 130.236666,37.2516675 130.41,37.087 C130.583334,36.9223325 130.929997,36.7880005 131.45,36.684 C132.646006,36.4413321 133.703329,36.185668 134.622,35.917 C135.540671,35.648332 136.415996,35.3320018 137.248,34.968 C137.733336,34.759999 138.105999,34.6603333 138.366,34.669 C138.626001,34.6776667 138.825333,34.8293319 138.964,35.124 C139.137334,35.4880018 139.172001,35.7869988 139.068,36.021 C138.963999,36.2550012 138.634669,36.4933321 138.08,36.736 C137.715998,36.8920008 137.352002,37.0349994 136.988,37.165 C136.623998,37.2950007 136.251335,37.4206661 135.87,37.542 L135.87,41.078 L138.704,41.078 Z M142.344,42.222 L150.066,42.222 L150.066,37.464 C150.066,37.2906658 150.04,37.1780003 149.988,37.126 C149.936,37.0739997 149.814668,37.048 149.624,37.048 L142.656,37.048 C142.517333,37.048 142.430667,37.078333 142.396,37.139 C142.361333,37.199667 142.344,37.3253324 142.344,37.516 L142.344,42.222 Z M142.344,49.138 L150.066,49.138 L150.066,44.146 L142.344,44.146 L142.344,49.138 Z M142.344,55.872 L150.066,55.872 L150.066,51.062 L142.344,51.062 L142.344,55.872 Z M166.404,44.588 C166.872002,44.588 167.279332,44.7483317 167.626,45.069 C167.972668,45.3896683 168.146,45.7839977 168.146,46.252 C168.146,46.7200023 167.985668,47.118665 167.665,47.448 C167.344332,47.777335 166.941336,47.942 166.456,47.942 C165.970664,47.942 165.563335,47.7686684 165.234,47.422 C164.904665,47.0753316 164.74,46.6853355 164.74,46.252 C164.74,45.8013311 164.908998,45.411335 165.247,45.082 C165.585002,44.752665 165.970665,44.588 166.404,44.588 Z M182.196,45.03 C181.797331,45.03 181.507001,44.9650007 181.325,44.835 C181.142999,44.7049994 181.052,44.4233355 181.052,43.99 C181.052,43.8859995 181.056333,43.7950004 181.065,43.717 C181.073667,43.6389996 181.095333,43.5566671 181.13,43.47 C180.973999,43.5566671 180.822334,43.6389996 180.675,43.717 C180.527666,43.7950004 180.384667,43.8773329 180.246,43.964 C179.812665,44.2066679 179.448668,44.3063336 179.154,44.263 C178.859332,44.2196665 178.642667,44.0160018 178.504,43.652 C178.365333,43.2533313 178.369666,42.9456678 178.517,42.729 C178.664334,42.5123323 178.989331,42.2826679 179.492,42.04 C180.289337,41.6413313 181.116996,41.1776693 181.975,40.649 C182.833004,40.1203307 183.686662,39.5440031 184.536,38.92 C185.385338,38.2959969 186.217329,37.6330035 187.032,36.931 C187.846671,36.2289965 188.617996,35.5140036 189.346,34.786 C189.640668,34.4913319 189.917999,34.2660008 190.178,34.11 C190.438001,33.9539992 190.715332,33.876 191.01,33.876 C191.304668,33.876 191.594999,33.9583325 191.881,34.123 C192.167002,34.2876675 192.474665,34.5259984 192.804,34.838 C193.46267,35.49667 194.203663,36.1683299 195.027,36.853 C195.850338,37.5376701 196.690996,38.2006635 197.549,38.842 C198.407004,39.4833365 199.260662,40.072664 200.11,40.61 C200.959338,41.147336 201.73933,41.5893316 202.45,41.936 C202.900669,42.1613345 203.178,42.3823323 203.282,42.599 C203.386001,42.8156678 203.368667,43.0799984 203.23,43.392 C202.952665,44.05067 202.432671,44.1893352 201.67,43.808 C200.820662,43.3746645 199.949671,42.8806694 199.057,42.326 C198.164329,41.7713306 197.276004,41.1690033 196.392,40.519 C195.507996,39.8689968 194.641338,39.1930035 193.792,38.491 C192.942662,37.7889965 192.154004,37.0826702 191.426,36.372 C191.165999,36.1293321 190.914668,36.1293321 190.672,36.372 C189.441327,37.568006 188.080674,38.733661 186.59,39.869 C185.099326,41.004339 183.556675,42.0486619 181.962,43.002 C182.014,42.9846666 182.092,42.976 182.196,42.976 L199.46,42.976 C199.754668,42.976 200.005999,43.0539992 200.214,43.21 C200.422001,43.3660008 200.526,43.6259982 200.526,43.99 C200.526,44.4233355 200.435001,44.7049994 200.253,44.835 C200.070999,44.9650007 199.806668,45.03 199.46,45.03 L191.868,45.03 L191.868,48.904 L199.096,48.904 C199.442668,48.904 199.711332,48.9819992 199.902,49.138 C200.092668,49.2940008 200.188,49.5626648 200.188,49.944 C200.188,50.3600021 200.092668,50.6329994 199.902,50.763 C199.711332,50.8930007 199.442668,50.958 199.096,50.958 L191.868,50.958 L191.868,55.846 L201.306,55.846 C201.652668,55.846 201.916999,55.9239992 202.099,56.08 C202.281001,56.2360008 202.372,56.4959982 202.372,56.86 C202.372,57.2413352 202.285334,57.5099992 202.112,57.666 C201.938666,57.8220008 201.670002,57.9 201.306,57.9 L180.636,57.9 C180.237331,57.9 179.942668,57.8263341 179.752,57.679 C179.561332,57.5316659 179.466,57.2586687 179.466,56.86 C179.466,56.4613313 179.561332,56.1926674 179.752,56.054 C179.942668,55.9153326 180.237331,55.846 180.636,55.846 L189.814,55.846 L189.814,50.958 L182.612,50.958 C182.265332,50.958 181.996668,50.8930007 181.806,50.763 C181.615332,50.6329994 181.52,50.3600021 181.52,49.944 C181.52,49.5626648 181.602333,49.2940008 181.767,49.138 C181.931668,48.9819992 182.213331,48.904 182.612,48.904 L189.814,48.904 L189.814,45.03 L182.196,45.03 Z M210.138,55.508 C210.138,55.5773337 210.155333,55.6249999 210.19,55.651 C210.224667,55.6770001 210.250667,55.69 210.268,55.69 C210.961337,55.5339992 211.606997,55.3910007 212.205,55.261 C212.803003,55.1309994 213.400997,54.9966674 213.999,54.858 C214.597003,54.7193326 215.21233,54.5676675 215.845,54.403 C216.47767,54.2383325 217.17533,54.052001 217.938,53.844 C218.388669,53.7226661 218.765665,53.6966663 219.069,53.766 C219.372335,53.8353337 219.576,54.034665 219.68,54.364 C219.784001,54.7106684 219.740668,55.0096654 219.55,55.261 C219.359332,55.5123346 219.056002,55.6986661 218.64,55.82 C217.98133,55.9933342 217.383336,56.1493326 216.846,56.288 C216.308664,56.4266674 215.793003,56.5523328 215.299,56.665 C214.804998,56.7776672 214.324002,56.8903328 213.856,57.003 C213.387998,57.1156672 212.894003,57.2239995 212.374,57.328 C211.975331,57.4146671 211.511669,57.5273326 210.983,57.666 C210.454331,57.8046674 209.964669,57.874 209.514,57.874 C208.90733,57.874 208.517334,57.6876685 208.344,57.315 C208.170666,56.9423315 208.084,56.3140044 208.084,55.43 L208.084,37.88 C208.084,37.342664 208.118666,36.909335 208.188,36.58 C208.257334,36.250665 208.387332,35.9950009 208.578,35.813 C208.768668,35.6309991 209.032998,35.5140003 209.371,35.462 C209.709002,35.4099997 210.155331,35.384 210.71,35.384 L225.374,35.384 C225.92867,35.384 226.374998,35.414333 226.713,35.475 C227.051002,35.535667 227.315332,35.6569991 227.506,35.839 C227.696668,36.0210009 227.826666,36.276665 227.896,36.606 C227.965334,36.935335 228,37.3599974 228,37.88 L228,41.208 C228,41.7106692 227.969667,42.1223317 227.909,42.443 C227.848333,42.7636683 227.727001,43.0149991 227.545,43.197 C227.362999,43.3790009 227.098668,43.5046663 226.752,43.574 C226.405332,43.6433337 225.946003,43.678 225.374,43.678 L219.914,43.678 C220.052667,44.3540034 220.208666,45.0083302 220.382,45.641 C220.555334,46.2736698 220.737332,46.8933303 220.928,47.5 L229.482,47.5 C229.863335,47.5 230.118999,47.5823325 230.249,47.747 C230.379001,47.9116675 230.444,48.158665 230.444,48.488 C230.444,48.8346684 230.379001,49.0903325 230.249,49.255 C230.118999,49.4196675 229.863335,49.502 229.482,49.502 L221.708,49.502 C222.193336,50.5940055 222.747997,51.603662 223.372,52.531 C223.996003,53.458338 224.715329,54.3119961 225.53,55.092 C225.963336,55.5253355 226.314332,55.845999 226.583,56.054 C226.851668,56.262001 227.076999,56.3096672 227.259,56.197 C227.441001,56.0843328 227.601333,55.7766692 227.74,55.274 C227.878667,54.7713308 228.025999,54.0260049 228.182,53.038 C228.286001,52.37933 228.411666,51.9590009 228.559,51.777 C228.706334,51.5949991 228.979331,51.5213332 229.378,51.556 C229.707335,51.6080003 229.954333,51.7423323 230.119,51.959 C230.283668,52.1756678 230.322667,52.5613306 230.236,53.116 C229.975999,54.7626749 229.655335,56.0323289 229.274,56.925 C228.892665,57.8176711 228.433336,58.3636657 227.896,58.563 C227.358664,58.7623343 226.72167,58.6236691 225.985,58.147 C225.24833,57.670331 224.386005,56.8773389 223.398,55.768 C222.565996,54.884 221.829337,53.9263385 221.188,52.895 C220.546664,51.8636615 219.983336,50.7326728 219.498,49.502 L210.138,49.502 L210.138,55.508 Z M225.998,37.724 C225.998,37.4813321 225.842002,37.36 225.53,37.36 L210.58,37.36 C210.285332,37.36 210.138,37.4813321 210.138,37.724 L210.138,41.702 L225.53,41.702 C225.842002,41.702 225.998,41.598001 225.998,41.39 L225.998,37.724 Z M210.138,47.5 L218.77,47.5 C218.579332,46.9106637 218.414667,46.2996698 218.276,45.667 C218.137333,45.0343302 218.007334,44.3713368 217.886,43.678 L210.138,43.678 L210.138,47.5 Z M252.25,45.68 C253.030004,45.68 253.545666,45.8576649 253.797,46.213 C254.048335,46.5683351 254.174,47.1359961 254.174,47.916 L254.174,52.336 C254.174,53.1333373 254.031002,53.6749986 253.745,53.961 C253.458999,54.2470014 252.926004,54.39 252.146,54.39 L245.36,54.39 L245.36,54.806 C245.36,55.0833347 245.390333,55.3129991 245.451,55.495 C245.511667,55.6770009 245.624333,55.8243328 245.789,55.937 C245.953668,56.0496672 246.187665,56.1276665 246.491,56.171 C246.794335,56.2143336 247.197331,56.236 247.7,56.236 C248.202669,56.236 248.848329,56.2403333 249.637,56.249 C250.425671,56.2576667 251.365995,56.2533334 252.458,56.236 C253.082003,56.236 253.597665,56.2013337 254.005,56.132 C254.412335,56.0626663 254.737332,55.9500008 254.98,55.794 C255.222668,55.6379992 255.391666,55.4300013 255.487,55.17 C255.582334,54.9099987 255.63,54.5806687 255.63,54.182 C255.63,53.6793308 255.703666,53.3283343 255.851,53.129 C255.998334,52.9296657 256.236665,52.83 256.566,52.83 C256.860668,52.83 257.085999,52.9383323 257.242,53.155 C257.398001,53.3716678 257.458667,53.6533316 257.424,54 C257.389333,54.8320042 257.298334,55.5123307 257.151,56.041 C257.003666,56.5696693 256.752335,56.9813319 256.397,57.276 C256.041665,57.5706681 255.56067,57.7743328 254.954,57.887 C254.34733,57.9996672 253.567338,58.0646666 252.614,58.082 C251.764663,58.0993334 250.924004,58.1036667 250.092,58.095 C249.259996,58.0863333 248.419338,58.0733334 247.57,58.056 C246.737996,58.0386666 246.057669,57.9823338 245.529,57.887 C245.000331,57.7916662 244.580002,57.6443343 244.268,57.445 C243.955999,57.2456657 243.743667,56.9943349 243.631,56.691 C243.518333,56.3876652 243.462,56.0106689 243.462,55.56 L243.462,54.39 L236.806,54.39 C236.025996,54.39 235.497335,54.2123351 235.22,53.857 C234.942665,53.5016649 234.804,52.9340039 234.804,52.154 L234.804,47.916 C234.804,47.1359961 234.942665,46.5683351 235.22,46.213 C235.497335,45.8576649 236.025996,45.68 236.806,45.68 L252.25,45.68 Z M243.878,37.49 L243.878,36.554 L236.182,36.554 C235.783331,36.554 235.514667,36.4890007 235.376,36.359 C235.237333,36.2289994 235.168,36.0166681 235.168,35.722 C235.168,35.4099984 235.237333,35.1760008 235.376,35.02 C235.514667,34.8639992 235.783331,34.786 236.182,34.786 L253.992,34.786 C254.390669,34.786 254.650666,34.8683325 254.772,35.033 C254.893334,35.1976675 254.954,35.4273319 254.954,35.722 C254.954,36.0166681 254.893334,36.2289994 254.772,36.359 C254.650666,36.4890007 254.390669,36.554 253.992,36.554 L245.776,36.554 L245.776,37.49 L254.616,37.49 C255.794673,37.49 256.526999,37.923329 256.813,38.79 C257.099002,39.656671 256.895337,40.852659 256.202,42.378 C255.941999,42.9500029 255.690668,43.2836662 255.448,43.379 C255.205332,43.4743338 254.919335,43.4266676 254.59,43.236 C254.312665,43.0799992 254.156667,42.8850012 254.122,42.651 C254.087333,42.4169988 254.165332,42.0920021 254.356,41.676 C254.806669,40.6879951 255.036333,40.0380016 255.045,39.726 C255.053667,39.4139984 254.876002,39.258 254.512,39.258 L245.776,39.258 L245.776,42.82 C245.776,43.2013352 245.711001,43.4829991 245.581,43.665 C245.450999,43.8470009 245.195335,43.938 244.814,43.938 C244.449998,43.938 244.203001,43.8470009 244.073,43.665 C243.942999,43.4829991 243.878,43.2013352 243.878,42.82 L243.878,39.258 L235.532,39.258 C235.410666,39.258 235.35,39.3273326 235.35,39.466 L235.35,42.352 C235.35,42.6986684 235.259001,42.9499992 235.077,43.106 C234.894999,43.2620008 234.656668,43.34 234.362,43.34 C233.737997,43.34 233.426,43.01067 233.426,42.352 L233.426,39.544 C233.426,39.335999 233.460666,39.1106679 233.53,38.868 C233.599334,38.6253321 233.711999,38.4043343 233.868,38.205 C234.024001,38.0056657 234.227666,37.8366674 234.479,37.698 C234.730335,37.5593326 235.037998,37.49 235.402,37.49 L243.878,37.49 Z M245.36,50.75 L245.36,52.674 L251.912,52.674 C252.154668,52.674 252.276,52.4920018 252.276,52.128 L252.276,50.75 L245.36,50.75 Z M236.702,52.128 C236.702,52.2840008 236.741,52.4139995 236.819,52.518 C236.897,52.6220005 237.057332,52.674 237.3,52.674 L243.462,52.674 L243.462,50.75 L236.702,50.75 L236.702,52.128 Z M253.784,40.922 C253.784,41.2166681 253.719001,41.4333326 253.589,41.572 C253.458999,41.7106674 253.203335,41.78 252.822,41.78 L247.232,41.78 C246.885332,41.78 246.638334,41.7106674 246.491,41.572 C246.343666,41.4333326 246.27,41.2166681 246.27,40.922 C246.27,40.5753316 246.343666,40.3413339 246.491,40.22 C246.638334,40.0986661 246.885332,40.038 247.232,40.038 L252.822,40.038 C253.203335,40.038 253.458999,40.1073326 253.589,40.246 C253.719001,40.3846674 253.784,40.6099984 253.784,40.922 Z M253.862,43.548 C253.862,43.8426681 253.801334,44.0593326 253.68,44.198 C253.558666,44.3366674 253.298669,44.406 252.9,44.406 L247.336,44.406 C246.989332,44.406 246.746667,44.3410007 246.608,44.211 C246.469333,44.0809994 246.4,43.8600016 246.4,43.548 C246.4,43.218665 246.469333,42.9890007 246.608,42.859 C246.746667,42.7289994 246.989332,42.664 247.336,42.664 L252.9,42.664 C253.281335,42.664 253.536999,42.7333326 253.667,42.872 C253.797001,43.0106674 253.862,43.2359984 253.862,43.548 Z M243.254,43.704 C243.254,43.9813347 243.189001,44.1893326 243.059,44.328 C242.928999,44.4666674 242.664669,44.536 242.266,44.536 L236.676,44.536 C236.294665,44.536 236.034667,44.4666674 235.896,44.328 C235.757333,44.1893326 235.688,43.9726681 235.688,43.678 C235.688,43.3833319 235.757333,43.1666674 235.896,43.028 C236.034667,42.8893326 236.294665,42.82 236.676,42.82 L242.266,42.82 C242.664669,42.82 242.928999,42.8936659 243.059,43.041 C243.189001,43.1883341 243.254,43.4093319 243.254,43.704 Z M243.228,41.026 C243.228,41.3206681 243.163001,41.5329994 243.033,41.663 C242.902999,41.7930007 242.638669,41.858 242.24,41.858 L236.728,41.858 C236.346665,41.858 236.082334,41.7973339 235.935,41.676 C235.787666,41.5546661 235.714,41.3206684 235.714,40.974 C235.714,40.6793319 235.787666,40.4670007 235.935,40.337 C236.082334,40.2069994 236.346665,40.142 236.728,40.142 L242.24,40.142 C242.638669,40.142 242.902999,40.2113326 243.033,40.35 C243.163001,40.4886674 243.228,40.7139984 243.228,41.026 Z M252.276,47.942 C252.276,47.7859992 252.245667,47.6560005 252.185,47.552 C252.124333,47.4479995 252.033334,47.396 251.912,47.396 L245.36,47.396 L245.36,49.086 L252.276,49.086 L252.276,47.942 Z M236.702,49.086 L243.462,49.086 L243.462,47.396 L237.04,47.396 C236.814666,47.396 236.702,47.5779982 236.702,47.942 L236.702,49.086 Z M278.32,39.96 C278.302667,40.1506676 278.289667,40.3413324 278.281,40.532 C278.272333,40.7226676 278.259334,40.9133324 278.242,41.104 L283.234,41.104 C283.580669,41.104 283.810333,41.1689994 283.923,41.299 C284.035667,41.4290007 284.092,41.6239987 284.092,41.884 C284.092,42.1266679 284.035667,42.3173326 283.923,42.456 C283.810333,42.5946674 283.580669,42.664 283.234,42.664 L282.584,42.664 C282.48,43.7906723 282.358667,44.8306619 282.22,45.784 C282.081333,46.7373381 281.925334,47.616996 281.752,48.423 C281.578666,49.229004 281.379335,49.9786632 281.154,50.672 C280.928666,51.3653368 280.660002,52.0153303 280.348,52.622 C280.746669,53.3326702 281.201664,53.9956636 281.713,54.611 C282.224336,55.2263364 282.791997,55.8373303 283.416,56.444 C283.745335,56.7386681 283.918667,57.0116654 283.936,57.263 C283.953334,57.5143346 283.858001,57.7353324 283.65,57.926 C283.216665,58.3073352 282.72267,58.229336 282.168,57.692 C281.595997,57.1373306 281.076002,56.5783362 280.608,56.015 C280.139998,55.4516639 279.724002,54.8753363 279.36,54.286 C278.961331,54.8926697 278.502003,55.4733306 277.982,56.028 C277.461998,56.5826694 276.87267,57.1546637 276.214,57.744 C275.901999,58.0386681 275.607335,58.1946666 275.33,58.212 C275.052665,58.2293334 274.818668,58.1166679 274.628,57.874 C274.263998,57.4059977 274.43733,56.8860029 275.148,56.314 C275.841337,55.7073303 276.460997,55.105003 277.007,54.507 C277.553003,53.908997 278.033998,53.2720034 278.45,52.596 C278.068665,51.7813293 277.743668,50.9276711 277.475,50.035 C277.206332,49.1423289 276.968001,48.1760052 276.76,47.136 C276.76,47.1533334 276.755667,47.1663333 276.747,47.175 C276.738333,47.1836667 276.734,47.1966666 276.734,47.214 C276.525999,47.7340026 276.318001,48.0416662 276.11,48.137 C275.901999,48.2323338 275.642002,48.2020008 275.33,48.046 C275.087332,47.9246661 274.953,47.7340013 274.927,47.474 C274.901,47.2139987 275.009332,46.8326692 275.252,46.33 C275.685336,45.3939953 276.023332,44.3540057 276.266,43.21 C276.508668,42.0659943 276.647333,40.9740052 276.682,39.934 C276.716667,39.4313308 276.781666,39.1063341 276.877,38.959 C276.972334,38.8116659 277.184665,38.738 277.514,38.738 C277.808668,38.738 278.025333,38.8203325 278.164,38.985 C278.302667,39.1496675 278.354667,39.4746642 278.32,39.96 Z M284.586,37.048 C284.586,37.70667 284.25667,38.036 283.598,38.036 L263.994,38.036 C263.803332,38.036 263.708,38.1919984 263.708,38.504 L263.708,45.758 C263.708,47.283341 263.673334,48.6006611 263.604,49.71 C263.534666,50.8193389 263.426334,51.8159956 263.279,52.7 C263.131666,53.5840044 262.936668,54.4073295 262.694,55.17 C262.451332,55.9326705 262.156669,56.7299958 261.81,57.562 C261.619332,58.0126689 261.385335,58.2986661 261.108,58.42 C260.830665,58.5413339 260.536002,58.5326674 260.224,58.394 C259.911999,58.2553326 259.734334,58.051668 259.691,57.783 C259.647667,57.514332 259.729999,57.1460023 259.938,56.678 C260.267335,55.9673298 260.548999,55.2350038 260.783,54.481 C261.017001,53.7269962 261.203333,52.9123377 261.342,52.037 C261.480667,51.1616623 261.584666,50.1996719 261.654,49.151 C261.723334,48.1023281 261.758,46.9280065 261.758,45.628 L261.758,38.244 C261.758,37.4639961 261.900999,36.9136683 262.187,36.593 C262.473002,36.2723317 263.023329,36.112 263.838,36.112 L272.054,36.112 C272.002,35.9733326 271.945667,35.8390007 271.885,35.709 C271.824333,35.5789994 271.759334,35.4446674 271.69,35.306 C271.533999,35.0113319 271.516666,34.7166681 271.638,34.422 C271.759334,34.1273319 271.967332,33.9280005 272.262,33.824 C272.626002,33.6853326 272.929332,33.6766661 273.172,33.798 C273.414668,33.9193339 273.622666,34.1793313 273.796,34.578 C273.882667,34.8206679 273.973666,35.0676654 274.069,35.319 C274.164334,35.5703346 274.255333,35.8346653 274.342,36.112 L283.598,36.112 C283.944669,36.112 284.195999,36.1683328 284.352,36.281 C284.508001,36.3936672 284.586,36.6493313 284.586,37.048 Z M274.784,55.56 C274.784,56.5826718 274.49367,57.2673316 273.913,57.614 C273.332331,57.9606684 272.392007,57.9606684 271.092,57.614 C270.641331,57.4926661 270.359667,57.3150012 270.247,57.081 C270.134333,56.8469988 270.13,56.5826681 270.234,56.288 C270.320667,56.0453321 270.472332,55.8806671 270.689,55.794 C270.905668,55.7073329 271.195998,55.7333326 271.56,55.872 C272.582672,56.2706687 273.094,56.14067 273.094,55.482 L273.094,46.408 C273.094,46.2519992 273.033334,46.1350004 272.912,46.057 C272.790666,45.9789996 272.652001,45.94 272.496,45.94 L267.374,45.94 C267.217999,45.94 267.092334,45.9833329 266.997,46.07 C266.901666,46.1566671 266.854,46.2693326 266.854,46.408 L266.854,57.302 C266.854,57.5620013 266.780334,57.7439995 266.633,57.848 C266.485666,57.9520005 266.273335,58.004 265.996,58.004 C265.666665,58.004 265.432667,57.9563338 265.294,57.861 C265.155333,57.7656662 265.086,57.5793347 265.086,57.302 L265.086,46.096 C265.086,45.4546635 265.228999,44.9953347 265.515,44.718 C265.801002,44.4406653 266.351329,44.302 267.166,44.302 L269.116,44.302 L269.116,39.518 C269.116,39.2233319 269.185333,38.9936675 269.324,38.829 C269.462667,38.6643325 269.705332,38.582 270.052,38.582 C270.346668,38.582 270.563333,38.6686658 270.702,38.842 C270.840667,39.0153342 270.91,39.2406653 270.91,39.518 L270.91,44.302 L272.626,44.302 C273.475338,44.302 274.047332,44.436332 274.342,44.705 C274.636668,44.973668 274.784,45.43733 274.784,46.096 L274.784,55.56 Z M272.236,53.012 C272.236,53.549336 272.114668,53.9349988 271.872,54.169 C271.629332,54.4030012 271.196003,54.52 270.572,54.52 L269.402,54.52 C268.74333,54.52 268.297001,54.4203343 268.063,54.221 C267.828999,54.0216657 267.712,53.6186697 267.712,53.012 L267.712,49.19 C267.712,48.6353306 267.828999,48.2453345 268.063,48.02 C268.297001,47.7946655 268.74333,47.682 269.402,47.682 L270.572,47.682 C271.196003,47.682 271.629332,47.7946655 271.872,48.02 C272.114668,48.2453345 272.236,48.6353306 272.236,49.19 L272.236,53.012 Z M277.878,43.444 C278.016667,44.9173407 278.211666,46.2389942 278.463,47.409 C278.714335,48.5790059 279.030665,49.6579951 279.412,50.646 C279.828002,49.6233282 280.152999,48.4706731 280.387,47.188 C280.621001,45.9053269 280.798666,44.397342 280.92,42.664 L278.034,42.664 L277.878,43.444 Z M274.732,40.662 C274.628,40.9393347 274.528334,41.1863323 274.433,41.403 C274.337666,41.6196678 274.238001,41.831999 274.134,42.04 C274.03,42.248001 273.921667,42.455999 273.809,42.664 C273.696333,42.872001 273.570667,43.0886655 273.432,43.314 C273.223999,43.6606684 273.020334,43.8729996 272.821,43.951 C272.621666,44.0290004 272.374668,43.9986674 272.08,43.86 C271.802665,43.7213326 271.672667,43.5220013 271.69,43.262 C271.707334,43.0019987 271.811332,42.7160016 272.002,42.404 L272.366,41.858 C272.470001,41.7019992 272.561,41.5373342 272.639,41.364 C272.717001,41.1906658 272.790666,41.0043343 272.86,40.805 C272.929334,40.6056657 273.016,40.3760013 273.12,40.116 C273.258667,39.7693316 273.418999,39.565667 273.601,39.505 C273.783001,39.444333 274.003999,39.4573329 274.264,39.544 C274.81867,39.7000008 274.974668,40.0726637 274.732,40.662 Z M268.05,42.43 C268.171334,42.7073347 268.227667,42.9759987 268.219,43.236 C268.210333,43.4960013 268.032669,43.6866661 267.686,43.808 C267.339332,43.9120005 267.075001,43.9033339 266.893,43.782 C266.710999,43.6606661 266.550667,43.4266684 266.412,43.08 C266.308,42.8546655 266.217001,42.6553342 266.139,42.482 C266.061,42.3086658 265.983001,42.1483341 265.905,42.001 C265.827,41.8536659 265.736001,41.7020008 265.632,41.546 C265.528,41.3899992 265.415334,41.2166676 265.294,41.026 C264.912665,40.4366637 264.964664,39.9946681 265.45,39.7 C265.692668,39.5613326 265.922332,39.5136665 266.139,39.557 C266.355668,39.6003336 266.559332,39.7779984 266.75,40.09 C266.888667,40.3153345 267.014333,40.5189991 267.127,40.701 C267.239667,40.8830009 267.343666,41.0563325 267.439,41.221 C267.534334,41.3856675 267.629666,41.5633324 267.725,41.754 C267.820334,41.9446676 267.928666,42.1699987 268.05,42.43 Z M270.702,49.476 C270.702,49.2506655 270.563335,49.138 270.286,49.138 L269.636,49.138 C269.549333,49.138 269.462667,49.168333 269.376,49.229 C269.289333,49.289667 269.246,49.3719995 269.246,49.476 L269.246,52.752 C269.246,52.8906674 269.285,52.9859997 269.363,53.038 C269.441001,53.0900003 269.532,53.116 269.636,53.116 L270.286,53.116 C270.563335,53.116 270.702,52.9946679 270.702,52.752 L270.702,49.476 Z" id="中租-·-全民電廠" fill="#1EAFB0"></path>
        <g id="Icon_logo_y" transform="translate(18.000000, 18.000000)" fill="#DCCD86">
            <path d="M53.5969574,20.7287434 L51.8122325,20.7186958 L36.4738694,20.7209286 L36.4738694,12.5961226 L32.0414553,12.5927733 L32.0448045,20.7209286 C27.1580224,20.7175794 25.1425783,18.2879152 25.1425783,13.800721 L25.1425783,12.5927733 C25.3524583,10.764478 26.1104826,9.17509282 27.4319084,7.83689823 C28.9985664,6.25160652 30.9120475,5.46082134 33.1693746,5.46082134 C35.4408426,5.46082134 37.3509746,6.24565238 38.9031196,7.81829152 C40.2331043,9.16765014 40.9848024,10.758896 41.1753318,12.5927733 L45.5898838,12.5927733 C45.3967495,9.43893597 44.2104061,6.7268219 42.0211783,4.45457046 C39.6231868,1.9646205 36.6900756,0.719459459 33.2322642,0.719459459 C29.7309139,0.719459459 26.7710095,1.98471575 24.3406429,4.50480857 C22.1357857,6.79306179 20.9312081,9.48917409 20.7269099,12.5927733 L20.7157461,14.3760404 L20.7202116,29.7295534 L12.5910801,29.7295534 L12.5888474,34.1631603 L20.7202116,34.1586947 C20.7157461,39.0463053 18.2853795,41.0621563 13.8001233,41.0621563 L12.5888474,41.0621563 C10.7609557,40.8519005 9.17271427,40.0972123 7.83342637,38.7701817 C6.25113902,37.2046131 5.46036747,35.2903548 5.46036747,33.0315002 C5.46036747,30.7588766 6.24518497,28.8498281 7.817797,27.29654 C9.16601597,25.9676487 10.7609557,25.2174262 12.5888474,25.0265213 L12.5888474,20.6141261 C9.43729713,20.8039145 6.72746258,21.9906505 4.45301755,24.1795439 C1.96199414,26.5779488 0.719459459,29.5096221 0.719459459,32.9730751 C0.719459459,36.4703924 1.98320542,39.4322085 4.50585969,41.8637334 C6.79258495,44.0701171 9.49013928,45.2732269 12.5888474,45.4741794 L14.3746886,45.4864598 C14.5079104,45.489809 14.6303404,45.4775286 14.7613294,45.4741794 L29.7130517,45.4682253 L29.7130517,53.5967527 L34.1410003,53.5989855 L34.1410003,45.4682253 C39.0288988,45.4741794 41.0432265,47.9016108 41.0432265,52.388805 L41.0432265,53.5989855 C40.8333464,55.4269087 40.0742057,57.016666 38.7516636,58.3552327 C37.1850056,59.9368031 35.2715245,60.7287047 33.0149416,60.7287047 C30.7416129,60.7287047 28.831481,59.94499 27.2789639,58.3712345 C25.9489792,57.0229923 25.2010023,55.4295136 25.0067516,53.5989855 L20.5970373,53.5989855 C20.7875668,56.7517064 21.9742823,59.4649369 24.1635101,61.7360719 C26.5592687,64.2271383 29.4931242,65.4708108 32.9542848,65.4708108 C36.452286,65.4708108 39.4144232,64.2059267 41.8447897,61.6858338 C44.0489026,59.3964642 45.2534803,56.697747 45.456662,53.5989855 L45.4663374,51.811997 L45.4663374,36.4737416 L53.5969574,36.4737416 L53.5969574,32.0431117 L45.4663374,32.0442281 C45.4730357,27.160711 47.9000531,25.1429993 52.3886585,25.1429993 L53.5969574,25.1429993 C55.4259655,25.3506502 57.0164396,26.1101761 58.3557275,27.432369 C59.9368985,29.0005425 60.7254373,30.9136844 60.7254373,33.1717948 C60.7254373,35.4429298 59.9435968,37.353839 58.368752,38.9063829 C57.0231379,40.2363905 55.4293146,40.9888459 53.5969574,41.1786343 L53.5969574,45.5910295 C56.7518568,45.4001247 59.4613192,44.2145051 61.737997,42.0244953 C64.2234385,39.6238576 65.4708108,36.6914401 65.4708108,33.2298477 C65.4708108,29.7314141 64.2033436,26.7714586 61.6832942,24.3414223 C59.3961968,22.1339222 56.6978982,20.9330451 53.5969574,20.7287434 Z M24.0299459,40.5204515 C25.0892869,38.6948218 25.6593622,36.3868118 25.6571583,33.6481838 L25.6604642,24.0299459 C27.4874968,25.0963956 29.8008565,25.6665148 32.5487517,25.6665148 L42.1603243,25.6676161 C41.0918004,27.4932458 40.5261329,29.8067624 40.5261329,32.5553024 L40.523929,42.1603243 C38.6972637,41.0935076 36.3802308,40.5215528 33.6290298,40.5226541 L24.0299459,40.5204515 Z" id="Fill-1"></path>
        </g>
        <path d="M108.18,65.992 C109.104,65.992 109.874,66.234 110.468,66.718 C111.04,67.18 111.381,67.818 111.502,68.61 L110.248,68.61 C110.116,68.093 109.874,67.719 109.511,67.477 C109.159,67.235 108.708,67.125 108.158,67.125 C107.333,67.125 106.717,67.4 106.299,67.972 C105.914,68.478 105.727,69.182 105.727,70.084 C105.727,71.008 105.914,71.723 106.288,72.218 C106.695,72.746 107.333,73.021 108.191,73.021 C108.752,73.021 109.214,72.878 109.566,72.614 C109.94,72.317 110.204,71.866 110.358,71.272 L111.612,71.272 C111.436,72.196 111.029,72.911 110.38,73.428 C109.775,73.912 109.049,74.154 108.202,74.154 C106.893,74.154 105.914,73.736 105.276,72.922 C104.715,72.218 104.44,71.272 104.44,70.084 C104.44,68.918 104.726,67.961 105.309,67.235 C105.969,66.399 106.926,65.992 108.18,65.992 Z M112.562,65.992 L113.816,65.992 L113.816,69.072 C114.025,68.753 114.289,68.522 114.597,68.368 C114.872,68.225 115.191,68.159 115.554,68.159 C116.247,68.159 116.764,68.357 117.105,68.764 C117.424,69.149 117.589,69.721 117.589,70.48 L117.589,74 L116.335,74 L116.335,70.7 C116.335,70.216 116.236,69.842 116.049,69.589 C115.829,69.314 115.51,69.182 115.081,69.182 C114.685,69.182 114.377,69.336 114.157,69.644 C113.926,69.952 113.816,70.337 113.816,70.821 L113.816,74 L112.562,74 L112.562,65.992 Z M121.344,68.159 C122.18,68.159 122.807,68.368 123.203,68.786 C123.555,69.149 123.731,69.677 123.731,70.37 L123.731,74 L122.565,74 L122.565,73.252 C122.345,73.538 122.07,73.747 121.751,73.901 C121.388,74.066 120.959,74.154 120.464,74.154 C119.87,74.154 119.408,74 119.067,73.703 C118.715,73.395 118.539,73.01 118.539,72.537 C118.539,71.899 118.781,71.404 119.287,71.063 C119.749,70.733 120.398,70.557 121.234,70.535 L122.477,70.502 L122.477,70.282 C122.477,69.534 122.07,69.171 121.256,69.171 C120.904,69.171 120.629,69.226 120.42,69.358 C120.178,69.501 120.013,69.721 119.947,70.018 L118.704,69.919 C118.825,69.292 119.133,68.83 119.628,68.544 C120.046,68.28 120.618,68.159 121.344,68.159 Z M122.477,71.404 L121.322,71.437 C120.321,71.459 119.826,71.811 119.826,72.493 C119.826,72.691 119.903,72.856 120.079,72.988 C120.255,73.12 120.475,73.197 120.75,73.197 C121.234,73.197 121.641,73.054 121.971,72.779 C122.301,72.493 122.477,72.13 122.477,71.69 L122.477,71.404 Z M125.748,65.992 C125.99,65.992 126.199,66.069 126.364,66.223 C126.518,66.377 126.606,66.575 126.606,66.817 C126.606,67.059 126.518,67.268 126.353,67.422 C126.188,67.576 125.99,67.653 125.748,67.653 C125.506,67.653 125.308,67.576 125.143,67.422 C124.978,67.257 124.901,67.059 124.901,66.817 C124.901,66.575 124.978,66.377 125.143,66.223 C125.308,66.069 125.506,65.992 125.748,65.992 Z M125.121,68.313 L126.375,68.313 L126.375,74 L125.121,74 L125.121,68.313 Z M127.886,65.992 L129.14,65.992 L129.14,74 L127.886,74 L127.886,65.992 Z M132.84,68.159 C133.775,68.159 134.49,68.467 134.985,69.105 C135.436,69.677 135.667,70.48 135.667,71.503 L131.41,71.503 C131.454,72.031 131.597,72.438 131.839,72.713 C132.081,72.988 132.433,73.131 132.884,73.131 C133.269,73.131 133.577,73.043 133.819,72.867 C134.006,72.724 134.171,72.493 134.325,72.174 L135.579,72.174 C135.447,72.702 135.183,73.153 134.787,73.505 C134.281,73.934 133.654,74.154 132.895,74.154 C132.048,74.154 131.377,73.89 130.882,73.373 C130.354,72.834 130.09,72.097 130.09,71.151 C130.09,70.304 130.332,69.6 130.838,69.028 C131.322,68.445 131.993,68.159 132.84,68.159 Z M132.873,69.182 C132.455,69.182 132.136,69.292 131.894,69.534 C131.663,69.765 131.509,70.106 131.432,70.557 L134.358,70.557 C134.248,69.633 133.753,69.182 132.873,69.182 Z M139.092,68.159 C139.928,68.159 140.555,68.368 140.951,68.786 C141.303,69.149 141.479,69.677 141.479,70.37 L141.479,74 L140.313,74 L140.313,73.252 C140.093,73.538 139.818,73.747 139.499,73.901 C139.136,74.066 138.707,74.154 138.212,74.154 C137.618,74.154 137.156,74 136.815,73.703 C136.463,73.395 136.287,73.01 136.287,72.537 C136.287,71.899 136.529,71.404 137.035,71.063 C137.497,70.733 138.146,70.557 138.982,70.535 L140.225,70.502 L140.225,70.282 C140.225,69.534 139.818,69.171 139.004,69.171 C138.652,69.171 138.377,69.226 138.168,69.358 C137.926,69.501 137.761,69.721 137.695,70.018 L136.452,69.919 C136.573,69.292 136.881,68.83 137.376,68.544 C137.794,68.28 138.366,68.159 139.092,68.159 Z M140.225,71.404 L139.07,71.437 C138.069,71.459 137.574,71.811 137.574,72.493 C137.574,72.691 137.651,72.856 137.827,72.988 C138.003,73.12 138.223,73.197 138.498,73.197 C138.982,73.197 139.389,73.054 139.719,72.779 C140.049,72.493 140.225,72.13 140.225,71.69 L140.225,71.404 Z M144.794,68.159 C146.29,68.159 147.115,68.753 147.247,69.963 L146.026,69.963 C145.938,69.677 145.806,69.468 145.63,69.358 C145.443,69.237 145.157,69.182 144.772,69.182 C144.442,69.182 144.189,69.226 144.024,69.325 C143.826,69.424 143.738,69.578 143.738,69.798 C143.738,69.974 143.881,70.139 144.189,70.271 C144.376,70.348 144.75,70.458 145.322,70.601 C145.96,70.755 146.444,70.931 146.752,71.14 C147.203,71.426 147.434,71.833 147.434,72.339 C147.434,73.549 146.576,74.154 144.871,74.154 C143.287,74.154 142.44,73.483 142.319,72.152 L143.54,72.152 C143.606,72.515 143.738,72.768 143.925,72.922 C144.112,73.054 144.409,73.131 144.827,73.131 C145.707,73.131 146.147,72.889 146.147,72.427 C146.147,72.163 145.982,71.954 145.652,71.8 C145.476,71.712 145.102,71.613 144.53,71.481 C143.859,71.327 143.386,71.162 143.111,70.986 C142.671,70.711 142.451,70.326 142.451,69.831 C142.451,69.303 142.66,68.896 143.1,68.61 C143.529,68.302 144.09,68.159 144.794,68.159 Z M150.694,68.159 C151.629,68.159 152.344,68.467 152.839,69.105 C153.29,69.677 153.521,70.48 153.521,71.503 L149.264,71.503 C149.308,72.031 149.451,72.438 149.693,72.713 C149.935,72.988 150.287,73.131 150.738,73.131 C151.123,73.131 151.431,73.043 151.673,72.867 C151.86,72.724 152.025,72.493 152.179,72.174 L153.433,72.174 C153.301,72.702 153.037,73.153 152.641,73.505 C152.135,73.934 151.508,74.154 150.749,74.154 C149.902,74.154 149.231,73.89 148.736,73.373 C148.208,72.834 147.944,72.097 147.944,71.151 C147.944,70.304 148.186,69.6 148.692,69.028 C149.176,68.445 149.847,68.159 150.694,68.159 Z M150.727,69.182 C150.309,69.182 149.99,69.292 149.748,69.534 C149.517,69.765 149.363,70.106 149.286,70.557 L152.212,70.557 C152.102,69.633 151.607,69.182 150.727,69.182 Z M157.984,66.146 L163.649,66.146 L163.649,67.246 L159.271,67.246 L159.271,69.424 L163.385,69.424 L163.385,70.524 L159.271,70.524 L159.271,72.9 L163.836,72.9 L163.836,74 L157.984,74 L157.984,66.146 Z M164.181,68.313 L165.545,68.313 L166.909,72.438 L168.273,68.313 L169.637,68.313 L167.536,74 L166.282,74 L164.181,68.313 Z M172.622,68.159 C173.557,68.159 174.272,68.467 174.767,69.105 C175.218,69.677 175.449,70.48 175.449,71.503 L171.192,71.503 C171.236,72.031 171.379,72.438 171.621,72.713 C171.863,72.988 172.215,73.131 172.666,73.131 C173.051,73.131 173.359,73.043 173.601,72.867 C173.788,72.724 173.953,72.493 174.107,72.174 L175.361,72.174 C175.229,72.702 174.965,73.153 174.569,73.505 C174.063,73.934 173.436,74.154 172.677,74.154 C171.83,74.154 171.159,73.89 170.664,73.373 C170.136,72.834 169.872,72.097 169.872,71.151 C169.872,70.304 170.114,69.6 170.62,69.028 C171.104,68.445 171.775,68.159 172.622,68.159 Z M172.655,69.182 C172.237,69.182 171.918,69.292 171.676,69.534 C171.445,69.765 171.291,70.106 171.214,70.557 L174.14,70.557 C174.03,69.633 173.535,69.182 172.655,69.182 Z M178.973,68.159 C179.248,68.159 179.49,68.203 179.688,68.302 L179.688,69.556 C179.402,69.468 179.138,69.435 178.874,69.435 C178.544,69.435 178.247,69.556 177.983,69.82 C177.675,70.117 177.532,70.502 177.532,70.986 L177.532,74 L176.289,74 L176.289,68.313 L177.532,68.313 L177.532,69.127 C177.686,68.841 177.862,68.621 178.071,68.467 C178.324,68.258 178.621,68.159 178.973,68.159 Z M179.648,68.313 L181.012,68.313 L182.519,72.361 L183.96,68.313 L185.324,68.313 L182.244,76.178 L180.902,76.178 L181.903,73.868 L179.648,68.313 Z M185.889,65.992 L187.143,65.992 L187.143,69.094 C187.605,68.467 188.177,68.159 188.837,68.159 C189.651,68.159 190.289,68.456 190.762,69.05 C191.191,69.6 191.411,70.293 191.411,71.129 C191.411,71.998 191.191,72.713 190.751,73.263 C190.267,73.857 189.607,74.154 188.771,74.154 C188.023,74.154 187.451,73.901 187.055,73.395 L187.055,74 L185.889,74 L185.889,65.992 Z M188.54,69.171 C188.133,69.171 187.803,69.336 187.539,69.666 C187.242,70.018 187.099,70.502 187.099,71.107 L187.099,71.195 C187.099,71.745 187.209,72.207 187.451,72.559 C187.715,72.944 188.089,73.142 188.584,73.142 C189.134,73.142 189.541,72.944 189.805,72.548 C190.014,72.218 190.124,71.745 190.124,71.129 C190.124,70.513 190.003,70.051 189.783,69.732 C189.519,69.358 189.101,69.171 188.54,69.171 Z M195.001,68.159 C195.859,68.159 196.552,68.434 197.08,69.006 C197.597,69.567 197.861,70.282 197.861,71.162 C197.861,72.031 197.597,72.746 197.091,73.296 C196.563,73.868 195.859,74.154 195.001,74.154 C194.132,74.154 193.439,73.868 192.911,73.296 C192.394,72.746 192.141,72.031 192.141,71.162 C192.141,70.282 192.394,69.567 192.922,69.006 C193.439,68.434 194.132,68.159 195.001,68.159 Z M195.001,69.182 C194.473,69.182 194.077,69.38 193.791,69.798 C193.549,70.15 193.428,70.612 193.428,71.162 C193.428,71.712 193.549,72.163 193.791,72.515 C194.077,72.922 194.473,73.131 195.001,73.131 C195.518,73.131 195.925,72.922 196.211,72.515 C196.453,72.152 196.585,71.701 196.585,71.162 C196.585,70.612 196.453,70.15 196.211,69.798 C195.925,69.38 195.518,69.182 195.001,69.182 Z M202.859,65.992 L204.113,65.992 L204.113,74 L202.947,74 L202.947,73.395 C202.551,73.901 201.979,74.154 201.231,74.154 C200.384,74.154 199.724,73.857 199.251,73.263 C198.811,72.713 198.591,71.998 198.591,71.129 C198.591,70.293 198.8,69.6 199.24,69.05 C199.702,68.456 200.351,68.159 201.165,68.159 C201.825,68.159 202.386,68.467 202.859,69.094 L202.859,65.992 Z M201.462,69.171 C200.89,69.171 200.483,69.358 200.219,69.732 C199.988,70.051 199.878,70.513 199.878,71.129 C199.878,71.745 199.977,72.218 200.197,72.548 C200.45,72.944 200.857,73.142 201.418,73.142 C201.902,73.142 202.287,72.944 202.551,72.559 C202.782,72.207 202.903,71.745 202.903,71.195 L202.903,71.107 C202.903,70.502 202.749,70.018 202.463,69.666 C202.199,69.336 201.858,69.171 201.462,69.171 Z M204.678,68.313 L206.042,68.313 L207.549,72.361 L208.99,68.313 L210.354,68.313 L207.274,76.178 L205.932,76.178 L206.933,73.868 L204.678,68.313 Z M212.008,64.793 C212.305,64.793 212.547,64.914 212.745,65.156 C212.943,65.398 213.042,65.717 213.042,66.102 C213.042,66.685 212.866,67.191 212.536,67.631 C212.195,68.06 211.733,68.357 211.161,68.522 L211.161,67.796 C211.458,67.686 211.711,67.51 211.909,67.268 C212.107,67.004 212.206,66.751 212.206,66.487 C212.14,66.509 212.052,66.531 211.931,66.531 C211.689,66.531 211.491,66.443 211.337,66.278 C211.161,66.113 211.084,65.904 211.084,65.662 C211.084,65.398 211.161,65.189 211.337,65.035 C211.513,64.87 211.733,64.793 212.008,64.793 Z M217.006,68.159 C218.502,68.159 219.327,68.753 219.459,69.963 L218.238,69.963 C218.15,69.677 218.018,69.468 217.842,69.358 C217.655,69.237 217.369,69.182 216.984,69.182 C216.654,69.182 216.401,69.226 216.236,69.325 C216.038,69.424 215.95,69.578 215.95,69.798 C215.95,69.974 216.093,70.139 216.401,70.271 C216.588,70.348 216.962,70.458 217.534,70.601 C218.172,70.755 218.656,70.931 218.964,71.14 C219.415,71.426 219.646,71.833 219.646,72.339 C219.646,73.549 218.788,74.154 217.083,74.154 C215.499,74.154 214.652,73.483 214.531,72.152 L215.752,72.152 C215.818,72.515 215.95,72.768 216.137,72.922 C216.324,73.054 216.621,73.131 217.039,73.131 C217.919,73.131 218.359,72.889 218.359,72.427 C218.359,72.163 218.194,71.954 217.864,71.8 C217.688,71.712 217.314,71.613 216.742,71.481 C216.071,71.327 215.598,71.162 215.323,70.986 C214.883,70.711 214.663,70.326 214.663,69.831 C214.663,69.303 214.872,68.896 215.312,68.61 C215.741,68.302 216.302,68.159 217.006,68.159 Z M224.109,66.146 L227.365,66.146 C229.257,66.146 230.214,66.949 230.214,68.555 C230.214,70.172 229.257,70.986 227.343,70.986 L225.396,70.986 L225.396,74 L224.109,74 L224.109,66.146 Z M225.396,67.246 L225.396,69.886 L227.266,69.886 C227.838,69.886 228.256,69.776 228.52,69.578 C228.784,69.369 228.916,69.028 228.916,68.555 C228.916,68.082 228.773,67.752 228.509,67.554 C228.245,67.345 227.827,67.246 227.266,67.246 L225.396,67.246 Z M233.694,68.159 C234.552,68.159 235.245,68.434 235.773,69.006 C236.29,69.567 236.554,70.282 236.554,71.162 C236.554,72.031 236.29,72.746 235.784,73.296 C235.256,73.868 234.552,74.154 233.694,74.154 C232.825,74.154 232.132,73.868 231.604,73.296 C231.087,72.746 230.834,72.031 230.834,71.162 C230.834,70.282 231.087,69.567 231.615,69.006 C232.132,68.434 232.825,68.159 233.694,68.159 Z M233.694,69.182 C233.166,69.182 232.77,69.38 232.484,69.798 C232.242,70.15 232.121,70.612 232.121,71.162 C232.121,71.712 232.242,72.163 232.484,72.515 C232.77,72.922 233.166,73.131 233.694,73.131 C234.211,73.131 234.618,72.922 234.904,72.515 C235.146,72.152 235.278,71.701 235.278,71.162 C235.278,70.612 235.146,70.15 234.904,69.798 C234.618,69.38 234.211,69.182 233.694,69.182 Z M236.899,68.313 L238.285,68.313 L239.418,72.515 L240.54,68.313 L241.695,68.313 L242.817,72.515 L243.95,68.313 L245.336,68.313 L243.422,74 L242.256,74 L241.123,69.842 L239.979,74 L238.813,74 L236.899,68.313 Z M248.321,68.159 C249.256,68.159 249.971,68.467 250.466,69.105 C250.917,69.677 251.148,70.48 251.148,71.503 L246.891,71.503 C246.935,72.031 247.078,72.438 247.32,72.713 C247.562,72.988 247.914,73.131 248.365,73.131 C248.75,73.131 249.058,73.043 249.3,72.867 C249.487,72.724 249.652,72.493 249.806,72.174 L251.06,72.174 C250.928,72.702 250.664,73.153 250.268,73.505 C249.762,73.934 249.135,74.154 248.376,74.154 C247.529,74.154 246.858,73.89 246.363,73.373 C245.835,72.834 245.571,72.097 245.571,71.151 C245.571,70.304 245.813,69.6 246.319,69.028 C246.803,68.445 247.474,68.159 248.321,68.159 Z M248.354,69.182 C247.936,69.182 247.617,69.292 247.375,69.534 C247.144,69.765 246.99,70.106 246.913,70.557 L249.839,70.557 C249.729,69.633 249.234,69.182 248.354,69.182 Z M254.672,68.159 C254.947,68.159 255.189,68.203 255.387,68.302 L255.387,69.556 C255.101,69.468 254.837,69.435 254.573,69.435 C254.243,69.435 253.946,69.556 253.682,69.82 C253.374,70.117 253.231,70.502 253.231,70.986 L253.231,74 L251.988,74 L251.988,68.313 L253.231,68.313 L253.231,69.127 C253.385,68.841 253.561,68.621 253.77,68.467 C254.023,68.258 254.32,68.159 254.672,68.159 Z M259.575,66.146 L262.831,66.146 C264.723,66.146 265.68,66.949 265.68,68.555 C265.68,70.172 264.723,70.986 262.809,70.986 L260.862,70.986 L260.862,74 L259.575,74 L259.575,66.146 Z M260.862,67.246 L260.862,69.886 L262.732,69.886 C263.304,69.886 263.722,69.776 263.986,69.578 C264.25,69.369 264.382,69.028 264.382,68.555 C264.382,68.082 264.239,67.752 263.975,67.554 C263.711,67.345 263.293,67.246 262.732,67.246 L260.862,67.246 Z M266.63,65.992 L267.884,65.992 L267.884,74 L266.63,74 L266.63,65.992 Z M271.749,68.159 C272.585,68.159 273.212,68.368 273.608,68.786 C273.96,69.149 274.136,69.677 274.136,70.37 L274.136,74 L272.97,74 L272.97,73.252 C272.75,73.538 272.475,73.747 272.156,73.901 C271.793,74.066 271.364,74.154 270.869,74.154 C270.275,74.154 269.813,74 269.472,73.703 C269.12,73.395 268.944,73.01 268.944,72.537 C268.944,71.899 269.186,71.404 269.692,71.063 C270.154,70.733 270.803,70.557 271.639,70.535 L272.882,70.502 L272.882,70.282 C272.882,69.534 272.475,69.171 271.661,69.171 C271.309,69.171 271.034,69.226 270.825,69.358 C270.583,69.501 270.418,69.721 270.352,70.018 L269.109,69.919 C269.23,69.292 269.538,68.83 270.033,68.544 C270.451,68.28 271.023,68.159 271.749,68.159 Z M272.882,71.404 L271.727,71.437 C270.726,71.459 270.231,71.811 270.231,72.493 C270.231,72.691 270.308,72.856 270.484,72.988 C270.66,73.12 270.88,73.197 271.155,73.197 C271.639,73.197 272.046,73.054 272.376,72.779 C272.706,72.493 272.882,72.13 272.882,71.69 L272.882,71.404 Z M278.243,68.159 C279.662,68.159 280.377,68.929 280.377,70.491 L280.377,74 L279.123,74 L279.123,70.601 C279.123,69.666 278.694,69.204 277.836,69.204 C277.528,69.204 277.253,69.314 277.022,69.534 C276.758,69.776 276.604,70.128 276.56,70.579 L276.56,74 L275.306,74 L275.306,68.313 L276.56,68.313 L276.56,68.973 C276.78,68.709 277.033,68.5 277.308,68.368 C277.594,68.225 277.902,68.159 278.243,68.159 Z M283.329,66.476 L283.329,68.313 L284.594,68.313 L284.594,69.347 L283.329,69.347 L283.329,72.559 C283.329,72.691 283.351,72.79 283.417,72.867 C283.483,72.933 283.571,72.966 283.703,72.966 L284.451,72.966 L284.451,74 L283.494,74 C282.999,74 282.636,73.868 282.405,73.604 C282.185,73.362 282.075,73.021 282.075,72.559 L282.075,69.347 L281.052,69.347 L281.052,68.313 L282.075,68.313 L282.075,66.993 L283.329,66.476 Z" id="ChaileaseEverybody’sPowerPlant" fill="#717171" fill-rule="nonzero"></path>
    </g>
</svg>