<?xml version="1.0" encoding="UTF-8"?>
<svg width="50px" height="52px" viewBox="0 0 50 52" version="1.1" xmlns="http://www.w3.org/2000/svg" xmlns:xlink="http://www.w3.org/1999/xlink">
    <!-- Generator: Sketch 52.3 (67297) - http://www.bohemiancoding.com/sketch -->
    <title>Member Centre_icon_bank no</title>
    <desc>Created with Sketch.</desc>
    <g id="Member-Centre_icon_bank-no" stroke="none" stroke-width="1" fill="none" fill-rule="evenodd">
        <g id="Member-Centre_bank_icon" transform="translate(4.000000, 8.000000)">
            <g id="Group-44">
                <path d="M9.56810572,0 C7.31999659,-3.86727687e-15 5.83028624,0.863636364 5.09897468,2.59090909 C4.36766312,4.31818182 2.68419456,8.92424242 0.0485690098,16.4090909 C-0.235519685,18.1363636 0.726655238,19 2.93509378,19 C5.14353232,19 14.5357422,19 31.1117234,19 C32.3274718,19 33.1619149,18.4242424 33.6150525,17.2727273 C34.0681902,16.1212121 35.5277904,10.9393939 37.9938531,1.72727273 C38.0743269,0.575757576 37.3646452,-5.67566827e-14 35.8648081,0 C34.3649711,5.67786559e-14 25.5994036,5.67786559e-14 9.56810572,0 Z" id="Path-34" stroke="#979797" stroke-width="1.8" fill-rule="nonzero"></path>
                <polygon id="Path-38" fill="#979797" fill-rule="nonzero" points="1 15 34.298536 15 36 10 2.19427543 10.2083333"></polygon>
                <path d="M32.537169,6.73477334 C32.5436869,7.24965014 32.3999912,7.68317719 32.1060775,8.03536749 C31.8121639,8.3875578 31.3932499,8.61290123 30.8493232,8.71140455 L30.8632518,9.81168372 L29.9092929,10.0168079 L29.8330165,8.74012205 C29.4861631,8.69317119 29.1387123,8.59861328 28.7906536,8.45644547 C28.4425949,8.31427766 28.1419223,8.13219785 27.8886268,7.91020057 L28.5393295,6.93516724 C28.829378,7.15060421 29.1040158,7.31294332 29.3632512,7.42218945 C29.6224866,7.53143558 29.8847327,7.58783184 30.1499973,7.59137993 C30.7836848,7.59985591 31.0972203,7.34313279 31.0906131,6.82120288 C31.0876667,6.58845036 30.987603,6.3949502 30.7904192,6.24069662 C30.5932353,6.08644304 30.2870364,5.90428931 29.8718134,5.69422997 C29.5010689,5.50592129 29.1987105,5.33615959 28.9647289,5.18493977 C28.7307474,5.03371995 28.5311887,4.83712604 28.3660469,4.59515213 C28.200905,4.35317822 28.1162371,4.06644756 28.1120407,3.73495153 C28.105612,3.22712784 28.2476219,2.8059189 28.5380746,2.47131209 C28.8285272,2.13670527 29.2310186,1.92348284 29.7455608,1.8316384 L29.7317661,0.741938832 L31.0016702,0.458322707 L30.7621354,1.82408011 C31.374789,1.91689769 31.9199787,2.20978814 32.3977209,2.70276022 L31.6455356,3.51776891 C31.4295288,3.33152995 31.2270225,3.19307401 31.0380107,3.10239695 C30.8489989,3.01171989 30.640285,2.96485441 30.4118627,2.96179912 C29.8371229,2.9541116 29.5528376,3.19359644 29.5589983,3.68026081 C29.5616769,3.89185402 29.6559688,4.0658845 29.8418767,4.20235748 C30.0277847,4.33883046 30.3134304,4.49779091 30.6988225,4.67924359 C31.0768461,4.86059771 31.3883927,5.02871936 31.6334715,5.18361357 C31.8785504,5.33850778 32.0892732,5.54406578 32.2656463,5.80029374 C32.4420194,6.0565217 32.5325261,6.36801178 32.537169,6.73477334 Z" id="$" fill="#8A8A8A" fill-rule="nonzero" transform="translate(30.213004, 5.237565) rotate(12.000000) translate(-30.213004, -5.237565) "></path>
                <path d="M38,1 L38,20.7147097 C37.9353193,22.2382366 37.4125989,23 36.4318387,23 C35.4510785,23 25.3499278,23 6.12838655,23 C4.70946218,22.671304 4,21.9095406 4,20.7147097 C4,19.5198788 4,18.9224634 4,18.9224634" id="Path-35" stroke="#979797" stroke-width="1.8" fill-rule="nonzero"></path>
            </g>
        </g>
        <g id="warning-info-icon" transform="translate(3.000000, 0.000000)">
            <g id="Group-14">
                <circle id="Oval-6" fill="#AE0000" fill-rule="nonzero" cx="8" cy="8" r="8"></circle>
                <text id="!" font-family="Baskerville-Bold, Baskerville" font-size="15" font-weight="bold" fill="#FFFFFF">
                    <tspan x="5.5" y="13">!</tspan>
                </text>
            </g>
        </g>
        <g id="Group-16-Copy-4" transform="translate(0.000000, 36.000000)">
            <rect id="Rectangle-Copy" fill="#AE0000" fill-rule="nonzero" x="0" y="1" width="50" height="14" rx="6"></rect>
            <path d="M8.621,4.443 C8.28,4.883 7.862,5.279 7.378,5.631 L6.751,4.806 C7.521,4.289 8.038,3.651 8.313,2.881 L9.369,3.013 C9.303,3.189 9.248,3.343 9.182,3.497 L12.999,3.497 L12.999,4.289 C12.713,4.872 12.394,5.356 12.053,5.741 L11.283,5.114 C11.47,4.916 11.646,4.696 11.811,4.443 L8.621,4.443 Z M3.858,3.508 L6.608,3.508 L6.608,4.476 L3.858,4.476 L3.858,3.508 Z M3.638,5.488 L6.839,5.488 L6.839,6.467 L3.638,6.467 L3.638,5.488 Z M9.677,4.498 L10.645,4.696 C10.601,4.839 10.557,4.982 10.513,5.114 C11.305,5.818 12.273,6.225 13.428,6.357 L12.966,7.314 C12.68,7.27 12.416,7.204 12.174,7.138 L12.174,11.626 L10.315,11.626 C11.382,11.802 12.405,12.033 13.373,12.319 L12.999,13.232 C11.833,12.825 10.601,12.517 9.325,12.297 L9.666,11.626 L7.191,11.626 L7.631,12.209 C6.817,12.627 5.651,12.968 4.133,13.232 L3.616,12.341 C4.925,12.143 5.948,11.912 6.696,11.626 L4.837,11.626 L4.837,7.017 L7.521,7.017 L7.103,6.357 C8.555,6.104 9.413,5.488 9.677,4.498 Z M8.28,7.017 L11.833,7.017 C11.173,6.753 10.579,6.379 10.073,5.873 C9.644,6.401 9.05,6.775 8.28,7.017 Z M11.052,10.724 L11.052,10.24 L5.959,10.24 L5.959,10.724 L11.052,10.724 Z M5.959,9.514 L11.052,9.514 L11.052,9.074 L5.959,9.074 L5.959,9.514 Z M5.959,8.337 L11.052,8.337 L11.052,7.875 L5.959,7.875 L5.959,8.337 Z M17.036,7.908 L17.036,13.111 L15.903,13.111 L15.903,8.238 C15.595,9.074 15.232,9.855 14.803,10.57 L14.308,9.316 C15.023,8.37 15.551,7.303 15.881,6.104 L14.572,6.104 L14.572,4.993 L15.903,4.993 L15.903,2.969 L17.036,2.969 L17.036,4.993 L18.114,4.993 L18.114,6.104 L17.036,6.104 L17.036,6.566 C17.454,7.017 17.883,7.512 18.301,8.04 C19.148,7.71 19.885,7.336 20.512,6.918 C20.138,6.566 19.83,6.214 19.566,5.851 C19.335,6.126 19.104,6.379 18.862,6.61 L18.125,5.719 C18.851,5.07 19.489,4.146 20.028,2.958 L21.139,3.211 C21.029,3.442 20.93,3.662 20.831,3.871 L23.757,3.871 L23.757,4.751 C23.405,5.565 22.888,6.302 22.217,6.94 C22.921,7.38 23.724,7.743 24.648,8.051 L24.131,9.14 C23.966,9.074 23.812,9.008 23.669,8.942 L23.669,13.122 L22.547,13.122 L22.547,12.737 L19.995,12.737 L19.995,13.122 L18.873,13.122 L18.873,8.986 C18.719,9.052 18.565,9.107 18.411,9.173 L18.092,8.733 L17.795,9.184 C17.509,8.678 17.256,8.26 17.036,7.908 Z M23.504,8.865 C22.69,8.491 21.986,8.084 21.381,7.633 C20.743,8.095 20.006,8.513 19.181,8.865 L23.504,8.865 Z M21.315,6.313 C21.799,5.895 22.195,5.433 22.503,4.949 L20.215,4.949 C20.182,4.993 20.16,5.026 20.138,5.07 C20.457,5.532 20.853,5.939 21.315,6.313 Z M19.995,11.67 L22.547,11.67 L22.547,9.932 L19.995,9.932 L19.995,11.67 Z M25.737,3.442 L35.263,3.442 L35.263,4.564 L31.721,4.564 C31.534,4.971 31.325,5.367 31.094,5.752 L31.094,6.214 C32.821,7.193 34.306,8.26 35.549,9.426 L34.746,10.383 C33.756,9.338 32.535,8.348 31.094,7.424 L31.094,13.166 L29.906,13.166 L29.906,7.369 C28.905,8.491 27.651,9.503 26.155,10.405 L25.396,9.404 C27.772,8.062 29.444,6.456 30.412,4.564 L25.737,4.564 L25.737,3.442 Z M38.332,4.949 C38.046,5.477 37.727,5.95 37.375,6.39 L36.385,5.763 C37.122,4.883 37.639,3.937 37.947,2.936 L39.058,3.178 C38.97,3.442 38.893,3.684 38.805,3.915 L41.379,3.915 L41.379,4.949 L40.147,4.949 C40.323,5.235 40.466,5.499 40.587,5.752 L39.531,6.159 C39.355,5.741 39.168,5.334 38.948,4.949 L38.332,4.949 Z M42.908,4.949 C42.666,5.455 42.402,5.928 42.116,6.357 L41.148,5.73 C41.742,4.85 42.171,3.904 42.413,2.914 L43.535,3.156 C43.458,3.42 43.381,3.673 43.304,3.915 L46.329,3.915 L46.329,4.949 L44.866,4.949 C45.031,5.224 45.174,5.488 45.295,5.73 L44.239,6.126 C44.074,5.73 43.887,5.334 43.678,4.949 L42.908,4.949 Z M38.563,5.917 L39.531,6.368 C39.377,6.786 39.19,7.182 38.981,7.567 L38.981,13.067 L37.848,13.067 L37.848,9.151 C37.54,9.503 37.199,9.855 36.825,10.185 L36.451,8.986 C37.397,8.117 38.101,7.094 38.563,5.917 Z M39.63,7.435 L44.019,7.435 L44.019,6.412 L45.152,6.412 L45.152,7.435 L46.417,7.435 L46.417,8.535 L45.152,8.535 L45.152,11.879 C45.152,12.671 44.767,13.078 43.997,13.078 L42.358,13.078 L42.105,11.978 C42.622,12.022 43.117,12.055 43.579,12.055 C43.865,12.055 44.019,11.901 44.019,11.593 L44.019,8.535 L39.63,8.535 L39.63,7.435 Z M41.236,8.909 C41.907,9.668 42.424,10.328 42.798,10.878 L41.896,11.494 C41.511,10.889 40.994,10.218 40.345,9.47 L41.236,8.909 Z" id="資格不符" fill="#FFFFFF"></path>
        </g>
    </g>
</svg>