<?xml version="1.0" encoding="UTF-8"?>
<svg width="45px" height="68px" viewBox="0 0 45 68" version="1.1" xmlns="http://www.w3.org/2000/svg" xmlns:xlink="http://www.w3.org/1999/xlink">
    <!-- Generator: Sketch 52.3 (67297) - http://www.bohemiancoding.com/sketch -->
    <title>Member Centre_icon_ID not pass</title>
    <desc>Created with Sketch.</desc>
    <g id="Member-Centre_icon_ID-not-pass" stroke="none" stroke-width="1" fill="none" fill-rule="evenodd">
        <g id="Member-Centre_ID_icon" transform="translate(7.000000, 8.000000)" stroke="#979797">
            <g id="Group-5">
                <rect id="Rectangle" stroke-width="1.62" fill-rule="nonzero" x="0.81" y="0.81" width="31.38" height="19.38" rx="1.62"></rect>
                <ellipse id="Oval" stroke-width="0.81" fill="#979797" fill-rule="nonzero" cx="8.85365854" cy="7.26923077" rx="2.41463415" ry="2.42307692"></ellipse>
                <path d="M4.42939024,16.5565385 L13.2779268,16.5565385 L13.2779268,12.93 C13.2779268,11.8116234 12.3713034,10.905 11.2529268,10.905 L6.45439024,10.905 C5.33601363,10.905 4.42939024,11.8116234 4.42939024,12.93 L4.42939024,16.5565385 Z" id="Rectangle" stroke-width="0.81" fill="#979797" fill-rule="nonzero"></path>
                <path d="M16.097561,7.67307692 L28.9756098,7.67307692" id="Path-32" stroke-width="1.62" fill-rule="nonzero"></path>
                <path d="M16.097561,11.3076923 L28.9756098,11.3076923" id="Path-32-Copy" stroke-width="1.62" fill-rule="nonzero"></path>
                <path d="M16.097561,15.3461538 L28.9756098,15.3461538" id="Path-32-Copy-2" stroke-width="1.62" fill-rule="nonzero"></path>
            </g>
        </g>
        <g id="Group-2-Copy" transform="translate(1.000000, 51.000000)">
            <path d="M1.595,3.002 C2.244,3.53 2.794,4.047 3.256,4.575 L2.519,5.312 C2.123,4.828 1.562,4.3 0.836,3.728 L1.595,3.002 Z M0.572,5.62 L3.267,5.62 L3.267,6.511 C2.959,7.061 2.596,7.6 2.178,8.15 L3.586,8.15 L3.586,8.898 C3.399,9.701 3.168,10.361 2.904,10.878 C2.97,10.922 3.036,10.977 3.102,11.043 C3.454,11.362 3.784,11.593 4.092,11.725 C4.411,11.846 4.862,11.912 5.456,11.934 C6.05,11.934 6.732,11.945 7.502,11.945 C8.316,11.945 9.383,11.912 10.692,11.868 L10.428,12.946 L7.645,12.946 C6.897,12.946 6.149,12.924 5.412,12.902 C4.664,12.88 4.103,12.792 3.718,12.649 C3.256,12.473 2.849,12.198 2.475,11.813 C2.398,11.736 2.31,11.703 2.222,11.703 C2.024,11.703 1.683,12.176 1.221,13.144 L0.396,12.374 C0.924,11.362 1.43,10.779 1.914,10.636 C2.156,10.163 2.343,9.657 2.486,9.107 L0.858,9.107 L0.858,8.249 C1.331,7.677 1.727,7.149 2.035,6.654 L0.572,6.654 L0.572,5.62 Z M4.4,6.489 C4.191,6.753 3.971,7.017 3.751,7.259 L3.399,6.159 C4.169,5.213 4.719,4.179 5.027,3.057 L6.083,3.244 C5.973,3.574 5.863,3.904 5.731,4.212 L7.194,4.212 C7.04,3.882 6.864,3.563 6.677,3.255 L7.7,2.969 C7.942,3.409 8.129,3.827 8.272,4.212 L10.175,4.212 L10.175,5.246 L8.25,5.246 L8.25,6.203 L9.845,6.203 L9.845,7.193 L8.25,7.193 L8.25,8.128 L9.856,8.128 L9.856,9.118 L8.25,9.118 L8.25,10.108 L10.274,10.108 L10.274,11.131 L4.4,11.131 L4.4,6.489 Z M7.172,10.108 L7.172,9.118 L5.5,9.118 L5.5,10.108 L7.172,10.108 Z M7.172,8.128 L7.172,7.193 L5.5,7.193 L5.5,8.128 L7.172,8.128 Z M7.172,6.203 L7.172,5.246 L5.5,5.246 L5.5,6.203 L7.172,6.203 Z M15.598,3.541 L21.01,3.541 L21.01,4.674 L15.598,4.674 L15.598,3.541 Z M15.334,6.269 L21.483,6.269 L21.483,7.402 L19.789,7.402 L19.789,12.011 C19.789,12.737 19.382,13.1 18.568,13.1 L16.973,13.1 L16.72,11.978 C17.226,12.022 17.71,12.055 18.172,12.055 C18.469,12.055 18.623,11.945 18.623,11.725 L18.623,7.402 L15.334,7.402 L15.334,6.269 Z M13.684,3.024 L14.729,3.519 C14.146,4.718 13.145,5.807 11.726,6.786 L11.374,5.631 C12.408,4.894 13.178,4.025 13.684,3.024 Z M14.201,5.554 L15.235,6.038 C14.949,6.61 14.586,7.16 14.146,7.688 L14.146,13.144 L13.013,13.144 L13.013,8.821 C12.639,9.129 12.232,9.437 11.814,9.734 L11.462,8.601 C12.694,7.743 13.607,6.72 14.201,5.554 Z M23.716,9.162 C23.397,9.492 23.056,9.833 22.682,10.174 L22.319,9.008 C23.584,7.842 24.442,6.709 24.893,5.609 L22.572,5.609 L22.572,4.564 L23.87,4.564 C23.716,4.102 23.551,3.662 23.364,3.244 L24.475,2.947 C24.695,3.541 24.871,4.08 24.981,4.564 L26.004,4.564 L26.004,5.499 C25.751,6.269 25.366,7.028 24.838,7.787 L24.838,7.853 L25.102,8.051 C25.366,7.809 25.619,7.468 25.872,7.028 L26.521,7.677 C26.279,8.051 26.015,8.348 25.751,8.59 C25.982,8.81 26.213,9.03 26.433,9.272 L25.817,10.229 C25.487,9.767 25.168,9.349 24.838,8.997 L24.838,13.155 L23.716,13.155 L23.716,9.162 Z M26.323,4.168 L28.875,4.168 L28.875,3.002 L29.953,3.002 L29.953,4.168 L31.097,4.168 C30.921,3.915 30.723,3.651 30.503,3.365 L31.284,2.881 C31.603,3.266 31.856,3.607 32.032,3.893 L31.636,4.168 L32.582,4.168 L32.582,5.224 L29.953,5.224 L29.953,5.983 L32.208,5.983 L32.208,11.945 C32.208,12.693 31.856,13.078 31.163,13.078 L30.459,13.078 L30.162,12.044 L30.822,12.088 C31.042,12.088 31.152,11.956 31.152,11.703 L31.152,10.834 L29.953,10.834 L29.953,13.089 L28.875,13.089 L28.875,10.834 L27.72,10.834 L27.72,13.122 L26.664,13.122 L26.664,5.983 L28.875,5.983 L28.875,5.224 L26.323,5.224 L26.323,4.168 Z M28.875,7.017 L27.72,7.017 L27.72,7.919 L28.875,7.919 L28.875,7.017 Z M27.72,8.909 L27.72,9.844 L28.875,9.844 L28.875,8.909 L27.72,8.909 Z M31.152,9.844 L31.152,8.909 L29.953,8.909 L29.953,9.844 L31.152,9.844 Z M31.152,7.919 L31.152,7.017 L29.953,7.017 L29.953,7.919 L31.152,7.919 Z M35.706,2.859 L36.784,3.376 C36.509,4.234 36.157,5.037 35.717,5.807 L35.717,13.144 L34.584,13.144 L34.584,7.479 C34.298,7.831 34.001,8.172 33.693,8.502 L33.308,7.27 C34.386,6.027 35.189,4.553 35.706,2.859 Z M37.565,3.695 L38.687,3.838 C38.61,4.3 38.511,4.751 38.39,5.18 L39.589,5.18 L39.589,3.013 L40.744,3.013 L40.744,5.18 L43.131,5.18 L43.131,6.302 L40.744,6.302 L40.744,8.557 L43.549,8.557 L43.549,9.668 L40.744,9.668 L40.744,13.111 L39.589,13.111 L39.589,9.668 L36.52,9.668 L36.52,8.557 L39.589,8.557 L39.589,6.302 L38.016,6.302 C37.741,6.984 37.411,7.611 37.026,8.172 L36.289,7.215 C36.916,6.258 37.345,5.081 37.565,3.695 Z" id="進行補件" fill="#6F6F6F"></path>
            <path d="M0.73046875,16 L42.71875,16" id="Path-53" stroke="#303030" fill-rule="nonzero"></path>
        </g>
        <g id="Group-16-Copy-3" transform="translate(3.000000, 33.000000)">
            <rect id="Rectangle-Copy" fill="#AE0000" fill-rule="nonzero" x="0" y="1" width="40" height="14" rx="6"></rect>
            <path d="M6.541,2.881 L7.531,3.343 C6.981,4.553 6.046,5.653 4.704,6.643 L4.363,5.543 C5.342,4.795 6.068,3.904 6.541,2.881 Z M6.937,5.422 L7.916,5.884 C7.674,6.434 7.366,6.973 6.992,7.479 L6.992,13.078 L5.881,13.078 L5.881,8.744 C5.54,9.063 5.177,9.371 4.803,9.668 L4.462,8.579 C5.562,7.688 6.387,6.632 6.937,5.422 Z M10.655,2.947 L11.766,2.947 L11.766,4.025 L14.494,4.025 L14.494,5.07 L11.766,5.07 L11.766,6.115 L14.109,6.115 L14.109,7.171 L8.334,7.171 L8.334,6.115 L10.655,6.115 L10.655,5.07 L7.938,5.07 L7.938,4.025 L10.655,4.025 L10.655,2.947 Z M7.916,8.183 L12.107,8.183 L12.107,7.479 L13.251,7.479 L13.251,8.183 L14.406,8.183 L14.406,9.25 L13.251,9.25 L13.251,11.714 C13.251,12.594 12.833,13.034 12.019,13.034 L10.457,13.034 L10.193,11.945 C10.699,11.989 11.172,12.011 11.612,12.011 C11.942,12.011 12.107,11.813 12.107,11.428 L12.107,9.25 L7.916,9.25 L7.916,8.183 Z M9.456,9.47 C10.05,10.064 10.512,10.592 10.831,11.054 L9.94,11.67 C9.599,11.186 9.137,10.636 8.565,10.031 L9.456,9.47 Z M16.716,9.162 C16.397,9.492 16.056,9.833 15.682,10.174 L15.319,9.008 C16.584,7.842 17.442,6.709 17.893,5.609 L15.572,5.609 L15.572,4.564 L16.87,4.564 C16.716,4.102 16.551,3.662 16.364,3.244 L17.475,2.947 C17.695,3.541 17.871,4.08 17.981,4.564 L19.004,4.564 L19.004,5.499 C18.751,6.269 18.366,7.028 17.838,7.787 L17.838,7.853 L18.102,8.051 C18.366,7.809 18.619,7.468 18.872,7.028 L19.521,7.677 C19.279,8.051 19.015,8.348 18.751,8.59 C18.982,8.81 19.213,9.03 19.433,9.272 L18.817,10.229 C18.487,9.767 18.168,9.349 17.838,8.997 L17.838,13.155 L16.716,13.155 L16.716,9.162 Z M19.323,4.168 L21.875,4.168 L21.875,3.002 L22.953,3.002 L22.953,4.168 L24.097,4.168 C23.921,3.915 23.723,3.651 23.503,3.365 L24.284,2.881 C24.603,3.266 24.856,3.607 25.032,3.893 L24.636,4.168 L25.582,4.168 L25.582,5.224 L22.953,5.224 L22.953,5.983 L25.208,5.983 L25.208,11.945 C25.208,12.693 24.856,13.078 24.163,13.078 L23.459,13.078 L23.162,12.044 L23.822,12.088 C24.042,12.088 24.152,11.956 24.152,11.703 L24.152,10.834 L22.953,10.834 L22.953,13.089 L21.875,13.089 L21.875,10.834 L20.72,10.834 L20.72,13.122 L19.664,13.122 L19.664,5.983 L21.875,5.983 L21.875,5.224 L19.323,5.224 L19.323,4.168 Z M21.875,7.017 L20.72,7.017 L20.72,7.919 L21.875,7.919 L21.875,7.017 Z M20.72,8.909 L20.72,9.844 L21.875,9.844 L21.875,8.909 L20.72,8.909 Z M24.152,9.844 L24.152,8.909 L22.953,8.909 L22.953,9.844 L24.152,9.844 Z M24.152,7.919 L24.152,7.017 L22.953,7.017 L22.953,7.919 L24.152,7.919 Z M28.706,2.859 L29.784,3.376 C29.509,4.234 29.157,5.037 28.717,5.807 L28.717,13.144 L27.584,13.144 L27.584,7.479 C27.298,7.831 27.001,8.172 26.693,8.502 L26.308,7.27 C27.386,6.027 28.189,4.553 28.706,2.859 Z M30.565,3.695 L31.687,3.838 C31.61,4.3 31.511,4.751 31.39,5.18 L32.589,5.18 L32.589,3.013 L33.744,3.013 L33.744,5.18 L36.131,5.18 L36.131,6.302 L33.744,6.302 L33.744,8.557 L36.549,8.557 L36.549,9.668 L33.744,9.668 L33.744,13.111 L32.589,13.111 L32.589,9.668 L29.52,9.668 L29.52,8.557 L32.589,8.557 L32.589,6.302 L31.016,6.302 C30.741,6.984 30.411,7.611 30.026,8.172 L29.289,7.215 C29.916,6.258 30.345,5.081 30.565,3.695 Z" id="待補件" fill="#FFFFFF"></path>
        </g>
        <g id="warning-info-icon">
            <g id="Group-14">
                <circle id="Oval-6" fill="#AE0000" fill-rule="nonzero" cx="8" cy="8" r="8"></circle>
                <text id="!" font-family="Baskerville-Bold, Baskerville" font-size="15" font-weight="bold" fill="#FFFFFF">
                    <tspan x="5.5" y="13">!</tspan>
                </text>
            </g>
        </g>
    </g>
</svg>