<?xml version="1.0" encoding="UTF-8"?>
<svg width="40px" height="65px" viewBox="0 0 40 65" version="1.1" xmlns="http://www.w3.org/2000/svg" xmlns:xlink="http://www.w3.org/1999/xlink">
    <!-- Generator: Sketch 52.3 (67297) - http://www.bohemiancoding.com/sketch -->
    <title>Member Centre_icon_phone pass</title>
    <desc>Created with Sketch.</desc>
    <g id="Member-Centre_icon_phone-pass" stroke="none" stroke-width="1" fill="none" fill-rule="evenodd">
        <g id="Member-Centre_phone_icon" transform="translate(10.000000, 8.000000)">
            <g id="Group-13">
                <g id="Group-6" fill-rule="nonzero">
                    <rect id="Rectangle" stroke="#979797" stroke-width="1.62" fill="#979797" x="0.81" y="0.81" width="20.38" height="35.38" rx="2.43"></rect>
                    <rect id="Rectangle" stroke="#FAFAFA" stroke-width="1.215" x="8.75564815" y="32.6741667" width="4.4887037" height="1.25166667" rx="0.625833333"></rect>
                    <path d="M8.96296296,2.87777778 L13.8518519,2.87777778" id="Path-30" stroke="#F8F8F8" stroke-width="1.215"></path>
                </g>
                <rect id="Rectangle" fill="#F9F9F9" fill-rule="nonzero" x="1.62962963" y="4.93333333" width="18.7407407" height="25.4888889"></rect>
            </g>
        </g>
        <g id="Group-11-Copy" transform="translate(0.000000, 50.000000)">
            <g id="Group-15">
                <rect id="Rectangle" fill="#1EB5AC" fill-rule="nonzero" x="0" y="0" width="40" height="14" rx="6"></rect>
                <path d="M12.317,7.161 L5.53,7.161 L5.53,10.098 C5.53,10.494 5.728,10.692 6.124,10.692 L11.591,10.692 C11.767,10.692 11.932,10.626 12.086,10.494 C12.24,10.34 12.339,9.691 12.405,8.569 L13.527,8.921 C13.384,10.329 13.197,11.154 12.977,11.396 C12.713,11.638 12.35,11.77 11.91,11.792 L5.794,11.792 C4.848,11.792 4.386,11.297 4.386,10.307 L4.386,4.609 L5.53,4.609 L5.53,6.061 L11.151,6.061 L11.151,3.553 L3.924,3.553 L3.924,2.453 L12.317,2.453 L12.317,7.161 Z M15.738,4.851 L15.738,5.522 L16.453,5.522 L16.453,4.851 L15.738,4.851 Z M15.738,6.402 L15.738,7.04 L16.453,7.04 L16.453,6.402 L15.738,6.402 Z M17.432,7.04 L18.697,7.04 C18.697,9.526 18.587,10.978 18.389,11.396 C18.191,11.814 17.795,12.023 17.223,12.023 C17.058,12.023 16.882,12.012 16.706,12.001 L16.486,11.077 C16.684,11.11 16.882,11.132 17.058,11.132 C17.454,11.132 17.674,10.923 17.74,10.516 C17.751,10.417 17.762,10.296 17.784,10.164 L17.333,10.34 C17.234,9.68 17.113,9.031 16.981,8.404 L17.487,8.261 C17.619,8.833 17.718,9.361 17.806,9.845 C17.828,9.383 17.839,8.767 17.839,8.008 L14.748,8.008 L14.748,2.31 L18.675,2.31 L18.675,3.289 L17.432,3.289 L17.432,3.971 L18.367,3.971 L18.367,4.851 L17.432,4.851 L17.432,5.522 L18.367,5.522 L18.367,6.402 L17.432,6.402 L17.432,7.04 Z M16.453,3.289 L15.738,3.289 L15.738,3.971 L16.453,3.971 L16.453,3.289 Z M16.739,8.393 C16.871,9.064 16.981,9.79 17.08,10.582 L16.486,10.725 C16.409,9.889 16.321,9.141 16.211,8.503 L16.739,8.393 Z M16.002,8.459 C16.068,9.119 16.123,10.021 16.156,11.165 L15.496,11.253 C15.485,10.076 15.463,9.163 15.43,8.525 L16.002,8.459 Z M14.627,8.382 L15.232,8.459 C15.199,9.625 15.122,10.659 14.99,11.561 L14.341,11.363 C14.495,10.494 14.583,9.504 14.627,8.382 Z M20.358,10.659 C20.039,11.264 19.676,11.77 19.28,12.177 L18.466,11.462 C19.17,10.78 19.698,9.878 20.028,8.756 L20.985,9.141 C20.908,9.361 20.831,9.559 20.765,9.757 C21.062,10.032 21.326,10.307 21.546,10.582 L20.842,11.286 C20.71,11.077 20.545,10.868 20.358,10.659 Z M22.877,10.78 C22.569,11.33 22.228,11.803 21.843,12.177 L21.04,11.462 C21.744,10.802 22.261,9.911 22.602,8.8 L23.559,9.185 C23.471,9.427 23.394,9.658 23.306,9.878 C23.834,10.395 24.285,10.912 24.659,11.418 L23.922,12.166 C23.658,11.726 23.306,11.264 22.877,10.78 Z M19.863,4.851 C19.621,5.027 19.379,5.181 19.126,5.324 L18.543,4.433 C19.654,3.817 20.512,3.025 21.117,2.035 L22.03,2.035 C22.536,2.915 23.416,3.696 24.659,4.378 L24.076,5.269 C23.779,5.104 23.504,4.939 23.251,4.763 L23.251,5.192 L19.863,5.192 L19.863,4.851 Z M22.624,4.268 C22.195,3.872 21.843,3.465 21.568,3.025 C21.26,3.487 20.919,3.905 20.556,4.268 L22.624,4.268 Z M19.049,5.731 L21.447,5.731 L21.447,8.69 L19.049,8.69 L19.049,5.731 Z M20.567,7.854 L20.567,6.578 L19.929,6.578 L19.929,7.854 L20.567,7.854 Z M21.766,5.731 L24.153,5.731 L24.153,8.69 L21.766,8.69 L21.766,5.731 Z M23.273,7.854 L23.273,6.578 L22.646,6.578 L22.646,7.854 L23.273,7.854 Z M26.837,11.539 L26.837,12.111 L25.737,12.111 L25.737,8.063 L28.938,8.063 L28.938,11.968 L27.849,11.968 L27.849,11.539 L26.837,11.539 Z M27.849,10.483 L27.849,9.108 L26.837,9.108 L26.837,10.483 L27.849,10.483 Z M27.486,1.925 C27.64,2.387 27.772,2.794 27.86,3.168 L29.213,3.168 L29.213,4.235 L25.539,4.235 L25.539,3.168 L26.771,3.168 C26.661,2.849 26.529,2.53 26.397,2.222 L27.486,1.925 Z M25.814,4.862 L28.872,4.862 L28.872,5.874 L25.814,5.874 L25.814,4.862 Z M25.814,6.424 L28.872,6.424 L28.872,7.436 L25.814,7.436 L25.814,6.424 Z M29.906,6.809 L34.768,6.809 L34.768,9.625 L29.906,9.625 L29.906,6.809 Z M33.69,8.679 L33.69,7.744 L30.984,7.744 L30.984,8.679 L33.69,8.679 Z M29.378,10.945 L30.797,10.945 C30.632,10.637 30.445,10.351 30.247,10.087 L31.27,9.702 C31.501,10.054 31.71,10.472 31.908,10.945 L32.887,10.945 C33.107,10.549 33.316,10.142 33.492,9.713 L34.515,10.076 C34.361,10.395 34.185,10.681 34.009,10.945 L35.395,10.945 L35.395,11.968 L29.378,11.968 L29.378,10.945 Z M30.962,5.544 C30.577,6.006 30.137,6.391 29.631,6.721 L28.971,5.863 C29.433,5.588 29.84,5.269 30.192,4.906 C29.95,4.664 29.675,4.433 29.356,4.191 L30.049,3.531 C30.313,3.74 30.544,3.949 30.764,4.169 C30.94,3.872 31.094,3.564 31.215,3.245 L29.675,3.245 L29.675,2.277 L32.172,2.277 L32.172,3.08 C31.974,3.828 31.699,4.488 31.325,5.06 L33.635,5.06 C33.118,4.268 32.722,3.399 32.447,2.442 L33.261,1.991 C33.327,2.244 33.415,2.486 33.503,2.728 C33.745,2.486 33.954,2.233 34.13,1.969 L34.867,2.618 C34.581,2.981 34.262,3.3 33.888,3.586 C33.976,3.751 34.064,3.916 34.163,4.081 C34.449,3.806 34.702,3.509 34.922,3.179 L35.659,3.828 C35.384,4.202 35.065,4.532 34.713,4.84 C35.01,5.192 35.329,5.511 35.681,5.797 L34.977,6.611 C34.548,6.226 34.174,5.808 33.855,5.368 L33.855,6.05 L30.962,6.05 L30.962,5.544 Z" id="已驗證" fill="#FFFFFF"></path>
            </g>
        </g>
        <g id="success-info-icon" transform="translate(2.000000, 0.000000)" fill-rule="nonzero">
            <circle id="Oval-6" fill="#1EB5AC" cx="8" cy="8" r="8"></circle>
            <polyline id="Path-14" stroke="#FFFFFF" stroke-width="1.5552" stroke-linecap="round" stroke-linejoin="round" points="5.06666667 7.8251917 7.08972146 9.97298246 10.8203509 5.86666667"></polyline>
        </g>
    </g>
</svg>