<?xml version="1.0" encoding="UTF-8"?>
<svg width="50px" height="49px" viewBox="0 0 50 49" version="1.1" xmlns="http://www.w3.org/2000/svg" xmlns:xlink="http://www.w3.org/1999/xlink">
    <!-- Generator: Sketch 52.3 (67297) - http://www.bohemiancoding.com/sketch -->
    <title>Member Centre_icon_ID no</title>
    <desc>Created with Sketch.</desc>
    <g id="Member-Centre_icon_ID-no" stroke="none" stroke-width="1" fill="none" fill-rule="evenodd">
        <g id="Member-Centre_ID_icon" transform="translate(9.000000, 8.000000)" stroke="#979797">
            <g id="Group-5">
                <rect id="Rectangle" stroke-width="1.62" fill-rule="nonzero" x="0.81" y="0.81" width="31.38" height="19.38" rx="1.62"></rect>
                <ellipse id="Oval" stroke-width="0.81" fill="#979797" fill-rule="nonzero" cx="8.85365854" cy="7.26923077" rx="2.41463415" ry="2.42307692"></ellipse>
                <path d="M4.42939024,16.5565385 L13.2779268,16.5565385 L13.2779268,12.93 C13.2779268,11.8116234 12.3713034,10.905 11.2529268,10.905 L6.45439024,10.905 C5.33601363,10.905 4.42939024,11.8116234 4.42939024,12.93 L4.42939024,16.5565385 Z" id="Rectangle" stroke-width="0.81" fill="#979797" fill-rule="nonzero"></path>
                <path d="M16.097561,7.67307692 L28.9756098,7.67307692" id="Path-32" stroke-width="1.62" fill-rule="nonzero"></path>
                <path d="M16.097561,11.3076923 L28.9756098,11.3076923" id="Path-32-Copy" stroke-width="1.62" fill-rule="nonzero"></path>
                <path d="M16.097561,15.3461538 L28.9756098,15.3461538" id="Path-32-Copy-2" stroke-width="1.62" fill-rule="nonzero"></path>
            </g>
        </g>
        <g id="warning-info-icon" transform="translate(2.000000, 0.000000)">
            <g id="Group-14">
                <circle id="Oval-6" fill="#AE0000" fill-rule="nonzero" cx="8" cy="8" r="8"></circle>
                <text id="!" font-family="Baskerville-Bold, Baskerville" font-size="15" font-weight="bold" fill="#FFFFFF">
                    <tspan x="5.5" y="13">!</tspan>
                </text>
            </g>
        </g>
        <g id="Group-16-Copy-3" transform="translate(0.000000, 33.000000)">
            <rect id="Rectangle-Copy" fill="#AE0000" fill-rule="nonzero" x="0" y="1" width="50" height="14" rx="6"></rect>
            <path d="M8.621,4.443 C8.28,4.883 7.862,5.279 7.378,5.631 L6.751,4.806 C7.521,4.289 8.038,3.651 8.313,2.881 L9.369,3.013 C9.303,3.189 9.248,3.343 9.182,3.497 L12.999,3.497 L12.999,4.289 C12.713,4.872 12.394,5.356 12.053,5.741 L11.283,5.114 C11.47,4.916 11.646,4.696 11.811,4.443 L8.621,4.443 Z M3.858,3.508 L6.608,3.508 L6.608,4.476 L3.858,4.476 L3.858,3.508 Z M3.638,5.488 L6.839,5.488 L6.839,6.467 L3.638,6.467 L3.638,5.488 Z M9.677,4.498 L10.645,4.696 C10.601,4.839 10.557,4.982 10.513,5.114 C11.305,5.818 12.273,6.225 13.428,6.357 L12.966,7.314 C12.68,7.27 12.416,7.204 12.174,7.138 L12.174,11.626 L10.315,11.626 C11.382,11.802 12.405,12.033 13.373,12.319 L12.999,13.232 C11.833,12.825 10.601,12.517 9.325,12.297 L9.666,11.626 L7.191,11.626 L7.631,12.209 C6.817,12.627 5.651,12.968 4.133,13.232 L3.616,12.341 C4.925,12.143 5.948,11.912 6.696,11.626 L4.837,11.626 L4.837,7.017 L7.521,7.017 L7.103,6.357 C8.555,6.104 9.413,5.488 9.677,4.498 Z M8.28,7.017 L11.833,7.017 C11.173,6.753 10.579,6.379 10.073,5.873 C9.644,6.401 9.05,6.775 8.28,7.017 Z M11.052,10.724 L11.052,10.24 L5.959,10.24 L5.959,10.724 L11.052,10.724 Z M5.959,9.514 L11.052,9.514 L11.052,9.074 L5.959,9.074 L5.959,9.514 Z M5.959,8.337 L11.052,8.337 L11.052,7.875 L5.959,7.875 L5.959,8.337 Z M17.036,7.908 L17.036,13.111 L15.903,13.111 L15.903,8.238 C15.595,9.074 15.232,9.855 14.803,10.57 L14.308,9.316 C15.023,8.37 15.551,7.303 15.881,6.104 L14.572,6.104 L14.572,4.993 L15.903,4.993 L15.903,2.969 L17.036,2.969 L17.036,4.993 L18.114,4.993 L18.114,6.104 L17.036,6.104 L17.036,6.566 C17.454,7.017 17.883,7.512 18.301,8.04 C19.148,7.71 19.885,7.336 20.512,6.918 C20.138,6.566 19.83,6.214 19.566,5.851 C19.335,6.126 19.104,6.379 18.862,6.61 L18.125,5.719 C18.851,5.07 19.489,4.146 20.028,2.958 L21.139,3.211 C21.029,3.442 20.93,3.662 20.831,3.871 L23.757,3.871 L23.757,4.751 C23.405,5.565 22.888,6.302 22.217,6.94 C22.921,7.38 23.724,7.743 24.648,8.051 L24.131,9.14 C23.966,9.074 23.812,9.008 23.669,8.942 L23.669,13.122 L22.547,13.122 L22.547,12.737 L19.995,12.737 L19.995,13.122 L18.873,13.122 L18.873,8.986 C18.719,9.052 18.565,9.107 18.411,9.173 L18.092,8.733 L17.795,9.184 C17.509,8.678 17.256,8.26 17.036,7.908 Z M23.504,8.865 C22.69,8.491 21.986,8.084 21.381,7.633 C20.743,8.095 20.006,8.513 19.181,8.865 L23.504,8.865 Z M21.315,6.313 C21.799,5.895 22.195,5.433 22.503,4.949 L20.215,4.949 C20.182,4.993 20.16,5.026 20.138,5.07 C20.457,5.532 20.853,5.939 21.315,6.313 Z M19.995,11.67 L22.547,11.67 L22.547,9.932 L19.995,9.932 L19.995,11.67 Z M25.737,3.442 L35.263,3.442 L35.263,4.564 L31.721,4.564 C31.534,4.971 31.325,5.367 31.094,5.752 L31.094,6.214 C32.821,7.193 34.306,8.26 35.549,9.426 L34.746,10.383 C33.756,9.338 32.535,8.348 31.094,7.424 L31.094,13.166 L29.906,13.166 L29.906,7.369 C28.905,8.491 27.651,9.503 26.155,10.405 L25.396,9.404 C27.772,8.062 29.444,6.456 30.412,4.564 L25.737,4.564 L25.737,3.442 Z M38.332,4.949 C38.046,5.477 37.727,5.95 37.375,6.39 L36.385,5.763 C37.122,4.883 37.639,3.937 37.947,2.936 L39.058,3.178 C38.97,3.442 38.893,3.684 38.805,3.915 L41.379,3.915 L41.379,4.949 L40.147,4.949 C40.323,5.235 40.466,5.499 40.587,5.752 L39.531,6.159 C39.355,5.741 39.168,5.334 38.948,4.949 L38.332,4.949 Z M42.908,4.949 C42.666,5.455 42.402,5.928 42.116,6.357 L41.148,5.73 C41.742,4.85 42.171,3.904 42.413,2.914 L43.535,3.156 C43.458,3.42 43.381,3.673 43.304,3.915 L46.329,3.915 L46.329,4.949 L44.866,4.949 C45.031,5.224 45.174,5.488 45.295,5.73 L44.239,6.126 C44.074,5.73 43.887,5.334 43.678,4.949 L42.908,4.949 Z M38.563,5.917 L39.531,6.368 C39.377,6.786 39.19,7.182 38.981,7.567 L38.981,13.067 L37.848,13.067 L37.848,9.151 C37.54,9.503 37.199,9.855 36.825,10.185 L36.451,8.986 C37.397,8.117 38.101,7.094 38.563,5.917 Z M39.63,7.435 L44.019,7.435 L44.019,6.412 L45.152,6.412 L45.152,7.435 L46.417,7.435 L46.417,8.535 L45.152,8.535 L45.152,11.879 C45.152,12.671 44.767,13.078 43.997,13.078 L42.358,13.078 L42.105,11.978 C42.622,12.022 43.117,12.055 43.579,12.055 C43.865,12.055 44.019,11.901 44.019,11.593 L44.019,8.535 L39.63,8.535 L39.63,7.435 Z M41.236,8.909 C41.907,9.668 42.424,10.328 42.798,10.878 L41.896,11.494 C41.511,10.889 40.994,10.218 40.345,9.47 L41.236,8.909 Z" id="資格不符" fill="#FFFFFF"></path>
        </g>
    </g>
</svg>