<?xml version="1.0" encoding="UTF-8"?>
<svg width="45px" height="71px" viewBox="0 0 45 71" version="1.1" xmlns="http://www.w3.org/2000/svg" xmlns:xlink="http://www.w3.org/1999/xlink">
    <!-- Generator: Sketch 52.3 (67297) - http://www.bohemiancoding.com/sketch -->
    <title>Member Centre_icon_bank not pass</title>
    <desc>Created with Sketch.</desc>
    <g id="Member-Centre_icon_bank-not-pass" stroke="none" stroke-width="1" fill="none" fill-rule="evenodd">
        <g id="Member-Centre_bank_icon" transform="translate(1.000000, 8.000000)">
            <g id="Group-44">
                <path d="M9.56810572,0 C7.31999659,-3.86727687e-15 5.83028624,0.863636364 5.09897468,2.59090909 C4.36766312,4.31818182 2.68419456,8.92424242 0.0485690098,16.4090909 C-0.235519685,18.1363636 0.726655238,19 2.93509378,19 C5.14353232,19 14.5357422,19 31.1117234,19 C32.3274718,19 33.1619149,18.4242424 33.6150525,17.2727273 C34.0681902,16.1212121 35.5277904,10.9393939 37.9938531,1.72727273 C38.0743269,0.575757576 37.3646452,-5.67566827e-14 35.8648081,0 C34.3649711,5.67786559e-14 25.5994036,5.67786559e-14 9.56810572,0 Z" id="Path-34" stroke="#979797" stroke-width="1.8" fill-rule="nonzero"></path>
                <polygon id="Path-38" fill="#979797" fill-rule="nonzero" points="1 15 34.298536 15 36 10 2.19427543 10.2083333"></polygon>
                <path d="M32.537169,6.73477334 C32.5436869,7.24965014 32.3999912,7.68317719 32.1060775,8.03536749 C31.8121639,8.3875578 31.3932499,8.61290123 30.8493232,8.71140455 L30.8632518,9.81168372 L29.9092929,10.0168079 L29.8330165,8.74012205 C29.4861631,8.69317119 29.1387123,8.59861328 28.7906536,8.45644547 C28.4425949,8.31427766 28.1419223,8.13219785 27.8886268,7.91020057 L28.5393295,6.93516724 C28.829378,7.15060421 29.1040158,7.31294332 29.3632512,7.42218945 C29.6224866,7.53143558 29.8847327,7.58783184 30.1499973,7.59137993 C30.7836848,7.59985591 31.0972203,7.34313279 31.0906131,6.82120288 C31.0876667,6.58845036 30.987603,6.3949502 30.7904192,6.24069662 C30.5932353,6.08644304 30.2870364,5.90428931 29.8718134,5.69422997 C29.5010689,5.50592129 29.1987105,5.33615959 28.9647289,5.18493977 C28.7307474,5.03371995 28.5311887,4.83712604 28.3660469,4.59515213 C28.200905,4.35317822 28.1162371,4.06644756 28.1120407,3.73495153 C28.105612,3.22712784 28.2476219,2.8059189 28.5380746,2.47131209 C28.8285272,2.13670527 29.2310186,1.92348284 29.7455608,1.8316384 L29.7317661,0.741938832 L31.0016702,0.458322707 L30.7621354,1.82408011 C31.374789,1.91689769 31.9199787,2.20978814 32.3977209,2.70276022 L31.6455356,3.51776891 C31.4295288,3.33152995 31.2270225,3.19307401 31.0380107,3.10239695 C30.8489989,3.01171989 30.640285,2.96485441 30.4118627,2.96179912 C29.8371229,2.9541116 29.5528376,3.19359644 29.5589983,3.68026081 C29.5616769,3.89185402 29.6559688,4.0658845 29.8418767,4.20235748 C30.0277847,4.33883046 30.3134304,4.49779091 30.6988225,4.67924359 C31.0768461,4.86059771 31.3883927,5.02871936 31.6334715,5.18361357 C31.8785504,5.33850778 32.0892732,5.54406578 32.2656463,5.80029374 C32.4420194,6.0565217 32.5325261,6.36801178 32.537169,6.73477334 Z" id="$" fill="#8A8A8A" fill-rule="nonzero" transform="translate(30.213004, 5.237565) rotate(12.000000) translate(-30.213004, -5.237565) "></path>
                <path d="M38,1 L38,20.7147097 C37.9353193,22.2382366 37.4125989,23 36.4318387,23 C35.4510785,23 25.3499278,23 6.12838655,23 C4.70946218,22.671304 4,21.9095406 4,20.7147097 C4,19.5198788 4,18.9224634 4,18.9224634" id="Path-35" stroke="#979797" stroke-width="1.8" fill-rule="nonzero"></path>
            </g>
        </g>
        <g id="Group-16" transform="translate(3.000000, 36.000000)">
            <rect id="Rectangle-Copy" fill="#AE0000" fill-rule="nonzero" x="0" y="1" width="40" height="14" rx="6"></rect>
            <path d="M8.917,3.002 L10.083,3.002 L10.083,4.388 L13.735,4.388 L13.735,5.51 L10.083,5.51 L10.083,7.105 L14.318,7.105 L14.318,8.227 L11.007,8.227 C11.733,9.481 12.932,10.603 14.593,11.593 L13.779,12.627 C12.041,11.307 10.82,9.833 10.105,8.227 L10.083,8.227 L10.083,13.122 L8.917,13.122 L8.917,8.227 L8.906,8.227 C8.125,10.009 6.86,11.483 5.111,12.638 L4.451,11.549 C6.035,10.669 7.223,9.569 7.993,8.227 L4.682,8.227 L4.682,7.105 L8.917,7.105 L8.917,5.51 L5.342,5.51 L5.342,4.388 L8.917,4.388 L8.917,3.002 Z M25.043,3.673 L25.043,5.939 L23.932,5.939 L23.932,4.674 L17.068,4.674 L17.068,5.939 L15.957,5.939 L15.957,3.673 L19.796,3.673 C19.708,3.497 19.609,3.332 19.51,3.178 L20.753,2.98 C20.841,3.189 20.94,3.42 21.028,3.673 L25.043,3.673 Z M19.983,9.954 L18.135,9.954 L18.135,10.482 L19.983,10.482 L19.983,9.954 Z M19.983,11.318 L18.135,11.318 L18.135,11.846 L19.983,11.846 L19.983,11.318 Z M21.083,11.846 L22.876,11.846 L22.876,11.318 L21.083,11.318 L21.083,11.846 Z M22.876,12.748 L18.135,12.748 L18.135,13.133 L17.024,13.133 L17.024,9.635 C16.672,9.767 16.32,9.888 15.957,9.998 L15.352,9.019 C16.804,8.711 17.926,8.326 18.718,7.875 L15.968,7.875 L15.968,6.907 L17.607,6.907 C17.497,6.742 17.387,6.588 17.266,6.434 L18.113,6.115 L17.519,6.115 L17.211,5.224 C19.609,5.224 21.644,5.081 23.316,4.806 L23.811,5.642 C23.019,5.796 22.095,5.917 21.05,5.994 L21.05,6.907 L22.15,6.907 C22.392,6.577 22.601,6.225 22.788,5.873 L23.734,6.203 C23.591,6.456 23.437,6.687 23.283,6.907 L25.021,6.907 L25.021,7.875 L22.601,7.875 C23.723,8.326 24.713,8.81 25.593,9.316 L24.856,10.207 C24.57,9.987 24.284,9.778 23.987,9.58 L23.987,13.144 L22.876,13.144 L22.876,12.748 Z M23.129,9.052 C22.491,8.678 21.798,8.315 21.05,7.985 L21.05,8.854 L19.95,8.854 L19.95,7.897 C19.521,8.315 18.982,8.7 18.333,9.052 L23.129,9.052 Z M18.773,6.907 L19.95,6.907 L19.95,6.06 C19.4,6.082 18.828,6.104 18.256,6.115 C18.443,6.357 18.619,6.621 18.773,6.907 Z M21.083,10.482 L22.876,10.482 L22.876,9.954 L21.083,9.954 L21.083,10.482 Z M29.047,7.963 L29.047,13.144 L27.936,13.144 L27.936,8.271 C27.628,9.14 27.265,9.943 26.825,10.691 L26.341,9.503 C27.045,8.513 27.562,7.369 27.892,6.093 L26.539,6.093 L26.539,5.004 L27.936,5.004 L27.936,2.98 L29.047,2.98 L29.047,5.004 L30.224,5.004 L30.224,6.093 L29.047,6.093 L29.047,6.654 C29.531,7.182 30.037,7.787 30.543,8.447 L29.894,9.437 C29.564,8.854 29.289,8.359 29.047,7.963 Z M30.4,4.058 L32.952,4.058 C32.809,3.728 32.655,3.42 32.49,3.145 L33.667,2.947 C33.81,3.277 33.942,3.651 34.074,4.058 L36.45,4.058 L36.45,5.103 L33.436,5.103 C32.93,5.983 32.479,6.632 32.083,7.072 C32.644,7.039 33.205,6.995 33.755,6.951 C34.019,6.577 34.25,6.181 34.47,5.763 L35.394,6.258 C34.294,8.447 32.688,9.932 30.565,10.724 L29.938,9.778 C31.115,9.371 32.116,8.755 32.941,7.919 L30.807,8.018 L30.576,7.094 C30.675,7.061 30.741,7.028 30.785,6.995 C31.17,6.753 31.665,6.115 32.259,5.103 L30.4,5.103 L30.4,4.058 Z M33.975,11.076 C32.952,11.978 31.764,12.671 30.422,13.144 L29.784,12.165 C32.325,11.34 34.228,9.745 35.482,7.391 L36.439,7.886 C35.933,8.832 35.35,9.668 34.69,10.383 C35.416,11.021 36.054,11.67 36.582,12.308 L35.746,13.144 C35.306,12.484 34.723,11.802 33.975,11.076 Z" id="未審核" fill="#FFFFFF"></path>
        </g>
        <g id="Group-2-Copy-2" transform="translate(1.000000, 54.000000)">
            <path d="M1.595,3.002 C2.244,3.53 2.794,4.047 3.256,4.575 L2.519,5.312 C2.123,4.828 1.562,4.3 0.836,3.728 L1.595,3.002 Z M0.572,5.62 L3.267,5.62 L3.267,6.511 C2.959,7.061 2.596,7.6 2.178,8.15 L3.586,8.15 L3.586,8.898 C3.399,9.701 3.168,10.361 2.904,10.878 C2.97,10.922 3.036,10.977 3.102,11.043 C3.454,11.362 3.784,11.593 4.092,11.725 C4.411,11.846 4.862,11.912 5.456,11.934 C6.05,11.934 6.732,11.945 7.502,11.945 C8.316,11.945 9.383,11.912 10.692,11.868 L10.428,12.946 L7.645,12.946 C6.897,12.946 6.149,12.924 5.412,12.902 C4.664,12.88 4.103,12.792 3.718,12.649 C3.256,12.473 2.849,12.198 2.475,11.813 C2.398,11.736 2.31,11.703 2.222,11.703 C2.024,11.703 1.683,12.176 1.221,13.144 L0.396,12.374 C0.924,11.362 1.43,10.779 1.914,10.636 C2.156,10.163 2.343,9.657 2.486,9.107 L0.858,9.107 L0.858,8.249 C1.331,7.677 1.727,7.149 2.035,6.654 L0.572,6.654 L0.572,5.62 Z M4.4,6.489 C4.191,6.753 3.971,7.017 3.751,7.259 L3.399,6.159 C4.169,5.213 4.719,4.179 5.027,3.057 L6.083,3.244 C5.973,3.574 5.863,3.904 5.731,4.212 L7.194,4.212 C7.04,3.882 6.864,3.563 6.677,3.255 L7.7,2.969 C7.942,3.409 8.129,3.827 8.272,4.212 L10.175,4.212 L10.175,5.246 L8.25,5.246 L8.25,6.203 L9.845,6.203 L9.845,7.193 L8.25,7.193 L8.25,8.128 L9.856,8.128 L9.856,9.118 L8.25,9.118 L8.25,10.108 L10.274,10.108 L10.274,11.131 L4.4,11.131 L4.4,6.489 Z M7.172,10.108 L7.172,9.118 L5.5,9.118 L5.5,10.108 L7.172,10.108 Z M7.172,8.128 L7.172,7.193 L5.5,7.193 L5.5,8.128 L7.172,8.128 Z M7.172,6.203 L7.172,5.246 L5.5,5.246 L5.5,6.203 L7.172,6.203 Z M15.598,3.541 L21.01,3.541 L21.01,4.674 L15.598,4.674 L15.598,3.541 Z M15.334,6.269 L21.483,6.269 L21.483,7.402 L19.789,7.402 L19.789,12.011 C19.789,12.737 19.382,13.1 18.568,13.1 L16.973,13.1 L16.72,11.978 C17.226,12.022 17.71,12.055 18.172,12.055 C18.469,12.055 18.623,11.945 18.623,11.725 L18.623,7.402 L15.334,7.402 L15.334,6.269 Z M13.684,3.024 L14.729,3.519 C14.146,4.718 13.145,5.807 11.726,6.786 L11.374,5.631 C12.408,4.894 13.178,4.025 13.684,3.024 Z M14.201,5.554 L15.235,6.038 C14.949,6.61 14.586,7.16 14.146,7.688 L14.146,13.144 L13.013,13.144 L13.013,8.821 C12.639,9.129 12.232,9.437 11.814,9.734 L11.462,8.601 C12.694,7.743 13.607,6.72 14.201,5.554 Z M23.716,9.162 C23.397,9.492 23.056,9.833 22.682,10.174 L22.319,9.008 C23.584,7.842 24.442,6.709 24.893,5.609 L22.572,5.609 L22.572,4.564 L23.87,4.564 C23.716,4.102 23.551,3.662 23.364,3.244 L24.475,2.947 C24.695,3.541 24.871,4.08 24.981,4.564 L26.004,4.564 L26.004,5.499 C25.751,6.269 25.366,7.028 24.838,7.787 L24.838,7.853 L25.102,8.051 C25.366,7.809 25.619,7.468 25.872,7.028 L26.521,7.677 C26.279,8.051 26.015,8.348 25.751,8.59 C25.982,8.81 26.213,9.03 26.433,9.272 L25.817,10.229 C25.487,9.767 25.168,9.349 24.838,8.997 L24.838,13.155 L23.716,13.155 L23.716,9.162 Z M26.323,4.168 L28.875,4.168 L28.875,3.002 L29.953,3.002 L29.953,4.168 L31.097,4.168 C30.921,3.915 30.723,3.651 30.503,3.365 L31.284,2.881 C31.603,3.266 31.856,3.607 32.032,3.893 L31.636,4.168 L32.582,4.168 L32.582,5.224 L29.953,5.224 L29.953,5.983 L32.208,5.983 L32.208,11.945 C32.208,12.693 31.856,13.078 31.163,13.078 L30.459,13.078 L30.162,12.044 L30.822,12.088 C31.042,12.088 31.152,11.956 31.152,11.703 L31.152,10.834 L29.953,10.834 L29.953,13.089 L28.875,13.089 L28.875,10.834 L27.72,10.834 L27.72,13.122 L26.664,13.122 L26.664,5.983 L28.875,5.983 L28.875,5.224 L26.323,5.224 L26.323,4.168 Z M28.875,7.017 L27.72,7.017 L27.72,7.919 L28.875,7.919 L28.875,7.017 Z M27.72,8.909 L27.72,9.844 L28.875,9.844 L28.875,8.909 L27.72,8.909 Z M31.152,9.844 L31.152,8.909 L29.953,8.909 L29.953,9.844 L31.152,9.844 Z M31.152,7.919 L31.152,7.017 L29.953,7.017 L29.953,7.919 L31.152,7.919 Z M35.706,2.859 L36.784,3.376 C36.509,4.234 36.157,5.037 35.717,5.807 L35.717,13.144 L34.584,13.144 L34.584,7.479 C34.298,7.831 34.001,8.172 33.693,8.502 L33.308,7.27 C34.386,6.027 35.189,4.553 35.706,2.859 Z M37.565,3.695 L38.687,3.838 C38.61,4.3 38.511,4.751 38.39,5.18 L39.589,5.18 L39.589,3.013 L40.744,3.013 L40.744,5.18 L43.131,5.18 L43.131,6.302 L40.744,6.302 L40.744,8.557 L43.549,8.557 L43.549,9.668 L40.744,9.668 L40.744,13.111 L39.589,13.111 L39.589,9.668 L36.52,9.668 L36.52,8.557 L39.589,8.557 L39.589,6.302 L38.016,6.302 C37.741,6.984 37.411,7.611 37.026,8.172 L36.289,7.215 C36.916,6.258 37.345,5.081 37.565,3.695 Z" id="進行補件" fill="#6F6F6F"></path>
            <path d="M0.73046875,16 L42.71875,16" id="Path-53" stroke="#303030" fill-rule="nonzero"></path>
        </g>
        <g id="warning-info-icon">
            <g id="Group-14">
                <circle id="Oval-6" fill="#AE0000" fill-rule="nonzero" cx="8" cy="8" r="8"></circle>
                <text id="!" font-family="Baskerville-Bold, Baskerville" font-size="15" font-weight="bold" fill="#FFFFFF">
                    <tspan x="5.5" y="13">!</tspan>
                </text>
            </g>
        </g>
    </g>
</svg>