<?xml version="1.0" encoding="UTF-8"?>
<svg width="23px" height="66px" viewBox="0 0 23 66" version="1.1" xmlns="http://www.w3.org/2000/svg" xmlns:xlink="http://www.w3.org/1999/xlink">
    <!-- Generator: Sketch 52.3 (67297) - http://www.bohemiancoding.com/sketch -->
    <title>Member center_power plant_icon02</title>
    <desc>Created with Sketch.</desc>
    <defs>
        <linearGradient x1="100%" y1="30.0990513%" x2="50%" y2="100%" id="linearGradient-1">
            <stop stop-color="#22DAD4" stop-opacity="0" offset="0%"></stop>
            <stop stop-color="#1EB5AC" offset="100%"></stop>
        </linearGradient>
        <path d="M4.823,43.46 C4.823,43.530667 5.06149762,43.8309974 5.5385,44.361 C6.01550238,44.8910027 6.65149603,45.3768311 7.4465,45.8185 C8.24150398,46.2601689 9.1689947,46.481 10.229,46.481 C11.6776739,46.481 12.7818295,46.0923372 13.5415,45.315 C14.3011705,44.5376628 14.681,43.5660058 14.681,42.4 C14.681,41.4813287 14.3806697,40.7481694 13.78,40.2005 C13.1793303,39.6528306 12.2076734,38.9903372 10.865,38.213 C9.73432768,37.5769968 8.8156702,36.9940026 8.109,36.464 C7.4023298,35.9339973 6.79283589,35.236171 6.2805,34.3705 C5.76816411,33.504829 5.512,32.4536729 5.512,31.217 C5.512,28.8849883 6.20099311,27.0035072 7.579,25.5725 C8.95700689,24.1414928 10.7589889,23.1786691 12.985,22.684 L14.522,15.9 L17.967,15.9 L17.755,22.472 C18.6736713,22.613334 19.5393293,22.8341652 20.352,23.1345 C21.1646707,23.4348348 21.8183309,23.7263319 22.313,24.009 C22.8076691,24.2916681 23.125666,24.468333 23.267,24.539 L22.154,28.09 L20.9615,27.3745 C20.3431636,27.0034981 19.601171,26.6413351 18.7355,26.288 C17.869829,25.9346649 17.0483372,25.758 16.271,25.758 C15.0696607,25.758 14.1245034,26.0671636 13.4355,26.6855 C12.7464966,27.3038364 12.402,28.1076617 12.402,29.097 C12.402,30.0510048 12.7464966,30.8371636 13.4355,31.4555 C14.1245034,32.0738364 15.1756596,32.7716628 16.589,33.549 C17.8256728,34.2556702 18.8238295,34.8828306 19.5835,35.4305 C20.3431705,35.9781694 20.9879974,36.6936622 21.518,37.577 C22.0480027,38.4603378 22.313,39.5203271 22.313,40.757 C22.313,43.1243452 21.5975072,45.1118253 20.1665,46.7195 C18.7354928,48.3271747 16.6420138,49.3429979 13.886,49.767 L12.561,55.65 L9.116,55.65 L9.222,49.873 C7.66732556,49.6963324 6.38650504,49.3341694 5.3795,48.7865 C4.37249496,48.2388306 3.63050239,47.7000027 3.1535,47.17 C2.67649762,46.6399974 2.438,46.3220005 2.438,46.216 L4.823,43.46 Z" id="path-2"></path>
    </defs>
    <g id="Member-center_power-plant_icon02" stroke="none" stroke-width="1" fill="none" fill-rule="evenodd">
        <g id="$">
            <use fill-opacity="0" fill="#1EB5AC" xlink:href="#path-2"></use>
            <use fill="url(#linearGradient-1)" xlink:href="#path-2"></use>
        </g>
    </g>
</svg>