<?xml version="1.0" encoding="UTF-8"?>
<svg width="20px" height="30px" viewBox="0 0 20 30" version="1.1" xmlns="http://www.w3.org/2000/svg" xmlns:xlink="http://www.w3.org/1999/xlink">
    <!-- Generator: Sketch 52.3 (67297) - http://www.bohemiancoding.com/sketch -->
    <title>money_icon</title>
    <desc>Created with Sketch.</desc>
    <g id="money_icon" stroke="none" stroke-width="1" fill="none" fill-rule="evenodd">
        <path d="M14.42464,18.63968 C14.42464,19.7605389 14.1010166,20.6998362 13.45376,21.4576 C12.8065034,22.2153638 11.9066724,22.6889591 10.75424,22.8784 L10.75424,25.29376 L9.07296,25.29376 L9.07296,22.94944 C8.33098296,22.8705063 7.5969103,22.6692283 6.87072,22.3456 C6.1445297,22.0219717 5.5209626,21.6154691 5,21.12608 L6.08928,19.49216 C7.32064616,20.5025117 8.51252757,21.00768 9.66496,21.00768 C10.470084,21.00768 11.0778646,20.8142953 11.48832,20.42752 C11.8987754,20.0407447 12.104,19.5000568 12.104,18.80544 C12.104,18.3002641 11.9737613,17.8661351 11.71328,17.50304 C11.4527987,17.1399449 11.1331219,16.8360546 10.75424,16.59136 C10.3753581,16.3466654 9.84651006,16.0506684 9.16768,15.70336 C8.40991621,15.3244781 7.79029574,14.9692817 7.3088,14.63776 C6.82730426,14.3062383 6.42080166,13.8800026 6.08928,13.35904 C5.75775834,12.8380774 5.592,12.206617 5.592,11.46464 C5.592,10.3911413 5.90773018,9.48736367 6.5392,8.75328 C7.17066982,8.01919633 8.01524804,7.5653342 9.07296,7.39168 L9.07296,5 L10.75424,5 L10.75424,7.368 C11.4646436,7.44693373 12.0882106,7.64031846 12.62496,7.94816 C13.1617094,8.25600154 13.6747709,8.6703974 14.16416,9.19136 L12.90912,10.58848 C12.4355176,10.1306644 11.9934954,9.79914769 11.58304,9.59392 C11.1725846,9.38869231 10.6832028,9.28608 10.11488,9.28608 C9.43604994,9.28608 8.89930864,9.47157148 8.50464,9.84256 C8.10997136,10.2135485 7.91264,10.7147702 7.91264,11.34624 C7.91264,11.7724821 8.03103882,12.1434651 8.26784,12.4592 C8.50464118,12.7749349 8.80063822,13.0393589 9.15584,13.25248 C9.51104178,13.4656011 9.99647692,13.7221318 10.61216,14.02208 C11.417284,14.4167486 12.0763708,14.783785 12.58944,15.1232 C13.1025092,15.462615 13.5366382,15.9204238 13.89184,16.49664 C14.2470418,17.0728562 14.42464,17.7871957 14.42464,18.63968 Z" id="$-copy" fill="#fff"></path>
    </g>
</svg>