<?xml version="1.0" encoding="UTF-8"?>
<svg width="113px" height="140px" viewBox="0 0 113 140" version="1.1" xmlns="http://www.w3.org/2000/svg" xmlns:xlink="http://www.w3.org/1999/xlink">
    <!-- Generator: Sketch 52.3 (67297) - http://www.bohemiancoding.com/sketch -->
    <title>rent_icon04</title>
    <desc>Created with Sketch.</desc>
    <defs>
        <linearGradient x1="50%" y1="0%" x2="50%" y2="100%" id="linearGradient-1">
            <stop stop-color="#33CBC6" offset="0%"></stop>
            <stop stop-color="#33BFE5" offset="100%"></stop>
        </linearGradient>
        <linearGradient x1="55.8875%" y1="-3.17463743%" x2="4.19479167%" y2="95.6146409%" id="linearGradient-2">
            <stop stop-color="#F7E9AC" offset="0%"></stop>
            <stop stop-color="#FBF6D2" offset="100%"></stop>
        </linearGradient>
        <linearGradient x1="50%" y1="0%" x2="50%" y2="79.3652344%" id="linearGradient-3">
            <stop stop-color="#FFFFFF" stop-opacity="0" offset="0%"></stop>
            <stop stop-color="#FFFFFF" offset="100%"></stop>
        </linearGradient>
        <linearGradient x1="57.7205357%" y1="72.2709821%" x2="11.3388393%" y2="0%" id="linearGradient-4">
            <stop stop-color="#F7E9AC" offset="0%"></stop>
            <stop stop-color="#FBF6D2" offset="100%"></stop>
        </linearGradient>
    </defs>
    <g id="rent_icon04" stroke="none" stroke-width="1" fill="none" fill-rule="evenodd">
        <g id="Group-14">
            <path d="M109.300247,106.129081 L109.300247,97.6330808 L101.863247,97.6330808 L101.590247,96.4790808 C101.503247,96.1230808 99.3072465,87.5900808 88.4142465,82.4910808 L87.7792465,82.1940808 L87.6002465,81.5170808 C87.5172465,81.2010808 85.9782465,75.1650808 88.9572465,70.8430808 C85.9732465,71.2040808 81.7542465,72.6300808 78.8302465,77.4150808 L78.0082465,78.7600808 L76.7042465,77.8720808 C76.6192465,77.8140808 68.0462465,72.0460808 55.6052465,69.8070808 C39.0292465,66.8210808 23.7782465,71.1860808 10.2772465,82.7720808 L10.1602465,82.8610808 C9.39524651,83.3970808 8.10124651,83.8130808 6.97324651,83.2260808 C6.79724651,83.1350808 6.63524651,83.0250808 6.48724651,82.8980808 C6.64724651,83.7550808 7.05724651,84.4420808 7.71124651,84.9420808 L9.00624651,85.9320808 L7.91424651,87.1380808 C7.45224651,87.6520808 -3.11475349,99.7720808 8.03724651,116.034081 L8.20924651,116.369081 L15.6002465,136.633081 L26.3002465,136.633081 L26.3002465,126.826081 L28.0762465,127.158081 C28.2342465,127.189081 43.9502465,130.063081 57.7162465,126.920081 L58.8072465,126.672081 L64.4262465,136.633081 L75.0502465,136.633081 L75.0502465,124.675081 L76.5092465,124.634081 C76.7752465,124.626081 103.069247,123.688081 109.300247,106.129081 Z M104.152247,94.6330808 L112.300247,94.6330808 L112.300247,106.632081 L112.219247,106.868081 C109.404247,115.098081 102.312247,121.301081 91.7082465,124.807081 C85.8702465,126.737081 80.5342465,127.355081 78.0502465,127.547081 L78.0502465,139.633081 L62.6742465,139.633081 L57.2872465,130.083081 C45.8402465,132.439081 33.7672465,131.063081 29.3002465,130.398081 L29.3002465,139.633081 L13.5002465,139.633081 L5.45524651,117.573081 C-4.87675349,102.351081 2.15824651,89.9810808 4.80324651,86.2680808 C2.86524651,83.8460808 3.26624651,80.5000808 4.14724651,78.6060808 C5.02924651,76.7070808 6.16224651,76.6480808 6.76224651,76.7770808 C7.46424651,76.9330808 8.30024651,77.5110808 8.30024651,79.3830808 C8.30024651,79.9060808 8.35124651,80.2330808 8.40024651,80.4260808 C8.40324651,80.4240808 8.40624651,80.4220808 8.41024651,80.4200808 C38.7162465,54.4930808 70.3972465,70.6520808 77.1052465,74.5960808 C83.1542465,66.2430808 92.6452465,67.8310808 93.0652465,67.9060808 L97.2792465,68.6630808 L93.5152465,70.7020808 C89.4732465,72.8910808 90.0312465,78.2420808 90.3642465,80.1010808 C99.7952465,84.7690808 103.155247,91.8610808 104.152247,94.6330808 Z M28.5697465,75.2120808 C29.2507465,74.9820808 45.4877465,69.6250808 65.2077465,75.1900808 L64.3927465,78.0760808 C45.5557465,72.7650808 29.6897465,78.0020808 29.5307465,78.0540808 L28.5697465,75.2120808 Z M90.0498465,95.8825808 L90.0498465,90.1325808 L93.0498465,90.1325808 L93.0498465,95.8825808 L90.0498465,95.8825808 Z" id="Combined-Shape" fill="url(#linearGradient-1)"></path>
            <g id="Group-10" transform="translate(45.860387, 28.132159) rotate(-7.000000) translate(-45.860387, -28.132159) translate(20.860387, 3.132159)">
                <g id="Group-5" opacity="0.594935826" transform="translate(24.937434, 24.919179) rotate(-35.000000) translate(-24.937434, -24.919179) translate(7.437434, 7.419179)" fill="url(#linearGradient-2)">
                    <path d="M17.4935251,32.7898347 C25.9035429,32.7898347 32.7457473,25.9476303 32.7457473,17.5376125 C32.7457473,9.12759471 25.9035429,2.28539027 17.4935251,2.28539027 C9.08350731,2.28539027 2.24130286,9.12759471 2.24130286,17.5376125 C2.24130286,25.9476303 9.08350731,32.7898347 17.4935251,32.7898347 Z M17.4935251,0.750575455 C26.7499932,0.750575455 34.2805621,8.28114434 34.2805621,17.5376125 C34.2805621,26.7940806 26.7499932,34.3246495 17.4935251,34.3246495 C8.23705693,34.3246495 0.706488046,26.7940806 0.706488046,17.5376125 C0.706488046,8.28114434 8.23705693,0.750575455 17.4935251,0.750575455 Z M18.4104572,12.1637186 C17.6247408,12.1637186 17.1923381,12.6426698 17.1923381,13.2807709 C17.1923381,14.9968875 21.0817453,15.6357393 21.0817453,18.7879586 C21.0817453,20.9792729 19.6152717,22.5842848 17.2876884,22.8838169 L16.8781993,24.8942107 L14.8344496,24.8942107 L15.2417212,22.7742137 C14.1455618,22.4941999 13.0782292,21.8591017 12.2799472,20.9034514 L14.2061721,18.9876468 C14.7945355,19.7466117 15.6209052,20.3847128 16.5633214,20.3847128 C17.5064768,20.3847128 17.9780545,19.9455491 17.9780545,19.1865842 C17.9780545,17.2722809 14.0879081,16.6326784 14.0879081,13.6403596 C14.0879081,11.4880822 15.5743387,9.9191042 17.8398335,9.66236235 L18.2131042,7.65346998 L20.2568539,7.65346998 L19.853278,9.82076157 C20.7439538,10.0992739 21.548149,10.6525451 22.2614287,11.4850793 L20.296768,13.2807709 C19.7852762,12.6021316 19.0779097,12.1637186 18.4104572,12.1637186 Z" id="Combined-Shape"></path>
                </g>
                <rect id="Rectangle" fill="url(#linearGradient-3)" fill-rule="nonzero" x="3.62962963" y="24.5" width="42.6481481" height="18.1481481"></rect>
            </g>
            <g id="Group-5" transform="translate(25.000000, 34.000000)">
                <circle id="Oval" fill="#FFFFFF" fill-rule="nonzero" cx="19.5" cy="20.5" r="18.5"></circle>
                <path d="M19.8863636,37.9545455 C29.8490909,37.9545455 37.9545455,29.8490909 37.9545455,19.8863636 C37.9545455,9.92363636 29.8490909,1.81818182 19.8863636,1.81818182 C9.92363636,1.81818182 1.81818182,9.92363636 1.81818182,19.8863636 C1.81818182,29.8490909 9.92363636,37.9545455 19.8863636,37.9545455 Z M19.8863636,-1.24344979e-13 C30.8518182,-1.24344979e-13 39.7727273,8.92090909 39.7727273,19.8863636 C39.7727273,30.8518182 30.8518182,39.7727273 19.8863636,39.7727273 C8.92090909,39.7727273 -3.30757643e-12,30.8518182 -3.30757643e-12,19.8863636 C-3.30757643e-12,8.92090909 8.92090909,-1.24344979e-13 19.8863636,-1.24344979e-13 Z M21.2242727,13.6931818 C20.2579091,13.6931818 19.7260909,14.2731818 19.7260909,15.0459091 C19.7260909,17.1240909 24.5097273,17.8977273 24.5097273,21.715 C24.5097273,24.3686364 22.7060909,26.3122727 19.8433636,26.675 L19.3397273,29.1095455 L16.8260909,29.1095455 L17.327,26.5422727 C15.9788182,26.2031818 14.6660909,25.4340909 13.6842727,24.2768182 L16.0533636,21.9568182 C16.777,22.8759091 17.7933636,23.6486364 18.9524545,23.6486364 C20.1124545,23.6486364 20.6924545,23.1168182 20.6924545,22.1977273 C20.6924545,19.8795455 15.9079091,19.105 15.9079091,15.4813636 C15.9079091,12.875 17.7360909,10.975 20.5224545,10.6640909 L20.9815455,8.23136364 L23.4951818,8.23136364 L22.9988182,10.8559091 C24.0942727,11.1931818 25.0833636,11.8631818 25.9606364,12.8713636 L23.5442727,15.0459091 C22.9151818,14.2240909 22.0451818,13.6931818 21.2242727,13.6931818 Z" id="Combined-Shape" fill="url(#linearGradient-4)"></path>
            </g>
        </g>
    </g>
</svg>