<?xml version="1.0" encoding="UTF-8"?>
<svg width="18px" height="11px" viewBox="0 0 18 11" version="1.1" xmlns="http://www.w3.org/2000/svg" xmlns:xlink="http://www.w3.org/1999/xlink">
    <!-- Generator: Sketch 52.3 (67297) - http://www.bohemiancoding.com/sketch -->
    <title>s_noeye_icon</title>
    <desc>Created with Sketch.</desc>
    <defs>
        <path d="M0,3.89407627 C2.20760527,1.29802542 4.9036977,2.16828619e-16 8.0882773,0 C11.2728569,0 14.1700911,1.16947546 16.7799799,3.50842638 C14.3509205,5.63351793 11.5542572,6.6960637 8.38998996,6.6960637 C5.22572271,6.6960637 2.42905939,5.76206789 0,3.89407627 Z" id="path-1"></path>
    </defs>
    <g id="s_noeye_icon" stroke="none" stroke-width="1" fill="none" fill-rule="evenodd">
        <g id="Group-8">
            <g id="Oval" transform="translate(0.000000, 2.000000)">
                <mask id="mask-2" fill="white">
                    <use xlink:href="#path-1"></use>
                </mask>
                <g id="Mask" fill-rule="nonzero"></g>
                <ellipse stroke="#979797" fill-rule="nonzero" mask="url(#mask-2)" cx="9.453125" cy="2.23076923" rx="3.453125" ry="3.23076923"></ellipse>
            </g>
            <path d="M1,6.07082953 C3.23655152,3.35694318 5.96799528,2 9.19433127,2 C12.4206673,2 15.3558902,3.2225583 18,5.66767489 C15.5390906,7.88922496 12.7057573,9 9.5,9 C6.29424269,9 3.46090936,8.02360984 1,6.07082953 Z" id="Path-20" stroke="#979797" fill-rule="nonzero"></path>
            <path d="M15.5,0.5 L2.5,10.5" id="Line" stroke="#979797" stroke-linecap="square" fill-rule="nonzero"></path>
        </g>
    </g>
</svg>