<?xml version="1.0" encoding="UTF-8"?>
<svg width="13px" height="17px" viewBox="0 0 13 17" version="1.1" xmlns="http://www.w3.org/2000/svg" xmlns:xlink="http://www.w3.org/1999/xlink">
    <!-- Generator: Sketch 52.3 (67297) - http://www.bohemiancoding.com/sketch -->
    <title>s_paper_icon g</title>
    <desc>Created with Sketch.</desc>
    <g id="s_paper_icon-g" stroke="none" stroke-width="1" fill="none" fill-rule="evenodd">
        <g id="Group-7" fill="#1C8886">
            <path d="M8.5,4.25 L8.5,2.25067857 L10.4993214,4.25 L8.5,4.25 Z M8.5,5.46428571 L11.5357143,5.46428571 L11.5357143,15.7857143 L1.21428571,15.7857143 L1.21428571,1.21428571 L7.28571429,1.21428571 L7.28571429,4.25 C7.28571429,4.91967857 7.83032143,5.46428571 8.5,5.46428571 Z M12.4197143,4.44246429 C12.3851071,4.41332143 12.3468571,4.38053571 12.3055714,4.33864286 L8.41135714,0.444428571 C8.37007143,0.40375 8.33728571,0.3655 8.30814286,0.330892857 C8.14664286,0.143285714 7.99060714,0 7.58928571,0 L1.21428571,0 C0.544607143,0 0,0.544607143 0,1.21428571 L0,15.7857143 C0,16.4553929 0.544607143,17 1.21428571,17 L11.5357143,17 C12.2053929,17 12.75,16.4553929 12.75,15.7857143 L12.75,5.16071429 C12.75,4.75514286 12.6073214,4.60153571 12.4197143,4.44246429 Z" id="Fill-1"></path>
            <polygon id="Fill-3" points="2.77221429 7.57046429 9.996 7.57046429 9.996 6.35617857 2.77221429 6.35617857"></polygon>
            <polygon id="Fill-5" points="2.77221429 10.3724286 9.996 10.3724286 9.996 9.15814286 2.77221429 9.15814286"></polygon>
            <polygon id="Fill-6" points="2.77221429 13.1743929 9.996 13.1743929 9.996 11.9601071 2.77221429 11.9601071"></polygon>
        </g>
    </g>
</svg>