<?xml version="1.0" encoding="UTF-8"?>
<svg width="134px" height="81px" viewBox="0 0 134 81" version="1.1" xmlns="http://www.w3.org/2000/svg" xmlns:xlink="http://www.w3.org/1999/xlink">
    <!-- Generator: Sketch 52.3 (67297) - http://www.bohemiancoding.com/sketch -->
    <title> s_register_images_ID</title>
    <desc>Created with Sketch.</desc>
    <g id="-s_register_images_ID" stroke="none" stroke-width="1" fill="none" fill-rule="evenodd">
        <g id="Group-11" transform="translate(1.000000, 1.000000)">
            <rect id="Rectangle-15" stroke="#A0A0A0" stroke-width="0.605" opacity="0.5" x="0.3025" y="0.3025" width="131.527" height="78.166" rx="3.388"></rect>
            <path d="M76.050436,12.3649295 C74.09065,12.3649295 72.5019295,13.95365 72.5019295,15.913436 L72.5019295,62.010564 C72.5019295,63.97035 74.09065,65.5590705 76.050436,65.5590705 L120.453564,65.5590705 C122.41335,65.5590705 124.002071,63.97035 124.002071,62.010564 L124.002071,15.913436 C124.002071,13.95365 122.41335,12.3649295 120.453564,12.3649295 L76.050436,12.3649295 Z" id="Rectangle-60" stroke="#D8D8D8" stroke-width="1.013859" opacity="0.5"></path>
            <circle id="Oval-9" fill="#D8D8D8" cx="98.252" cy="30.492" r="6.776"></circle>
            <path d="M111.804,52.514 C111.804,45.4972223 106.115778,39.809 99.099,39.809 C92.0822223,39.809 86.394,45.4972223 86.394,52.514 C93.3482505,52.514 101.836034,52.514 111.804,52.514 Z" id="Oval-2" fill="#D8D8D8"></path>
            <text id="身分證" font-family="PingFangTC-Regular, PingFang TC" font-size="11.858" font-weight="normal" fill="#A0A0A0">
                <tspan x="18.634" y="29.94">身分證</tspan>
            </text>
            <polygon id="Rectangle-2" fill="#D8D8D8" points="9.317 42.35 62.678 42.35 62.678 44.891 9.317 44.891"></polygon>
            <polygon id="Rectangle-2-Copy" fill="#D8D8D8" points="9.317 48.279 62.678 48.279 62.678 50.82 9.317 50.82"></polygon>
            <polygon id="Rectangle-2-Copy-2" fill="#D8D8D8" points="9.317 54.208 62.678 54.208 62.678 56.749 9.317 56.749"></polygon>
            <polygon id="Rectangle-2-Copy-3" fill="#D8D8D8" points="9.317 60.984 62.678 60.984 62.678 63.525 9.317 63.525"></polygon>
        </g>
    </g>
</svg>