<?xml version="1.0" encoding="UTF-8"?>
<svg width="259px" height="76px" viewBox="0 0 259 76" version="1.1" xmlns="http://www.w3.org/2000/svg" xmlns:xlink="http://www.w3.org/1999/xlink">
    <!-- Generator: Sketch 52.3 (67297) - http://www.bohemiancoding.com/sketch -->
    <title>title_font_NEWS</title>
    <desc>Created with Sketch.</desc>
    <defs>
        <linearGradient x1="55.8875%" y1="100%" x2="55.8875%" y2="-25.6361607%" id="linearGradient-1">
            <stop stop-color="#FFFFFF" stop-opacity="0" offset="0%"></stop>
            <stop stop-color="#FFFFFF" offset="100%"></stop>
        </linearGradient>
        <path d="M0.6,74 L0.6,2.2 L2.2,2.2 L49.9,57.2 L49.9,2.2 L57,2.2 L57,74 L55.4,74 L8,19.7 L8,74 L0.6,74 Z M74.6,2.2 L115.8,2.2 L115.8,9.3 L81.8,9.3 L81.8,31.7 L115.5,31.7 L115.5,38.7 L81.8,38.7 L81.8,66.9 L115.5,66.9 L115.5,74 L74.6,74 L74.6,2.2 Z M124.1,2.2 L131.5,2.2 L146.1,55.7 L166.7,2.2 L168.1,2.2 L188.5,55.7 L203.4,2.2 L210.7,2.2 L190.1,75.8 L188.7,75.8 L167.4,19.7 L145.7,75.8 L144.4,75.8 L124.1,2.2 Z M216.7,60.6 L222.8,57 C227.066688,64.866706 232.033305,68.8 237.7,68.8 C241.366685,68.8 244.499987,67.633345 247.1,65.3 C249.700013,62.966655 251,60.066684 251,56.6 C251,53.866653 249.900011,51.100014 247.7,48.3 C245.499989,45.499986 241.850026,42.1833525 236.75,38.35 C231.649975,34.5166475 228.216676,31.6500095 226.45,29.75 C224.683325,27.8499905 223.383338,25.8166775 222.55,23.65 C221.716663,21.4833225 221.3,19.300011 221.3,17.1 C221.3,12.43331 222.949984,8.4833495 226.25,5.25 C229.550017,2.0166505 233.699975,0.4 238.7,0.4 C242.633353,0.4 246.066652,1.3833235 249,3.35 C251.933348,5.3166765 254.766653,8.233314 257.5,12.1 L251.7,16.6 C249.833324,14.066654 247.90001,11.966675 245.9,10.3 C243.89999,8.633325 241.450015,7.8 238.55,7.8 C235.649986,7.8 233.283343,8.666658 231.45,10.4 C229.616658,12.133342 228.7,14.33332 228.7,17 C228.7,19.66668 229.516659,21.9833235 231.15,23.95 C232.783342,25.9166765 236.483305,29.033312 242.25,33.3 C248.016696,37.566688 252.216654,41.499982 254.85,45.1 C257.483347,48.700018 258.8,52.49998 258.8,56.5 C258.8,61.700026 256.783354,66.2166475 252.75,70.05 C248.716647,73.8833525 244.03336,75.8 238.7,75.8 C229.299953,75.8 221.966693,70.733384 216.7,60.6 Z" id="path-2"></path>
    </defs>
    <g id="title_font_NEWS" stroke="none" stroke-width="1" fill="none" fill-rule="evenodd">
        <g id="NEWS">
            <use fill-opacity="0" fill="#FFFFFF" xlink:href="#path-2"></use>
            <use fill="url(#linearGradient-1)" xlink:href="#path-2"></use>
        </g>
    </g>
</svg>