<?xml version="1.0" encoding="UTF-8"?>
<svg width="932px" height="77px" viewBox="0 0 932 77" version="1.1" xmlns="http://www.w3.org/2000/svg" xmlns:xlink="http://www.w3.org/1999/xlink">
    <!-- Generator: Sketch 52.3 (67297) - http://www.bohemiancoding.com/sketch -->
    <title>title_font_OPERATION MODEL</title>
    <desc>Created with Sketch.</desc>
    <defs>
        <linearGradient x1="55.8875%" y1="100%" x2="55.8875%" y2="-45.1339286%" id="linearGradient-1">
            <stop stop-color="#FFFFFF" stop-opacity="0" offset="0%"></stop>
            <stop stop-color="#FFFFFF" offset="100%"></stop>
        </linearGradient>
        <path d="M0.85,39.4 C0.85,32.466632 2.51665,26.066696 5.85,20.2 C9.18335,14.333304 13.749971,9.73335 19.55,6.4 C25.350029,3.06665 31.6666325,1.4 38.5,1.4 C45.3333675,1.4 51.6999705,3.0499835 57.6,6.35 C63.5000295,9.6500165 68.1333165,14.2166375 71.5,20.05 C74.8666835,25.8833625 76.55,32.2166325 76.55,39.05 C76.55,45.8833675 74.88335,52.2166375 71.55,58.05 C68.21665,63.8833625 63.6333625,68.46665 57.8,71.8 C51.9666375,75.13335 45.6333675,76.8 38.8,76.8 C31.9666325,76.8 25.616696,75.1500165 19.75,71.85 C13.883304,68.5499835 9.2666835,64.000029 5.9,58.2 C2.5333165,52.399971 0.85,46.133367 0.85,39.4 Z M69.05,39.1 C69.05,30.499957 66.0666965,23.233363 60.1,17.3 C54.1333035,11.366637 46.950042,8.4 38.55,8.4 C29.949957,8.4 22.7666955,11.3833035 17,17.35 C11.2333045,23.3166965 8.35,30.5832905 8.35,39.15 C8.35,47.7167095 11.316637,54.966637 17.25,60.9 C23.183363,66.833363 30.349958,69.8 38.75,69.8 C47.150042,69.8 54.2999705,66.900029 60.2,61.1 C66.1000295,55.299971 69.05,47.966711 69.05,39.1 Z M90.85,3.2 L105.15,3.2 C113.616709,3.2 119.149987,3.53333 121.75,4.2 C124.350013,4.86667 126.733322,6.033325 128.9,7.7 C131.066677,9.366675 132.749994,11.4499875 133.95,13.95 C135.150006,16.4500125 135.75,19.233318 135.75,22.3 C135.75,27.233358 134.41668,31.266651 131.75,34.4 C129.08332,37.533349 125.733353,39.5166625 121.7,40.35 C117.666646,41.1833375 111.483375,41.6 103.15,41.6 L98.05,41.6 L98.05,75 L90.85,75 L90.85,3.2 Z M98.05,10.2 L98.05,34.7 L110.15,34.7 C117.416703,34.833334 122.249988,33.6500125 124.65,31.15 C127.050012,28.6499875 128.25,25.700017 128.25,22.3 C128.25,14.233293 122.416725,10.2 110.75,10.2 L98.05,10.2 Z M150.15,3.2 L191.35,3.2 L191.35,10.3 L157.35,10.3 L157.35,32.7 L191.05,32.7 L191.05,39.7 L157.35,39.7 L157.35,67.9 L191.05,67.9 L191.05,75 L150.15,75 L150.15,3.2 Z M204.05,3.2 L218.35,3.2 C226.35004,3.2 231.816652,3.5499965 234.75,4.25 C237.683348,4.9500035 240.199989,6.099992 242.3,7.7 C244.40001,9.300008 246.049994,11.366654 247.25,13.9 C248.450006,16.433346 249.05,19.233318 249.05,22.3 C249.05,28.433364 246.883355,33.2499825 242.55,36.75 C238.216645,40.2500175 232.083373,41.866668 224.15,41.6 L250.05,75 L241.15,75 L215.35,41.6 L211.25,41.6 L211.25,75 L204.05,75 L204.05,3.2 Z M211.25,10.2 L211.25,34.6 L223.65,34.6 C229.783364,34.666667 234.299985,33.7166765 237.2,31.75 C240.100014,29.7833235 241.55,26.666688 241.55,22.4 C241.55,18.133312 240.116681,15.033343 237.25,13.1 C234.383319,11.166657 229.95003,10.2 223.95,10.2 L211.25,10.2 Z M293.75,0.3 L327.25,75 L319.55,75 L308.25,50.5 L277.25,50.5 L266.05,75 L258.05,75 L291.95,0.3 L293.75,0.3 Z M292.85,16.2 L280.55,43.2 L305.05,43.2 L292.85,16.2 Z M331.25,10.2 L331.25,3.2 L370.65,3.2 L370.65,10.2 L354.65,10.2 L354.65,75 L347.35,75 L347.35,10.2 L331.25,10.2 Z M379.95,3.2 L387.15,3.2 L387.15,75 L379.95,75 L379.95,3.2 Z M400.45,39.4 C400.45,32.466632 402.11665,26.066696 405.45,20.2 C408.78335,14.333304 413.349971,9.73335 419.15,6.4 C424.950029,3.06665 431.266632,1.4 438.1,1.4 C444.933367,1.4 451.29997,3.0499835 457.2,6.35 C463.100029,9.6500165 467.733316,14.2166375 471.1,20.05 C474.466683,25.8833625 476.15,32.2166325 476.15,39.05 C476.15,45.8833675 474.48335,52.2166375 471.15,58.05 C467.81665,63.8833625 463.233363,68.46665 457.4,71.8 C451.566638,75.13335 445.233367,76.8 438.4,76.8 C431.566633,76.8 425.216696,75.1500165 419.35,71.85 C413.483304,68.5499835 408.866683,64.000029 405.5,58.2 C402.133316,52.399971 400.45,46.133367 400.45,39.4 Z M468.65,39.1 C468.65,30.499957 465.666697,23.233363 459.7,17.3 C453.733303,11.366637 446.550042,8.4 438.15,8.4 C429.549957,8.4 422.366695,11.3833035 416.6,17.35 C410.833304,23.3166965 407.95,30.5832905 407.95,39.15 C407.95,47.7167095 410.916637,54.966637 416.85,60.9 C422.783363,66.833363 429.949958,69.8 438.35,69.8 C446.750042,69.8 453.89997,66.900029 459.8,61.1 C465.700029,55.299971 468.65,47.966711 468.65,39.1 Z M490.55,75 L490.55,3.2 L492.15,3.2 L539.85,58.2 L539.85,3.2 L546.95,3.2 L546.95,75 L545.35,75 L497.95,20.7 L497.95,75 L490.55,75 Z M586.25,75 L596.45,3.2 L597.55,3.2 L626.75,62.1 L655.75,3.2 L656.85,3.2 L667.15,75 L660.05,75 L653.05,23.6 L627.65,75 L625.85,75 L600.15,23.2 L593.15,75 L586.25,75 Z M678.25,39.4 C678.25,32.466632 679.91665,26.066696 683.25,20.2 C686.58335,14.333304 691.149971,9.73335 696.95,6.4 C702.750029,3.06665 709.066632,1.4 715.9,1.4 C722.733367,1.4 729.09997,3.0499835 735,6.35 C740.90003,9.6500165 745.533316,14.2166375 748.9,20.05 C752.266683,25.8833625 753.95,32.2166325 753.95,39.05 C753.95,45.8833675 752.28335,52.2166375 748.95,58.05 C745.61665,63.8833625 741.033362,68.46665 735.2,71.8 C729.366637,75.13335 723.033367,76.8 716.2,76.8 C709.366632,76.8 703.016696,75.1500165 697.15,71.85 C691.283304,68.5499835 686.666683,64.000029 683.3,58.2 C679.933317,52.399971 678.25,46.133367 678.25,39.4 Z M746.45,39.1 C746.45,30.499957 743.466696,23.233363 737.5,17.3 C731.533303,11.366637 724.350042,8.4 715.95,8.4 C707.349957,8.4 700.166695,11.3833035 694.4,17.35 C688.633304,23.3166965 685.75,30.5832905 685.75,39.15 C685.75,47.7167095 688.716637,54.966637 694.65,60.9 C700.583363,66.833363 707.749958,69.8 716.15,69.8 C724.550042,69.8 731.699971,66.900029 737.6,61.1 C743.500029,55.299971 746.45,47.966711 746.45,39.1 Z M768.25,75 L768.25,3.2 L783.15,3.2 C793.350051,3.2 800.83331,3.9499925 805.6,5.45 C810.366691,6.9500075 814.483316,9.3166505 817.95,12.55 C821.416684,15.7833495 824.083324,19.73331 825.95,24.4 C827.816676,29.06669 828.75,34.5166355 828.75,40.75 C828.75,46.9833645 827.300015,52.8499725 824.4,58.35 C821.499985,63.8500275 817.566691,67.999986 812.6,70.8 C807.633308,73.600014 800.48338,75 791.15,75 L768.25,75 Z M775.15,68.2 L783.45,68.2 C792.11671,68.2 798.39998,67.766671 802.3,66.9 C806.20002,66.033329 809.616652,64.3166795 812.55,61.75 C815.483348,59.1833205 817.716659,56.066685 819.25,52.4 C820.783341,48.733315 821.55,44.533357 821.55,39.8 C821.55,35.066643 820.666676,30.70002 818.9,26.7 C817.133325,22.69998 814.616683,19.400013 811.35,16.8 C808.083317,14.199987 804.233356,12.4500045 799.8,11.55 C795.366644,10.6499955 788.850043,10.2 780.25,10.2 L775.15,10.2 L775.15,68.2 Z M842.75,3.2 L883.95,3.2 L883.95,10.3 L849.95,10.3 L849.95,32.7 L883.65,32.7 L883.65,39.7 L849.95,39.7 L849.95,67.9 L883.65,67.9 L883.65,75 L842.75,75 L842.75,3.2 Z M896.25,3.2 L903.55,3.2 L903.55,68.1 L931.15,68.1 L931.15,75 L896.25,75 L896.25,3.2 Z" id="path-2"></path>
    </defs>
    <g id="title_font_OPERATION-MODEL" stroke="none" stroke-width="1" fill="none" fill-rule="evenodd">
        <g id="OPERATION-MODEL">
            <use fill-opacity="0" fill="#FFFFFF" xlink:href="#path-2"></use>
            <use fill="url(#linearGradient-1)" xlink:href="#path-2"></use>
        </g>
    </g>
</svg>