<?xml version="1.0" encoding="UTF-8"?>
<svg width="731px" height="77px" viewBox="0 0 731 77" version="1.1" xmlns="http://www.w3.org/2000/svg" xmlns:xlink="http://www.w3.org/1999/xlink">
    <!-- Generator: Sketch 52.3 (67297) - http://www.bohemiancoding.com/sketch -->
    <title>title_font_ABOUT MARKET</title>
    <desc>Created with Sketch.</desc>
    <defs>
        <linearGradient x1="50%" y1="76.6629464%" x2="50%" y2="-28.1696429%" id="linearGradient-1">
            <stop stop-color="#EEEEEE" offset="0%"></stop>
            <stop stop-color="#D8D8D8" offset="100%"></stop>
        </linearGradient>
        <path d="M36.45,0.3 L69.95,75 L62.25,75 L50.95,50.5 L19.95,50.5 L8.75,75 L0.75,75 L34.65,0.3 L36.45,0.3 Z M35.55,16.2 L23.25,43.2 L47.75,43.2 L35.55,16.2 Z M81.25,3.2 L95.45,3.2 C102.983371,3.2 108.699981,4.7166515 112.6,7.75 C116.50002,10.7833485 118.45,15.133305 118.45,20.8 C118.45,23.933349 117.666675,26.8166535 116.1,29.45 C114.533326,32.0833465 112.250015,34.199992 109.25,35.8 C114.183358,37.400008 117.933321,39.799984 120.5,43 C123.06668,46.200016 124.35,49.999978 124.35,54.4 C124.35,60.333363 122.183355,65.2499805 117.85,69.15 C113.516645,73.0500195 107.916701,75 101.05,75 L81.25,75 L81.25,3.2 Z M88.35,10.2 L88.35,33.2 L92.45,33.2 C98.716698,33.2 103.383318,32.20001 106.45,30.2 C109.516682,28.19999 111.05,25.066688 111.05,20.8 C111.05,13.733298 106.250048,10.2 96.65,10.2 L88.35,10.2 Z M88.35,40.4 L88.35,68 L97.25,68 C102.383359,68 106.166655,67.4833385 108.6,66.45 C111.033346,65.4166615 113.016659,63.8166775 114.55,61.65 C116.083341,59.4833225 116.85,57.266678 116.85,55 C116.85,52.733322 116.416671,50.733342 115.55,49 C114.683329,47.266658 113.400009,45.73334 111.7,44.4 C109.999992,43.06666 107.966679,42.06667 105.6,41.4 C103.233322,40.73333 98.816699,40.4 92.35,40.4 L88.35,40.4 Z M135.35,39.4 C135.35,32.466632 137.01665,26.066696 140.35,20.2 C143.68335,14.333304 148.249971,9.73335 154.05,6.4 C159.850029,3.06665 166.166633,1.4 173,1.4 C179.833368,1.4 186.199971,3.0499835 192.1,6.35 C198.00003,9.6500165 202.633317,14.2166375 206,20.05 C209.366684,25.8833625 211.05,32.2166325 211.05,39.05 C211.05,45.8833675 209.38335,52.2166375 206.05,58.05 C202.71665,63.8833625 198.133363,68.46665 192.3,71.8 C186.466638,75.13335 180.133368,76.8 173.3,76.8 C166.466633,76.8 160.116696,75.1500165 154.25,71.85 C148.383304,68.5499835 143.766684,64.000029 140.4,58.2 C137.033317,52.399971 135.35,46.133367 135.35,39.4 Z M203.55,39.1 C203.55,30.499957 200.566697,23.233363 194.6,17.3 C188.633304,11.366637 181.450042,8.4 173.05,8.4 C164.449957,8.4 157.266696,11.3833035 151.5,17.35 C145.733305,23.3166965 142.85,30.5832905 142.85,39.15 C142.85,47.7167095 145.816637,54.966637 151.75,60.9 C157.683363,66.833363 164.849958,69.8 173.25,69.8 C181.650042,69.8 188.799971,66.900029 194.7,61.1 C200.60003,55.299971 203.55,47.966711 203.55,39.1 Z M225.65,3.2 L232.85,3.2 L232.85,46.5 C232.85,50.966689 232.966666,54.333322 233.2,56.6 C233.433335,58.866678 234.233327,61.0499895 235.6,63.15 C236.966674,65.2500105 238.883321,66.9166605 241.35,68.15 C243.816679,69.3833395 246.466653,70 249.3,70 C252.133348,70 254.616656,69.4833385 256.75,68.45 C258.883344,67.4166615 260.683326,65.966676 262.15,64.1 C263.616674,62.233324 264.633331,60.1833445 265.2,57.95 C265.76667,55.7166555 266.05,51.900027 266.05,46.5 L266.05,3.2 L273.15,3.2 L273.15,46.5 C273.15,53.766703 272.416674,59.333314 270.95,63.2 C269.483326,67.066686 266.900019,70.299987 263.2,72.9 C259.499982,75.500013 255.150025,76.8 250.15,76.8 C246.14998,76.8 242.550016,76.1500065 239.35,74.85 C236.149984,73.5499935 233.483344,71.733345 231.35,69.4 C229.216656,67.066655 227.733338,64.466681 226.9,61.6 C226.066663,58.733319 225.65,53.700036 225.65,46.5 L225.65,3.2 Z M283.75,10.2 L283.75,3.2 L323.15,3.2 L323.15,10.2 L307.15,10.2 L307.15,75 L299.85,75 L299.85,10.2 L283.75,10.2 Z M355.25,75 L365.45,3.2 L366.55,3.2 L395.75,62.1 L424.75,3.2 L425.85,3.2 L436.15,75 L429.05,75 L422.05,23.6 L396.65,75 L394.85,75 L369.15,23.2 L362.15,75 L355.25,75 Z M479.75,0.3 L513.25,75 L505.55,75 L494.25,50.5 L463.25,50.5 L452.05,75 L444.05,75 L477.95,0.3 L479.75,0.3 Z M478.85,16.2 L466.55,43.2 L491.05,43.2 L478.85,16.2 Z M524.75,3.2 L539.05,3.2 C547.05004,3.2 552.516652,3.5499965 555.45,4.25 C558.383348,4.9500035 560.89999,6.099992 563,7.7 C565.100011,9.300008 566.749994,11.366654 567.95,13.9 C569.150006,16.433346 569.75,19.233318 569.75,22.3 C569.75,28.433364 567.583355,33.2499825 563.25,36.75 C558.916645,40.2500175 552.783373,41.866668 544.85,41.6 L570.75,75 L561.85,75 L536.05,41.6 L531.95,41.6 L531.95,75 L524.75,75 L524.75,3.2 Z M531.95,10.2 L531.95,34.6 L544.35,34.6 C550.483364,34.666667 554.999986,33.7166765 557.9,31.75 C560.800015,29.7833235 562.25,26.666688 562.25,22.4 C562.25,18.133312 560.816681,15.033343 557.95,13.1 C555.083319,11.166657 550.65003,10.2 544.65,10.2 L531.95,10.2 Z M585.05,3.2 L592.45,3.2 L592.45,30.1 L621.05,3.2 L630.75,3.2 L596.25,35.4 L633.45,75 L623.95,75 L592.45,41.5 L592.45,75 L585.05,75 L585.05,3.2 Z M644.25,3.2 L685.45,3.2 L685.45,10.3 L651.45,10.3 L651.45,32.7 L685.15,32.7 L685.15,39.7 L651.45,39.7 L651.45,67.9 L685.15,67.9 L685.15,75 L644.25,75 L644.25,3.2 Z M690.65,10.2 L690.65,3.2 L730.05,3.2 L730.05,10.2 L714.05,10.2 L714.05,75 L706.75,75 L706.75,10.2 L690.65,10.2 Z" id="path-2"></path>
    </defs>
    <g id="title_font_ABOUT-MARKET" stroke="none" stroke-width="1" fill="none" fill-rule="evenodd">
        <g id="ABOUT-MARKET">
            <use fill-opacity="0" fill="#000000" xlink:href="#path-2"></use>
            <use fill="url(#linearGradient-1)" xlink:href="#path-2"></use>
        </g>
    </g>
</svg>