<?xml version="1.0" encoding="UTF-8"?>
<svg width="557px" height="77px" viewBox="0 0 557 77" version="1.1" xmlns="http://www.w3.org/2000/svg" xmlns:xlink="http://www.w3.org/1999/xlink">
    <!-- Generator: Sketch 52.3 (67297) - http://www.bohemiancoding.com/sketch -->
    <title>title_font_CALCULATE</title>
    <desc>Created with Sketch.</desc>
    <defs>
        <linearGradient x1="55.8875%" y1="122.790179%" x2="55.8875%" y2="0%" id="linearGradient-1">
            <stop stop-color="#FFFFFF" stop-opacity="0" offset="0%"></stop>
            <stop stop-color="#FFFFFF" offset="100%"></stop>
        </linearGradient>
        <path d="M70.75,16.5 L65.15,20.8 C58.4833,12.533292 49.916719,8.4 39.45,8.4 C30.916624,8.4 23.5666975,11.39997 17.4,17.4 C11.2333025,23.40003 8.15,30.7499565 8.15,39.45 C8.15,48.1500435 11.1666365,55.4166375 17.2,61.25 C23.2333635,67.0833625 30.783288,70 39.85,70 C49.983384,70 58.416633,66.066706 65.15,58.2 L70.75,62.5 C67.216649,67.16669 62.750027,70.7166545 57.35,73.15 C51.949973,75.5833455 45.983366,76.8 39.45,76.8 C28.049943,76.8 18.716703,73.200036 11.45,66 C4.183297,58.799964 0.55,49.700055 0.55,38.7 C0.55,31.899966 2.2333165,25.6166955 5.6,19.85 C8.9666835,14.0833045 13.6333035,9.566683 19.6,6.3 C25.5666965,3.033317 31.983299,1.4 38.85,1.4 C45.716701,1.4 51.883306,2.699987 57.35,5.3 C62.816694,7.900013 67.283316,11.633309 70.75,16.5 Z M114.55,0.3 L148.05,75 L140.35,75 L129.05,50.5 L98.05,50.5 L86.85,75 L78.85,75 L112.75,0.3 L114.55,0.3 Z M113.65,16.2 L101.35,43.2 L125.85,43.2 L113.65,16.2 Z M159.15,3.2 L166.45,3.2 L166.45,68.1 L194.05,68.1 L194.05,75 L159.15,75 L159.15,3.2 Z M272.25,16.5 L266.65,20.8 C259.9833,12.533292 251.416719,8.4 240.95,8.4 C232.416624,8.4 225.066698,11.39997 218.9,17.4 C212.733303,23.40003 209.65,30.7499565 209.65,39.45 C209.65,48.1500435 212.666637,55.4166375 218.7,61.25 C224.733364,67.0833625 232.283288,70 241.35,70 C251.483384,70 259.916633,66.066706 266.65,58.2 L272.25,62.5 C268.716649,67.16669 264.250027,70.7166545 258.85,73.15 C253.449973,75.5833455 247.483366,76.8 240.95,76.8 C229.549943,76.8 220.216703,73.200036 212.95,66 C205.683297,58.799964 202.05,49.700055 202.05,38.7 C202.05,31.899966 203.733317,25.6166955 207.1,19.85 C210.466684,14.0833045 215.133304,9.566683 221.1,6.3 C227.066697,3.033317 233.483299,1.4 240.35,1.4 C247.216701,1.4 253.383306,2.699987 258.85,5.3 C264.316694,7.900013 268.783316,11.633309 272.25,16.5 Z M286.95,3.2 L294.15,3.2 L294.15,46.5 C294.15,50.966689 294.266666,54.333322 294.5,56.6 C294.733335,58.866678 295.533327,61.0499895 296.9,63.15 C298.266674,65.2500105 300.183321,66.9166605 302.65,68.15 C305.116679,69.3833395 307.766653,70 310.6,70 C313.433348,70 315.916656,69.4833385 318.05,68.45 C320.183344,67.4166615 321.983326,65.966676 323.45,64.1 C324.916674,62.233324 325.933331,60.1833445 326.5,57.95 C327.06667,55.7166555 327.35,51.900027 327.35,46.5 L327.35,3.2 L334.45,3.2 L334.45,46.5 C334.45,53.766703 333.716674,59.333314 332.25,63.2 C330.783326,67.066686 328.200019,70.299987 324.5,72.9 C320.799982,75.500013 316.450025,76.8 311.45,76.8 C307.44998,76.8 303.850016,76.1500065 300.65,74.85 C297.449984,73.5499935 294.783344,71.733345 292.65,69.4 C290.516656,67.066655 289.033338,64.466681 288.2,61.6 C287.366663,58.733319 286.95,53.700036 286.95,46.5 L286.95,3.2 Z M352.15,3.2 L359.45,3.2 L359.45,68.1 L387.05,68.1 L387.05,75 L352.15,75 L352.15,3.2 Z M427.75,0.3 L461.25,75 L453.55,75 L442.25,50.5 L411.25,50.5 L400.05,75 L392.05,75 L425.95,0.3 L427.75,0.3 Z M426.85,16.2 L414.55,43.2 L439.05,43.2 L426.85,16.2 Z M465.25,10.2 L465.25,3.2 L504.65,3.2 L504.65,10.2 L488.65,10.2 L488.65,75 L481.35,75 L481.35,10.2 L465.25,10.2 Z M515.05,3.2 L556.25,3.2 L556.25,10.3 L522.25,10.3 L522.25,32.7 L555.95,32.7 L555.95,39.7 L522.25,39.7 L522.25,67.9 L555.95,67.9 L555.95,75 L515.05,75 L515.05,3.2 Z" id="path-2"></path>
    </defs>
    <g id="title_font_CALCULATE" stroke="none" stroke-width="1" fill="none" fill-rule="evenodd">
        <g id="CALCULATE">
            <use fill-opacity="0" fill="#FFFFFF" xlink:href="#path-2"></use>
            <use fill="url(#linearGradient-1)" xlink:href="#path-2"></use>
        </g>
    </g>
</svg>